<svg width="219" height="203" viewBox="0 0 219 203" fill="none" xmlns="http://www.w3.org/2000/svg">
<path d="M86.4964 171.29L83.032 183.685L90.3419 185.728L91.4601 182.396C91.7839 181.386 92.1313 180.403 92.5022 179.448C92.8538 178.487 93.2513 177.622 93.6946 176.853C94.1134 176.098 94.5784 175.511 95.0897 175.094C95.5957 174.695 96.1484 174.538 96.7477 174.622L98.6941 175.571C98.1024 175.385 97.552 175.46 97.043 175.795C96.5285 176.15 96.055 176.692 95.6224 177.423C95.1898 178.153 94.7853 179.006 94.4091 179.981C94.0274 180.975 93.6597 181.993 93.3058 183.037L91.6903 188.036L80.48 184.903L84.445 170.717L86.4964 171.29ZM100.856 170.288L99.3298 175.749L81.8497 170.863L83.376 165.403L85.3118 165.944L84.2862 169.613L97.8947 173.417L98.9202 169.747L100.856 170.288Z" fill="#FFF"/>
<path d="M70.5251 162.369L68.7842 165.382L68.577 165.92L65.6656 170.96C64.9953 172.12 64.8091 173.202 65.107 174.206C65.3876 175.199 66.1687 176.066 67.4502 176.807C68.3334 177.317 69.2583 177.655 70.225 177.821C71.1917 177.987 72.0922 177.987 72.9265 177.822L72.9624 179.679C71.9295 179.868 70.8382 179.838 69.6883 179.589C68.5284 179.358 67.4116 178.932 66.3379 178.312C64.5715 177.292 63.4672 176.065 63.0249 174.631C62.5554 173.205 62.8358 171.6 63.8663 169.816L68.7586 161.348L70.5251 162.369ZM75.3019 164.955C76.3236 165.545 77.1204 166.225 77.6923 166.994C78.2369 167.771 78.5383 168.569 78.5964 169.387C78.6445 170.224 78.4435 171.031 77.9933 171.811C77.5831 172.521 77.0484 173.066 76.3892 173.448C75.7027 173.837 74.8784 173.984 73.9163 173.89C72.9269 173.804 71.7828 173.385 70.484 172.635L65.7822 169.919L66.5776 168.542L71.2274 171.228C72.5436 171.988 73.5965 172.285 74.3861 172.117C75.1585 171.94 75.7447 171.505 76.1449 170.812C76.5951 170.033 76.6522 169.234 76.3162 168.417C75.9802 167.599 75.2667 166.875 74.1757 166.245C73.1367 165.644 72.1097 165.363 71.0949 165.4C70.0528 165.445 69.0985 165.817 68.2319 166.518L68.5516 165.005C69.4182 164.304 70.4395 163.936 71.6155 163.899C72.7743 163.853 74.003 164.205 75.3019 164.955Z" fill="#FFF"/>
<path d="M65.9563 159.686L64.5685 160.888C64.4825 160.776 64.4106 160.663 64.3529 160.551C64.2669 160.438 64.1882 160.347 64.1167 160.277C63.6596 159.829 63.1273 159.644 62.52 159.721C61.8983 159.784 61.2361 160.031 60.5334 160.462C59.8307 160.894 59.1008 161.439 58.3438 162.097C57.5728 162.77 56.8089 163.449 56.0522 164.136L51.9332 167.954L43.6832 159.87L54.706 148.621L56.2274 150.111L46.0654 160.483L46.1206 159.655L52.2492 165.659L51.423 165.774L54.7858 162.685C55.7804 161.755 56.7688 160.904 57.7509 160.13C58.7188 159.342 59.6459 158.725 60.5323 158.277C61.4045 157.816 62.2224 157.581 62.986 157.573C63.7356 157.58 64.4105 157.877 65.0105 158.465C65.1819 158.633 65.3465 158.822 65.5042 159.033C65.6476 159.229 65.7983 159.447 65.9563 159.686Z" fill="#FFF"/>
<path d="M48.072 138.399C48.9212 139.802 49.3759 141.21 49.4363 142.623C49.4795 144.047 49.169 145.368 48.5048 146.589C47.8236 147.819 46.8157 148.838 45.4811 149.646C44.1465 150.454 42.795 150.886 41.4267 150.943C40.048 150.982 38.7674 150.682 37.585 150.042C36.3752 149.395 35.3923 148.447 34.6363 147.198C33.8699 145.932 33.4825 144.635 33.474 143.307C33.438 141.973 33.7709 140.708 34.4729 139.512C35.1578 138.326 36.1761 137.324 37.5278 136.506C37.6133 136.454 37.7126 136.405 37.8256 136.36C37.9112 136.309 38.0053 136.252 38.1079 136.189L45.2069 147.918L43.8466 148.742L37.338 137.988L38.3119 138.38C37.3366 138.971 36.602 139.708 36.108 140.591C35.5866 141.468 35.3295 142.395 35.3367 143.372C35.3439 144.35 35.6323 145.309 36.2019 146.25C36.7611 147.174 37.4772 147.874 38.3503 148.351C39.2233 148.828 40.1691 149.039 41.1876 148.983C42.2061 148.928 43.2115 148.6 44.2039 147.999L44.4862 147.829C45.5128 147.207 46.2851 146.436 46.8029 145.515C47.2932 144.587 47.5175 143.586 47.4756 142.513C47.4063 141.432 47.0557 140.37 46.424 139.327C45.927 138.505 45.3207 137.832 44.6052 137.307C43.8794 136.764 43.0617 136.417 42.1522 136.266L42.7114 134.525C43.7925 134.689 44.7957 135.111 45.721 135.79C46.6359 136.452 47.4196 137.322 48.072 138.399Z" fill="#FFF"/>
<path d="M43.0919 129.357L28.0129 133.905L27.3978 131.866L39.3749 128.253L24.3571 121.784L23.8113 119.975L38.8903 115.427L39.5054 117.466L27.4996 121.087L42.5375 127.519L43.0919 129.357ZM23.7682 127.728C24.1494 128.991 24.1424 130.111 23.7473 131.087C23.3273 132.049 22.5199 132.731 21.3252 133.133L20.8833 131.669C21.6435 131.419 22.1658 130.969 22.4503 130.319C22.7347 129.669 22.7528 128.932 22.5044 128.109C22.2561 127.286 21.8338 126.682 21.2374 126.298C20.6353 125.894 19.9484 125.799 19.1767 126.01L18.7349 124.546C19.947 124.201 20.9969 124.323 21.8848 124.912C22.7534 125.506 23.3813 126.445 23.7682 127.728Z" fill="#FFF"/>
<path d="M35.7605 99.6236L20.0416 98.6347L20.7423 87.4967L22.5987 87.6135L21.9978 97.1646L21.4927 96.5918L35.8943 97.4978L35.7605 99.6236Z" fill="#FFF"/>
<path d="M40.6239 74.4474L37.3142 73.372L36.7443 73.2814L31.2091 71.483C29.9347 71.0689 28.8377 71.112 27.9181 71.6123C27.0046 72.0936 26.3193 73.038 25.8619 74.4456C25.5467 75.4157 25.4086 76.3907 25.4477 77.3708C25.4868 78.3508 25.6737 79.2317 26.0085 80.0134L24.1997 80.4351C23.8002 79.4641 23.6023 78.3904 23.606 77.214C23.5907 76.0314 23.7747 74.8504 24.1578 73.6711C24.7882 71.7309 25.7584 70.3954 27.0684 69.6644C28.3656 68.9082 29.9937 68.8484 31.9529 69.485L41.2543 72.5072L40.6239 74.4474ZM39.0886 79.658C38.7239 80.7802 38.2249 81.7011 37.5916 82.4206C36.9454 83.1149 36.2279 83.5757 35.439 83.8031C34.6311 84.0242 33.7992 83.9958 32.9433 83.7177C32.1634 83.4643 31.5183 83.0549 31.0081 82.4895C30.485 81.899 30.1692 81.1234 30.0607 80.1629C29.9393 79.1772 30.1104 77.971 30.574 76.5444L32.2519 71.3802L33.7641 71.8715L32.1047 76.9787C31.635 78.4243 31.5642 79.5158 31.8924 80.2534C32.2267 80.9718 32.7743 81.4547 33.5351 81.7019C34.3911 81.98 35.184 81.8696 35.9139 81.3708C36.6438 80.8719 37.2034 80.0233 37.5928 78.825C37.9636 77.6837 38.0251 76.6207 37.7773 75.6359C37.5166 74.6259 36.9535 73.77 36.088 73.0682L37.6344 73.066C38.4999 73.7678 39.073 74.69 39.3536 75.8326C39.6404 76.9563 39.5521 78.2314 39.0886 79.658Z" fill="#FFF"/>
<path d="M47.9166 60.9009C47.1879 62.0492 46.2671 62.9216 45.1542 63.5181C44.0244 64.104 42.7845 64.3594 41.4346 64.2843C40.0784 64.1817 38.6743 63.6696 37.222 62.748C35.7698 61.8264 34.717 60.7792 34.0636 59.6066C33.3933 58.4232 33.0911 57.201 33.1571 55.9401C33.223 54.6791 33.6257 53.466 34.3651 52.3009C35.1689 51.0344 36.1739 50.0851 37.3804 49.4532C38.5806 48.7936 39.878 48.5037 41.2724 48.5832C42.65 48.6521 44.0058 49.1098 45.3398 49.9564C46.6907 50.8137 47.6906 51.851 48.3394 53.0681C48.9883 54.2852 49.2782 55.5826 49.2094 56.9601C49.1513 58.3208 48.7203 59.6344 47.9166 60.9009ZM48.3477 70.8034L30.1355 59.2456L31.2286 57.5232L35.2307 60.063L37.7778 61.9282L40.6235 63.3788L49.489 69.005L48.3477 70.8034ZM46.2404 60.0148C46.8406 59.0692 47.1653 58.0909 47.2147 57.08C47.2471 56.0583 47.0143 55.0815 46.5162 54.1495C46.0011 53.2068 45.2286 52.4085 44.1985 51.7548C43.1684 51.1011 42.1257 50.7473 41.0702 50.6934C40.0148 50.6395 39.0318 50.8447 38.1213 51.3091C37.2107 51.7735 36.4553 52.4785 35.8552 53.4241C35.2551 54.3698 34.9334 55.3619 34.8902 56.4004C34.8577 57.422 35.0906 58.3989 35.5887 59.3309C36.0976 60.246 36.8671 61.0304 37.8972 61.6841C38.9272 62.3378 39.9731 62.7054 41.0346 62.787C42.0901 62.8409 43.0731 62.6356 43.9836 62.1713C44.888 61.6793 45.6403 60.9605 46.2404 60.0148Z" fill="#FFF"/>
<path d="M58.1483 48.46L48.2498 37.9191L49.0336 37.965L44.288 42.4214L43.0148 41.0655L53.2713 31.4339L54.5446 32.7898L49.799 37.2462L49.8025 36.461L59.701 47.0019L58.1483 48.46Z" fill="#FFF"/>
<path d="M76.7196 35.5101L75.0431 32.4606L74.6897 32.0045L71.8859 26.9043C71.2403 25.7301 70.4111 25.0106 69.3982 24.7458C68.4029 24.4713 67.2568 24.6906 65.9598 25.4036C65.066 25.895 64.2979 26.5112 63.6555 27.2524C63.0131 27.9936 62.5464 28.7637 62.2553 29.5627L60.6481 28.6319C61.0215 27.6506 61.6123 26.7324 62.4203 25.8774C63.2187 25.0048 64.1612 24.2699 65.2478 23.6725C67.0355 22.6897 68.657 22.3803 70.1123 22.7442C71.5755 23.0809 72.8033 24.1519 73.7957 25.9571L78.5073 34.5274L76.7196 35.5101ZM72.0335 38.2575C70.9995 38.826 70.0054 39.1557 69.0512 39.2466C68.1048 39.3104 67.2663 39.1552 66.5356 38.7809C65.7953 38.3891 65.2083 37.7988 64.7748 37.0102C64.3797 36.2916 64.1897 35.5516 64.2048 34.7902C64.2277 34.0016 64.5284 33.22 65.1068 32.4456C65.6932 31.6439 66.6436 30.8818 67.958 30.1592L72.7164 27.5433L73.4824 28.9366L68.7766 31.5236C67.4446 32.2559 66.6458 33.0031 66.3802 33.7654C66.1321 34.518 66.2007 35.2449 66.5861 35.9459C67.0197 36.7346 67.6733 37.1969 68.5468 37.3329C69.4204 37.4689 70.4092 37.2333 71.5134 36.6263C72.5649 36.0482 73.3375 35.3154 73.8309 34.4279C74.3323 33.5132 74.5078 32.5039 74.3572 31.3998L75.4861 32.4567C75.6366 33.5608 75.423 34.6254 74.8454 35.6504C74.2853 36.6658 73.348 37.5349 72.0335 38.2575Z" fill="#FFF"/>
<path d="M83.3545 32.5149L79.4377 17.2597L81.5008 16.73L84.6119 28.8469L91.6999 14.1113L93.5306 13.6412L97.4474 28.8964L95.3844 29.4261L92.2658 17.2801L85.2142 32.0374L83.3545 32.5149ZM85.7864 13.2757C84.5078 13.6039 83.3894 13.5504 82.431 13.1151C81.487 12.6554 80.839 11.8203 80.4869 10.6098L81.9688 10.2293C82.1872 10.9992 82.615 11.5398 83.2525 11.8511C83.8899 12.1623 84.6251 12.211 85.4581 11.9971C86.2911 11.7833 86.9119 11.3864 87.3205 10.8066C87.7485 10.2218 87.8727 9.53942 87.6932 8.75958L89.1751 8.37909C89.4691 9.60448 89.3035 10.6485 88.6784 11.511C88.0483 12.3542 87.0843 12.9424 85.7864 13.2757Z" fill="#FFF"/>
<path d="M129.935 30.8461L133.136 18.3804L125.784 16.4929L124.737 19.8478C124.435 20.8646 124.108 21.8545 123.758 22.8176C123.427 23.7857 123.047 24.6588 122.621 25.4371C122.218 26.201 121.765 26.7972 121.263 27.2257C120.766 27.6349 120.216 27.8036 119.615 27.7318L117.649 26.8244C118.245 26.9979 118.794 26.9117 119.295 26.5656C119.802 26.2002 120.264 25.6477 120.681 24.9082C121.098 24.1686 121.484 23.3076 121.84 22.3252C122.2 21.3234 122.546 20.2972 122.878 19.2467L124.387 14.2138L135.661 17.1086L131.998 31.3758L129.935 30.8461ZM115.6 32.1521L117.01 26.6603L134.59 31.174L133.18 36.6658L131.233 36.166L132.18 32.4757L118.494 28.9617L117.547 32.652L115.6 32.1521Z" fill="#FFF"/>
<path d="M146.092 39.4267L147.769 36.3772L147.964 35.8343L150.768 30.7342C151.414 29.56 151.577 28.4743 151.258 27.4772C150.956 26.4898 150.157 25.6396 148.86 24.9266C147.966 24.4352 147.034 24.1168 146.064 23.9716C145.094 23.8263 144.194 23.8449 143.363 24.0273L143.288 22.1715C144.317 21.961 145.409 21.9678 146.563 22.1919C147.728 22.3985 148.854 22.8004 149.94 23.3978C151.728 24.3806 152.858 25.5838 153.33 27.0076C153.83 28.4235 153.584 30.034 152.591 31.8392L147.88 40.4095L146.092 39.4267ZM141.262 36.9422C140.228 36.3738 139.417 35.7111 138.828 34.9541C138.267 34.1893 137.949 33.3981 137.874 32.5806C137.808 31.7456 137.992 30.9338 138.425 30.1451C138.82 29.4265 139.343 28.8696 139.994 28.4743C140.672 28.0711 141.493 27.9062 142.457 27.9796C143.448 28.0452 144.601 28.4392 145.915 29.1619L150.674 31.7778L149.908 33.1711L145.202 30.5841C143.87 29.8518 142.811 29.5778 142.025 29.7619C141.257 29.9557 140.68 30.4031 140.294 31.1042C139.861 31.8929 139.821 32.6924 140.174 33.5029C140.527 34.3133 141.256 35.022 142.36 35.629C143.412 36.2071 144.444 36.4667 145.458 36.4078C146.499 36.341 147.445 35.9483 148.297 35.2297L148.009 36.7491C147.158 37.4677 146.144 37.8578 144.969 37.9194C143.812 37.9906 142.576 37.6649 141.262 36.9422Z" fill="#FFF"/>
<path d="M150.717 42.012L152.079 40.7807C152.167 40.8911 152.241 41.002 152.302 41.1133C152.39 41.2237 152.471 41.3131 152.543 41.3816C153.01 41.8197 153.546 41.9938 154.152 41.9041C154.772 41.828 155.429 41.5668 156.122 41.1205C156.815 40.6743 157.534 40.114 158.276 39.4398C159.033 38.751 159.782 38.0554 160.524 37.3529L164.561 33.4483L172.981 41.3548L162.199 52.836L160.647 51.3779L170.586 40.7933L170.549 41.6222L164.294 35.7488L165.118 35.6168L161.821 38.7766C160.846 39.7269 159.876 40.5993 158.911 41.3937C157.96 42.2018 157.046 42.8389 156.169 43.3051C155.307 43.7849 154.495 44.0369 153.731 44.0609C152.982 44.0703 152.301 43.7875 151.688 43.2124C151.513 43.0482 151.345 42.8624 151.183 42.6553C151.035 42.4618 150.88 42.2474 150.717 42.012Z" fill="#FFF"/>
<path d="M169.049 62.914C168.17 61.5293 167.685 60.1313 167.595 58.72C167.522 57.2979 167.804 55.9699 168.442 54.7359C169.097 53.4911 170.083 52.4508 171.4 51.6149C172.718 50.7791 174.06 50.3182 175.426 50.2325C176.804 50.1637 178.091 50.4368 179.286 51.0518C180.51 51.673 181.512 52.6 182.295 53.8327C183.088 55.0823 183.503 56.3706 183.539 57.6975C183.604 59.0306 183.298 60.3026 182.621 61.5135C181.962 62.7138 180.965 63.7372 179.631 64.5838C179.546 64.6374 179.448 64.6879 179.336 64.7353C179.252 64.7889 179.159 64.8478 179.057 64.9121L171.711 53.3364L173.054 52.4844L179.789 63.0976L178.807 62.726C179.77 62.1151 180.488 61.3629 180.963 60.4692C181.466 59.5817 181.704 58.6493 181.676 57.6722C181.648 56.695 181.339 55.7421 180.75 54.8133C180.171 53.9014 179.44 53.2164 178.557 52.7582C177.674 52.3 176.724 52.1093 175.707 52.1863C174.69 52.2633 173.692 52.6125 172.712 53.2341L172.434 53.4109C171.42 54.0539 170.665 54.8414 170.167 55.7734C169.696 56.7116 169.493 57.7169 169.558 58.7892C169.65 59.8676 170.023 60.9219 170.677 61.952C171.191 62.7625 171.811 63.4229 172.538 63.9331C173.275 64.4601 174.1 64.7894 175.012 64.9209L174.49 66.6736C173.406 66.5326 172.394 66.1325 171.455 65.4733C170.526 64.831 169.724 63.9779 169.049 62.914Z" fill="#FFF"/>
<path d="M174.22 71.8488L189.199 66.9818L189.857 69.0075L177.959 72.8733L193.111 79.0222L193.695 80.8197L178.716 85.6867L178.058 83.6609L189.984 79.7859L174.813 73.6748L174.22 71.8488ZM193.573 73.0678C193.166 71.8124 193.149 70.6928 193.523 69.709C193.923 68.738 194.715 68.0388 195.901 67.6114L196.374 69.0665C195.619 69.3327 195.107 69.7937 194.836 70.4494C194.566 71.1051 194.563 71.842 194.829 72.6599C195.095 73.4778 195.53 74.0724 196.134 74.4439C196.745 74.8343 197.433 74.9154 198.2 74.6872L198.673 76.1424C197.469 76.5127 196.416 76.413 195.516 75.8433C194.635 75.2674 193.988 74.3422 193.573 73.0678Z" fill="#FFF"/>
<path d="M179.057 101.518L194.78 102.438L194.147 113.58L192.29 113.471L192.833 103.917L193.341 104.487L178.936 103.645L179.057 101.518Z" fill="#FFF"/>
<path d="M174.203 127.67L177.517 128.734L178.087 128.822L183.628 130.601C184.904 131.011 186 130.963 186.915 130.459C187.824 129.974 188.503 129.026 188.95 127.615C189.259 126.643 189.39 125.666 189.345 124.685C189.299 123.704 189.106 122.823 188.767 122.042L190.571 121.613C190.977 122.584 191.181 123.658 191.185 124.835C191.209 126.019 191.033 127.202 190.658 128.384C190.041 130.328 189.08 131.669 187.777 132.406C186.486 133.167 184.86 133.234 182.898 132.604L173.586 129.614L174.203 127.67ZM175.702 122.448C176.059 121.323 176.552 120.4 177.18 119.677C177.821 118.98 178.534 118.516 179.321 118.285C180.126 118.061 180.958 118.086 181.815 118.361C182.595 118.612 183.242 119.019 183.756 119.583C184.282 120.172 184.603 120.947 184.718 121.908C184.846 122.894 184.683 124.102 184.229 125.532L182.587 130.708L181.073 130.222L182.697 125.103C183.157 123.655 183.22 122.562 182.887 121.825C182.549 121.107 181.998 120.625 181.237 120.381C180.38 120.106 179.588 120.219 178.863 120.722C178.137 121.224 177.583 122.075 177.202 123.276C176.839 124.42 176.785 125.484 177.039 126.469C177.306 127.479 177.874 128.334 178.744 129.033L177.199 129.041C176.33 128.342 175.751 127.421 175.463 126.278C175.169 125.155 175.249 123.878 175.702 122.448Z" fill="#FFF"/>
<path d="M167.207 140.763C167.927 139.609 168.84 138.731 169.947 138.128C171.071 137.537 172.307 137.275 173.655 137.345C175.009 137.442 176.413 137.949 177.868 138.866C179.324 139.783 180.381 140.828 181.04 142C181.716 143.183 182.025 144.406 181.967 145.67C181.909 146.934 181.515 148.151 180.784 149.321C179.99 150.594 178.993 151.549 177.793 152.188C176.599 152.854 175.306 153.15 173.914 153.076C172.538 153.013 171.183 152.56 169.846 151.718C168.492 150.864 167.488 149.829 166.833 148.613C166.178 147.396 165.881 146.097 165.941 144.717C165.99 143.353 166.412 142.035 167.207 140.763ZM166.715 130.842L184.962 142.345L183.882 144.075L179.872 141.548L177.319 139.69L174.47 138.249L165.587 132.649L166.715 130.842ZM168.885 141.643C168.292 142.593 167.974 143.575 167.931 144.588C167.905 145.612 168.143 146.59 168.646 147.521C169.166 148.464 169.942 149.26 170.974 149.911C172.006 150.561 173.049 150.911 174.102 150.961C175.156 151.01 176.136 150.8 177.042 150.331C177.948 149.862 178.697 149.152 179.29 148.202C179.883 147.252 180.198 146.257 180.235 145.216C180.261 144.192 180.023 143.215 179.52 142.283C179.006 141.368 178.233 140.585 177.201 139.935C176.169 139.284 175.123 138.92 174.063 138.843C173.01 138.794 172.03 139.004 171.124 139.473C170.224 139.97 169.478 140.693 168.885 141.643Z" fill="#FFF"/>
<path d="M157.129 153.255L167.06 163.765L166.277 163.723L170.99 159.232L172.268 160.584L162.082 170.291L160.805 168.939L165.517 164.448L165.518 165.234L155.587 154.724L157.129 153.255Z" fill="#FFF"/>
<path d="M138.285 166.559L139.972 169.603L140.327 170.057L143.15 175.147C143.8 176.319 144.631 177.034 145.644 177.293C146.639 177.562 147.783 177.336 149.075 176.614C149.965 176.116 150.73 175.495 151.368 174.749C152.006 174.003 152.469 173.229 152.756 172.427L154.366 173.349C153.997 174.334 153.411 175.257 152.608 176.118C151.814 176.997 150.876 177.738 149.794 178.343C148.013 179.338 146.395 179.657 144.94 179.302C143.477 178.973 142.246 177.909 141.247 176.107L136.504 167.554L138.285 166.559ZM142.952 163.78C143.983 163.205 144.974 162.869 145.926 162.772C146.871 162.702 147.709 162.853 148.441 163.223C149.182 163.611 149.771 164.198 150.207 164.985C150.605 165.702 150.798 166.442 150.786 167.205C150.767 167.994 150.47 168.779 149.896 169.558C149.314 170.364 148.368 171.133 147.058 171.864L142.318 174.512L141.547 173.122L146.235 170.503C147.562 169.762 148.356 169.009 148.618 168.244C148.863 167.489 148.791 166.761 148.403 166.062C147.966 165.275 147.312 164.816 146.439 164.685C145.566 164.554 144.579 164.796 143.479 165.41C142.431 165.996 141.663 166.734 141.174 167.626C140.678 168.544 140.507 169.556 140.662 170.661L139.53 169.609C139.375 168.505 139.583 167.438 140.156 166.408C140.711 165.388 141.643 164.512 142.952 163.78Z" fill="#FFF"/>
<path d="M132.665 169.213L136.653 184.45L134.593 184.991L131.425 172.889L124.409 187.669L122.581 188.15L118.593 172.913L120.653 172.371L123.829 184.503L130.808 169.701L132.665 169.213ZM130.325 188.471C131.602 188.135 132.72 188.183 133.68 188.612C134.626 189.067 135.278 189.898 135.636 191.107L134.156 191.496C133.934 190.727 133.504 190.189 132.865 189.882C132.226 189.574 131.491 189.529 130.659 189.748C129.828 189.967 129.209 190.367 128.803 190.95C128.378 191.537 128.257 192.22 128.44 192.999L126.961 193.388C126.661 192.164 126.821 191.119 127.442 190.253C128.068 189.406 129.029 188.812 130.325 188.471Z" fill="#FFF"/>
</svg>
