<svg width="157" height="157" viewBox="0 0 157 157" fill="none" xmlns="http://www.w3.org/2000/svg">
<path d="M79.3976 132.183L79.1997 141.631L72.5052 141.491L72.5285 140.375L78.2693 140.496L77.9386 140.813L78.1199 132.157L79.3976 132.183Z" fill="white"/>
<path d="M60.0344 129.161L59.4729 131.172L59.4329 131.516L58.4939 134.879C58.2777 135.653 58.3311 136.31 58.6541 136.849C58.9656 137.384 59.549 137.771 60.4042 138.01C60.9937 138.175 61.5817 138.233 62.1682 138.185C62.7547 138.137 63.2781 138.003 63.7383 137.782L64.0366 138.856C63.4645 139.12 62.8258 139.266 62.1205 139.293C61.4119 139.332 60.6994 139.251 59.9828 139.051C58.8039 138.722 57.9788 138.174 57.5077 137.407C57.0218 136.648 56.9451 135.674 57.2775 134.483L58.8555 128.831L60.0344 129.161ZM63.1966 129.95C63.8785 130.14 64.4431 130.416 64.8903 130.778C65.3228 131.148 65.6171 131.567 65.7732 132.034C65.9261 132.512 65.9299 133.012 65.7847 133.532C65.6524 134.006 65.4232 134.403 65.0971 134.723C64.7562 135.051 64.2992 135.26 63.7261 135.349C63.1382 135.447 62.4109 135.375 61.544 135.133L58.4061 134.256L58.6626 133.338L61.7659 134.204C62.6443 134.449 63.3005 134.464 63.7343 134.249C64.1566 134.031 64.4323 133.69 64.5614 133.228C64.7066 132.708 64.6205 132.235 64.3031 131.81C63.9857 131.385 63.463 131.071 62.7348 130.868C62.0413 130.674 61.4025 130.664 60.8184 130.837C60.2195 131.019 59.7206 131.378 59.3216 131.914L59.2814 130.987C59.6804 130.451 60.2188 130.084 60.8968 129.887C61.5631 129.687 62.3297 129.708 63.1966 129.95Z" fill="white"/>
<path d="M50.2726 124.32C50.9793 124.728 51.5254 125.258 51.911 125.91C52.2906 126.573 52.4748 127.309 52.4638 128.121C52.4363 128.936 52.1646 129.791 51.6486 130.685C51.1326 131.578 50.5313 132.236 49.8448 132.657C49.1522 133.088 48.4272 133.3 47.6696 133.292C46.912 133.285 46.1747 133.074 45.4576 132.66C44.6782 132.21 44.0839 131.631 43.6748 130.924C43.2492 130.221 43.0428 129.45 43.0554 128.612C43.0621 127.785 43.3024 126.961 43.7764 126.14C44.2564 125.308 44.8531 124.683 45.5664 124.263C46.2798 123.844 47.0502 123.637 47.8778 123.644C48.6949 123.644 49.4932 123.87 50.2726 124.32ZM56.1981 123.813L49.7271 135.021L48.6671 134.409L50.0891 131.946L51.1432 130.372L51.9413 128.63L55.0913 123.174L56.1981 123.813ZM49.7836 125.347C49.2016 125.011 48.607 124.841 47.9997 124.837C47.3865 124.843 46.8067 125.007 46.2605 125.329C45.7083 125.661 45.2492 126.145 44.8832 126.779C44.5172 127.412 44.3313 128.046 44.3255 128.68C44.3197 129.315 44.4674 129.899 44.7687 130.433C45.07 130.967 45.5116 131.402 46.0936 131.738C46.6755 132.074 47.2783 132.242 47.902 132.242C48.5153 132.236 49.095 132.072 49.6412 131.749C50.177 131.421 50.6279 130.94 50.9939 130.307C51.3599 129.673 51.554 129.036 51.5762 128.398C51.582 127.764 51.4343 127.18 51.133 126.646C50.8153 126.116 50.3655 125.683 49.7836 125.347Z" fill="white"/>
<path d="M40.5882 116.981L34.5179 123.179L34.5257 122.708L37.3164 125.441L36.5356 126.239L30.504 120.332L31.2849 119.535L34.0756 122.268L33.6048 122.285L39.6751 116.087L40.5882 116.981Z" fill="white"/>
<path d="M29.9888 102.938L28.2028 104.02L27.9382 104.243L24.9513 106.052C24.2636 106.469 23.8531 106.984 23.7198 107.598C23.5803 108.201 23.7405 108.883 24.2005 109.642C24.5176 110.166 24.9063 110.611 25.3667 110.977C25.8272 111.344 26.3006 111.604 26.7869 111.759L26.2693 112.746C25.6716 112.546 25.1064 112.215 24.5735 111.752C24.0304 111.296 23.5661 110.749 23.1807 110.113C22.5466 109.066 22.3204 108.102 22.5019 107.22C22.6671 106.334 23.2782 105.571 24.3355 104.931L29.3547 101.891L29.9888 102.938ZM31.7535 105.678C32.1203 106.284 32.3429 106.872 32.4214 107.441C32.4834 108.007 32.4114 108.514 32.2054 108.961C31.9891 109.415 31.65 109.781 31.1881 110.061C30.7673 110.316 30.3285 110.449 29.8716 110.459C29.3983 110.465 28.9223 110.304 28.4434 109.977C27.9482 109.645 27.4674 109.095 27.0012 108.325L25.3134 105.538L26.1295 105.044L27.7985 107.8C28.271 108.58 28.739 109.04 29.2026 109.18C29.6601 109.31 30.0941 109.251 30.5046 109.002C30.9665 108.722 31.2273 108.319 31.2868 107.792C31.3464 107.265 31.1804 106.678 30.7887 106.031C30.4158 105.415 29.957 104.971 29.4126 104.697C28.8517 104.42 28.2422 104.34 27.5841 104.458L28.1894 103.755C28.8474 103.637 29.491 103.738 30.12 104.058C30.7428 104.369 31.2873 104.909 31.7535 105.678Z" fill="white"/>
<path d="M27.518 97.4484L18.4713 100.18L18.1019 98.9563L25.2876 96.7868L16.2758 92.9079L15.9481 91.8223L24.9948 89.091L25.3641 90.3144L18.1613 92.4891L27.185 96.3455L27.518 97.4484ZM15.9235 96.474C16.1524 97.2322 16.1484 97.904 15.9115 98.4894C15.6597 99.0669 15.1754 99.4763 14.4586 99.7178L14.1932 98.839C14.6493 98.6888 14.9626 98.4187 15.1332 98.0288C15.3037 97.6388 15.3144 97.1968 15.1653 96.7029C15.0162 96.2089 14.7627 95.8467 14.4048 95.6163C14.0435 95.3744 13.6313 95.3171 13.1683 95.4444L12.903 94.5655C13.6302 94.3585 14.2602 94.4315 14.793 94.7846C15.3143 95.1412 15.6911 95.7043 15.9235 96.474Z" fill="white"/>
<path d="M25.1738 64.372L17.6205 62.7665L16.6737 67.221L18.7112 67.7645C19.3283 67.9202 19.93 68.091 20.5161 68.2769C21.1048 68.4511 21.6377 68.6564 22.115 68.8928C22.583 69.115 22.9518 69.3713 23.2213 69.6617C23.4791 69.9495 23.5941 70.2745 23.5662 70.6367L23.0716 71.8381C23.1606 71.4767 23.0951 71.1499 22.8751 70.8578C22.6433 70.5632 22.3005 70.3001 21.8467 70.0687C21.3928 69.8373 20.867 69.6274 20.2691 69.439C19.6595 69.2481 19.0356 69.0664 18.3975 68.894L15.3426 68.1158L16.7946 61.2844L25.4395 63.1219L25.1738 64.372ZM26.3169 72.9327L22.9892 72.2254L25.2534 61.5734L28.581 62.2807L28.3303 63.4604L26.0943 62.9851L24.3316 71.2778L26.5676 71.7531L26.3169 72.9327Z" fill="white"/>
<path d="M31.3664 50.7682L29.4962 49.8398L29.1658 49.7361L26.038 48.1835C25.3178 47.826 24.6629 47.7554 24.0732 47.9718C23.4888 48.1774 22.9992 48.6779 22.6044 49.4733C22.3323 50.0215 22.1649 50.5881 22.1022 51.1733C22.0394 51.7584 22.0732 52.2977 22.2034 52.791L21.0928 52.8828C20.9408 52.2714 20.9174 51.6167 21.0227 50.9188C21.1173 50.2155 21.33 49.5306 21.6608 48.8642C22.205 47.7679 22.898 47.0602 23.7396 46.7411C24.5758 46.406 25.5475 46.5132 26.6546 47.0628L31.9106 49.6719L31.3664 50.7682ZM29.9984 53.7265C29.6836 54.3607 29.3067 54.8635 28.8677 55.2351C28.4233 55.5905 27.957 55.8012 27.4689 55.867C26.9699 55.9275 26.4786 55.8376 25.9949 55.5975C25.5543 55.3788 25.2072 55.0793 24.9539 54.699C24.6952 54.3026 24.5757 53.8146 24.5955 53.2349C24.6099 52.6392 24.8172 51.9382 25.2173 51.1321L26.666 48.2139L27.5205 48.6381L26.0879 51.524C25.6824 52.3409 25.5447 52.9826 25.6748 53.4491C25.8103 53.9049 26.093 54.2395 26.5229 54.4529C27.0066 54.693 27.4869 54.697 27.9639 54.4649C28.4409 54.2327 28.8474 53.7781 29.1836 53.1009C29.5037 52.456 29.6334 51.8304 29.5726 51.2242C29.5064 50.6019 29.2472 50.0445 28.795 49.5521L29.7131 49.6863C30.1653 50.1787 30.4246 50.7763 30.491 51.4792C30.5628 52.1712 30.3986 52.9203 29.9984 53.7265Z" fill="white"/>
<path d="M33.5334 47.039L32.761 46.2534C32.825 46.1977 32.8896 46.1504 32.9548 46.1116C33.0187 46.0558 33.0703 46.0052 33.1095 45.9598C33.3604 45.6691 33.4514 45.3434 33.3823 44.9826C33.3212 44.6128 33.1481 44.2256 32.8631 43.8211C32.5782 43.4166 32.2243 43.0002 31.8015 42.5718C31.3696 42.1356 30.9337 41.7039 30.494 41.2767L28.0518 38.9547L32.58 33.7087L39.7336 39.8835L38.8985 40.851L32.3036 35.1584L32.8014 35.1601L29.4376 39.0571L29.3378 38.5667L31.3148 40.4635C31.909 41.0239 32.4563 41.5836 32.9568 42.1424C33.4651 42.6921 33.87 43.2239 34.1715 43.7378C34.4809 44.2426 34.6523 44.7235 34.6859 45.1804C34.7103 45.6296 34.5579 46.0449 34.2286 46.4264C34.1345 46.5354 34.0274 46.6411 33.9073 46.7435C33.795 46.8369 33.6704 46.9354 33.5334 47.039Z" fill="white"/>
<path d="M47.5679 33.6459C46.7599 34.2075 45.934 34.533 45.0902 34.6226C44.2396 34.7023 43.4364 34.5664 42.6806 34.2149C41.9179 33.8535 41.2695 33.2886 40.7353 32.52C40.2011 31.7514 39.8912 30.9584 39.8054 30.1412C39.7295 29.3171 39.8609 28.539 40.1996 27.8067C40.5413 27.0578 41.0718 26.4333 41.7911 25.9334C42.5203 25.4266 43.2821 25.1455 44.0766 25.0902C44.8742 25.0181 45.6444 25.1697 46.3873 25.5447C47.1234 25.91 47.762 26.4818 48.303 27.2603C48.3373 27.3095 48.37 27.3671 48.4012 27.4331C48.4355 27.4824 48.4732 27.5366 48.5142 27.5957L41.7595 32.2904L41.215 31.507L47.4081 27.2027L47.21 27.8007C46.8196 27.2391 46.3506 26.8271 45.8029 26.5647C45.2582 26.2856 44.6934 26.1668 44.1083 26.2081C43.5232 26.2494 42.9597 26.4583 42.4177 26.835C41.8856 27.2048 41.4933 27.6602 41.2408 28.201C40.9883 28.7418 40.8979 29.3161 40.9696 29.9239C41.0413 30.5317 41.2758 31.1214 41.673 31.6929L41.786 31.8555C42.1969 32.4467 42.688 32.8799 43.2592 33.1551C43.8335 33.4136 44.4412 33.5101 45.0824 33.4444C45.7266 33.362 46.3492 33.1119 46.9503 32.6941C47.4233 32.3654 47.8035 31.9769 48.0911 31.5286C48.3886 31.0734 48.5652 30.5707 48.6211 30.0203L49.6849 30.2893C49.6277 30.9429 49.4133 31.5596 49.0417 32.1393C48.68 32.7122 48.1887 33.2144 47.5679 33.6459Z" fill="white"/>
<path d="M55.6446 28.8124L52.3506 19.9551L53.5484 19.5096L56.1648 26.5448L59.4702 17.3073L60.5331 16.912L63.8271 25.7694L62.6292 26.2148L60.0066 19.1627L56.7243 28.4108L55.6446 28.8124ZM55.8891 17.1796C55.1467 17.4557 54.476 17.4939 53.8768 17.2942C53.2847 17.0791 52.8456 16.6214 52.5596 15.9212L53.42 15.6012C53.5986 16.0469 53.8878 16.3427 54.2877 16.4884C54.6876 16.6342 55.1293 16.6171 55.613 16.4373C56.0966 16.2574 56.4422 15.9817 56.6497 15.61C56.8684 15.2342 56.8997 14.8193 56.7436 14.3652L57.6041 14.0452C57.8563 14.758 57.823 15.3913 57.5041 15.9452C57.181 16.4879 56.6426 16.8993 55.8891 17.1796Z" fill="white"/>
<path d="M83.6427 24.2961L85.0232 14.9475L91.6474 15.9256L91.4843 17.0297L85.8039 16.1909L86.1718 15.9177L84.907 24.4828L83.6427 24.2961Z" fill="white"/>
<path d="M102.474 29.722L103.283 27.7972L103.366 27.461L104.719 24.2418C105.031 23.5006 105.06 22.8426 104.807 22.2676C104.565 21.6973 104.035 21.2401 103.216 20.896C102.652 20.6588 102.076 20.5273 101.488 20.5015C100.9 20.4756 100.364 20.5432 99.8801 20.7041L99.7188 19.6015C100.319 19.4113 100.971 19.3469 101.675 19.4082C102.382 19.4584 103.079 19.6277 103.765 19.916C104.893 20.3903 105.643 21.0375 106.015 21.8574C106.402 22.6709 106.356 23.6474 105.877 24.7868L103.603 30.1963L102.474 29.722ZM99.4359 28.5425C98.7833 28.2681 98.2577 27.9235 97.8593 27.5087C97.4767 27.0875 97.2372 26.6354 97.1408 26.1523C97.0492 25.6582 97.1079 25.1622 97.3172 24.6644C97.5079 24.2108 97.785 23.8457 98.1487 23.569C98.528 23.2859 99.0076 23.136 99.5873 23.1194C100.183 23.0963 100.895 23.2592 101.725 23.6079L104.728 24.8705L104.359 25.7499L101.389 24.5013C100.548 24.1479 99.8987 24.0508 99.4413 24.21C98.9949 24.3738 98.6787 24.677 98.4927 25.1195C98.2834 25.6173 98.3096 26.0969 98.5713 26.5583C98.8329 27.0198 99.3122 27.397 100.009 27.6899C100.673 27.969 101.305 28.0591 101.907 27.9604C102.524 27.8552 103.064 27.5615 103.527 27.0793L103.45 28.004C102.987 28.4862 102.407 28.7826 101.71 28.893C101.024 29.0081 100.266 28.8912 99.4359 28.5425Z" fill="white"/>
<path d="M111.552 35.7485C110.902 35.2552 110.427 34.6608 110.126 33.9655C109.833 33.2606 109.742 32.5065 109.855 31.7031C109.984 30.8974 110.361 30.0836 110.985 29.2616C111.609 28.4395 112.288 27.8626 113.022 27.5309C113.763 27.1895 114.509 27.0702 115.259 27.173C116.01 27.2757 116.715 27.5773 117.375 28.078C118.091 28.6221 118.608 29.2707 118.926 30.0237C119.26 30.7745 119.368 31.5647 119.25 32.3944C119.14 33.2146 118.798 34.0023 118.225 34.7574C117.645 35.522 116.974 36.0678 116.214 36.3946C115.454 36.7214 114.664 36.8297 113.843 36.7194C113.033 36.6163 112.269 36.2927 111.552 35.7485ZM105.61 35.5091L113.435 25.2004L114.41 25.9404L112.69 28.2058L111.447 29.635L110.437 31.2636L106.628 36.2818L105.61 35.5091ZM112.166 34.7909C112.701 35.1971 113.27 35.4404 113.872 35.5207C114.481 35.5914 115.077 35.5012 115.659 35.2502C116.249 34.9896 116.765 34.5677 117.207 33.9847C117.65 33.4016 117.914 32.7959 117.999 32.1676C118.084 31.5393 118.011 30.9413 117.779 30.3735C117.547 29.8058 117.163 29.3188 116.628 28.9125C116.093 28.5062 115.516 28.264 114.897 28.1861C114.288 28.1154 113.692 28.2055 113.11 28.4566C112.537 28.7149 112.03 29.1356 111.587 29.7186C111.144 30.3017 110.872 30.9085 110.77 31.5392C110.685 32.1675 110.758 32.7655 110.99 33.3333C111.239 33.8987 111.631 34.3846 112.166 34.7909Z" fill="white"/>
<path d="M120.241 44.2432L127.04 38.8541L126.973 39.3205L124.547 36.2594L125.422 35.5662L130.665 42.1821L129.791 42.8753L127.365 39.8142L127.834 39.8557L121.034 45.2448L120.241 44.2432Z" fill="white"/>
<path d="M128.996 59.503L130.904 58.6538L131.194 58.4653L134.384 57.045C135.119 56.718 135.591 56.2583 135.8 55.6661C136.014 55.0847 135.94 54.3885 135.579 53.5772C135.33 53.0181 135 52.5279 134.589 52.1066C134.179 51.6853 133.742 51.3676 133.278 51.1535L133.916 50.2392C134.484 50.5118 135.003 50.9111 135.474 51.4371C135.955 51.9583 136.347 52.5587 136.65 53.2384C137.148 54.3566 137.251 55.3416 136.961 56.1935C136.686 57.0514 135.984 57.7318 134.855 58.2345L129.494 60.6212L128.996 59.503ZM127.589 56.5633C127.301 55.9165 127.154 55.3056 127.147 54.7305C127.157 54.1615 127.292 53.6679 127.552 53.2499C127.823 52.8269 128.206 52.5056 128.699 52.2859C129.149 52.0858 129.601 52.0094 130.055 52.0566C130.525 52.1099 130.978 52.3289 131.412 52.7137C131.861 53.1045 132.269 53.711 132.635 54.5332L133.961 57.5095L133.089 57.8975L131.779 54.9541C131.408 54.1209 131.001 53.6058 130.559 53.4087C130.121 53.2226 129.683 53.2271 129.244 53.4224C128.751 53.642 128.442 54.0096 128.317 54.525C128.192 55.0405 128.283 55.6436 128.59 56.3342C128.883 56.992 129.282 57.4906 129.788 57.8302C130.31 58.1759 130.905 58.3315 131.572 58.2969L130.884 58.9188C130.216 58.9533 129.59 58.7722 129.006 58.3754C128.427 57.9895 127.955 57.3855 127.589 56.5633Z" fill="white"/>
<path d="M130.76 65.2596L140.077 63.6837L140.29 64.9438L132.89 66.1956L141.344 71.1733L141.533 72.2914L132.216 73.8674L132.002 72.6073L139.421 71.3525L130.952 66.3955L130.76 65.2596ZM142.141 67.6796C142.008 66.8986 142.097 66.2326 142.405 65.6815C142.727 65.1401 143.259 64.7946 144.001 64.6449L144.154 65.55C143.682 65.6419 143.338 65.8706 143.12 66.2361C142.901 66.6016 142.835 67.0387 142.921 67.5475C143.008 68.0562 143.214 68.4473 143.54 68.7208C143.868 69.006 144.27 69.1146 144.745 69.0464L144.898 69.9515C144.151 70.0657 143.535 69.9143 143.05 69.4973C142.578 69.0782 142.275 68.4723 142.141 67.6796Z" fill="white"/>
<path d="M128.94 98.3688L136.232 100.908L137.73 96.6076L135.776 95.813C135.184 95.5812 134.608 95.3363 134.05 95.0784C133.488 94.8318 132.985 94.5613 132.541 94.267C132.104 93.9879 131.771 93.6874 131.54 93.3656C131.32 93.0477 131.247 92.7108 131.32 92.355L131.961 91.2251C131.827 91.5725 131.851 91.9048 132.033 92.2223C132.226 92.5436 132.533 92.8475 132.955 93.134C133.376 93.4205 133.871 93.6946 134.441 93.9565C135.022 94.2223 135.618 94.4808 136.229 94.7318L139.163 95.8867L136.866 102.482L128.519 99.5757L128.94 98.3688ZM128.879 89.7323L132.091 90.8511L128.51 101.135L125.297 100.017L125.694 98.8777L127.853 99.6294L130.641 91.623L128.482 90.8712L128.879 89.7323Z" fill="white"/>
<path d="M121.091 111.089L122.83 112.244L123.145 112.389L126.053 114.321C126.723 114.766 127.364 114.918 127.976 114.777C128.582 114.647 129.13 114.211 129.621 113.472C129.96 112.962 130.197 112.421 130.333 111.848C130.468 111.276 130.502 110.736 130.435 110.231L131.548 110.279C131.623 110.904 131.564 111.557 131.372 112.236C131.19 112.922 130.893 113.575 130.481 114.194C129.804 115.214 129.028 115.829 128.153 116.04C127.281 116.268 126.331 116.04 125.301 115.356L120.414 112.108L121.091 111.089ZM122.819 108.325C123.211 107.736 123.648 107.284 124.13 106.97C124.615 106.673 125.104 106.523 125.597 106.519C126.099 106.521 126.575 106.672 127.025 106.971C127.435 107.243 127.742 107.584 127.945 107.993C128.152 108.419 128.21 108.918 128.118 109.49C128.029 110.08 127.735 110.749 127.237 111.499L125.434 114.212L124.639 113.684L126.423 111.001C126.927 110.241 127.144 109.622 127.074 109.142C126.996 108.673 126.758 108.306 126.358 108.04C125.908 107.741 125.432 107.677 124.93 107.848C124.428 108.018 123.967 108.418 123.549 109.048C123.15 109.648 122.943 110.252 122.928 110.861C122.915 111.487 123.103 112.073 123.49 112.618L122.596 112.37C122.209 111.824 122.026 111.199 122.048 110.493C122.064 109.798 122.321 109.075 122.819 108.325Z" fill="white"/>
<path d="M118.474 114.518L119.142 115.394C119.071 115.441 119.001 115.48 118.932 115.51C118.861 115.557 118.804 115.601 118.759 115.641C118.474 115.898 118.343 116.21 118.366 116.577C118.38 116.951 118.503 117.357 118.735 117.794C118.967 118.231 119.266 118.689 119.632 119.167C120.006 119.654 120.384 120.136 120.767 120.615L122.899 123.225L117.749 127.862L111.426 120.839L112.375 119.984L118.205 126.459L117.711 126.395L121.537 122.95L121.574 123.449L119.851 121.319C119.331 120.689 118.859 120.065 118.432 119.448C117.997 118.839 117.662 118.26 117.427 117.713C117.183 117.173 117.073 116.675 117.097 116.217C117.129 115.768 117.333 115.375 117.707 115.038C117.814 114.942 117.934 114.85 118.066 114.764C118.189 114.685 118.325 114.603 118.474 114.518Z" fill="white"/>
<path d="M102.871 126.046C103.743 125.59 104.604 125.371 105.452 125.387C106.306 125.415 107.086 125.65 107.792 126.094C108.503 126.548 109.075 127.19 109.509 128.019C109.943 128.849 110.151 129.674 110.133 130.496C110.105 131.323 109.878 132.079 109.45 132.763C109.017 133.463 108.412 134.016 107.636 134.422C106.849 134.833 106.058 135.016 105.263 134.972C104.463 134.943 103.717 134.696 103.027 134.231C102.343 133.777 101.781 133.129 101.342 132.289C101.314 132.236 101.289 132.175 101.266 132.105C101.238 132.052 101.208 131.994 101.174 131.93L108.464 128.119L108.906 128.964L102.222 132.458L102.494 131.89C102.811 132.496 103.224 132.964 103.735 133.293C104.24 133.638 104.786 133.826 105.372 133.859C105.957 133.891 106.542 133.754 107.127 133.449C107.702 133.148 108.148 132.746 108.466 132.241C108.784 131.736 108.946 131.178 108.951 130.566C108.956 129.954 108.798 129.339 108.475 128.722L108.383 128.547C108.05 127.909 107.617 127.418 107.085 127.073C106.547 126.744 105.956 126.573 105.312 126.557C104.663 126.558 104.014 126.728 103.365 127.068C102.854 127.334 102.428 127.672 102.087 128.081C101.735 128.495 101.497 128.972 101.372 129.511L100.35 129.111C100.489 128.469 100.779 127.885 101.22 127.356C101.651 126.833 102.201 126.396 102.871 126.046Z" fill="white"/>
<path d="M94.2524 129.829L96.4103 139.03L95.1661 139.321L93.4521 132.014L89.015 140.764L87.911 141.023L85.753 131.823L86.9973 131.531L88.7154 138.856L93.1308 130.092L94.2524 129.829ZM92.5519 141.34C93.323 141.159 93.9932 141.205 94.5626 141.478C95.1231 141.766 95.5014 142.275 95.6974 143.005L94.8036 143.215C94.6823 142.75 94.4324 142.421 94.054 142.226C93.6755 142.031 93.2351 141.993 92.7327 142.111C92.2304 142.229 91.853 142.459 91.6006 142.802C91.3365 143.147 91.2534 143.555 91.3513 144.025L90.4576 144.234C90.2966 143.496 90.4091 142.871 90.7949 142.362C91.1835 141.864 91.7691 141.523 92.5519 141.34Z" fill="white"/>
</svg>
