<svg xmlns="http://www.w3.org/2000/svg" xmlns:xlink="http://www.w3.org/1999/xlink" version="1.1" width="1435.18pt" height="375.954pt" viewBox="0 0 1435.18 375.954">
<defs>
<clipPath id="clip_0">
<path transform="matrix(1,0,0,-1,0,375.954)" d="M0 375.954H1435.176V0H0Z"/>
</clipPath>
</defs>
<g id="layer_1" data-name="Слой 1">
<g clip-path="url(#clip_0)">
<path transform="matrix(1,0,0,-1,694.929,124.87091)" d="M0 0C-.05-.039-.094-.089-.144-.129-.061-.068-.003-.019 0 0M627.276 17.513C627.272 17.513 627.269 17.513 627.265 17.513 627.263 17.513 627.277 17.501 627.272 17.5 627.275 17.504 627.276 17.509 627.276 17.513M627.16 17.521C627.161 17.504 627.259 17.468 627.272 17.5 627.268 17.501 627.267 17.512 627.263 17.513 627.23 17.521 627.16 17.521 627.16 17.521M186.381-39.711C186.364-39.727 186.355-39.734 186.338-39.751 186.366-39.766 186.38-39.772 186.409-39.788 186.397-39.757 186.392-39.741 186.381-39.711M573.37 102.708C572.372 102.62 571.87 102.576 570.874 102.488 571.557 102.464 571.899 102.45 572.582 102.426 572.895 102.539 573.055 102.596 573.37 102.708M717.026 110.611C718.225 110.652 720.044 110.556 721.708 110.71 721.77 110.747 721.798 110.764 721.859 110.8 721.086 110.605 718.151 110.846 717.026 110.611M740.246 115.458C740.16 115.005 739.916 114.583 739.711 114.148 739.966 114.582 740.272 115.129 740.246 115.458M739.312 113.56C739.456 113.754 739.628 113.935 739.711 114.148 739.576 113.864 739.335 113.665 739.312 113.56M739.305 113.474C739.282 113.477 739.293 113.515 739.312 113.56 739.128 113.33 739.038 113.217 738.854 112.987 739.033 113.181 739.125 113.279 739.305 113.474M421.901 95.308 421.907 95.314C421.745 95.303 421.663 95.299 421.503 95.288 421.661 95.296 421.74 95.3 421.901 95.308M545.246 101.252C544.49 101.155 544.114 101.105 543.359 101.008 544.411 101.048 545.228 101.09 545.246 101.252M487.133 99.14C487.133 99.14 486.805 99.11 486.652 99.098 485.529 98.974 487.133 99.14 487.133 99.14M684.506 108.854C684.661 108.913 684.704 108.953 684.743 108.989 684.733 108.989 684.727 108.989 684.718 108.989 684.632 108.936 684.591 108.908 684.506 108.854M672.03 108.304C672.602 108.31 673.319 108.32 674.329 108.33 673.41 108.321 672.949 108.315 672.03 108.304M655.808 107.463C655.88 107.443 656.024 107.426 656.306 107.419 656.282 107.436 656.068 107.449 655.808 107.463M476.261 110.435C476.267 110.406 476.271 110.393 476.275 110.363 476.513 110.403 476.63 110.422 476.866 110.462 476.623 110.452 476.503 110.446 476.261 110.435M727.712 111.978C726.634 111.92 725.555 111.861 724.475 111.802 724.316 111.7 724.618 111.605 725.07 111.563 726.127 111.73 726.657 111.812 727.712 111.978M708.919 110.954C708.01 110.905 707.099 110.856 706.192 110.805 706.57 110.73 706.756 110.692 707.136 110.618 708.234 110.769 708.716 110.873 708.919 110.954M640.69 107.168C639.946 107.126 639.203 107.086 638.459 107.043 638.394 106.956 638.475 106.87 638.559 106.806 639.988 106.943 640.532 107.06 640.69 107.168M578.922 115.981C578.922 115.981 577.948 115.915 577.249 115.869V115.863C578.09 115.923 578.922 115.981 578.922 115.981M573.392 115.623C572.296 115.565 571.264 115.509 570.433 115.464 571.457 115.44 573.068 115.476 572.698 115.391 573.387 115.425 573.636 115.539 573.392 115.623M738.791 113.475C739.233 114.067 739.268 114.525 738.68 113.815 739.109 114.189 739.357 114.66 739.655 115.116 739.609 114.799 738.241 112.904 738.241 112.904 738.241 112.904 738.618 113.25 738.791 113.475M407.043 94.395C406.385 94.454 405.691 94.468 404.978 94.462 404.828 94.431 404.655 94.402 404.56 94.364 405.552 94.376 406.051 94.382 407.043 94.395M417.855 95.105C418.881 95.156 420.201 95.222 421.503 95.288 420.042 95.216 419.313 95.178 417.855 95.105M727.412 111.26C727.284 111.18 726.739 111.102 726.739 111.102 726.739 111.102 727.255 111.139 727.501 111.157 727.566 111.203 727.577 111.245 727.412 111.26M633.263 119.508C633.773 119.455 634.091 119.386 634.341 119.312 633.973 119.493 637.34 119.755 633.263 119.508M702.98 123.522C702.961 123.502 702.986 123.472 702.986 123.472 703.14 123.51 703.189 123.532 702.98 123.522M727.437 111.101C727.879 111.141 728.244 111.193 728.579 111.25 728.147 111.212 727.933 111.195 727.501 111.157 727.475 111.134 727.463 111.123 727.437 111.101M98.586-59.942C98.239-60.016 97.976-59.987 97.631-60.062 97.618-60.071 97.609-60.074 97.596-60.083 98.03-60.022 98.508-59.965 98.586-59.942M173.915-21.212C173.912-21.158 173.917-21.101 173.932-21.047 173.953-20.963 173.688-20.875 173.673-20.79 173.633-20.558 173.542-20.552 173.394-20.357 173.337-20.276 173.33-20.176 173.324-20.082 173.256-18.934 173.147-17.786 173.176-16.637 173.218-15.171 173.091-13.789 172.704-12.797 172.522-12.284 172.285-11.864 172.016-11.48 171.86-11.331 171.751-11.094 171.672-10.796 171.56-10.544 171.399-10.353 171.239-10.161 170.942-9.808 170.415-9.437 170.045-9.267 169.693-9.107 169.438-9.029 168.993-8.959 169.015-8.879 169.028-8.84 169.05-8.761 168.017-8.533 167.821-8.691 167.061-8.782 166.602-8.956 166.372-9.044 165.911-9.219 165.484-9.519 165.041-9.817 164.605-10.364 162.625-12.978 161.633-14.285 159.655-16.899 158.846-17.968 158.33-19.176 157.598-20.284 156.851-21.414 155.9-22.406 155.269-23.598 155.064-23.985 154.888-24.385 154.706-24.78 153.668-27.052 152.304-29.168 151.061-31.351 150.103-33.021 148.88-34.636 147.862-36.291 147.353-37.119 146.824-37.944 146.227-38.731 145.858-39.22 144.461-40.305 144.461-40.88 144.127-41.12 143.937-41.49 143.827-41.817 143.79-41.907 143.772-41.953 143.735-42.043 142.621-43.791 143.057-43.781 142.854-44.349 142.804-44.519 142.956-44.685 142.961-44.857 142.963-44.957 143.035-45.043 143.082-45.133 143.263-45.462 143.179-45.864 143.338-46.203 143.473-46.493 143.769-46.703 143.973-46.96 144.239-47.299 144.344-47.711 144.528-48.086 144.875-48.795 145.493-49.255 146.06-49.816 146.605-50.355 146.613-50.813 146.929-51.46 147.147-51.901 147.628-52.191 147.846-52.633 148.114-53.166 148.273-53.739 148.669-54.217 148.881-54.476 149.214-56.048 149.918-55.135 150.036-54.984 150.502-54.516 151.112-54.167 151.797-52.905 154.949-50.443 155.477-49.926 160.727-44.787 165.123-38.934 169.552-33.249 170.334-32.245 170.996-31.173 171.721-30.135 172.32-29.274 173.423-28.41 173.83-27.501 174.247-26.573 174.361-25.2 174.671-24.371 174.437-23.599 174.213-22.298 173.982-21.523 173.95-21.423 173.922-21.317 173.915-21.212M217.491-25.981C217.35-25.443 217.191-24.908 216.946-24.402 216.725-23.949 216.432-23.513 216.042-23.158 215.778-22.918 214.991-22.623 214.898-22.295 214.793-21.909 214.873-21.686 214.285-21.626 214.047-21.602 213.794-21.612 213.582-21.513 213.327-21.394 213.187-21.143 212.961-20.983 212.615-20.739 212.115-20.743 211.683-20.837 210.463-21.099 209.245-21.446 208.081-21.859 208.16-22.029 208.407-22.12 208.605-22.052 206.937-23.093 205.59-24.012 204.504-25.561 202.231-28.794 199.878-31.978 197.546-35.174 196.756-36.258 195.963-37.342 195.175-38.424 194.64-39.156 194.106-39.889 193.571-40.622 192.895-41.547 192.198-42.465 191.668-43.462 191.386-44 191.128-44.567 190.97-45.144 190.891-45.428 190.771-45.801 190.854-46.095 190.918-46.303 191.174-46.453 191.213-46.663 191.258-46.896 191.122-47.074 191.088-47.305 190.989-47.962 191.485-48.448 191.856-48.964 192.214-49.463 192.265-50.146 192.798-50.543 192.92-50.636 193.066-50.707 193.177-50.81 193.439-51.05 193.51-51.434 193.831-51.612 194.069-51.743 194.379-51.719 194.646-51.798 195.063-51.925 195.316-52.281 195.639-52.545 196.343-53.12 197.273-53.139 198.149-52.92 198.198-52.995 198.2-53.093 198.252-53.17 198.341-53.303 200.709-52.576 200.955-52.487 201.526-52.281 202.212-52.149 202.606-51.695 203.047-51.186 203.303-50.508 203.733-49.971 204.339-49.22 205.03-48.521 205.622-47.76 206.262-46.94 206.661-46.018 207.247-45.173 207.877-44.268 208.481-43.351 209.094-42.438 210.395-40.492 211.701-38.464 212.999-36.484 214.309-34.481 215.875-32.527 216.991-30.442 217.409-29.66 217.389-28.759 217.617-27.896 217.803-27.144 217.684-26.733 217.491-25.981M122.248 52.762C120.984 52.364 119.729 51.938 118.471 51.527 118.543 51.597 118.579 51.632 118.652 51.702 118.278 51.459 118.673 51.588 117.854 51.336 118.049 51.51 117.248 51.059 116.93 51.031 114.046 49.491 113.119 49.516 110.81 48.624 104.226 46.082 97.662 43.501 91.117 40.884 88.27 39.743 85.426 38.597 82.707 37.24 81.506 36.641 80.332 36.001 79.187 35.323 78.88 35.426 78.568 34.901 78.263 35.005 75.899 33.399 76.571 34.524 72.739 32.524 71.716 31.99 70.729 31.406 69.738 30.827 68.528 30.118 67.315 29.405 66.054 28.766 65.445 28.457 64.826 28.166 64.192 27.907 63.86 27.737 63.472 27.626 63.131 27.468 62.787 27.307 62.451 27.134 62.118 26.953 61.87 26.82 61.644 26.664 61.412 26.511 61.179 26.355 60.929 26.22 60.692 26.068 60.398 25.903 60.059 25.75 59.701 25.799 59.478 25.831 59.365 25.827 59.185 25.697 59.014 25.572 58.68 25.447 58.554 25.293 58.43 25.145 58.241 25.176 58.397 25.196 58.534 25.213 58.615 25.084 58.717 25.026 58.852 24.947 59.009 25.004 59.155 24.962 59.246 24.937 59.312 24.868 59.402 24.843 59.534 24.804 59.718 24.796 59.858 24.783 59.972 24.774 60.09 24.782 60.203 24.793 61.275 24.887 62.264 25.351 63.282 25.619 67.298 26.677 71.456 27.444 75.492 28.588 87.265 31.926 98.417 36.554 108.417 42.984 109.389 43.608 110.352 44.249 111.247 44.956 111.474 45.136 111.728 45.213 112.001 45.342 112.258 45.464 112.455 45.654 112.72 45.756 113.416 46.024 114.667 46.705 115.189 47.159 115.781 47.679 115.702 48 116.39 48.417 116.829 48.683 117.278 48.931 117.734 49.175 118.116 49.376 118.469 49.463 118.775 49.776 119.093 50.107 119.324 50.496 119.671 50.806 119.999 51.098 120.333 51.37 120.594 51.712 120.657 51.753 120.921 51.919 120.921 51.919 120.965 51.906 120.764 51.95 120.806 51.931 120.925 51.884 121.056 51.905 121.211 52 121.241 52.162 121.164 51.917 121.276 52.047 121.28 51.983 121.401 52.281 121.513 52.24 121.712 52.446 121.943 52.532 122.184 52.554 122.222 52.64 122.227 52.692 122.248 52.762M144.821 53.95C136.435 46.156 127.914 38.362 117.98 32.045 113.786 29.38 109.441 26.896 104.98 24.584 101.691 22.877 98.256 21.121 94.678 19.932 91.703 18.943 88.611 18.126 85.592 17.247 82.421 16.323 79.21 15.495 75.953 14.83 71.729 13.97 67.43 13.369 63.231 12.404 58.786 11.713 54.465 10.66 49.921 10.253 45.317 9.84 40.684 9.738 36.062 9.862 35.142 9.886 34.222 9.922 33.304 9.985 33.01 10.007 30.958 10.213 30.958 10.213L31.907 10.733C31.907 10.733 29.943 10.646 29.186 10.655 28.565 10.534 27.855 9.938 27.184 9.606 25.849 8.829 24.638 8.086 23.653 7.093 24.007 7.258 24.184 7.34 24.538 7.505 23.65 7.03 23.207 6.793 22.319 6.318 22.567 6.448 22.822 6.577 23.138 6.732 22.432 6.365 22.078 6.18 21.371 5.813 20.25 5.189 17.726 3.977 17.726 3.977 17.806 3.94 20.233 5.712 20.233 5.712 20.233 5.712 17.274 3.736 15.746 2.813 15.723 2.984 15.39 2.701 15.555 2.887 12.763 1.05 10.48-.37 7.687-2.207 7.558-2.292 7.399-2.361 7.25-2.337 6.816-2.742 6.392-3.162 5.925-3.512 6.389-3.357 5.971-3.42 6.436-3.266 2.832-5.584-.782-7.892-4.374-10.227-9.931-13.842-15.452-17.589-20.963-21.243-21.106-21.338-21.313-21.437-21.456-21.338-29.177-27.644-37.945-33.072-46.104-38.971-46.507-39.263-46.914-39.555-47.342-39.82-47.802-40.103-48.287-40.353-48.767-40.61-53.489-43.131-57.722-46.295-62.106-49.225-65.252-51.327-67.734-54.143-71.007-56.072-72.163-56.752-73.718-58.698-76.503-60.29-81.067-63.979-80.79-63.396-85.768-65.565-90.157-68.272-96.486-69.415-96.486-69.415-96.486-69.415-90.64-62.874-86.532-58.484-86.493-58.423-86.461-58.36-86.42-58.299-76.059-47.302-64.866-37.27-52.929-27.987-52.899-27.957-52.872-27.926-52.844-27.895-49.988-25.703-46.995-23.52-44.074-21.347-41.922-19.745-39.733-18.041-37.437-16.294-34.955-15.438-32.076-12.172-28.127-10.152-28.63-10.199-26.913-8.919-24.975-7.592-25.507-8.196-23.458-6.804-23.932-7.302-22.376-5.979-17.501-2.595-17.374-3.097-17.226-2.45-13.675-.669-12.463 .503-10.171 1.793-7.853 3.631-4.966 5.23-6.135 4.847-2.292 7.051-1.346 7.782-1.624 7.588-2.179 7.195-2.01 7.251-1.016 7.573 1.053 9.41 2.719 10.269 3.497 10.628 3.331 10.464 4.502 11.162 4.474 11.205 4.09 10.902 4.485 11.202 4.752 11.395 4.834 11.494 4.834 11.494-9.191 13.06-21.81 17.83-28.813 29.533-35.601 40.88-34.034 52.333-28.738 63.065-28.318 64.463-27.857 65.912-27.314 67.326-27.171 67.708-27.013 68.066-26.861 68.439-25.78 69.519-25.415 70.547-24.341 71.632-18.802 79.74-11.03 87.335-4.615 93.835-.955 97.545 9.57 101.18 9.57 101.18 9.649 100.007-1.198 88.727-6.516 80.179-6.717 79.822-7.232 78.261-7.48 77.929-7.701 77.633-7.641 77.918-7.59 76.419-7.979 75.589-8.343 74.747-8.697 73.904-10.403 71.394-11.899 68.811-13.043 66.025-13.184 65.687-13.203 65.368-13.174 65.065-13.222 64.874-13.226 64.735-13.152 64.683-14.954 60.896-15.741 58.685-16.722 53.777-16.778 53.732-16.801 53.711-16.857 53.665-16.76 52.922-16.977 51.729-17.151 50.632-17.992 45.375-14.175 38.683-10.611 34.739-8.257 32.133-5.365 29.905-2.206 28.066 .998 26.202 6.042 25.718 9.836 25.113 9.726 25.161 9.753 25.134 9.77 25.113 14.512 24.661 18.945 24.593 23.69 23.834 24.147 23.761 24.523 23.7 24.918 23.636 25.355 23.57 25.718 23.503 25.863 23.448 25.934 23.43 26.606 23.746 27.469 24.156 27.514 24.901 33.416 27.476 34.116 28.352 39.397 30.739 46.556 34.878 53.37 38.147 53.163 38.019 53.056 37.952 52.849 37.825 55.89 39.017 55.869 39.865 59.071 41.277 58.774 41.093 58.63 41.003 58.334 40.819 63.444 42.898 68.27 45.46 73.118 47.964 73.018 47.997 73.087 47.879 73.059 47.79 73.67 48.094 74.419 48.485 74.286 48.507 77.963 50.043 81.495 51.808 85.219 53.254 89.012 54.726 92.879 56.036 96.727 57.391 102.629 59.467 108.587 61.409 114.552 63.346 114.345 63.212 114.136 63.079 113.931 62.945 119.946 64.546 125.317 67.419 131.073 69.562 135.251 71.119 139.593 72.388 144.093 72.98 149.964 73.75 151.47 74.182 151.849 70.721 151.859 70.64 151.911 70.53 151.997 70.407 152.331 69.926 153.117 69.219 153.317 68.857 153.741 68.086 154.031 67.255 154.159 66.405 154.183 66.251 154.202 66.091 154.163 65.939 154.136 65.833 154.081 65.733 154.036 65.632 153.683 64.863 153.802 64.011 153.499 63.235 153.234 62.555 152.679 61.955 152.183 61.388 150.884 59.895 149.452 58.565 148.442 56.89 148.581 57.158 148.719 57.424 148.856 57.693 147.513 56.445 146.163 55.198 144.821 53.95M398.362-29.214C398.487-29.155 398.531-29.12 398.362-29.214M446.127 18.427C445.905 17.407 445.384 16.477 444.722 15.61 443.56 14.473 442.391 13.337 441.304 12.146 440.317 11.247 439.356 10.331 438.614 9.271 438.721 9.373 438.825 9.473 438.93 9.575 438.913 9.556 438.896 9.537 438.877 9.519 438.661 9.29 438.427 9.074 438.209 8.846 436.527 7.536 434.763 6.308 432.846 5.276 433.166 5.421 433.399 5.705 433.453 6.015 430.866 4.319 428.305 2.635 425.602 1.083 421.069-1.518 416.059-2.49 412.768-3.993 412.764-3.998 412.787-3.994 412.787-3.997 411.982-4.255 411.213-4.572 410.47-4.951 409.839-5.193 409.307-5.358 409.246-5.427 409.142-5.54 408.98-5.735 408.831-5.912 408.233-6.342 408.074-6.241 407.604-6.757 407.183-7.221 407.342-6.643 407.038-7.162 406.706-7.521 405.654-9.251 405.654-9.251 405.654-9.251 404.969-10.137 404.245-11.399 403.582-12.557 403.477-13.893 402.87-15.074 402.871-15.093 402.874-15.103 402.876-15.122 402.86-15.166 402.841-15.21 402.825-15.254 401.907-17.066 400.986-18.878 400.067-20.69 400.041-20.805 400.014-20.916 400-20.976 399.728-21.897 399.839-21.356 399.555-22.323 399.467-22.477 399.394-22.636 399.302-22.787 399.228-22.9 399.229-23.028 399.192-23.148 399.182-22.993 399.169-22.841 399.156-22.687 398.636-23.866 398.276-25.097 398.078-26.347 397.922-27.34 398.18-28.202 397.822-29.152 398.024-29.186 397.953-29.452 397.979-29.33 398.099-29.332 398.25-29.268 398.358-29.217 399.305-28.671 400.264-28.135 401.083-27.44 400.719-27.538 401.911-26.827 401.489-26.856 402.998-25.963 402.851-25.931 404.363-25.038 403.999-25.301 403.637-25.56 403.273-25.823 405.321-24.796 407.827-22.933 410.214-22.723 411.197-22.68 412.257-22.905 413.039-23.45 416.153-25.562 417.029-29.768 414.788-32.798 415.393-32.161 414.784-33.386 414.28-33.987 412.446-35.771 409.424-36.982 407.077-38.168 407.238-38.023 407.398-37.879 407.559-37.735 405.538-38.959 403.522-40.193 401.495-41.413 400.567-41.972 399.635-42.528 398.692-43.069 398.025-43.453 396.691-43.896 396.217-44.439 396.094-44.579 396.68-43.897 396.68-43.897 396.528-43.828 394.312-45.345 392.838-45.784 391.523-46.053 390.587-45.717 390.034-45.713 387.756-45.692 385.795-42.464 385.465-40.87 385.204-39.597 385.11-38.262 385.095-36.923 385.184-36.692 385.247-36.449 385.264-36.196 385.353-34.989 385.351-33.78 385.384-32.573 385.419-33.035 385.453-33.498 385.488-33.961 385.837-31.505 386.18-29.048 386.528-26.59 387.269-24.054 388.165-21.536 388.717-18.971 388.768-18.742 388.734-18.542 388.709-18.342 389.245-16.559 390.263-14.66 390.802-12.875 391.359-12.24 391.448-11.94 391.646-11.339 391.793-10.894 392.122-10.345 391.276-10.842 390.697-10.779 387.687-11.827 388.28-11.591 384.959-12.613 387.827-11.92 385.44-12.983 383.998-13.432 383.275-13.657 381.833-14.106 381-14.522 382.846-13.995 383.774-13.741 382.097-14.374 380.42-15.015 378.838-15.811 379.205-15.766 379.946-15.673 379.946-15.673 379.946-15.673 376.007-16.99 374.365-17.719 372.484-18.555 370.672-19.512 368.963-20.595 366.444-22.193 364.172-24.075 362.327-26.27 361.349-27.431 360.472-28.655 359.704-29.931 359.305-30.587 357.886-33.5 357.886-33.5 357.886-33.5 357.524-33.46 357.409-33.614 356.121-35.37 355.56-37.53 355.863-39.599 355.985-39.385 356.104-39.171 356.226-38.958 356.132-39.474 356.037-39.992 355.942-40.509 355.951-40.269 355.955-40.03 355.964-39.793 355.712-41.111 355.584-42.443 354.69-43.573 353.78-44.874 351.951-45.821 350.106-45.846 346.46-45.895 343.529-43.18 342.935-40.2 343.198-41.001 344.025-42.581 343.545-41.256 343.034-39.842 343.072-38.344 343.149-37.27 343.231-36.154 343.28-35.058 343.343-33.972 343.485-31.817 343.655-29.649 344.098-26.925 344.63-26.754 343.108-32.809 343.66-33.079 343.941-30.225 344.752-25.841 344.727-25.663 344.231-25.952 343.704-26.259 343.155-26.578 341.802-27.302 340.396-28.052 338.966-28.815 336.104-29.194 332.766-31.879 328.415-33.17 328.916-33.218 326.939-34.158 324.731-35.102 325.397-34.609 323.057-35.585 323.639-35.186 321.813-36.21 316.189-38.56 316.195-38.039 315.889-38.655 311.951-39.656 310.444-40.528 307.853-41.281 305.054-42.529 301.763-43.389 302.91-43.325 297.803-44.781 297.803-44.781 297.803-44.781 298.362-44.57 298.24-44.58 297.179-44.616 294.505-45.84 292.591-46.08 291.723-46.189 292.727-45.784 291.343-46.079 291.384-46.314 286.319-47.544 284.348-47.571 285.229-47.429 285.227-47.327 285.748-47.164 276.781-48.992 266.639-48.926 257.378-46.337 258.073-46.412 258.423-46.449 259.119-46.524 253.75-44.214 255.129-45.844 250.995-43.485 245.413-39.938 242.434-33.859 242.347-27.961 242.247-21.846 246.217-16.566 250.52-12.649 251.116-12.025 250.032-12.886 249.802-12.885 250.643-12.248 251.091-12.262 252.043-11.24 251.89-11.266 251.814-11.281 251.659-11.308 253.922-9.698 257.242-7.505 260.58-5.686 263.917-3.867 267.362-2.487 269.469-2.126 274.42-.111 278.164 .591 284.676 1.939 286.791 2.044 282.3 1.325 285.123 1.637 286.124 1.852 287.18 1.898 288.233 1.983 289.141 2.093 290.341 2.08 291.439 1.802 293.125 1.465 294.946 .4 295.968-1.319 297.101-3.034 296.985-5.42 296.405-7.075 295.525-10.535 293.906-13.962 292.095-16.796 292.043-16.631 291.077-17.664 290.418-18.539 290.239-18.884 290.791-18.356 291.281-17.872 289.435-20.342 287.974-21.659 286.602-22.777 285.213-23.886 283.88-24.829 281.641-26.073 283.466-24.86 279.752-26.929 279.388-26.746 278.261-27.462 280.253-26.681 277.591-28.035 275.582-28.908 273.81-29.58 271.675-30.135 269.214-30.771 265.375-29.82 264.226-28.41 263.629-27.679 263.262-26.745 263.293-25.833 263.216-25.731 263.089-25.664 263.029-25.553 263.215-25.617 263.404-25.681 263.59-25.745 263.713-25.555 265.553-22.246 265.553-22.246 265.553-22.246 265.214-22.029 265.039-21.926 264.632-21.685 264.115-21.524 263.611-21.573 263.403-21.592 263.183-21.656 262.964-21.719 262.994-21.554 262.969-21.383 263.008-21.222 261.144-22.692 259.381-24.512 258.812-25.472 258.849-25.557 258.723-26.081 258.958-25.794 258.58-26.992 258.702-27.015 258.51-27.1 258.425-27.148 258.279-27.253 258.359-27.796 258.288-27.42 258.246-27.089 258.231-27.006 258.014-28.705 259.09-30.183 260.627-31.377 260.599-31.442 261.244-32.112 262.264-32.892 263.343-33.596 264.874-34.308 266.266-34.567 266.397-34.512 265.657-34.221 265.029-33.944 265.576-34.133 266.144-34.268 266.736-34.355 267.141-34.568 267.547-34.819 267.984-35.011 268.89-34.995 269.754-35.081 270.654-34.981 270.662-35.107 270.667-35.17 270.673-35.296 272.649-35.359 273.429-34.896 275.01-34.865 280.992-34.488 279.815-34.662 284.127-34.147 284.245-33.911 285.207-33.626 286.414-33.322 286.436-33.318 286.459-33.315 286.484-33.311 286.832-33.263 287.182-33.227 287.532-33.191 290.231-32.919 292.952-32.17 295.33-30.976 301.125-29.683 308.891-27.743 314.664-25.573 314.444-25.682 314.332-25.736 314.112-25.845 315.974-25.297 316.762-24.783 317.775-24.203 318.952-23.795 320.112-23.35 321.268-22.897 324.52-21.978 327.039-21.587 330.005-20.165 330.133-20.134 330.263-20.103 330.392-20.07 330.148-20.287 330.53-20.222 331.353-19.83 332.044-19.63 332.793-19.39 333.483-19.069 333.567-19.105 333.607-19.123 333.691-19.159 336.498-17.892 339.895-17.593 342.913-16.196 344.429-15.495 345.96-14.753 347.464-14.04 348.339-13.635 347.91-13.881 348.465-12.913 348.812-12.233 349.156-11.559 349.497-10.893 350.16-9.976 349.836-11.001 349.836-11.001 349.836-11.001 353.971-2.598 354.401-1.865 354.901-1.015 355.412-.173 355.947 .66 358.061 3.988 360.717 6.851 363.464 9.789 363.094 9.44 362.794 9.039 362.578 8.606 363.875 10.027 365.21 11.426 366.576 12.8 366.565 12.593 366.552 12.383 366.541 12.177 369.351 15.249 372.746 17.561 376.2 20.026 378.073 21.363 379.83 22.84 381.917 23.929 383.679 24.849 385.688 25.487 387.742 25.455 387.454 25.341 387.168 25.228 386.879 25.114 387.205 25.092 387.521 25.125 387.838 25.139 387.728 25.156 387.609 25.155 387.507 25.199 388.582 25.596 390.913 25.697 390.913 25.697 390.913 25.697 390.614 25.717 390.482 25.757 392.305 25.697 394.114 25.727 395.518 24.548 396.85 23.428 397.721 21.93 398.768 20.617 399.663 19.492 399.543 18.414 400.11 17.14 400.705 15.797 397.636 13.896 396.844 12.98 395.556 11.492 394.81 9.715 393.986 8.015 393.425 6.858 392.849 5.692 392.054 4.641 391.374 3.742 389.928 3.051 389.413 2.167 389.306 1.99 388.702 1.318 388.702 1.318 388.702 1.318 388.776 .516 387.312-.387 387.206-.452 388.628-.382 388.628-.382 388.628-.382 390.681-.006 390.886 .094 393.968 1.595 396.968 3.703 399.508 5.824 401.45 7.449 403.397 9.073 405.34 10.697 407.99 12.911 410.569 15.565 413.612 17.342 415.947 18.705 418.411 19.866 420.837 21.09 421.217 21.106 421.609 21.189 422.004 21.441 422.553 21.789 423.127 22.072 423.697 22.369 424.35 22.593 424.979 22.837 425.597 23.248 430.843 25.396 436.779 25.671 442.562 24.978 445.083 23.849 446.616 20.68 446.127 18.427M506.605 20.927C506.551 20.977 506.525 21 506.469 21.049 506.51 20.981 506.617 20.775 506.605 20.927M508.692 16.179C508.942 14.747 508.491 13.212 507.395 12.121 507.067 11.797 506.933 11.625 506.506 11.353 507.236 11.816 506.098 11.067 505.375 10.5 505.198 10.358 505.091 10.16 504.851 10.152 504.61 10.146 504.167 9.678 504.389 9.756 503.649 9.042 502.835 8.709 502.078 8.002 499.894 5.955 496.946 4.053 493.927 2.588 491.653 1.48 489.172 .778 486.736-.003 486.211-.17 485.687-.339 485.159-.507 484.785-.609 484.597-.66 484.222-.762 484.181-.751 483.909-.836 483.864-.833 483.793-.826 483.71-.814 483.643-.829 482.424-1.075 482.62-1.123 481.63-1.305 481.422-1.424 481.13-1.499 481.332-1.429 481.154-1.49 480.806-1.945 481.097-2.263 481.136-2.305 481.042-2.484 481.07-2.532 481.138-2.638 481.147-2.732 481.043-2.812 480.937-2.893 481.018-3.07 480.945-3.175 480.842-3.328 480.911-3.452 480.917-3.629 480.921-3.934 480.961-3.852 480.984-4.223 480.926-4.235 481.035-4.413 480.977-4.425 481.152-5.241 480.923-5.987 480.843-6.787 480.769-7.553 480.808-8.328 480.81-9.098 480.836-19.083 482.57-28.959 481.931-38.979 481.892-39.605 481.712-40.013 481.549-40.421 481.29-40.725 481.164-40.877 480.907-41.182 480.382-41.511 480.316-41.715 479.414-41.849 479.327-41.835 479.281-41.83 479.196-41.816 478.82-41.899 478.74-41.755 478.39-41.729 478.02-41.699 477.424-41.542 477.009-41.329 476.784-41.213 476.564-41.095 476.343-40.91 476.127-40.671 475.915-40.498 475.717-40.417 475.311-40.165 474.908-39.873 474.495-39.479 473.674-38.728 472.845-37.548 472.096-36.239 471.716-35.585 471.356-34.963 470.933-34.382 470.84-34.25 470.797-34.186 470.704-34.054 470.624-34.049 470.594-34.073 470.495-34.059 468.998-33.648 467.942-32.841 467.089-31.916 467.078-31.411 467.123-30.906 467.119-30.401 467.119-30.234 467.125-30.15 467.123-30.067 466.554-29.769 466.691-29.068 466.43-28.509 466.419-28.31 466.424-28.111 466.395-27.914 466.324-27.397 466.18-26.888 466.114-26.369 465.931-24.941 465.857-23.536 465.639-22.111 465.516-21.302 465.579-20.482 465.645-19.667 465.916-16.237 466.153-12.797 466.611-9.382 466.923-7.064 466.593-4.274 467.249-2.046 467.124-1.902 467.051-1.875 466.953-1.858 467.02-1.78 467.054-1.74 467.121-1.662 466.965-1.843 466.474-1.627 466.308-1.559 466.203-1.516 465.584-1.075 465.535-1.083 465.157-1.138 464.762-1.11 464.4-1.001 463.897-.85 463.471-.554 463.054-.264 462.741-.045 462.429 .175 462.116 .394 461.945 .514 461.755 .662 461.758 .854 461.767 1.603 461.316 2.223 461.266 2.976 461.244 3.302 461.249 3.667 461.341 3.987 461.454 4.391 461.606 4.801 461.589 5.222 461.576 5.596 461.516 5.942 461.572 6.322 461.687 7.074 461.983 7.855 461.624 8.592 461.368 9.118 460.897 10.004 461.508 10.481 461.642 10.583 461.805 10.662 461.967 10.721 462.129 10.65 462.305 10.725 462.449 10.82 462.597 10.918 462.722 11.043 462.863 11.149 463.101 11.329 463.398 11.463 463.71 11.456 463.633 11.421 463.558 11.383 463.481 11.348 463.985 11.558 464.658 11.282 465.177 11.236 465.817 11.181 466.458 11.137 467.101 11.104 468.386 11.04 469.671 11.024 470.959 11.056 471.12 10.867 471.207 11.053 471.306 11.137 471.345 11.171 471.403 11.182 471.457 11.19 471.763 11.236 472.07 11.233 472.377 11.258 472.827 11.296 473.28 11.281 473.718 11.179 473.794 11.161 473.834 11.152 473.912 11.134 474.059 11.072 474.127 11.176 474.194 11.267 474.361 11.514 474.52 11.75 474.7 12.02 474.807 12.076 474.897 12.065 474.96 11.976 474.898 12.66 475.424 13.277 475.928 13.754 476.368 14.17 476.891 14.504 477.38 14.874 477.6 15.04 477.776 15.266 478.014 15.413 478.401 15.658 478.481 15.831 478.73 16.176 478.954 16.488 479.293 16.731 479.615 16.966 480.321 17.48 481.032 17.992 481.75 18.495 482.382 18.933 483.025 19.366 483.757 19.659 484.034 19.77 484.323 19.861 484.587 19.994 485.09 20.247 485.495 20.61 486.013 20.843 486.582 21.1 487.175 21.308 487.768 21.514 488.352 21.716 490.176 21.847 490.511 22.034 492.121 22.929 494.004 23.264 495.878 23.405 496.832 23.476 497.824 23.253 498.784 23.229 499.79 23.203 500.8 23.219 501.799 23.104 501.97 23.083 502.14 23.059 502.303 23.008 502.467 22.956 502.623 22.877 502.775 22.802 503.44 22.48 504.151 22.35 504.838 22.094 505.437 21.87 506.032 21.442 506.469 21.025 506.462 21.056 506.075 21.406 506.075 21.406 506.823 21.093 507.404 20.49 507.628 19.794 507.725 19.201 507.819 18.609 507.911 18.017 508.322 17.459 508.577 16.83 508.692 16.179M-255.398-47.674C-256.765-48.414-258.28-48.898-259.689-49.564-261.068-50.217-262.275-51.105-263.439-52.015-264.863-53.129-266.403-54.121-267.987-55.053-271.3-57.005-274.58-59.013-277.655-61.252-280.681-63.459-283.347-66.001-286.193-68.376-286.959-69.015-287.711-69.719-288.545-70.287-289.147-70.7-290.155-71.688-290.155-71.688-290.155-71.688-288.204-70.733-287.326-70.105-286.773-69.711-286.224-69.301-285.681-68.901-285.207-68.552-284.731-68.432-284.163-68.221-283.838-68.098-283.541-67.919-283.248-67.742-283.036-67.614-282.827-67.485-282.618-67.355-279.13-65.192-275.855-62.783-272.414-60.57-269.433-58.653-269.711-59.482-266.262-56.792-266.457-57.201-264.451-55.037-264.646-55.445-263.216-54.553-261.904-53.524-260.729-52.384-259.594-51.281-258.502-50.126-257.14-49.224-256.769-48.976-256.537-48.733-256.14-48.526-255.899-48.399-255.758-48.3-255.653-48.172-255.55-48.046-255.485-47.898-255.398-47.674M-224.847 12.004C-222.19 13.94-220.865 14.906-218.207 16.842-221.028 14.931-223.588 13.1-226.41 11.189-226.744 10.846-226.028 11.288-224.847 12.004M-556.782-98.636C-559.615-99.981-562.234-101.649-564.842-103.311-567.985-105.313-571.25-106.868-574.241-109.041-576-110.319-577.171-110.681-579.918-112.591-583.246-114.903-585.77-117.37-589.177-119.541-592.529-121.677-596.074-123.566-599.479-125.634-600.607-126.321-601.749-127.015-602.709-127.876-603.341-128.443-603.897-129.085-604.63-129.543-605.325-129.981-606.149-130.232-606.899-130.589-607.659-130.951-608.343-131.418-609.023-131.882-618.651-138.545-627.774-145.741-637.004-152.814-641.06-155.92-644.986-159.158-649.161-162.142-653.121-164.973-655.26-166.438-659.319-169.872-660.329-170.726-662.454-172.738-663.483-173.579-663.684-173.742-665.527-175.222-665.527-175.222-665.527-175.222-668.816-178.435-668.884-178.843-667.741-178.989-666.588-178.52-665.675-177.885-664.878-177.335-664.21-176.658-663.477-176.045-663.367-175.953-663.255-175.862-663.141-175.772-662.456-175.237-661.694-174.78-660.937-174.323-656.989-171.946-653.17-169.544-649.402-166.97-646.339-164.878-643.272-162.787-640.209-160.695-638.341-159.42-637.405-158.783-635.537-157.508-632.591-155.499-629.674-153.467-626.912-151.265-627.042-151.427-626.639-151.47-626.461-151.349-624.059-149.741-621.684-148.099-619.224-146.564-617.395-145.423-615.411-144.448-613.954-142.91-613.589-142.524-613.265-142.113-612.938-141.702-611.591-140.005-609.88-139.235-608.185-137.891-606.283-136.382-604.417-134.835-602.451-133.39-601.033-132.346-599.446-131.498-597.952-130.537-595.345-128.86-593.139-126.839-590.839-124.859-588.861-123.157-584.725-119.928-584.725-119.928-584.725-119.928-585.266-120.732-585.535-121.133-583.066-119.698-581.267-117.701-579.099-115.957-576.885-114.176-574.638-112.422-572.372-110.689-567.147-106.698-561.961-102.673-556.782-98.636M-152.564-6.016C-153.023-6.95-154.591-7.666-155.525-8.27-155.379-7.972-155.259-8.129-156.198-8.521-159.045-9.372-158.273-9.252-159.889-9.617-163.687-10.511-171.148-13.271-175.053-14.3-174.78-13.962-175.462-14.692-177.858-15.018-183.473-16.351-179.604-15.266-184.668-16.892-184.397-16.76-184.263-16.692-183.993-16.56-197.632-20.661-187.995-17.51-197.948-20.588-197.721-20.554-201.141-21.348-201.236-21.358-202.865-21.901-203.398-22.017-205.033-22.536-207.952-23.794-206.465-23.1-209.97-24.352-208.045-23.656-212.805-25.439-210.88-24.743-216.138-26.997-221.398-29.252-226.655-31.507-245.971-47.405-261.674-67.342-285.781-78.315-283.14-77.112-287.358-79.397-289.504-80.659-291.393-81.62-293.61-82.641-295.822-83.738-296.846-84.246-298.54-84.905-300.096-84.562-301.649-84.219-302.858-83.23-303.619-82.152-305.119-79.946-305.343-77.19-304.314-74.986-303.794-73.869-302.788-72.96-302.017-72.292-301.211-71.576-300.45-70.896-299.743-70.268-300.408-70.955-300.739-71.3-301.404-71.986-287.154-58.815-276.176-50.677-265.171-43.557-264.672-43.167-265.13-43.759-267.071-45.101-263.134-42.328-258.514-39.613-254.615-37.424-252.655-36.331-250.864-35.362-249.484-34.561-248.741-34.132-248.189-33.89-247.899-33.413-247.532-32.981-247.261-32.621-247.1-32.348-247.578-32.84-247.816-33.086-248.294-33.577-248.511-33.806-249.21-34.112-249.686-34.4-249.211-34.106-248.507-33.796-248.298-33.56-247.818-33.056-247.576-32.802-247.097-32.298-246.146-31.262-245.672-30.744-244.722-29.709-243.154-27.958-241.61-26.157-240.1-24.318-237.076-20.641-234.197-16.795-231.456-12.855-230.95-12.104-230.696-11.727-230.19-10.976-229.976-10.644-229.865-10.478-229.651-10.146-229.913-10.193-230.405-10.411-230.763-10.53-233.043-11.382-234.185-11.807-236.465-12.659-241.306-14.466-246.062-16.369-250.73-18.246-255.27-19.685-239.945-13.957-243.951-15.129-257.057-20.062-269.923-25.904-283.482-32.518-281.339-31.373-281.811-31.624-280.782-31.074-294.337-37.59-279.154-30.567-290.449-36.241-289.934-35.794-290.509-36.028-294.264-37.923-295.511-38.708-296.134-39.102-297.381-39.887-297.943-40.147-297.978-39.93-296.386-38.972-298.748-40.444-303.649-43.137-308.31-45.881-310.637-47.251-312.957-48.638-314.861-49.813-316.783-50.996-318.218-52.058-319.55-52.587-320.24-52.698-319.626-52.509-319.247-52.234-318.861-51.956-318.67-51.925-319.523-52.25-321.23-52.903-320.918-52.183-322.178-51.45-323.47-50.708-324.658-49.846-325.614-49.009-327.702-47.179-331.573-46.442-329.839-44.787-325.845-42.087-312.979-33.452-314.952-34.788-305.039-28.172-313.519-33.587-306.173-28.342-309.349-30.432-310.937-31.476-314.114-33.567-308.592-29.772-305.832-27.874-300.307-24.081-302.462-25.625-303.541-26.397-305.693-27.942-299.251-23.714-292.907-19.053-285.503-14.03-286.91-14.893-287.612-15.326-289.02-16.19-285.671-13.858-284-12.693-280.651-10.362-279.554-10.093-269.779-3.084-274.111-6.576-258.614 3.715-248.917 10.874-235.104 20.293-236.382 19.402-235.736 19.761-236.125 19.433-227.72 25.021-222.086 28.974-217.221 32.512-218.159 31.728-220.868 29.954-220.834 29.85-215.892 33.193-214.405 34.249-212.843 35.407-212.339 35.782-211.77 36.217-210.516 37.161-211.384 36.582-214.028 34.595-212.929 35.306-213.226 35.156-210.851 37.171-210.272 37.682-210.397 37.623-209.984 37.89-209.993 37.901-209.993 37.927-210.197 37.823-209.845 38.061-209.729 38.161-209.635 38.248-209.564 38.313-208.949 38.684-209.117 38.626-208.72 39.131-208.554 39.339-205.547 42.425-206.81 42.082-207.778 42.016-209.831 41.195-209.988 41.299-217.607 39.625-228.434 34.986-235.722 32.357-240.766 30.538-245.805 28.72-250.824 26.855-261.27 22.973-273.275 18.312-283.41 13.831-281.793 14.717-272.287 18.722-277.318 16.612-296.662 8.498-308.297 2.668-327.264-6.983-327.819-7.009-322.211-4.385-316.824-1.789-311.433 .809-305.81 3.486-305.565 3.861-325.911-5.776-346.356-16.477-368.066-28.544-376.147-32.058-394.693-44.949-408.362-52.16-406.955-51.63-411.865-55.262-419.083-59.447-418.666-59.205-422.603-61.78-423.676-62.509-423.589-62.451-423.502-62.393-423.419-62.333-448.387-79.593-475.805-94.353-501.364-110.955-500.539-110.42-499.806-109.932-500.144-110.112-501.691-110.926-504.479-112.719-507.583-114.726-508.358-115.227-509.161-115.763-509.954-116.258-510.949-116.878-512.305-117.386-513.614-117.382-516.245-117.415-518.465-116.222-519.668-114.821-520.762-113.548-520.432-113.557-520.451-113.511-520.29-113.407-520.927-113.262-521.233-110.631-521.233-110.631-521.606-109.217-520.646-107.475-520.148-106.569-519.446-105.73-518.777-104.925-518.083-104.074-517.323-103.146-516.535-102.182-513.371-98.332-509.657-93.932-507.54-91.622-509.398-93.822-509.337-93.92-510.4-95.309-506.939-91.135-503.44-86.914-499.912-82.658-498.034-80.415-497.094-79.295-495.218-77.054-494.991-76.78-494.878-76.645-494.651-76.373-494.868-76.412-495.234-76.548-495.517-76.63-498.436-77.583-499.897-78.061-502.815-79.013-506.21-80.191-507.911-80.78-511.303-81.957-516.831-83.939-522.759-86.228-527.766-88.322-530.765-91.027-533.758-93.752-536.734-96.412-539.784-99.135-542.876-101.841-545.923-104.535-544.376-103.011-543.603-102.249-542.056-100.724-557.055-112.913-551.25-109.439-563.142-119.024-595.726-145.285-633.523-169.444-669.039-190.319-671.629-191.842-667.425-189.551-666.889-189.415-670.087-191.158-671.141-191.452-675.349-193.992-674.916-193.842-674.703-193.766-674.27-193.616-676.403-194.727-678.758-195.956-681.278-197.273-682.586-197.949-683.714-198.613-685.276-199.367-687.268-200.33-689.864-199.736-691.31-198.699-692.816-197.621-693.957-196.193-694.531-194.548-695.086-192.926-695.167-190.901-694.076-189.225-693.483-188.317-692.926-187.816-692.388-187.226-691.738-186.528-691.414-186.178-690.763-185.479-689.467-184.082-688.814-183.384-687.518-181.987-678.847-172.748-670.066-164.312-664.671-159.948-651.747-147.809-641.639-139.228-624.481-126.714-619.004-122.719-630.6-131.707-623.165-126.216-617.808-122.26-612.23-118.258-606.611-114.438-606.974-114.687-607.156-114.814-607.519-115.062-599.508-109.4-588.232-102.684-576.094-96.181-563.955-89.677-550.791-83.531-539.313-78.37-539.703-78.551-539.897-78.641-540.287-78.823-540.523-78.996-539.432-78.595-537.82-77.945-537.013-77.611-536.078-77.223-535.11-76.82-534.502-76.681-533.743-75.628-533.054-75.036-532.606-74.533-532.859-74.73-533.442-75.247-533.733-75.508-534.108-75.843-534.517-76.211-534.77-76.436-534.82-76.502-534.95-76.527-535.28-76.654-535.444-76.718-535.774-76.845-535.439-76.695-535.274-76.62-534.941-76.471-534.862-76.458-534.689-76.232-534.43-75.991-533.978-75.542-533.538-75.104-533.11-74.678-532.249-73.822-531.432-73.008-530.65-72.23-529.085-70.675-527.667-69.265-526.353-67.958-523.718-65.35-521.503-63.157-519.388-61.064-515.45-57.194-511.88-53.69-506.287-48.203-506.43-48.384-506.517-48.501-506.568-48.565-506.63-48.652-506.754-48.797-506.602-48.667-506.45-48.562-506.202-48.353-505.78-47.979-505.566-47.789-505.334-47.583-505.1-47.378-504.909-47.187-504.375-46.806-504.817-46.966-505.255-47.039-505.656-47.093-505.654-47.023-506.904-47.45-506.533-47.429-506.624-47.517-506.649-47.558-506.749-47.618-507.008-47.727-507.761-47.975-509.07-48.408-511.36-49.162-525.385-53.706-537.936-59.541-547.605-66.089-551.488-68.721-556.616-72.598-556.628-73.026-557.49-73.66-558.043-74.178-559.101-74.86-560.054-75.597-561.48-75.968-562.809-76.007-565.575-75.858-567.478-74.311-568.525-72.741-569.607-71.132-570.092-69.264-569.825-67.392-569.692-66.46-569.312-65.52-568.742-64.687-568.175-63.858-567.325-63.12-566.762-62.638-561.693-58.281-556.385-53.533-549.373-46.763-549.197-46.651-549.107-46.594-548.931-46.482-545.432-42.632-536.905-34.633-534.689-31.813-534.941-32.283-536.303-33.826-535.863-33.509-533.538-30.883-532.373-29.57-530.046-26.943-532.724-30.09-533.759-32.058-529.142-26.706-524.391-21.199-530.664-28.151-528.428-25.285-527.71-24.683-527.349-24.383-526.632-23.781-522.977-19.464-522.288-18.043-526.879-23.23-523.727-19.583-520.631-15.899-517.688-12.2-516.416-10.602-515.153-8.986-513.895-7.391-513.755-7.2-513.684-7.104-513.543-6.914-513.454-6.778-513.843-6.98-513.949-6.99-514.623-7.196-514.96-7.298-515.632-7.504-516.809-7.864-517.997-8.21-519.131-8.616-521.402-9.43-523.76-10.176-525.966-10.988-530.349-12.601-534.793-14.324-538.904-16.206-538.241-15.819-537.911-15.625-537.249-15.237-546.529-19.127-558.372-25.513-563.477-28.457-563.664-28.647-565.68-29.991-564.279-29.238-574.099-35.633-565.641-29.548-576.143-36.791-573.574-34.957-570.227-32.741-569.87-32.341-576.561-36.728-582.957-41.449-589.058-46.435-589.249-46.424-592.188-48.732-595.938-51.751-597.824-53.269-599.868-55.131-601.9-56.952-603.937-58.778-605.941-60.679-607.626-62.471-607.805-62.814-605.75-60.848-603.879-59.14-605.42-60.587-606.835-62.136-608.318-63.63-609.815-64.916-610.567-65.56-612.064-66.847-614.414-69.606-615.589-70.987-617.936-73.747-617.994-73.763-618.023-73.77-618.081-73.786-622.356-78.906-623.97-81.087-627.251-85.259-627.333-85.364-627.402-85.448-627.484-85.551-627.432-85.541-627.609-85.781-627.558-85.772-627.449-85.762-627.393-85.758-627.287-85.749-627.211-85.721-627.173-85.709-627.1-85.682-626.22-85.358-625.781-85.197-624.901-84.875-624.429-84.727-624.419-84.639-623.518-84.424-622.632-84.355-622.189-84.321-621.303-84.252-619.717-84.021-620.436-84.308-618.773-84.244-618.005-84.214-617.244-84.206-616.483-84.338-615.916-84.436-615.423-84.601-614.958-84.898-614.528-85.176-614.075-85.321-613.589-85.523-613.054-85.744-612.558-86.054-612.109-86.383-611.772-86.63-610.856-87.541-610.332-87.398-610.253-87.655-610.211-87.785-610.132-88.042-610.062-88.27-610.025-88.385-609.955-88.613-609.885-88.842-609.85-88.955-609.78-89.184-609.699-89.442-609.659-89.571-609.58-89.828-611.798-90.388-614.041-90.953-616.318-91.529-617.006-91.698-617.348-91.783-618.036-91.953-618.211-91.996-618.295-92.018-618.47-92.06-618.675-92.113-618.45-92.05-618.697-92.13-619.039-92.248-619.21-92.304-619.554-92.422-620.7-92.81-619.551-92.674-620.713-93.068-623.03-93.871-626.382-94.675-628.899-95.078-630.392-95.386-631.14-95.539-632.632-95.848-633.263-95.966-633.875-96.123-634.523-96.214-634.863-96.26-635.201-96.303-635.597-96.325-635.796-96.337-636.009-96.344-636.297-96.323-636.379-96.289-636.551-96.287-636.756-96.245-637.28-96.37-637.539-96.431-638.062-96.556-638.635-96.658-638.961-96.813-639.685-96.914-640.838-96.835-642.016-96.914-643.159-96.773-643.619-96.664-644.076-96.551-644.536-96.443-645.588-96.1-646.953-95.996-648.224-95.75-649.412-95.559-650.004-95.462-651.192-95.27-650.243-93.371-649.084-91.339-647.961-89.502-647.359-88.889-646.757-88.28-646.184-87.638-644.58-85.826-643.095-83.853-641.649-81.942-641.62-81.905-641.597-81.873-641.567-81.838-641.146-80.769-640.416-79.763-639.68-78.93-638.423-77.508-636.864-75.528-634.565-72.752-634.418-71.899-630.608-67.385-626.667-63.004-622.708-58.603-618.355-54.045-616.954-52.621-610.239-45.79-600.742-37.887-590.348-30.128-579.946-22.378-568.126-14.965-556.185-8.984-556.826-9.327-557.489-9.636-558.109-10.012-547.737-5.197-546.715-3.807-535.114 .718-536.266 .244-536.839 .009-537.99-.465-530.462 2.239-519.869 5.933-509.476 8.83-506.896 9.548-504.142 10.176-501.539 10.799-500.236 11.111-498.934 11.412-497.657 11.713-496.613 12.04-494.516 12.403-493.087 11.666-487.487 8.732-488.253 2.319-490.861-.319-489.297 2.073-490.377 .966-492.919-2.723-495.059-5.826-490.324 .075-495.122-6.318-494.013-4.698-495.057-5.885-496.136-7.348-497.917-9.912-498.808-11.194-500.587-13.758-504.119-18.229-507.926-22.9-511.944-27.512-513.958-29.822-516.034-32.159-518.1-34.509-519.336-35.856-519.952-36.531-521.188-37.878-520.017-37.453-519.432-37.243-518.26-36.819-515.703-35.93-513.127-35.111-510.553-34.34-505.401-32.812-500.166-31.429-495.156-30.524-490.981-29.771-493.98-30.52-494.953-30.806-492.702-30.358-490.402-29.938-488.171-29.63-486.983-29.466-486.036-29.218-484.6-29.195-483.161-29.172-481.846-29.802-480.874-30.536-478.946-32.042-477.793-34.163-477.79-36.474-477.789-37.626-478.219-38.835-479.031-39.797-479.779-40.674-480.486-41.337-481.211-42.114-486.993-48.096-492.628-53.931-497.984-59.483-498.541-59.842-498.82-60.022-499.377-60.379-500.031-61.059-500.571-61.622-501.034-62.103-501.496-62.597-501.9-63.036-501.925-63.097-502.151-63.393-502.84-63.957-502.906-64.096-502.976-64.237-503.032-64.35-503.241-64.576-503.487-64.772-503.219-64.668-503.011-64.621-502.78-64.574-502.507-64.518-502.18-64.451-501.837-64.371-502.345-64.532-503.209-64.814-503.434-64.889-503.672-64.968-503.914-65.047-503.923-64.985-503.687-64.776-503.591-64.649-503.336-64.357-502.48-63.671-502.337-63.469-502.893-64.014-503.722-64.731-503.852-64.992-503.22-64.799-502.698-64.651-502.28-64.513-501.238-64.17-500.561-63.894-499.902-63.659-497.755-62.889-495.656-62.033-488.321-59.899-477.173-56.656-479.238-57.332-475.165-55.87-473.748-55.458-472.232-55.76-471.239-56.277-470.207-56.788-469.502-57.45-468.986-58.091-467.947-59.385-467.509-60.633-467.301-61.761-466.871-63.956-467.67-66.072-469.042-67.424-470.241-68.607-471.584-70.065-473.404-72.152-474.315-73.197-475.384-74.428-476.618-75.883-477.232-76.607-477.894-77.414-478.615-78.276-479.129-78.911-479.685-79.594-480.287-80.336-480.62-80.891-480.729-81.155-480.539-81.046-480.315-80.9-481.319-81.438-480.467-80.9-480.83-81.311-480.431-81.272-480.648-81.52-479.534-80.796-478.778-80.306-477.942-79.762-474.809-77.811-470.973-75.762-465.481-72.496-458.049-68.697-472.628-76.46-464.594-72.251-465.479-72.702-465.92-72.929-466.808-73.38-465.729-72.771-464.525-72.195-463.153-71.378-460.853-70.009-459.691-69.485-457.476-68.094-457.374-68.226-459.878-69.54-461.827-70.764-460.677-70.117-459.515-69.465-458.42-68.848-458.146-68.672-458.006-68.585-457.732-68.41-457.871-68.505-457.966-68.576-458.083-68.657-456.84-67.958-455.715-67.321-454.825-66.813-455.895-67.447-457.313-68.287-458.86-69.206-459.393-69.582-460.923-70.152-462.449-71.069-460.729-70.323-456.745-67.552-452.6-65.035-452.403-64.753-452.611-65.275-454.105-65.955-453.929-65.881-453.418-65.465-452.767-65.11-432.634-51.939-410.709-39.059-389.199-27.695-390.588-28.598-392.582-29.42-393.969-30.321-379.921-22.73-365.411-15.218-351.352-7.64-353.522-8.837-354.609-9.437-356.78-10.636-345.642-4.608-334.356 1.212-322.937 6.819-313.735 11.334-302.39 15.968-293.483 20.953-286.438 24.895-274.623 28.67-267.398 31.599-254.239 36.935-240.007 42.248-226.611 47.11-227.392 46.759-229.119 46.196-229.896 45.846-221 48.93-212.098 52.512-203.005 55.126-200.743 55.777-199.123 56.187-198.169 56.352-194.372 57.627-191.053 58.98-185.488 60.216-188.712 59.367-191.899 58.413-195.064 57.405-193.549 57.815-192.79 58.02-191.275 58.429-187.525 59.654-183.714 60.729-179.999 61.766-172.787 63.779-169.509 64.294-168.459 64.378-167.165 64.733-165.686 64.507-164.641 63.859-163.578 63.226-162.457 61.624-162.347 60.222-162.838 61.811-163.886 63.101-164.809 63.619-166.188 64.533-167.23 64.347-168.027 64.237-168.779 64.045-169.231 64.042-169.672 63.772-169.317 63.864-168.397 63.897-168.042 63.989-162.878 65.311-159.857 56.271-164.143 53.38-181.74 41.506-199.327 29.622-216.904 17.726-217.4 17.308-217.65 17.099-218.144 16.683-218.376 16.52-218.601 16.352-218.826 16.184-219.27 15.851-219.69 15.479-220.148 15.167-220.633 14.837-221.12 14.509-221.607 14.182-222.876 13.324-224.125 12.444-225.372 11.565-227.298 10.204-229.217 8.835-231.192 7.527-233.915 5.722-237.63 3.474-240.769 1.364-241.147 1.109-234.242 5.795-236.253 4.619-237.222 3.962-238.189 3.307-239.158 2.651-240.98 1.365-242.662 .198-244.078-.817-244.864-1.381-245.604-1.932-246.319-2.452-246.685-2.723-246.869-2.859-247.232-3.129-247.296-3.197-247.689-3.43-247.472-3.352-247.137-3.224-246.971-3.16-246.637-3.032-244.719-2.291-242.765-1.522-240.479-.652-238.281 .185-235.725 1.131-232.537 2.327-228.217 3.976-223.93 5.531-219.745 7.007-218.7 7.375-217.646 7.76-216.626 8.101-215.518 8.471-214.121 8.611-212.881 8.316-210.3 7.736-208.776 5.681-208.26 3.796-207.727 1.852-208.116-.234-209.064-1.887-209.959-3.446-210.867-5.005-211.742-6.452-213.498-9.36-215.236-12.1-216.808-14.635-217.021-15.256-215.888-12.942-214.8-11.689-214.556-11.068-216.292-14.134-217.079-15.263-217.467-15.818-217.885-16.414-218.219-16.891-218.415-17.157-218.574-17.364-218.636-17.412-219.075-18.184-219.377-18.686-219.695-19.165-219.057-18.891-218.478-18.645-217.933-18.413-217.113-18.095-216.347-17.797-215.599-17.508-213.427-16.671-211.353-15.881-208.995-14.899-210.368-15.497-205.379-13.749-202.049-12.716-197.29-11.696-195.358-11.005-195.715-11.127-188.391-8.887-183.406-8.289-172.099-5.756-171.438-5.587-171.107-5.502-170.446-5.333-169.786-5.212-169.454-5.151-168.795-5.03-168.161-4.92-162.906-3.571-162.242-3.652-162.35-3.639-162.455-3.625-162.562-3.618-162.389-3.627-162.825-3.735-161.422-3.548-159.346-3.269-157.116-3.834-155.007-4.084-155.176-4.171-153.542-4.407-153.709-4.492-152.571-4.666-154.3-4.355-153.236-4.771-152.881-4.91-152.525-5.08-152.295-5.353-151.848-5.886-152.264-5.407-152.564-6.016M735.057 112.374C741.971 112.748 741.042 124.255 734.122 123.881 734.011 123.876 733.898 123.869 733.787 123.864 733.944 124.026 734.163 124.191 734.198 124.34 734.428 124.302 734.755 124.269 735.302 124.246 735.658 124.323 736.027 124.297 736.426 124.311 735.655 124.569 734.856 124.561 734.048 124.542 733.729 124.722 732.78 124.854 730.352 124.871 728.882 124.677 728.146 124.579 726.675 124.385 726.189 124.45 725.948 124.483 725.465 124.547 726.709 124.621 727.332 124.657 728.576 124.73 726.796 124.849 725.691 124.598 724.445 124.402 724.138 124.506 723.614 124.563 722.878 124.568 721.439 124.31 720.718 124.179 719.277 123.921 718.826 124.082 720.882 124.375 718.435 124.344 716.749 124.043 720.098 124.02 717.291 123.731 715.506 123.848 716.008 124.049 713.945 123.754 713.647 123.858 714.079 123.961 714.899 124.058 713.062 123.812 710.012 123.729 709.075 123.428 707.211 123.591 702.837 123.018 702.986 123.472 702.414 123.335 699.757 122.945 698.06 122.833 701.124 123.535 691.7 122.516 692.479 123.13 690.218 122.526 684.2 122.46 680.155 121.972 680.378 122.022 680.819 122.123 681.181 122.119 678.899 122.032 678.217 122.138 676.751 122.146 674.753 122.16 672.34 121.221 670.209 121.15 670.673 121.508 671.255 121.744 671.868 121.82 666.769 121.15 661.604 120.874 656.45 120.995 657.043 121.125 657.636 121.256 658.229 121.387 656.829 120.966 655.332 120.856 653.856 120.75 647.573 120.298 640.962 120.322 634.773 119.24 634.534 119.259 634.411 119.284 634.348 119.309 634.879 119.152 634.974 118.967 634.878 118.826 633.319 118.732 632.004 118.426 631.402 118.637 632.357 118.685 632.427 118.787 632.868 118.888 632.219 118.809 631.895 118.769 631.246 118.691 629.751 118.957 633.465 118.936 633.441 119.195 630.62 118.935 627.81 118.539 624.974 118.401 626.832 118.854 628.847 119.159 630.775 119.506 621.731 118.854 612.683 118.2 603.638 117.541 603.385 117.522 603.054 117.543 602.971 117.757 602.891 117.969 603.447 118.011 603.315 117.82 601.003 117.568 598.689 117.316 596.377 117.063 597.208 117.204 598.037 117.344 598.866 117.484 591.655 117.013 584.449 116.536 577.254 115.958 577.557 116.079 578.521 116.242 577.188 116.27 570.055 115.686 561.927 115.426 555.018 115.227 553.974 115.048 553.451 114.957 552.406 114.777 551.793 114.744 551.259 114.845 551.921 114.941 549.225 114.896 551.793 114.744 550.513 114.554 548.985 114.443 548.481 114.605 549.443 114.751 544.719 114.221 535.979 113.418 530.959 113.44 531.346 113.498 531.539 113.526 531.926 113.584 528.028 113.476 527.583 112.721 523.956 112.783 524.228 112.819 524.368 112.839 524.64 112.876 501.766 111.87 478.88 110.501 456.041 108.988 455.606 108.734 456.76 108.561 456.628 109.001 456.499 109.443 455.803 109.477 455.285 109.416 445.561 108.274 435.296 107.567 425.485 107.38 427.811 107.423 427.309 107.019 425.413 106.866 425.101 106.979 424.943 107.035 424.628 107.147 423.423 106.869 426.621 107.146 424.126 106.743 421.707 106.631 422.472 107.016 423.852 107.209 422.678 107.091 422.096 107.03 420.923 106.912 420.744 107.001 421.426 107.095 421.597 107.232 420.409 106.953 416.502 107.247 414.79 106.786 414.722 106.822 414.687 106.838 414.616 106.873 408.161 106.417 405.224 106.21 399.962 105.837 399.882 105.546 397.816 105.481 396.266 105.155 392.391 105.004 387.993 105.042 383.414 104.644 380.203 104.364 382.478 104.343 381.017 104.082 380.755 104.326 376.101 104.009 378.502 104.346 372.908 103.952 371.357 103.846 364.294 103.191 365.071 103.133 365.94 103.142 365.5 103.026 364.218 102.902 362.568 102.949 362.743 103.086 362.878 103.104 362.945 103.114 363.078 103.132 355.249 102.254 356.73 101.382 350.681 100.454 348.139 100.183 346.865 100.047 344.322 99.776 341.299 99.629 346.117 100.086 343.871 100.104 336.828 99.223 322.417 98.089 316.611 97.427 314.326 97.663 310.325 97.393 306.13 97.074 305.097 96.988 304.089 96.975 302.606 96.634 301.287 96.173 297.662 95.588 296.992 94.648 295.629 92.743 295.982 94.226 296.014 92.668 296.072 92.819 296.103 92.894 296.161 93.045 296.613 91.497 296.179 92.717 296.702 91.558 296.694 91.771 296.235 93.261 296.635 92.357 297.293 90.874 302.348 92.468 304.47 91.817 305.447 91.454 310.381 92.336 311.157 92.383 312.18 92.446 312.691 92.478 313.716 92.539 317.132 92.72 320.101 91.856 323.56 92.028 330.471 92.371 334.361 92.229 341.17 92.571 346.156 92.82 342.422 92.874 348.758 92.845 351.028 92.799 352.161 92.777 354.431 92.73 364.487 93.77 369.605 92.798 379.451 93.755 378.87 93.642 378.861 93.54 377.897 93.481 380.001 93.372 385.608 93.952 385.629 94.154 387.169 94.227 386.013 93.979 386.955 93.955 389.021 93.904 389.948 94.316 391.077 94.145 391.272 94.117 392.732 94.305 392.348 94.263 393.702 94.465 399.635 94.756 398.309 94.954 402.023 95.052 402.008 94.444 404.982 94.464 413.139 96.306 422.928 95.309 431.309 95.717 441.141 96.198 450.962 96.877 460.759 97.752 458.588 97.426 456.418 97.102 454.245 96.778 467.915 99.574 482.107 99.421 496.141 99.582 526.39 99.925 556.59 101.786 586.77 103.61 601.215 104.483 615.665 105.35 630.113 106.208 637.339 106.638 644.564 107.064 651.787 107.49 657.97 107.855 664.899 109.066 671.056 108.689 669.95 108.582 668.479 108.44 667.375 108.332 669.891 108.155 670.172 108.252 672.03 108.304 671.957 108.303 671.918 108.301 671.846 108.3 673.563 108.339 674.421 108.358 676.138 108.396 675.699 108.406 675.48 108.411 675.041 108.42 678.154 109.299 681.474 108.907 685.703 109.602 681.593 108.937 685.036 109.312 684.743 108.989 685.837 108.964 687.498 108.962 687.033 108.849 689.028 109.207 690.409 108.841 693.228 109.358 693.362 109.266 695.381 109.466 694.948 109.195 697.561 109.415 694.316 109.332 694.527 109.467 698.538 110.025 704.141 109.713 709.821 110.359 714.319 110.871 715.579 111.143 719.336 111.523 719.773 111.546 720.21 111.571 720.647 111.594 721.4 111.485 719.093 111.193 719.093 111.193 721.633 111.186 723.537 111.317 725.911 111.56 725.435 111.448 725.938 111.401 726.674 111.33 728.585 111.461 727.929 111.758 730.46 111.749 730.038 111.617 729.493 111.411 728.579 111.25 730.807 111.5 733.091 111.757 735.391 112.014 736.051 111.893 733.945 111.613 733.165 111.491 733.833 111.557 734.534 111.578 735.378 111.697 736.273 111.802 737.158 112.115 737.848 112.568 737.985 112.66 738.069 112.761 738.187 112.858 737.595 112.378 736.957 112.165 736.521 112.061 735.899 111.988 735.574 112.062 735.501 112.094 736.1 112.17 736.659 112.349 737.171 112.631 736.246 112.366 734.592 112.339 732.722 112.14 730.854 111.946 728.789 111.676 727.112 111.602 727.558 111.762 727.778 111.844 728.224 112.004 730.501 112.128 732.778 112.251 735.057 112.374M605.998 61.45C606.776 62.238 608.267 62.503 608.592 63.616 610.506 65.188 611.823 66.659 612.783 68.855 613.11 69.602 613.085 71.67 612.812 72.958 612.742 73.292 612.655 73.572 612.553 73.764 612.111 74.597 610.993 75.079 610.699 75.958 610.516 75.781 610.736 75.352 610.738 75.312 610.738 75.312 609.228 76.244 609.529 77.384 609.58 77.572 607.848 77.618 607.958 77.696 607.985 78.285 604.556 78.023 603.971 76.953 603.886 77.073 603.801 77.192 603.715 77.312 603.609 76.894 603.052 76.609 602.582 76.736 602.131 75.832 600.678 74.338 600.564 73.503 600.339 73.34 600.068 73.281 599.84 73.349 599.452 72.462 598.461 72.55 597.667 73.165 597.1 72.954 596.643 73.599 596.053 73.751 590.772 75.126 585.711 75.355 584.386 73.874 582.976 72.3 588.805 64.342 592.408 61.646 592.516 61.565 592.639 61.479 592.782 61.481 592.955 61.484 593.099 61.613 593.269 61.613 593.442 61.613 593.326 61.365 593.326 61.365 593.326 61.365 599.387 59.454 602.928 60.439 602.77 60.322 602.612 60.204 602.455 60.086 603.283 60.542 604.229 60.835 605.201 60.937 605.071 61.24 605.194 61.884 605.194 61.884 605.194 61.884 605.931 61.466 605.998 61.45M67.555-25.849C67.441-25.808 67.372-25.857 67.338-25.861 67.295-25.831 67.358-25.75 66.917-25.888 66.778-25.939 66.805-25.945 66.846-25.945 66.799-25.949 66.715-25.958 66.54-25.982 66.579-25.955 66.537-25.981 66.514-26.008 66.408-26.015 66.134-26.1 66.252-26 65.856-26.014 66.11-26.04 65.803-26.074 65.508-26.018 65.817-26.12 65.621-26.077 65.603-26.073 65.592-26.073 65.573-26.069 65.543-26.018 65.188-26.046 65.296-26.002 65.213-26.11 64.929-26.048 65.081-26.141 64.589-26.199 63.951-26.507 63.639-26.49 63.494-26.599 63.829-26.452 63.559-26.591 62.953-26.903 62.306-27.014 61.753-27.438 61.617-27.542 61.964-27.47 61.738-27.515 61.716-27.465 61.464-27.664 61.509-27.624 61.181-27.755 60.869-27.91 60.562-28.071 60.264-28.229 60.211-28.217 60.077-28.355 60.158-28.344 59.784-28.565 59.865-28.556 59.728-28.58 59.748-28.562 59.772-28.558 59.772-28.548 59.78-28.535 59.74-28.545 59.752-28.486 59.484-28.655 59.496-28.596 59.241-28.768 58.989-28.938 58.735-29.11 58.783-29.11 58.663-29.192 58.655-29.245 58.648-29.3 58.582-29.376 58.528-29.408 57.92-29.764 57.605-30.148 57-30.499 56.319-30.893 55.654-31.301 54.996-31.723 53.683-32.566 52.419-33.469 51.209-34.423 51.03-34.566 50.849-34.71 50.65-34.83 50.331-35.021 49.967-35.148 49.634-35.322 49.129-35.583 48.699-35.945 48.28-36.308 47.571-36.915 46.872-37.53 46.182-38.152 45.616-38.659 45.027-39.419 44.365-39.82 44.493-39.759 44.35-39.822 44.35-39.822 44.35-39.822 43.103-40.814 42.436-41.494 42.219-41.715 41.637-42.415 41.637-42.415 41.637-42.415 41.691-42.208 41.75-42.116 40.851-43.305 39.909-44.467 38.892-45.582 38.737-45.752 36.947-48.255 36.883-48.245 36.681-48.35 36.829-48.321 36.667-48.514 36.386-48.864 36.248-49.04 35.967-49.391 36.193-48.968 35.764-49.541 35.721-49.541 35.719-49.59 35.719-49.615 35.717-49.663 35.554-49.807 35.768-49.544 35.669-49.62 35.612-49.719 35.584-49.769 35.527-49.868 35.224-50.131 34.977-50.645 34.977-50.645 34.977-50.645 35.841-50.252 35.97-50.182 36.203-50.058 36.728-49.956 36.877-49.774 36.823-49.759 36.979-49.705 36.926-49.689 37.428-49.528 37.693-49.338 38.114-49.05 38.385-48.865 38.644-48.654 38.953-48.525 39.201-48.421 39.151-48.456 39.385-48.292 39.305-48.312 39.502-48.209 39.422-48.23 41.232-47.203 43.039-46.177 44.849-45.15 45.49-44.787 46.025-44.326 46.645-43.948 46.782-43.864 46.79-43.813 46.933-43.743 47.726-43.062 48.608-42.564 49.408-41.789 49.975-41.475 49.975-41.113 50.584-40.84 50.616-40.872 50.69-40.732 50.718-40.663 52.126-39.344 54.021-38.028 55.55-36.854 56.748-36.014 57.886-34.968 58.627-34.46 58.638-34.419 58.637-34.48 58.737-34.378 58.943-34.169 58.881-34.282 58.919-34.281 59.027-34.154 59.191-33.999 59.258-33.875 59.284-33.854 59.296-33.843 59.322-33.822 60.128-33.175 60.657-32.486 61.401-31.936 61.813-31.436 62.188-31.335 62.638-30.735 62.597-30.834 62.409-31.009 62.558-30.932 63.211-30.127 64.413-29.292 64.413-29.292 64.413-29.292 64.539-29.164 64.532-29.204 64.56-29.171 64.574-29.154 64.599-29.121 64.76-29.01 64.673-29.031 64.749-29.017 65.034-28.963 66.305-27.56 66.445-27.307 66.512-27.186 66.542-27.126 66.609-27.004 66.722-26.935 66.612-26.929 66.649-26.96 66.682-26.922 66.702-26.903 66.735-26.863 66.759-26.884 66.72-26.901 66.805-26.78 66.776-26.825 66.828-26.785 66.789-26.82 66.864-26.751 66.9-26.717 66.977-26.646 66.99-26.656 66.989-26.783 67.152-26.543 67.36-26.361 67.285-26.214 67.33-26.072 67.391-26.04 67.462-25.979 67.555-25.849M115.641-50.494C115.871-51.616 116.144-52.121 115.551-53.646 115.235-54.716 114.132-55.376 113.19-55.763 112.317-56.062 112.773-56.086 112.207-56.521 112.199-56.663 112.025-56.509 111.216-56.953 111.238-56.667 110.77-57.213 110.677-57.14 110.287-57.518 109.569-57.556 109.033-57.727 108.613-57.86 107.263-58.234 106.925-58.109 106.94-57.928 107.085-58.089 106.098-58.38 104.954-58.731 105.595-58.33 104.684-59.032 103.787-59.349 102.736-59.59 101.771-59.574 102.117-59.414 100.565-59.88 100.913-59.719 100.752-59.783 100.67-59.816 100.506-59.88 100.676-59.744 100.196-59.997 100.366-59.86 99.136-60.118 98.538-59.977 97.325-60.243 97.264-60.257 97.204-60.235 97.141-60.242 96.7-60.34 96.139-60.442 96.223-60.521 94.89-60.45 93.563-60.286 92.263-60.033 90.939-59.775 89.636-59.423 88.392-58.96 84.88-57.657 81.421-56.081 78.822-53.374 76.887-51.361 77.556-48.943 76.388-46.518 76.436-46.311 76.461-46.206 76.508-46 75.518-42.258 75.85-38.25 77.456-34.662 77.039-34.971 77.195-34.421 77.021-34.873 77.088-34.526 76.8-35.106 76.889-34.808 76.562-35.087 76.364-35.478 76.061-35.777 75.98-35.86 75.727-36.274 75.578-36.265 75.393-36.252 74.339-36.956 74.339-36.956 74.339-36.956 72.602-38.114 71.259-39.268 66.85-43.055 61.995-46.537 57.451-50.216 57.729-49.888 58.009-49.56 58.289-49.23 54.458-52.467 50.322-55.423 45.923-58.046 45.462-58.322 44.961-58.604 44.402-58.605 42.722-59.629 41.328-60.387 39.345-60.861 39.909-61.006 37.548-61.478 36.98-61.717 36.976-61.715 36.965-61.721 36.995-61.694 36.227-61.76 35.734-61.894 34.932-61.965 33.927-62.054 32.917-62.143 31.912-62.234 31.802-62.243 31.668-62.245 31.606-62.167 31.539-62.09 31.131-62.037 31.198-62.113 27.341-61.95 24.098-60.686 20.998-58.68 21.241-58.709 20.385-58.345 20.625-58.374 19.701-57.546 19.275-57.786 18.591-56.77 16.932-54.308 17.15-51.323 18.673-48.843 19.769-47.062 21.348-45.55 22.827-43.992 22.937-43.875 22.891-43.598 22.757-43.697 24.422-42.044 25.995-40.154 27.884-38.695 29.764-37.247 31.404-35.598 33.215-34.105 33.205-34.172 33.234-34.219 33.301-34.247 35.352-32.51 37.398-30.809 39.667-29.282 40.221-28.908 40.783-28.542 41.345-28.178 41.717-27.937 42.087-27.697 42.455-27.457 43.203-26.971 43.952-26.485 44.709-26.011 45.437-25.555 46.168-25.112 46.904-24.666 48.384-23.77 49.866-22.874 51.346-21.977 55.459-19.484 59.944-17.437 64.567-15.773 65.989-15.26 67.421-14.836 68.881-14.423 69.238-14.322 71.398-13.905 71.553-13.508 71.607-13.495 71.66-13.481 71.712-13.466 72.488-13.385 73.92-12.893 74.661-12.863 74.903-12.854 75.263-12.698 75.495-12.632 75.785-12.551 76.066-12.448 76.365-12.394 77.148-12.25 77.938-12.445 78.664-12.692 79.361-12.929 80.046-13.175 80.681-13.529 80.902-13.652 81.116-13.816 81.243-14.021 81.37-14.219 81.35-14.427 81.421-14.637 81.505-14.775 81.562-14.815 82.009-14.707 81.358-14.413 84.014-13.229 83.95-12.717 84.461-12.477 84.939-12.194 85.407-11.893 85.529-11.813 85.656-11.732 85.777-11.649 86.725-11.016 87.622-10.33 88.521-9.647 88.971-9.305 89.42-8.964 89.877-8.628 90.104-8.461 90.339-8.299 90.568-8.134 90.748-8.004 90.85-7.834 91.059-7.719 91.38-7.54 91.639-7.327 91.916-7.098 92.086-6.957 92.274-6.842 92.488-6.754 92.632-6.693 92.786-6.646 92.94-6.606 93.011-6.587 93.404-6.546 93.426-6.507 93.483-6.512 93.526-6.509 93.574-6.503 94.012-6.469 94.466-6.399 94.9-6.427 95.922-6.492 96.873-6.719 97.786-7.123 98.245-7.326 98.686-7.56 99.105-7.817 99.428-8.014 99.744-8.227 100.041-8.454 100.295-8.65 100.6-8.83 100.807-9.067 100.863-9.13 100.911-9.199 100.953-9.271 101.047-9.434 101.081-9.622 101.193-9.776 101.289-9.909 101.432-10.009 101.536-10.138 101.675-10.315 101.799-10.502 101.901-10.699 102.109-11.092 102.242-11.514 102.311-11.943 102.449-12.8 102.354-13.685 102.11-14.522 101.705-15.897 100.719-16.909 99.947-18.067 98.259-20.599 96.394-23.039 94.765-25.601 94.113-26.618 93.652-27.696 93.15-28.777 92.812-29.502 91.32-30.561 91.441-31.312 91.296-31.147 91.357-31.678 91.21-31.516 90.439-34.448 89.666-37.38 88.893-40.312 88.568-41.556 87.728-42.569 88.659-43.546 88.672-43.404 88.942-43.843 88.888-43.976 88.836-44.111 88.936-44.249 89.034-44.361 90.53-46.037 92.383-46.656 94.646-47.173 95.216-47.302 95.779-47.467 96.366-47.508 97.402-47.578 98.421-47.26 99.4-46.945 100.167-46.699 100.934-46.452 101.701-46.207 101.997-46.111 102.646-46.163 102.471-45.932 102.651-45.973 103.386-45.348 103.536-45.443 104.262-44.894 104.248-44.851 105.143-44.554 104.932-44.59 104.761-44.753 104.735-44.938 105.59-44.238 106.79-43.877 107.953-43.967 107.922-44.047 107.819-44.069 107.748-44.124 109.055-43.731 110.351-44.083 111.663-44.606 112.921-45.105 113.913-46.041 114.546-47.115 114.626-47.254 114.733-47.393 114.84-47.528 114.997-47.843 115.162-48.157 115.288-48.485 115.332-48.589 115.37-48.694 115.409-48.8 115.418-48.823 115.454-48.925 115.48-49.007 115.5-49.065 115.523-49.14 115.529-49.16 115.568-49.295 115.604-49.43 115.64-49.565 115.679-49.727 115.701-49.889 115.739-50.051 115.63-50.222 115.637-50.357 115.641-50.494M657.951 33.491C657.595 33.919 652.935 38.12 652.424 37.294 652.188 37.299 652.067 37.3 651.831 37.304 650.76 37.454 650.427 37.369 649.391 37.566 648.611 37.713 647.894 37.71 647.022 37.568 645.581 37.334 644.261 36.589 642.978 36.008 641.025 35.122 639.21 33.996 637.655 32.633 636.503 31.623 626.136 19.771 626.941 17.875 626.872 17.843 626.819 17.796 626.749 17.783 626.047 17.649 625.5 17.264 624.921 16.921 623.809 16.26 623.8 16.879 623.385 16.46 623.31 16.288 622.783 16.357 622.701 16.189 622.502 16.142 622.573 16.038 622.286 16.037 622.114 15.934 622.105 16.005 622.035 15.921 620.103 15.496 618.556 15.053 616.896 15.219 616.918 15.154 616.624 15.14 616.523 15.122 616.421 15.02 616 15.029 615.788 15.034 614.06 15.091 612.212 15.449 610.277 15.972 609.751 15.994 609.224 16.024 608.674 16.061 608.832 15.573 608.71 15.258 608.372 15.146 608.26 14.618 608.209 14.085 608.266 13.547 610.124 11.9 612.018 10.295 613.978 8.779 615.727 7.64 617.602 6.819 619.681 6.67 620.09 6.641 620.447 6.474 620.786 6.283 621.004 6.084 621.168 5.909 621.391 5.701 621.798 5.325 622.021 4.916 622.531 4.601 622.458 4.607 622.387 4.613 622.314 4.619 622.455 4.409 622.775 4.356 623.052 4.353 623.741 4.341 623.931 3.956 624.56 3.886 624.653 3.751 624.594 3.476 624.584 3.299 624.504 1.855 624.132-.36 624.598-1.717 624.652-1.876 624.706-2.033 624.762-2.189 624.719-2.321 624.68-2.45 624.638-2.582 624.842-4.123 625.046-5.665 625.247-7.208 625.314-7.697 625.38-8.195 625.594-8.651 625.817-9.121 625.497-8.793 626.04-9.708 626.146-10.504 626.362-11.212 626.702-11.849 627.001-12.401 627.575-13.168 628.147-13.534 628.408-13.702 629.159-13.816 629.342-14.006 629.857-14.537 630.522-15.211 631.573-15.491 632.345-15.528 631.747-15.582 632.109-15.488 632.078-15.775 633.271-15.581 632.694-15.71 633.984-15.732 634.474-15.702 635.803-14.952 635.597-14.934 636.16-14.89 636.207-14.774 636.425-14.634 636.062-14.677 636.053-14.855 637.279-13.891 639.798-13.144 639.671-11.823 639.72-11.413 639.725-11.006 639.709-10.607 639.851-10.082 639.592-10.613 639.842-10.242 640.474-9.307 639.515-7.072 639.199-6.128 638.354-3.604 637.91-1.283 637.92 1.328 637.92 1.498 637.917 1.68 637.806 1.818 637.479 2.222 637.418 1.909 637.648 2.469 637.779 2.421 637.516 2.609 637.653 2.598 637.389 3.314 637.401 4.026 637.487 4.764 637.524 5.223 637.543 5.453 637.58 5.913 637.587 6.02 637.556 6.135 637.552 6.236 637.607 6.186 637.77 6.103 637.827 6.197 637.885 6.283 637.764 6.43 637.865 6.47 637.936 6.498 637.996 6.415 638.045 6.362 638.411 5.987 638.833 6.906 639.201 6.703 639.249 6.677 639.134 6.596 639.08 6.556 640.594 8.087 644.152 9.003 646.162 10.026 647.884 10.903 649.58 11.821 651.245 12.778 652.75 13.644 653.711 14.89 655.125 15.729 656.241 16.39 656.971 17.428 657.669 18.435 658.433 19.539 659.139 20.664 659.365 21.953 659.556 23.013 660.347 24.45 660.285 25.479 660.233 26.286 660.49 26.88 660.454 27.688 660.64 27.626 660.513 27.723 660.614 27.574 660.547 28.602 660.271 29.599 659.842 30.547 659.367 31.594 658.712 32.582 657.951 33.491M582.231 9.35C581.806 8.878 581.212 8.552 580.659 8.194 578.976 7.103 577.662 5.663 576.229 4.344 574.881 3.102 573.35 2.189 571.799 1.163 569.887-.102 567.916-1.295 565.857-2.367 564.832-2.902 563.78-3.44 562.702-3.892 561.665-4.324 560.589-4.64 559.622-5.195 559.13-5.477 558.664-5.807 558.107-5.968 557.926-6.593 557.154-6.355 556.707-6.668 556.618-6.731 556.612-6.844 556.611-6.941 556.614-7.558 556.508-7.968 556.443-8.584 556.392-9.048 556.483-9.658 556.334-10.107 555.987-11.16 555.913-12.265 555.912-13.356 555.902-18.445 555.44-23.529 555.091-28.61 555.08-28.758 555.066-28.92 554.946-29.027 554.865-29.099 554.747-29.136 554.672-29.212 554.581-29.308 554.574-29.441 554.555-29.562 554.49-29.99 554.242-30.408 553.858-30.677 553.903-30.608 553.912-30.507 553.831-30.452 553.136-31.371 552.418-32.047 551.261-32.533 550.715-32.76 550.138-32.93 549.549-33.056 549.119-33.148 548.182-33.102 547.832-33.303 547.996-33.209 548.148-33.102 548.29-32.988 546.879-32.449 547.196-33.478 545.925-33.059 544.245-32.337 543.256-31 542.726-29.778 542.237-28.689 542.037-27.579 541.844-26.431 541.817-26.254 541.728-25.338 541.549-25.421 541.871-22.369 542.16-20.004 542.509-16.957 542.629-15.908 542.885-14.952 543.075-13.926 543.172-13.405 543.487-12.142 542.82-11.795 543.023-11.9 543.011-11.726 543.316-11.623 543.126-11.58 543-11.721 542.846-11.632 542.834-11.595 542.864-11.531 542.877-11.481 542.425-11.45 541.986-11.345 541.546-11.249 541.51-11.268 541.443-11.248 541.421-11.289 541.325-11.252 541.238-11.206 541.145-11.169 538.962-10.595 536.872-9.286 534.891-7.425 534.699-7.317 534.506-7.176 534.312-7.062 534.447-6.638 534.464-6.188 534.228-5.783 533.797-5.045 533.454-4.273 533.06-3.52 532.526-2.224 532.169-.912 531.76 .513 531.298 2.115 530.796 3.701 530.047 5.201 530.034 5.368 530.028 5.563 530.028 5.623 530.034 5.838 530.047 6.052 530.067 6.266 530.746 6.472 531.331 6.862 531.687 7.412 532.334 7.217 532.979 7.038 533.633 6.91 533.961 6.604 534.276 6.265 534.619 6 534.777 5.877 535.199 5.379 535.353 5.4 535.533 4.985 535.898 5.155 535.928 5.218 535.422 4.195 541.189 2.535 542.067 2.316 543.821 1.874 544.822 2.493 546.368 3.021 546.623 3.109 546.885 3.201 547.085 3.366 547.627 3.815 547.706 4.472 547.916 5.061 548.149 5.715 548.448 6.349 548.748 6.981 548.981 7.475 549.215 7.97 549.448 8.463 549.651 8.894 549.856 9.327 550.103 9.74 551.208 11.589 553.103 13.171 554.771 14.644 556.471 16.148 558.342 17.514 560.451 18.561 562.77 19.709 565.237 20.84 567.952 20.895 568.683 20.91 569.427 20.756 570.137 20.905 570.832 21.05 571.458 21.399 572.182 21.44 572.612 21.463 573.039 21.372 573.456 21.28 574.756 20.999 576.055 20.715 577.355 20.432 577.918 20.309 578.487 20.185 578.99 19.932 579.752 19.546 580.293 18.901 580.771 18.253 581.323 17.502 581.824 16.72 582.266 15.915 582.246 16.188 582.374 15.5 582.355 15.774 582.447 15.324 582.392 15.836 582.484 15.386 582.507 15.28 582.499 15.089 582.485 15.195 582.548 15.096 582.596 14.992 582.656 14.885 583.562 13.229 583.547 10.819 582.231 9.35" fill="#c20f30"/>
<path transform="matrix(1,0,0,-1,486.3886,339.5136)" d="M0 0-11.321-25.514C-12.708-28.641-13.981-30.906-15.141-32.307-16.302-33.707-17.646-34.726-19.174-35.377-20.703-36.042-22.557-36.368-24.736-36.368-26.632-36.368-28.387-36.113-30.014-35.632V-30.354C-28.415-30.99-26.731-31.302-24.976-31.302-23.491-31.302-22.245-30.948-21.241-30.212-20.236-29.49-19.316-28.174-18.509-26.278L-31.726 0H-25.401L-16.641-17.986C-15.849-19.684-15.368-20.83-15.198-21.396H-14.943C-14.844-20.972-14.604-20.292-14.208-19.358L-6.141 0Z" fill="#c20f30"/>
<path transform="matrix(1,0,0,-1,522.2612,375.3862)" d="M0 0H-5.873V30.849H-16.075C-17.363 20.377-18.396 13.245-19.174 9.467-19.953 5.689-21.042 3.057-22.458 1.585-23.858 .099-25.726-.608-28.047-.566-29.25-.566-30.382-.354-31.457 .042V4.939C-30.524 4.528-29.618 4.316-28.741 4.316-27.552 4.316-26.632 5.024-25.981 6.439-25.316 7.854-24.58 10.981-23.788 15.821-22.995 20.674-22.047 27.354-20.958 35.873H0Z" fill="#c20f30"/>
<path transform="matrix(1,0,0,-1,553.0818,360.372)" d="M0 0-3.368 9.764C-3.609 10.429-3.948 11.448-4.387 12.863-4.811 14.264-5.109 15.297-5.278 15.948-5.717 13.939-6.368 11.745-7.217 9.354L-10.458 0ZM5.123-15.014 1.542-5.052H-12.17L-15.679-15.014H-21.863L-8.448 21H-2.066L11.363-15.014Z" fill="#c20f30"/>
<path transform="matrix(1,0,0,-1,588.6572,344.0277)" d="M0 0C-3.368 0-6.014-1.189-7.953-3.58-9.877-5.972-10.84-9.269-10.84-13.472-10.84-17.873-9.92-21.198-8.052-23.462-6.198-25.712-3.509-26.844 0-26.844 1.528-26.844 3-26.689 4.415-26.391 5.844-26.08 7.316-25.698 8.858-25.231V-30.255C6.042-31.316 2.858-31.854-.708-31.854-5.958-31.854-9.991-30.255-12.807-27.071-15.623-23.901-17.024-19.344-17.024-13.415-17.024-9.693-16.344-6.425-14.972-3.637-13.613-.835-11.632 1.302-9.057 2.802-6.467 4.288-3.439 5.024 .057 5.024 3.722 5.024 7.104 4.259 10.217 2.717L8.094-2.165C6.891-1.585 5.604-1.09 4.259-.651 2.915-.212 1.486 0 0 0" fill="#c20f30"/>
<path transform="matrix(1,0,0,-1,637.7609,375.3862)" d="M0 0H-5.887V16.174H-22.429V0H-28.288V35.873H-22.429V21.198H-5.887V35.873H0Z" fill="#c20f30"/>
<path transform="matrix(1,0,0,-1,0,375.954)" d="M651.431 36.44H657.289V.5669975H651.431Z" fill="#c20f30"/>
<path transform="matrix(1,0,0,-1,698.5107,375.3862)" d="M0 0H-6.891L-21.665 18.184V0H-27.523V35.873H-21.665V18.495L-7.132 35.873H-.708L-15.184 18.552Z" fill="#c20f30"/>
<path transform="matrix(1,0,0,-1,752.3267,375.3862)" d="M0 0H-5.901V30.849H-21.722V0H-27.58V35.873H0Z" fill="#c20f30"/>
<path transform="matrix(1,0,0,-1,0,375.954)" d="M765.996 36.44H771.85397V.5669975H765.996Z" fill="#c20f30"/>
<path transform="matrix(1,0,0,-1,791.4115,359.0985)" d="M0 0V-11.349H6.226C8.689-11.349 10.542-10.882 11.788-9.948 13.047-9 13.67-7.514 13.67-5.491 13.67-3.623 13.033-2.25 11.759-1.344 10.472-.439 8.533 0 5.943 0ZM0 4.769H5.646C8.094 4.769 9.891 5.151 11.024 5.929 12.141 6.708 12.708 8.024 12.708 9.891 12.708 11.575 12.099 12.792 10.882 13.542 9.665 14.307 7.726 14.674 5.08 14.674H0ZM-5.859 19.585H4.783C9.722 19.585 13.302 18.863 15.495 17.42 17.703 15.991 18.792 13.712 18.792 10.599 18.792 8.505 18.255 6.764 17.179 5.377 16.104 3.991 14.547 3.113 12.509 2.759V2.505C15.028 2.038 16.882 1.104 18.071-.297 19.259-1.698 19.854-3.594 19.854-5.986 19.854-9.198 18.722-11.731 16.472-13.557 14.222-15.382 11.094-16.288 7.09-16.288H-5.859Z" fill="#c20f30"/>
<path transform="matrix(1,0,0,-1,840.0765,360.372)" d="M0 0-3.368 9.764C-3.609 10.429-3.948 11.448-4.387 12.863-4.811 14.264-5.109 15.297-5.278 15.948-5.717 13.939-6.368 11.745-7.217 9.354L-10.458 0ZM5.123-15.014 1.542-5.052H-12.17L-15.679-15.014H-21.863L-8.448 21H-2.066L11.363-15.014Z" fill="#c20f30"/>
<path transform="matrix(1,0,0,-1,866.2557,359.0985)" d="M0 0V-11.349H6.226C8.689-11.349 10.542-10.882 11.788-9.948 13.047-9 13.67-7.514 13.67-5.491 13.67-3.623 13.033-2.25 11.759-1.344 10.472-.439 8.533 0 5.943 0ZM0 4.769H5.646C8.094 4.769 9.891 5.151 11.024 5.929 12.141 6.708 12.707 8.024 12.707 9.891 12.707 11.575 12.099 12.792 10.882 13.542 9.665 14.307 7.726 14.674 5.08 14.674H0ZM-5.859 19.585H4.783C9.722 19.585 13.302 18.863 15.495 17.42 17.703 15.991 18.792 13.712 18.792 10.599 18.792 8.505 18.255 6.764 17.179 5.377 16.104 3.991 14.547 3.113 12.509 2.759V2.505C15.028 2.038 16.882 1.104 18.071-.297 19.259-1.698 19.854-3.594 19.854-5.986 19.854-9.198 18.722-11.731 16.472-13.557 14.222-15.382 11.094-16.288 7.09-16.288H-5.859Z" fill="#c20f30"/>
<path transform="matrix(1,0,0,-1,914.9065,360.372)" d="M0 0-3.368 9.764C-3.609 10.429-3.948 11.448-4.387 12.863-4.811 14.264-5.109 15.297-5.278 15.948-5.717 13.939-6.368 11.745-7.217 9.354L-10.458 0ZM5.123-15.014 1.542-5.052H-12.17L-15.679-15.014H-21.863L-8.448 21H-2.066L11.363-15.014Z" fill="#c20f30"/>
<path transform="matrix(1,0,0,-1,941.0857,357.0324)" d="M0 0H3.113C6.127 0 8.335 .524 9.736 1.571 11.151 2.618 11.858 4.259 11.858 6.481 11.858 8.533 11.222 10.075 9.962 11.094 8.703 12.099 6.736 12.608 4.075 12.608H0ZM17.887 6.679C17.887 2.929 16.656 .057 14.207-1.939 11.759-3.934 8.264-4.939 3.736-4.939H0V-18.354H-5.859V17.519H4.472C8.943 17.519 12.311 16.599 14.533 14.774 16.769 12.934 17.887 10.245 17.887 6.679" fill="#c20f30"/>
<path transform="matrix(1,0,0,-1,998.6657,375.3862)" d="M0 0H-5.887V16.174H-22.429V0H-28.288V35.873H-22.429V21.198H-5.887V35.873H0Z" fill="#c20f30"/>
<path transform="matrix(1,0,0,-1,0,375.954)" d="M1012.336 36.44H1018.194V.5669975H1012.336Z" fill="#c20f30"/>
<path transform="matrix(1,0,0,-1,1072.9008,375.3862)" d="M0 0H-6.75L-15.722 14.674-24.778 0H-31.061L-19.16 18.594-30.297 35.873H-23.773L-15.481 22.302-7.189 35.873H-.863L-12.071 18.495Z" fill="#c20f30"/>
<path transform="matrix(1,0,0,-1,0,375.954)" d="M1081.972 36.44H1087.8301V.5669975H1081.972Z" fill="#c20f30"/>
<path transform="matrix(1,0,0,-1,1127.9479,375.3862)" d="M0 0H-6.75L-15.722 14.674-24.778 0H-31.061L-19.16 18.594-30.297 35.873H-23.774L-15.481 22.302-7.189 35.873H-.863L-12.071 18.495Z" fill="#c20f30"/>
<path transform="matrix(1,0,0,-1,1164.6128,375.8814)" d="M0 0C-4.118 0-7.231 1.203-9.368 3.594-11.505 6-12.566 9.439-12.566 13.91-12.566 18.481-11.448 21.991-9.212 24.439-6.99 26.901-3.764 28.118 .467 28.118 3.326 28.118 5.901 27.594 8.193 26.533L6.453 21.891C4.005 22.84 1.995 23.321 .41 23.321-4.288 23.321-6.637 20.193-6.637 13.967-6.637 10.924-6.042 8.632-4.882 7.104-3.708 5.575-1.995 4.811 .269 4.811 2.83 4.811 5.264 5.448 7.557 6.722V1.698C6.524 1.09 5.42 .665 4.245 .396 3.085 .142 1.67 0 0 0" fill="#c20f30"/>
<path transform="matrix(1,0,0,-1,1203.1458,348.24473)" d="M0 0V-4.514H-8.83V-27.141H-14.618V-4.514H-23.448V0Z" fill="#c20f30"/>
<path transform="matrix(1,0,0,-1,515.8218,320.707)" d="M0 0H-14.915L-29.377 24.693V0H-42.594V48.736H-29.377V25.132L-15.424 48.736H-.962L-15.991 25.472Z" fill="#c20f30"/>
<path transform="matrix(1,0,0,-1,548.9633,300.7684)" d="M0 0-2.094 7.995C-2.604 9.764-3.198 12.071-3.877 14.887-4.585 17.717-5.038 19.741-5.264 20.958-5.462 19.825-5.859 17.958-6.453 15.354-7.047 12.764-8.349 7.641-10.358 0ZM5.123-19.939 2.717-10.811H-13.104L-15.566-19.939H-30.028L-14.123 28.995H3.424L19.528-19.939Z" fill="#c20f30"/>
<path transform="matrix(1,0,0,-1,590.3406,293.8062)" d="M0 0H2.406C4.387 0 5.943 .552 7.104 1.67 8.292 2.774 8.858 4.302 8.858 6.269 8.858 9.552 7.047 11.193 3.396 11.193H0ZM22.189 6.325C22.189 .892 20.604-3.325 17.377-6.283 14.179-9.255 9.623-10.741 3.708-10.741H0V-26.901H-13.16V21.835H3.708C9.849 21.835 14.491 20.491 17.575 17.802 20.66 15.113 22.189 11.278 22.189 6.325" fill="#c20f30"/>
<path transform="matrix(1,0,0,-1,648.4725,300.7684)" d="M0 0-2.094 7.995C-2.576 9.764-3.17 12.071-3.877 14.887-4.585 17.717-5.038 19.741-5.264 20.958-5.462 19.825-5.859 17.958-6.453 15.354-7.019 12.764-8.321 7.641-10.359 0ZM5.151-19.939 2.745-10.811H-13.076L-15.566-19.939H-30.028L-14.123 28.995H3.453L19.528-19.939Z" fill="#c20f30"/>
<path transform="matrix(1,0,0,-1,718.2082,320.707)" d="M0 0H-13.245V37.967H-22.557C-23.066 32.434-23.745 26.802-24.594 21.071-25.443 15.325-26.264 11.307-27.057 9-27.821 6.693-28.811 4.854-30 3.481-31.189 2.123-32.66 1.09-34.415 .382-36.17-.311-38.292-.665-40.783-.665-42.679-.665-44.377-.425-45.934 .071V10.231C-44.604 9.792-43.528 9.566-42.679 9.566-41.519 9.566-40.641 10.047-40.019 11.009-39.424 11.986-38.858 13.627-38.349 15.948-37.84 18.269-37.132 22.585-36.198 28.882-35.292 35.179-34.443 41.802-33.679 48.736H0Z" fill="#c20f30"/>
<path transform="matrix(1,0,0,-1,745.3779,310.6033)" d="M0 0H.594C5.745 0 8.321 1.91 8.321 5.731 8.321 9.368 5.717 11.193 .538 11.193H0ZM21.566 6.057C21.566 .863 19.783-3.127 16.245-5.915 12.708-8.703 7.67-10.104 1.16-10.104H-13.245V38.632H0V21.297H.651C7.472 21.297 12.651 20.009 16.217 17.448 19.783 14.873 21.566 11.08 21.566 6.057" fill="#c20f30"/>
<path transform="matrix(1,0,0,-1,821.9061,281.9477)" d="M0 0H-2.802C-4.924 0-6.566-.425-7.783-1.259-8.972-2.108-9.566-3.368-9.566-5.024-9.566-7.047-9-8.575-7.868-9.594-6.708-10.613-4.924-11.123-2.462-11.123H0ZM-4.047-21.028-13.67-38.759H-28.613L-15.255-17.462C-17.717-16.09-19.585-14.264-20.915-12.014-22.217-9.75-22.868-7.231-22.868-4.429-22.868 5.165-16.245 9.976-3 9.976H13.16V-38.759H0V-21.028Z" fill="#c20f30"/>
<path transform="matrix(1,0,0,-1,890.7644,320.707)" d="M0 0H-13.245V19.868H-28.528V0H-41.773V48.736H-28.528V30.665H-13.245V48.736H0Z" fill="#c20f30"/>
<path transform="matrix(1,0,0,-1,967.151,320.707)" d="M0 0H-13.273V18.028C-18.877 16.075-23.915 15.099-28.33 15.099-32.943 15.099-36.566 16.231-39.141 18.509-41.745 20.788-43.019 24-43.019 28.132V48.736H-29.773V32.505C-29.773 30.113-29.292 28.415-28.33 27.396-27.368 26.377-25.868 25.868-23.773 25.868-20.915 25.868-17.434 26.618-13.273 28.132V48.736H0Z" fill="#c20f30"/>
<path transform="matrix(1,0,0,-1,1005.8396,300.7684)" d="M0 0-2.094 7.995C-2.604 9.764-3.198 12.071-3.877 14.887-4.585 17.717-5.038 19.741-5.264 20.958-5.462 19.825-5.858 17.958-6.453 15.354-7.047 12.764-8.349 7.641-10.358 0ZM5.123-19.939 2.717-10.811H-13.104L-15.566-19.939H-30.028L-14.123 28.995H3.425L19.528-19.939Z" fill="#c20f30"/>
<path transform="matrix(1,0,0,-1,1073.9622,320.707)" d="M0 0H-13.274V37.967H-26.689V0H-39.934V48.736H0Z" fill="#c20f30"/>
<path transform="matrix(1,0,0,-1,1109.5941,282.075)" d="M0 0C-3.141 0-5.604-1.288-7.359-3.849-9.113-6.425-9.991-9.962-9.991-14.462-9.991-23.844-6.425-28.528 .708-28.528 2.887-28.528 4.953-28.231 6.99-27.637 9-27.028 11.038-26.307 13.075-25.472V-36.594C9.028-38.406 4.415-39.297-.708-39.297-8.066-39.297-13.698-37.16-17.632-32.901-21.538-28.627-23.519-22.472-23.519-14.406-23.519-9.354-22.557-4.925-20.66-1.104-18.764 2.717-16.019 5.66-12.453 7.712-8.887 9.764-4.698 10.797 .113 10.797 5.377 10.797 10.415 9.651 15.226 7.358L11.179-3C9.396-2.151 7.585-1.443 5.774-.863 3.991-.297 2.066 0 0 0" fill="#c20f30"/>
<path transform="matrix(1,0,0,-1,1178.1978,320.707)" d="M0 0H-14.915L-29.377 24.693V0H-42.594V48.736H-29.377V25.132L-15.425 48.736H-.962L-15.991 25.472Z" fill="#c20f30"/>
<path transform="matrix(1,0,0,-1,0,375.954)" d="M1186.575 103.983H1199.792V55.247H1186.575Z" fill="#c20f30"/>
</g>
</g>
</svg>
