<svg width="164" height="915" viewBox="0 0 164 915" fill="none" xmlns="http://www.w3.org/2000/svg">
<g opacity="0.8" clip-path="url(#clip0_78_2872)">
<path d="M141 914.875V911.389H23.627V901.345H141V897.858H20.1406V914.875H141ZM141 889.309V885.822H87.46V883.332C87.46 879.735 84.9974 877.051 80.0723 875.28C75.0918 873.454 66.1546 872.541 53.2607 872.541C40.8096 872.541 32.1768 873.399 27.3623 875.114C22.5478 876.774 20.1406 879.735 20.1406 883.996V889.309H141ZM84.0566 885.822H23.627V883.747C23.5716 880.98 25.6468 879.043 29.8525 877.937C34.0583 876.774 41.8333 876.193 53.1777 876.193C65.6289 876.193 73.902 876.802 77.9971 878.02C82.0368 879.182 84.0566 881.035 84.0566 883.581V885.822ZM141 871.462V868.059L42.5527 862.082C41.1139 861.971 39.1771 861.833 36.7422 861.667C34.2519 861.501 32.5088 861.418 31.5127 861.418V861.252C32.8408 861.197 34.667 861.086 36.9912 860.92C39.2601 860.754 41.1139 860.616 42.5527 860.505L141 854.279V850.793L19.9746 859.26V863.244L141 871.462ZM106.635 867.976V854.445L103.231 855.026V867.312L106.635 867.976ZM138.095 840.334C138.095 842.215 136.988 843.599 134.774 844.484C132.506 845.314 128.549 845.729 122.904 845.729H105.639V849.216H123.153C129.794 849.216 134.525 848.469 137.348 846.975C140.115 845.48 141.498 843.267 141.498 840.334C141.498 836.903 139.838 834.523 136.518 833.195C133.142 831.867 124.869 831.203 111.698 831.203C99.0257 831.203 90.3099 831.784 85.5508 832.946C80.7917 834.053 78.1631 836.073 77.665 839.006C76.8903 836.35 74.4001 834.523 70.1943 833.527C65.9886 832.531 58.9883 832.033 49.1934 832.033C35.4694 832.033 27.1133 832.697 24.125 834.025C21.0814 835.298 19.5596 837.456 19.5596 840.5C19.5596 843.433 20.943 845.563 23.71 846.892C26.4769 848.164 30.5996 848.801 36.0781 848.801H54.2568V845.314H36.7422C31.9831 845.314 28.5244 844.982 26.3662 844.318C24.1527 843.654 23.0459 842.382 23.0459 840.5C23.0459 838.84 24.208 837.622 26.5322 836.848C28.8011 836.018 36.4378 835.603 49.4424 835.603C59.0713 835.603 65.9609 836.045 70.1113 836.931C74.2617 837.816 76.3369 839.615 76.3369 842.326V845.314H79.7402V841.994C79.7402 839.117 81.9814 837.207 86.4639 836.267C90.9463 835.271 99.3577 834.772 111.698 834.772C124.537 834.772 132.146 835.187 134.525 836.018C136.905 836.792 138.095 838.231 138.095 840.334ZM141 824.562V821.242H46.3711C46.0391 821.242 45.4857 821.242 44.7109 821.242C43.9362 821.242 43.3551 821.242 42.9678 821.242V821.159C43.3551 821.104 43.9362 821.076 44.7109 821.076C45.4303 821.021 45.956 820.965 46.2881 820.91L141 814.187V811.032L46.2881 804.309C45.956 804.253 45.4303 804.226 44.7109 804.226C43.9362 804.17 43.3551 804.115 42.9678 804.06V803.977C43.3551 803.977 43.9362 803.977 44.7109 803.977C45.4857 803.977 46.0114 803.977 46.2881 803.977H141V800.49H20.1406V804.392L127.138 812.36C127.359 812.416 127.774 812.471 128.383 812.526C128.936 812.526 129.351 812.526 129.628 812.526V812.692C129.351 812.692 128.936 812.72 128.383 812.775C127.774 812.775 127.359 812.803 127.138 812.858L20.1406 820.827V824.562H141ZM141 792.023V777.082H137.597V788.537H79.9062V779.738H76.5029V788.537H23.6269V777.995H20.1406V792.023H141ZM141 772.434V768.947H87.46V766.457C87.46 762.86 84.9974 760.176 80.0723 758.405C75.0918 756.579 66.1546 755.666 53.2607 755.666C40.8096 755.666 32.1767 756.524 27.3623 758.239C22.5478 759.899 20.1406 762.86 20.1406 767.121V772.434H141ZM84.0566 768.947H23.6269V766.872C23.5716 764.105 25.6468 762.168 29.8525 761.062C34.0583 759.899 41.8333 759.318 53.1777 759.318C65.6289 759.318 73.902 759.927 77.9971 761.145C82.0368 762.307 84.0566 764.16 84.0566 766.706V768.947ZM141 750.021V746.535H79.9892V736.159H141V732.673H20.1406V736.159H76.5859V746.535H20.1406V750.021H141ZM141 728.688V725.285L42.5527 719.309C41.1139 719.198 39.1771 719.06 36.7422 718.894C34.2519 718.728 32.5088 718.645 31.5127 718.645V718.479C32.8408 718.423 34.667 718.312 36.9912 718.146C39.2601 717.98 41.1139 717.842 42.5527 717.731L141 711.506V708.02L19.9746 716.486V720.471L141 728.688ZM106.635 725.202V711.672L103.231 712.253V724.538L106.635 725.202ZM141 704.035V689.094H137.597V700.549H79.9062V691.75H76.5029V700.549H23.6269V690.007H20.1406V704.035H141ZM137.265 677.888H140.834C141 677.611 141.138 677.168 141.249 676.56C141.415 675.951 141.498 675.287 141.498 674.567C141.498 671.192 138.842 668.895 133.529 667.678C128.217 666.46 119.473 665.326 107.299 664.274L20.1406 656.721V660.124L89.2031 665.437C91.4167 665.603 93.4088 665.741 95.1797 665.852C96.8952 665.962 99.0534 666.101 101.654 666.267V666.35C99.1641 666.516 97.0058 666.682 95.1797 666.848C93.3535 666.958 91.3613 667.124 89.2031 667.346L20.1406 673.322V676.892L115.268 667.595H110.868C120.497 668.48 127.414 669.338 131.62 670.168C135.826 670.998 137.929 672.603 137.929 674.982C137.929 675.591 137.873 676.172 137.763 676.726C137.597 677.224 137.431 677.611 137.265 677.888ZM13.583 666.682C13.583 668.176 12.5039 669.366 10.3457 670.251C8.1875 671.136 4.83952 671.828 0.301755 672.326L1.29785 675.48C6.72103 674.761 10.6224 673.682 13.0019 672.243C15.3262 670.804 16.4883 668.951 16.4883 666.682C16.4883 664.413 15.2985 662.587 12.9189 661.203C10.5394 659.764 6.66569 658.658 1.29785 657.883L0.301754 661.037C4.95019 661.535 8.32584 662.227 10.4287 663.112C12.5316 663.998 13.583 665.187 13.583 666.682ZM141 642.858V639.372H20.1406V642.858H141ZM141 629.328V625.759L75.6728 633.977L79.7402 636.882L141 629.328ZM76.5859 641.115H79.9892V634.06L20.1406 626.423V629.909L76.5859 636.799V641.115ZM141 656.472V652.902L79.7402 645.349L75.6728 648.171L141 656.472ZM76.5859 641.115V645.349L20.1406 652.321V655.891L79.9892 648.254V641.115H76.5859ZM20.1406 621.359V617.79H73.1826V615.632C73.1826 612.035 75.5898 609.296 80.4043 607.414C85.2187 605.533 94.1282 604.592 107.133 604.592C120.137 604.592 129.047 605.477 133.861 607.248C138.62 609.019 141 612.035 141 616.296V621.359H20.1406ZM76.6689 617.79H137.514V615.964C137.569 613.197 135.494 611.232 131.288 610.07C127.082 608.853 119.003 608.244 107.05 608.244C94.5986 608.244 86.4362 608.881 82.5625 610.153C78.6334 611.371 76.6689 613.308 76.6689 615.964V617.79ZM141 599.611V596.125H20.1406V599.611H141ZM141 587.492V581.516C141 577.642 138.482 574.93 133.446 573.381C128.41 571.776 119.584 570.974 106.967 570.974C96.2864 570.974 88.7881 571.665 84.4717 573.049C80.1553 574.377 77.7757 576.452 77.333 579.274V579.191C76.9456 576.59 74.7874 574.709 70.8584 573.547C66.9293 572.385 59.7907 571.804 49.4424 571.804C38.7067 571.804 31.153 572.634 26.7812 574.294C22.3542 575.954 20.1406 578.472 20.1406 581.848V587.492H141ZM137.597 584.006H79.4912V581.267C79.4912 579.053 81.5387 577.393 85.6338 576.286C89.6735 575.179 96.7845 574.626 106.967 574.626C118.201 574.626 126.114 575.096 130.707 576.037C135.3 576.978 137.597 578.666 137.597 581.101V584.006ZM76.0879 584.006H23.6269V582.014C23.5716 579.745 25.2871 578.112 28.7734 577.116C32.2597 576.065 39.2047 575.511 49.6084 575.456C59.7907 575.456 66.7633 575.954 70.5264 576.95C74.234 577.891 76.0879 579.496 76.0879 581.765V584.006ZM141 569.479V566.076L42.5527 560.1C41.1139 559.989 39.1771 559.851 36.7422 559.685C34.2519 559.519 32.5088 559.436 31.5127 559.436V559.27C32.8408 559.214 34.667 559.104 36.9912 558.937C39.2601 558.771 41.1139 558.633 42.5527 558.522L141 552.297V548.811L19.9746 557.277V561.262L141 569.479ZM106.635 565.993V552.463L103.231 553.044V565.329L106.635 565.993ZM141 544.826V541.34H79.9892V530.964H141V527.478H20.1406V530.964H76.5859V541.34H20.1406V544.826H141ZM141 518.928V515.441H79.9892V505.065H141V501.579H20.1406V505.065H76.5859V515.441H20.1406V518.928H141ZM141 493.029V478.088H137.597V489.543H79.9062V480.744H76.5029V489.543H23.6269V479.001H20.1406V493.029H141ZM141 461.818V458.332H23.6269V448.288H141V444.802H20.1406V461.818H141ZM141 436.169V432.683H20.1406V436.169H141ZM141 423.967V417.99C141 414.117 138.482 411.405 133.446 409.855C128.41 408.251 119.584 407.448 106.967 407.448C96.2864 407.448 88.7881 408.14 84.4717 409.523C80.1553 410.852 77.7757 412.927 77.333 415.749V415.666C76.9456 413.065 74.7874 411.184 70.8584 410.021C66.9293 408.859 59.7907 408.278 49.4424 408.278C38.7067 408.278 31.153 409.108 26.7812 410.769C22.3541 412.429 20.1406 414.947 20.1406 418.322V423.967H141ZM137.597 420.48H79.4912V417.741C79.4912 415.528 81.5387 413.868 85.6338 412.761C89.6735 411.654 96.7845 411.101 106.967 411.101C118.2 411.101 126.114 411.571 130.707 412.512C135.3 413.452 137.597 415.14 137.597 417.575V420.48ZM76.0879 420.48H23.6269V418.488C23.5716 416.219 25.2871 414.587 28.7734 413.591C32.2597 412.539 39.2047 411.986 49.6084 411.931C59.7907 411.931 66.7633 412.429 70.5263 413.425C74.234 414.366 76.0879 415.97 76.0879 418.239V420.48ZM141 405.954V402.551L42.5527 396.574C41.1139 396.464 39.1771 396.325 36.7422 396.159C34.2519 395.993 32.5088 395.91 31.5127 395.91V395.744C32.8408 395.689 34.667 395.578 36.9912 395.412C39.2601 395.246 41.1139 395.108 42.5527 394.997L141 388.771V385.285L19.9746 393.752V397.736L141 405.954ZM106.635 402.468V388.937L103.231 389.519V401.804L106.635 402.468ZM20.1406 369.68H141V341.789H20.1406V345.358H137.514V353.991H20.1406V357.561H137.514V366.193H20.1406V369.68ZM141 319.46V315.808L75.6728 324.44L79.7402 327.346L141 319.46ZM76.5859 331.579H79.9892V324.523L20.1406 316.555V320.041L76.5859 327.263V331.579ZM141 333.322V329.836H20.1406V333.322H141ZM123.485 312.072C129.739 312.072 134.304 311.325 137.182 309.831C140.059 308.282 141.498 305.957 141.498 302.858C141.498 299.925 140.059 297.684 137.182 296.135C134.304 294.53 129.739 293.728 123.485 293.728H37.6552C31.236 293.728 26.6152 294.502 23.7929 296.052C20.9707 297.546 19.5595 299.815 19.5595 302.858C19.5595 306.013 20.9707 308.337 23.7929 309.831C26.6152 311.325 31.236 312.072 37.6552 312.072H123.485ZM122.406 308.503H38.6513C32.8408 308.503 28.8011 308.033 26.5322 307.092C24.208 306.151 23.0459 304.74 23.0459 302.858C23.0459 301.032 24.208 299.649 26.5322 298.708C28.8011 297.767 32.8408 297.297 38.6513 297.297H122.489C128.466 297.297 132.561 297.767 134.774 298.708C136.988 299.649 138.095 301.032 138.095 302.858C138.095 304.74 136.988 306.151 134.774 307.092C132.506 308.033 128.383 308.503 122.406 308.503ZM163.246 267.829V264.343H137.514V290.407H163.246V286.921H141V267.829H163.246ZM20.1406 283.601L95.4287 284.68C107.216 284.79 116.291 285.067 122.655 285.51C128.964 285.952 134.138 286.617 138.178 287.502V283.933C134.193 283.103 129.075 282.494 122.821 282.106C116.568 281.664 107.575 281.387 95.8437 281.276L23.6269 280.197V271.564H141V268.078H20.1406V283.601ZM138.095 252.639C138.095 254.52 136.988 255.904 134.774 256.789C132.506 257.619 128.549 258.034 122.904 258.034H105.639V261.521H123.153C129.794 261.521 134.525 260.773 137.348 259.279C140.115 257.785 141.498 255.572 141.498 252.639C141.498 249.208 139.838 246.828 136.518 245.5C133.142 244.172 124.869 243.508 111.698 243.508C99.0257 243.508 90.3099 244.089 85.5508 245.251C80.7916 246.358 78.1631 248.378 77.665 251.311C76.8903 248.654 74.4 246.828 70.1943 245.832C65.9886 244.836 58.9883 244.338 49.1933 244.338C35.4694 244.338 27.1133 245.002 24.125 246.33C21.0813 247.603 19.5595 249.761 19.5595 252.805C19.5595 255.738 20.943 257.868 23.7099 259.196C26.4769 260.469 30.5996 261.105 36.0781 261.105H54.2568V257.619H36.7422C31.983 257.619 28.5244 257.287 26.3662 256.623C24.1526 255.959 23.0459 254.686 23.0459 252.805C23.0459 251.145 24.208 249.927 26.5322 249.152C28.8011 248.322 36.4378 247.907 49.4424 247.907C59.0713 247.907 65.9609 248.35 70.1113 249.235C74.2617 250.121 76.3369 251.919 76.3369 254.631V257.619H79.7402V254.299C79.7402 251.421 81.9814 249.512 86.4638 248.571C90.9463 247.575 99.3577 247.077 111.698 247.077C124.537 247.077 132.146 247.492 134.525 248.322C136.905 249.097 138.095 250.536 138.095 252.639ZM141 236.784V233.298H20.1406V236.784H141ZM163.246 207.316V203.83H137.514V207.565H20.1406V211.052H137.514V221.096H20.1406V224.582H141V207.316H163.246ZM20.1406 198.352V194.782H73.1826V192.624C73.1826 189.027 75.5898 186.288 80.4043 184.406C85.2187 182.525 94.1282 181.584 107.133 181.584C120.137 181.584 129.047 182.469 133.861 184.24C138.62 186.011 141 189.027 141 193.288V198.352H20.1406ZM76.6689 194.782H137.514V192.956C137.569 190.189 135.494 188.225 131.288 187.062C127.082 185.845 119.003 185.236 107.05 185.236C94.5986 185.236 86.4362 185.873 82.5625 187.146C78.6334 188.363 76.6689 190.3 76.6689 192.956V194.782ZM138.095 157.844C138.095 159.725 136.988 161.109 134.774 161.994C132.505 162.824 128.549 163.239 122.904 163.239H105.639V166.726H123.153C129.794 166.726 134.525 165.979 137.348 164.484C140.115 162.99 141.498 160.777 141.498 157.844C141.498 154.413 139.838 152.033 136.518 150.705C133.142 149.377 124.869 148.713 111.698 148.713C99.0257 148.713 90.3099 149.294 85.5507 150.456C80.7916 151.563 78.1631 153.583 77.665 156.516C76.8903 153.859 74.4 152.033 70.1943 151.037C65.9886 150.041 58.9882 149.543 49.1933 149.543C35.4694 149.543 27.1132 150.207 24.125 151.535C21.0813 152.808 19.5595 154.966 19.5595 158.01C19.5595 160.943 20.943 163.073 23.7099 164.401C26.4769 165.674 30.5996 166.311 36.0781 166.311H54.2568V162.824H36.7422C31.983 162.824 28.5244 162.492 26.3662 161.828C24.1526 161.164 23.0459 159.891 23.0459 158.01C23.0459 156.35 24.208 155.132 26.5322 154.357C28.8011 153.527 36.4378 153.112 49.4423 153.112C59.0713 153.112 65.9609 153.555 70.1113 154.44C74.2617 155.326 76.3369 157.124 76.3369 159.836V162.824H79.7402V159.504C79.7402 156.626 81.9814 154.717 86.4638 153.776C90.9463 152.78 99.3577 152.282 111.698 152.282C124.537 152.282 132.146 152.697 134.525 153.527C136.905 154.302 138.095 155.741 138.095 157.844ZM163.246 124.06V120.573H137.514V146.638H163.246V143.151H141V124.06H163.246ZM20.1406 139.831L95.4287 140.91C107.216 141.021 116.291 141.298 122.655 141.74C128.964 142.183 134.138 142.847 138.178 143.732V140.163C134.193 139.333 129.075 138.724 122.821 138.337C116.568 137.894 107.575 137.618 95.8437 137.507L23.6269 136.428V127.795H141V124.309H20.1406V139.831ZM141 119.909V116.506L42.5527 110.529C41.1139 110.419 39.177 110.28 36.7422 110.114C34.2519 109.948 32.5088 109.865 31.5127 109.865V109.699C32.8408 109.644 34.667 109.533 36.9912 109.367C39.2601 109.201 41.1139 109.063 42.5527 108.952L141 102.727V99.2402L19.9746 107.707V111.691L141 119.909ZM106.635 116.423V102.893L103.231 103.474V115.759L106.635 116.423ZM141 95.2559V91.7695H87.4599V89.2793C87.4599 85.6823 84.9974 82.9984 80.0722 81.2275C75.0918 79.4014 66.1546 78.4883 53.2607 78.4883C40.8095 78.4883 32.1767 79.346 27.3623 81.0615C22.5478 82.7217 20.1406 85.6823 20.1406 89.9434V95.2559H141ZM84.0566 91.7695H23.6269V89.6943C23.5716 86.9274 25.6468 84.9906 29.8525 83.8838C34.0582 82.7217 41.8333 82.1406 53.1777 82.1406C65.6289 82.1406 73.902 82.7493 77.997 83.9668C82.0367 85.1289 84.0566 86.9827 84.0566 89.5283V91.7695ZM123.485 73.5078C129.739 73.5078 134.304 72.7607 137.182 71.2666C140.059 69.7171 141.498 67.3929 141.498 64.2939C141.498 61.361 140.059 59.1198 137.182 57.5703C134.304 55.9655 129.739 55.1631 123.485 55.1631H37.6552C31.236 55.1631 26.6152 55.9378 23.7929 57.4873C20.9707 58.9814 19.5595 61.2503 19.5595 64.2939C19.5595 67.4482 20.9707 69.7725 23.7929 71.2666C26.6152 72.7607 31.236 73.5078 37.6552 73.5078H123.485ZM122.406 69.9385H38.6513C32.8408 69.9385 28.8011 69.4681 26.5322 68.5273C24.208 67.5866 23.0459 66.1755 23.0459 64.2939C23.0459 62.4678 24.208 61.0843 26.5322 60.1436C28.8011 59.2028 32.8408 58.7324 38.6513 58.7324H122.489C128.466 58.7324 132.561 59.2028 134.774 60.1435C136.988 61.0843 138.095 62.4678 138.095 64.2939C138.095 66.1754 136.988 67.5866 134.774 68.5273C132.505 69.4681 128.383 69.9385 122.406 69.9385ZM137.265 52.3408H140.834C141 52.0641 141.138 51.6214 141.249 51.0127C141.415 50.404 141.498 49.7399 141.498 49.0205C141.498 45.6448 138.842 43.3483 133.529 42.1309C128.217 40.9134 119.473 39.779 107.299 38.7275L20.1406 31.1738V34.5771L89.2031 39.8896C91.4166 40.0557 93.4088 40.194 95.1796 40.3047C96.8951 40.4154 99.0533 40.5537 101.654 40.7197V40.8027C99.164 40.9687 97.0058 41.1348 95.1796 41.3008C93.3535 41.4115 91.3613 41.5775 89.2031 41.7988L20.1406 47.7754V51.3447L115.268 42.0478H110.868C120.497 42.9333 127.414 43.791 131.62 44.6211C135.826 45.4512 137.929 47.056 137.929 49.4355C137.929 50.0443 137.873 50.6253 137.763 51.1787C137.597 51.6768 137.431 52.0641 137.265 52.3408ZM13.583 41.1348C13.583 42.6289 12.5039 43.8187 10.3457 44.7041C8.18747 45.5895 4.83949 46.2812 0.301728 46.7793L1.29782 49.9336C6.721 49.2142 10.6224 48.1351 13.0019 46.6963C15.3261 45.2575 16.4882 43.4036 16.4882 41.1348C16.4882 38.8659 15.2985 37.0397 12.9189 35.6562C10.5393 34.2174 6.66566 33.1107 1.29782 32.3359L0.301727 35.4902C4.95017 35.9883 8.32582 36.68 10.4287 37.5654C12.5315 38.4508 13.583 39.6406 13.583 41.1348ZM141 26.6914V23.2051H79.9892V16.5644H76.5859V23.2051H20.1406V26.6914H141ZM123.485 18.3076C129.849 18.3076 134.442 17.5605 137.265 16.0664C140.087 14.5723 141.498 12.3587 141.498 9.42577C141.498 6.60351 140.115 4.41764 137.348 2.86816C134.581 1.26334 129.96 0.46093 123.485 0.46093L37.6552 0.460934C30.6826 0.460934 25.9235 1.23568 23.3779 2.78515C20.8323 4.2793 19.5595 6.49284 19.5595 9.42578C19.5595 12.3587 20.8323 14.5723 23.3779 16.0664C25.9235 17.5605 30.6826 18.3076 37.6552 18.3076H123.485ZM122.406 14.7383H38.6513C32.3427 14.7383 28.1647 14.2956 26.1171 13.4102C24.0696 12.5247 23.0459 11.1966 23.0459 9.42578C23.0459 7.65495 24.0696 6.32682 26.1171 5.4414C28.1647 4.50065 32.3427 4.03027 38.6513 4.03027H122.489C128.687 4.03027 132.838 4.50064 134.94 5.4414C137.043 6.38215 138.095 7.71028 138.095 9.42577C138.095 11.1413 137.043 12.4694 134.94 13.4101C132.782 14.2956 128.604 14.7383 122.406 14.7383Z" fill="white"/>
</g>
<defs>
<clipPath id="clip0_78_2872">
<rect width="164" height="915" fill="white"/>
</clipPath>
</defs>
</svg>
