<svg width="761" height="135" viewBox="0 0 761 135" fill="none" xmlns="http://www.w3.org/2000/svg">
<path d="M0.490234 116H3.42969L3.42969 19.3398L11.8379 19.3398L11.8379 116H14.709L14.709 16.4688L0.490234 16.4688L0.490234 116ZM21.8184 116L24.7578 116L24.7578 71.9082H26.8086C29.8164 71.9082 32.0495 69.8802 33.5078 65.8242C35.0117 61.7227 35.7637 54.3626 35.7637 43.7441C35.7637 33.4902 35.0573 26.3809 33.6445 22.416C32.2773 18.4512 29.8392 16.4688 26.3301 16.4688H21.8184L21.8184 116ZM24.7578 69.1055L24.7578 19.3398H26.5352C28.8138 19.2943 30.4316 21.0033 31.3887 24.4668C32.3457 27.9303 32.8242 34.3333 32.8242 43.6758C32.8242 53.9297 32.3229 60.7428 31.3203 64.1152C30.3177 67.4421 28.7454 69.1055 26.6035 69.1055H24.7578ZM36.6523 116H39.5234L44.5137 34.9258C44.6048 33.7409 44.696 32.1458 44.7871 30.1406C44.9238 28.0898 45.015 26.6543 45.0605 25.834H45.1289C45.2201 26.9277 45.334 28.4316 45.4707 30.3457C45.6074 32.2142 45.7214 33.7409 45.8125 34.9258L51.0078 116H53.8789L46.8379 16.332H43.5566L36.6523 116ZM39.5918 87.7676H50.8711L50.3242 84.8965H40.1387L39.5918 87.7676ZM62.4922 113.607C60.9427 113.607 59.8034 112.673 59.0742 110.805C58.3906 108.936 58.0488 105.678 58.0488 101.029V86.8789H55.1094V101.234C55.1094 106.703 55.7246 110.6 56.9551 112.924C58.1855 115.248 60.0312 116.41 62.4922 116.41C65.3633 116.41 67.3457 115.02 68.4395 112.24C69.5788 109.46 70.1484 102.67 70.1484 91.8691C70.1484 81.4329 69.6699 74.2552 68.7129 70.3359C67.7559 66.4167 66.0697 64.252 63.6543 63.8418C65.8418 63.2038 67.3457 61.153 68.166 57.6895C69.0319 54.2259 69.4648 48.4609 69.4648 40.3945C69.4648 29.0924 68.918 22.2109 67.8242 19.75C66.7305 17.2435 64.9076 15.9902 62.3555 15.9902C59.9401 15.9902 58.1855 17.1296 57.0918 19.4082C55.998 21.6868 55.4512 25.082 55.4512 29.5938V44.5645H58.3906V30.1406C58.3906 26.2669 58.6641 23.4186 59.2109 21.5957C59.7578 19.7728 60.806 18.8613 62.3555 18.8613C63.7682 18.8613 64.7936 19.8184 65.4316 21.7324C66.1152 23.6465 66.457 29.9355 66.457 40.5996C66.457 48.5293 66.0924 54.2031 65.3633 57.6211C64.6341 60.9935 63.1302 62.6797 60.8516 62.6797H58.3906V65.5508H61.125C63.5404 65.5508 65.1354 67.3965 65.9102 71.0879C66.7305 74.7793 67.1406 81.7064 67.1406 91.8691C67.1406 102.396 66.7988 108.663 66.1152 110.668C65.4772 112.628 64.2695 113.607 62.4922 113.607ZM75.6855 116H78.4199L78.4199 38.0703C78.4199 37.7969 78.4199 37.3411 78.4199 36.7031C78.4199 36.0651 78.4199 35.5866 78.4199 35.2676H78.5566C78.5566 35.5866 78.5794 36.0651 78.625 36.7031C78.6706 37.3411 78.7161 37.7741 78.7617 38.002L84.3672 116H86.9648L92.6387 38.002C92.6387 37.7741 92.6615 37.3411 92.707 36.7031C92.7526 36.0651 92.7754 35.5866 92.7754 35.2676H92.9121C92.9121 35.5866 92.9121 36.0651 92.9121 36.7031C92.9121 37.3411 92.9121 37.7741 92.9121 38.002L92.9121 116H95.7148L95.7148 16.4688L92.502 16.4688L85.8711 104.516C85.8255 104.698 85.7799 105.04 85.7344 105.541C85.7344 105.997 85.7344 106.361 85.7344 106.635H85.5977C85.5977 106.361 85.5749 105.997 85.5293 105.541C85.5293 105.04 85.5065 104.698 85.4609 104.516L78.7617 16.4688H75.6855L75.6855 116ZM102.756 116L115.197 116V113.197L105.695 113.197V65.7559H113.01V62.8848H105.695L105.695 19.3398H114.514V16.4688H102.756L102.756 116ZM119.025 116H121.965L121.965 71.9082H124.016C127.023 71.9082 129.257 69.8802 130.715 65.8242C132.219 61.7227 132.971 54.3626 132.971 43.7441C132.971 33.4902 132.264 26.3809 130.852 22.416C129.484 18.4512 127.046 16.4688 123.537 16.4688H119.025L119.025 116ZM121.965 69.1055V19.3398H123.742C126.021 19.2943 127.639 21.0033 128.596 24.4668C129.553 27.9303 130.031 34.3333 130.031 43.6758C130.031 53.9297 129.53 60.7428 128.527 64.1152C127.525 67.4421 125.952 69.1055 123.811 69.1055H121.965ZM137.619 116H140.559L140.559 65.7559H149.24L149.24 116H152.111L152.111 16.4688H149.24V62.8848H140.559V16.4688L137.619 16.4688L137.619 116ZM155.461 116H158.332L163.322 34.9258C163.413 33.7409 163.505 32.1458 163.596 30.1406C163.732 28.0898 163.824 26.6543 163.869 25.834H163.938C164.029 26.9277 164.143 28.4316 164.279 30.3457C164.416 32.2142 164.53 33.7409 164.621 34.9258L169.816 116H172.687L165.646 16.332H162.365L155.461 116ZM158.4 87.7676H169.68L169.133 84.8965H158.947L158.4 87.7676ZM175.9 116H188.342V113.197H178.84L178.84 65.7559H186.154V62.8848H178.84V19.3398L187.658 19.3398V16.4688L175.9 16.4688L175.9 116ZM197.639 112.924V115.863C197.821 116 198.163 116.114 198.664 116.205C199.211 116.342 199.781 116.41 200.373 116.41C203.153 116.41 205.044 114.223 206.047 109.848C207.049 105.473 208.007 98.2721 208.918 88.2461L215.207 16.4688H212.336L207.893 73.3438C207.756 75.1211 207.642 76.7389 207.551 78.1973C207.46 79.61 207.346 81.4102 207.209 83.5977H207.141C207.049 81.5469 206.936 79.7695 206.799 78.2656C206.662 76.7617 206.503 75.1211 206.32 73.3438L201.33 16.4688H198.391L206.184 94.8086L206.184 91.1855C205.409 99.1152 204.68 104.812 203.996 108.275C203.312 111.693 201.991 113.402 200.031 113.402C199.53 113.402 199.051 113.357 198.596 113.266C198.186 113.129 197.867 113.015 197.639 112.924ZM206.936 11.0684C205.705 11.0684 204.725 10.1797 203.996 8.40234C203.267 6.57943 202.674 3.79948 202.219 0.0625L199.621 0.882813C200.214 5.34896 201.102 8.56185 202.287 10.5215C203.472 12.4811 205.021 13.4609 206.936 13.4609C208.804 13.4609 210.331 12.4811 211.516 10.5215C212.701 8.56185 213.612 5.34896 214.25 0.882813L211.652 0.0625C211.242 3.89063 210.65 6.69336 209.875 8.4707C209.146 10.2025 208.166 11.0684 206.936 11.0684ZM226.691 116H229.631L229.631 16.4688H226.691L226.691 116ZM237.971 116H240.979L234.074 62.2012L231.682 65.5508L237.971 116ZM228.127 62.8848V65.7559H234.006L240.363 16.4688H237.492L231.682 62.8848H228.127ZM215.344 116H218.352L224.641 65.5508L222.248 62.2012L215.344 116ZM228.127 62.8848H224.572L218.762 16.4688H215.891L222.248 65.7559H228.127V62.8848ZM244.533 16.4688H247.541V60.1504H249.318C252.326 60.1504 254.605 62.1328 256.154 66.0977C257.704 70.0625 258.479 77.3997 258.479 88.1094C258.479 98.819 257.749 106.156 256.291 110.121C254.833 114.04 252.349 116 248.84 116H244.533V16.4688ZM247.541 63.0215V113.129H249.045C251.369 113.174 253.033 111.465 254.035 108.002C255.038 104.538 255.539 97.8848 255.539 88.041C255.539 77.7871 255.015 71.0651 253.967 67.875C252.919 64.6393 251.278 63.0215 249.045 63.0215H247.541ZM262.648 116H265.588V16.4688H262.648V116ZM272.697 116H277.756C280.946 116 283.202 113.926 284.523 109.779C285.845 105.632 286.506 98.3633 286.506 87.9727C286.506 79.1771 285.936 73.002 284.797 69.4473C283.703 65.8926 281.971 63.9329 279.602 63.5684H279.67C281.812 63.2493 283.361 61.472 284.318 58.2363C285.275 55.0007 285.754 49.1217 285.754 40.5996C285.754 31.7585 285.07 25.5378 283.703 21.9375C282.336 18.2917 280.262 16.4688 277.482 16.4688H272.697V116ZM275.637 113.197V65.3457H277.893C279.761 65.3457 281.151 67.0319 282.062 70.4043C282.974 73.7311 283.43 79.5872 283.43 87.9727C283.43 97.1784 283.042 103.695 282.268 107.523C281.493 111.306 280.103 113.197 278.098 113.197H275.637ZM275.637 62.4746V19.3398H277.346C279.214 19.3398 280.559 20.7754 281.379 23.6465C282.245 26.5176 282.701 32.2142 282.746 40.7363C282.746 49.1217 282.336 54.8411 281.516 57.8945C280.741 60.9479 279.419 62.4746 277.551 62.4746H275.637ZM287.668 116H290.539L295.529 34.9258C295.62 33.7409 295.712 32.1458 295.803 30.1406C295.939 28.0898 296.031 26.6543 296.076 25.834H296.145C296.236 26.9277 296.35 28.4316 296.486 30.3457C296.623 32.2142 296.737 33.7409 296.828 34.9258L302.023 116H304.895L297.854 16.332H294.572L287.668 116ZM290.607 87.7676H301.887L301.34 84.8965H291.154L290.607 87.7676ZM308.107 116H311.047V65.7559H319.729V116H322.6V16.4688H319.729V62.8848H311.047V16.4688H308.107V116ZM329.709 116H332.648V65.7559H341.33V116H344.201V16.4688H341.33V62.8848H332.648V16.4688H329.709V116ZM351.311 116H363.752V113.197H354.25V65.7559H361.564V62.8848H354.25V19.3398L363.068 19.3398V16.4688L351.311 16.4688V116ZM377.15 116H380.09V19.3398H388.498V116H391.369V16.4688H377.15V116ZM398.547 116H401.486V16.4688H398.547V116ZM408.596 116H413.654C416.844 116 419.1 113.926 420.422 109.779C421.743 105.632 422.404 98.3633 422.404 87.9727C422.404 79.1771 421.835 73.002 420.695 69.4473C419.602 65.8926 417.87 63.9329 415.5 63.5684H415.568C417.71 63.2493 419.26 61.472 420.217 58.2363C421.174 55.0007 421.652 49.1217 421.652 40.5996C421.652 31.7585 420.969 25.5378 419.602 21.9375C418.234 18.2917 416.161 16.4688 413.381 16.4688H408.596V116ZM411.535 113.197V65.3457H413.791C415.66 65.3457 417.049 67.0319 417.961 70.4043C418.872 73.7311 419.328 79.5872 419.328 87.9727C419.328 97.1784 418.941 103.695 418.166 107.523C417.391 111.306 416.001 113.197 413.996 113.197H411.535ZM411.535 62.4746V19.3398H413.244C415.113 19.3398 416.457 20.7754 417.277 23.6465C418.143 26.5176 418.599 32.2142 418.645 40.7363C418.645 49.1217 418.234 54.8411 417.414 57.8945C416.639 60.9479 415.318 62.4746 413.449 62.4746H411.535ZM423.566 116H426.438L431.428 34.9258C431.519 33.7409 431.61 32.1458 431.701 30.1406C431.838 28.0898 431.929 26.6543 431.975 25.834H432.043C432.134 26.9277 432.248 28.4316 432.385 30.3457C432.521 32.2142 432.635 33.7409 432.727 34.9258L437.922 116H440.793L433.752 16.332H430.471L423.566 116ZM426.506 87.7676H437.785L437.238 84.8965H427.053L426.506 87.7676ZM453.576 16.4688V116L476.818 116V16.4688H473.879V113.129H466.701V16.4688H463.762V113.129H456.516V16.4688H453.576ZM495.549 116H498.557L491.379 62.2012L488.918 65.5508L495.549 116ZM485.432 62.8848V65.7559H491.242L497.941 16.4688H495.07L488.986 62.8848L485.432 62.8848ZM483.928 116H486.867V16.4688H483.928V116ZM501.564 101.439C501.564 106.68 502.202 110.486 503.479 112.855C504.755 115.225 506.669 116.41 509.221 116.41C511.682 116.41 513.573 115.225 514.895 112.855C516.216 110.44 516.877 106.635 516.877 101.439V31.0293C516.877 25.6973 516.239 21.8691 514.963 19.5449C513.687 17.1751 511.773 15.9902 509.221 15.9902C506.669 15.9902 504.755 17.1751 503.479 19.5449C502.202 21.8691 501.564 25.6973 501.564 31.0293V101.439ZM504.572 100.551V31.8496C504.572 27.0189 504.96 23.6465 505.734 21.7324C506.509 19.8184 507.671 18.8613 509.221 18.8613C510.816 18.8613 512.001 19.8184 512.775 21.7324C513.55 23.6465 513.938 27.0189 513.938 31.8496V100.619C513.938 105.587 513.527 109.005 512.707 110.873C511.932 112.696 510.77 113.607 509.221 113.607C507.671 113.607 506.509 112.673 505.734 110.805C504.96 108.936 504.572 105.518 504.572 100.551ZM538.479 134.32H541.35V113.129H519.68V134.32H522.551V116H538.479V134.32ZM525.354 16.4688L524.465 78.4707C524.328 88.1322 524.077 95.5833 523.713 100.824C523.348 106.02 522.801 110.303 522.072 113.676H525.08C525.718 110.395 526.219 106.179 526.584 101.029C526.949 95.834 527.176 88.4284 527.268 78.8125L528.156 19.3398H535.334V116H538.273V16.4688L525.354 16.4688ZM551.125 113.607C549.576 113.607 548.436 112.673 547.707 110.805C547.023 108.936 546.682 105.678 546.682 101.029V86.8789H543.742V101.234C543.742 106.703 544.357 110.6 545.588 112.924C546.818 115.248 548.664 116.41 551.125 116.41C553.996 116.41 555.979 115.02 557.072 112.24C558.212 109.46 558.781 102.67 558.781 91.8691C558.781 81.4329 558.303 74.2552 557.346 70.3359C556.389 66.4167 554.702 64.252 552.287 63.8418C554.475 63.2038 555.979 61.153 556.799 57.6895C557.665 54.2259 558.098 48.4609 558.098 40.3945C558.098 29.0924 557.551 22.2109 556.457 19.75C555.363 17.2435 553.54 15.9902 550.988 15.9902C548.573 15.9902 546.818 17.1296 545.725 19.4082C544.631 21.6868 544.084 25.082 544.084 29.5938V44.5645H547.023V30.1406C547.023 26.2669 547.297 23.4186 547.844 21.5957C548.391 19.7728 549.439 18.8613 550.988 18.8613C552.401 18.8613 553.426 19.8184 554.064 21.7324C554.748 23.6465 555.09 29.9355 555.09 40.5996C555.09 48.5293 554.725 54.2031 553.996 57.6211C553.267 60.9935 551.763 62.6797 549.484 62.6797H547.023V65.5508H549.758C552.173 65.5508 553.768 67.3965 554.543 71.0879C555.363 74.7793 555.773 81.7064 555.773 91.8691C555.773 102.396 555.432 108.663 554.748 110.668C554.11 112.628 552.902 113.607 551.125 113.607ZM564.387 116H567.326V16.4688H564.387V116ZM588.928 134.32H591.799V113.129H588.654V16.4688H585.783V113.129H577.375V16.4688H574.436V116H588.928V134.32ZM596.311 16.4688H599.318V60.1504H601.096C604.104 60.1504 606.382 62.1328 607.932 66.0977C609.481 70.0625 610.256 77.3997 610.256 88.1094C610.256 98.819 609.527 106.156 608.068 110.121C606.61 114.04 604.126 116 600.617 116H596.311V16.4688ZM599.318 63.0215V113.129H600.822C603.146 113.174 604.81 111.465 605.812 108.002C606.815 104.538 607.316 97.8848 607.316 88.041C607.316 77.7871 606.792 71.0651 605.744 67.875C604.696 64.6393 603.055 63.0215 600.822 63.0215H599.318ZM629.875 113.607C628.326 113.607 627.186 112.673 626.457 110.805C625.773 108.936 625.432 105.678 625.432 101.029V86.8789H622.492V101.234C622.492 106.703 623.107 110.6 624.338 112.924C625.568 115.248 627.414 116.41 629.875 116.41C632.746 116.41 634.729 115.02 635.822 112.24C636.962 109.46 637.531 102.67 637.531 91.8691C637.531 81.4329 637.053 74.2552 636.096 70.3359C635.139 66.4167 633.452 64.252 631.037 63.8418C633.225 63.2038 634.729 61.153 635.549 57.6895C636.415 54.2259 636.848 48.4609 636.848 40.3945C636.848 29.0924 636.301 22.2109 635.207 19.75C634.113 17.2435 632.29 15.9902 629.738 15.9902C627.323 15.9902 625.568 17.1296 624.475 19.4082C623.381 21.6868 622.834 25.082 622.834 29.5938V44.5645H625.773V30.1406C625.773 26.2669 626.047 23.4186 626.594 21.5957C627.141 19.7728 628.189 18.8613 629.738 18.8613C631.151 18.8613 632.176 19.8184 632.814 21.7324C633.498 23.6465 633.84 29.9355 633.84 40.5996C633.84 48.5293 633.475 54.2031 632.746 57.6211C632.017 60.9935 630.513 62.6797 628.234 62.6797H625.773V65.5508H628.508C630.923 65.5508 632.518 67.3965 633.293 71.0879C634.113 74.7793 634.523 81.7064 634.523 91.8691C634.523 102.396 634.182 108.663 633.498 110.668C632.86 112.628 631.652 113.607 629.875 113.607ZM658.107 134.32H660.979V113.129L639.309 113.129V134.32H642.18V116H658.107V134.32ZM644.982 16.4688L644.094 78.4707C643.957 88.1322 643.706 95.5833 643.342 100.824C642.977 106.02 642.43 110.303 641.701 113.676H644.709C645.347 110.395 645.848 106.179 646.213 101.029C646.577 95.834 646.805 88.4284 646.896 78.8125L647.785 19.3398H654.963V116H657.902V16.4688L644.982 16.4688ZM661.594 116H664.465L669.455 34.9258C669.546 33.7409 669.637 32.1458 669.729 30.1406C669.865 28.0898 669.956 26.6543 670.002 25.834H670.07C670.161 26.9277 670.275 28.4316 670.412 30.3457C670.549 32.2142 670.663 33.7409 670.754 34.9258L675.949 116H678.82L671.779 16.332H668.498L661.594 116ZM664.533 87.7676H675.812L675.266 84.8965H665.08L664.533 87.7676ZM682.033 116H684.973V71.9082H687.023C690.031 71.9082 692.264 69.8802 693.723 65.8242C695.227 61.7227 695.979 54.3626 695.979 43.7441C695.979 33.4902 695.272 26.3809 693.859 22.416C692.492 18.4512 690.054 16.4688 686.545 16.4688H682.033V116ZM684.973 69.1055V19.3398H686.75C689.029 19.2943 690.646 21.0033 691.604 24.4668C692.561 27.9303 693.039 34.3333 693.039 43.6758C693.039 53.9297 692.538 60.7428 691.535 64.1152C690.533 67.4421 688.96 69.1055 686.818 69.1055H684.973ZM700.08 101.439C700.08 106.68 700.718 110.486 701.994 112.855C703.27 115.225 705.184 116.41 707.736 116.41C710.197 116.41 712.089 115.225 713.41 112.855C714.732 110.44 715.393 106.635 715.393 101.439V31.0293C715.393 25.6973 714.755 21.8691 713.479 19.5449C712.202 17.1751 710.288 15.9902 707.736 15.9902C705.184 15.9902 703.27 17.1751 701.994 19.5449C700.718 21.8691 700.08 25.6973 700.08 31.0293V101.439ZM703.088 100.551V31.8496C703.088 27.0189 703.475 23.6465 704.25 21.7324C705.025 19.8184 706.187 18.8613 707.736 18.8613C709.331 18.8613 710.516 19.8184 711.291 21.7324C712.066 23.6465 712.453 27.0189 712.453 31.8496V100.619C712.453 105.587 712.043 109.005 711.223 110.873C710.448 112.696 709.286 113.607 707.736 113.607C706.187 113.607 705.025 112.673 704.25 110.805C703.475 108.936 703.088 105.518 703.088 100.551ZM717.854 112.924V115.863C718.036 116 718.378 116.114 718.879 116.205C719.426 116.342 719.995 116.41 720.588 116.41C723.368 116.41 725.259 114.223 726.262 109.848C727.264 105.473 728.221 98.2721 729.133 88.2461L735.422 16.4688H732.551L728.107 73.3438C727.971 75.1211 727.857 76.7389 727.766 78.1973C727.674 79.61 727.561 81.4102 727.424 83.5977H727.355C727.264 81.5469 727.15 79.7695 727.014 78.2656C726.877 76.7617 726.717 75.1211 726.535 73.3438L721.545 16.4688H718.605L726.398 94.8086V91.1855C725.624 99.1152 724.895 104.812 724.211 108.275C723.527 111.693 722.206 113.402 720.246 113.402C719.745 113.402 719.266 113.357 718.811 113.266C718.4 113.129 718.081 113.015 717.854 112.924ZM727.15 11.0684C725.92 11.0684 724.94 10.1797 724.211 8.40234C723.482 6.57943 722.889 3.79948 722.434 0.0625L719.836 0.882813C720.428 5.34896 721.317 8.56185 722.502 10.5215C723.687 12.4811 725.236 13.4609 727.15 13.4609C729.019 13.4609 730.546 12.4811 731.73 10.5215C732.915 8.56185 733.827 5.34896 734.465 0.882813L731.867 0.0625C731.457 3.89063 730.865 6.69336 730.09 8.4707C729.361 10.2025 728.381 11.0684 727.15 11.0684ZM739.045 116H741.984V65.7559H747.521V62.8848H741.984V16.4688H739.045V116ZM746.018 101.439C746.018 106.726 746.656 110.554 747.932 112.924C749.208 115.248 751.053 116.41 753.469 116.41C755.793 116.41 757.616 115.271 758.938 112.992C760.259 110.668 760.92 106.817 760.92 101.439V31.0293C760.92 25.2415 760.282 21.2995 759.006 19.2031C757.775 17.0612 755.93 15.9902 753.469 15.9902C751.008 15.9902 749.139 17.0612 747.863 19.2031C746.633 21.2995 746.018 25.2415 746.018 31.0293V101.439ZM749.025 100.551V31.8496C749.025 26.6087 749.39 23.1452 750.119 21.459C750.894 19.7272 752.01 18.8613 753.469 18.8613C754.973 18.8613 756.089 19.7272 756.818 21.459C757.593 23.1452 757.98 26.6087 757.98 31.8496V100.619C757.98 105.769 757.57 109.232 756.75 111.01C755.975 112.742 754.882 113.607 753.469 113.607C752.056 113.607 750.962 112.742 750.188 111.01C749.413 109.232 749.025 105.746 749.025 100.551Z" fill="#2D2835"/>
</svg>
