<svg width="119" height="80" viewBox="0 0 119 80" fill="none" xmlns="http://www.w3.org/2000/svg">
<path d="M118.136 0.0713425C117.939 0.202194 117.739 0.326584 117.54 0.453117C117.036 0.767502 116.523 1.06679 116.003 1.35353C113.737 2.60417 111.318 3.55812 109.037 4.80185C108.905 4.8744 108.771 4.94736 108.656 5.04539C108.587 5.10456 108.524 5.17281 108.452 5.22938C108.374 5.28983 108.286 5.33562 108.198 5.38096C107.608 5.68671 107.119 6.04298 106.585 6.43813C106.523 6.48218 106.462 6.52795 106.401 6.5733C105.804 7.00903 105.222 7.46808 104.591 7.91202C104.751 7.61275 104.937 7.33118 105.14 7.06258C105.16 7.03667 105.181 7.01162 105.2 6.98614C105.238 6.93777 105.275 6.88898 105.314 6.84191C105.416 6.71667 105.524 6.59488 105.633 6.47569C105.728 6.37247 105.824 6.271 105.924 6.17168C106.004 6.09135 106.086 6.01188 106.168 5.93372C106.238 5.8698 106.312 5.80978 106.384 5.7476C106.857 5.33734 107.364 4.97156 107.893 4.64594C102.212 5.58263 89.2958 8.10031 80.692 15.3545C80.692 15.3545 81.06 14.3086 83.0711 12.6239C82.7516 12.7224 82.4229 12.8092 82.0805 12.8822C76.6771 14.027 67.0771 19.3344 64.7637 22.6131C64.6829 22.5405 64.6039 22.4662 64.5296 22.3868C64.2166 22.0512 63.8603 21.7714 63.5256 21.4639C63.2518 21.213 62.9823 20.9535 62.7357 20.674C62.3034 20.1835 61.8448 19.7296 61.3167 19.3504C60.9371 19.0779 60.5752 18.7804 60.2055 18.4941C59.8566 18.225 59.5072 17.9595 59.1013 17.7854C58.8007 17.6563 58.5092 17.5051 58.2112 17.37C58.0877 17.3138 57.9612 17.2517 57.8308 17.2288C56.9576 17.078 56.0796 17.0448 55.2038 17.1674C55.0082 17.1946 54.8139 17.2283 54.6208 17.2663C52.9655 17.3359 51.3103 17.4054 49.6554 17.4749C48.7796 17.5116 47.9038 17.5522 47.0272 17.5876C46.1786 17.585 45.33 17.5725 44.4814 17.5466C43.4657 17.5159 42.4504 17.468 41.436 17.4037C41.3458 17.398 41.2633 17.4352 41.1942 17.4922C41.0284 17.4836 40.8621 17.5622 40.7731 17.6986C40.7122 17.7539 40.6643 17.8265 40.6362 17.9055C40.6211 17.937 40.6086 17.9694 40.6017 18.0018C40.571 18.1499 40.6129 18.2751 40.695 18.3714C40.8846 18.8637 41.0815 19.353 41.2853 19.8393C36.6935 20.1329 32.0856 20.161 27.4911 19.9131C26.1459 19.8406 24.802 19.7438 23.4603 19.6238C23.2543 19.6057 23.0556 19.6709 22.9572 19.8669C22.8686 20.0436 22.9071 20.2897 23.0638 20.4167C23.0746 20.4257 23.0854 20.434 23.0962 20.443C23.1036 20.4983 23.1169 20.5544 23.1433 20.6115C23.4361 21.2376 23.8735 21.7904 24.4026 22.2192C23.4831 22.176 22.7019 22.1247 21.6953 22.0936C21.0328 22.0728 20.344 21.9873 19.6816 21.9752C16.3382 21.9148 12.9892 21.7031 9.68424 21.1374C8.03458 20.8554 6.3983 20.4858 4.78879 20.0107C3.22334 19.5487 1.88762 18.6435 0.334258 18.1797C-0.558376 17.9141 0.603732 21.6578 0.743651 22.027C1.44109 23.8654 2.73017 25.4559 4.18075 26.7096C7.1264 29.2553 10.814 30.7232 14.4946 31.6422C15.471 31.8857 16.4509 32.0999 17.4217 32.2986C17.5655 32.328 17.7098 32.3556 17.8536 32.3837C18.041 32.4355 18.2275 32.4882 18.4154 32.5383C16.5977 33.0202 14.4791 32.6579 12.664 32.3189C12.2447 32.2407 11.8867 32.7542 12.233 33.1014C15.2352 36.1092 19.4967 37.2934 23.4693 38.0802C28.6766 39.1115 33.9266 39.3952 39.212 39.3244C39.5557 39.32 39.9418 39.3278 40.3508 39.3356C41.8834 39.3654 43.7395 39.3952 44.9128 38.7677C42.7216 39.9393 40.1746 40.4303 37.7752 40.8851C37.6491 40.9088 37.5636 40.9758 37.5127 41.063C37.1417 41.1753 37.0972 41.8956 37.5455 41.9669C45.9342 43.303 54.2378 42.0865 62.5012 40.6389C61.8772 41.5924 57.4892 43.3889 56.8379 44.3239C54.9702 47.004 51.4735 47.0143 48.638 47.2246C48.7438 47.2169 49.7798 48.7089 49.9974 48.8812C50.1058 48.9667 50.2224 49.0488 50.3438 49.1261C48.0939 49.9289 45.6828 50.2769 43.2969 50.1038C43.049 50.0856 42.8063 50.1944 42.751 50.4618C42.7311 50.5555 42.7519 50.6643 42.7976 50.7611C43.0188 51.2288 43.5223 51.4693 43.93 51.7435C45.0523 52.4975 46.1829 53.3224 47.4923 53.7201C48.9308 54.1576 50.3114 53.8181 51.6627 53.2498C51.9149 53.144 52.1632 53.0287 52.4076 52.9052C52.5108 52.8529 52.6145 52.8003 52.7155 52.7428C52.8049 52.6919 52.9366 52.5623 53.0334 52.5416C53.0459 52.5329 53.0653 52.5338 53.0856 52.5351C53.0942 52.5355 53.1042 52.5364 53.1128 52.5355C53.2407 52.58 53.2657 52.6858 53.245 52.805C53.2126 52.9903 53.1059 53.1362 52.9958 53.28C52.7596 53.5871 52.5626 53.9235 52.294 54.2025C52.0258 54.481 51.721 54.7177 51.4239 54.9617C50.9821 55.324 50.5545 55.7062 50.0942 56.0434C49.55 56.442 48.9649 56.7746 48.3836 57.111C48.0964 57.2772 47.8093 57.4448 47.5277 57.6214C47.3118 57.6603 47.0958 57.7039 46.8808 57.7518C46.686 57.7955 46.5591 58.0325 46.5712 58.2178C46.5837 58.4221 46.7391 58.5957 46.9374 58.6402C48.8457 59.0703 50.7541 59.6865 52.7306 59.6701C53.9489 59.6602 55.1546 59.3406 56.2144 58.7382C57.2072 58.1733 58.0964 57.4426 58.9165 56.6519C59.7003 55.8966 60.5048 55.096 60.9872 54.107C61.0416 53.996 61.0779 53.8708 61.2178 53.8367C61.2709 53.876 61.3918 53.8708 61.5019 53.8652C61.625 53.8587 61.7356 53.8527 61.7252 53.9092C61.3374 55.9778 60.1066 57.618 58.8789 59.2607C58.8327 59.322 58.7916 59.4093 58.8897 59.4948C59.1147 59.6922 60.2647 59.3575 60.5355 59.2901C61.083 59.1536 61.5585 58.9113 62.0668 58.6669C62.1886 58.6086 62.3104 58.5503 62.4365 58.5007C62.9819 58.286 63.5485 58.1811 64.0848 57.9336C64.6203 57.6875 65.1377 57.4154 65.6291 57.0885C66.6077 56.436 67.4718 55.6107 68.1559 54.6525C68.2384 54.5371 68.266 54.4167 68.2548 54.3065C68.3157 54.3229 68.3778 54.3281 68.4374 54.3212C68.4582 54.3186 68.4793 54.3169 68.4992 54.3113C68.5756 54.2905 68.6508 54.2655 68.7251 54.2387C68.7263 54.2422 68.7289 54.2452 68.7311 54.2487C68.7181 54.3065 68.7946 54.2992 68.7842 54.3584C68.9008 54.3838 68.9233 54.535 68.9367 54.6663C68.9613 54.7038 68.9807 54.7479 68.9876 54.8032C69.0006 54.9094 69.0131 55.0161 69.0261 55.1223C69.1003 55.4246 69.2666 55.7105 69.3949 56.0072C69.483 56.211 69.5404 56.4205 69.5568 56.6303C69.5849 56.6252 69.6056 56.7016 69.625 56.778C69.6466 56.8622 69.6674 56.9464 69.6972 56.9218C69.6717 57.5376 69.6276 57.776 69.4985 58.3785C69.4488 58.6095 69.3927 58.8397 69.3292 59.0681C69.283 59.2344 69.3391 59.3622 69.4385 59.4421C69.4337 59.4516 69.4311 59.4611 69.4255 59.4702C69.3784 59.554 69.3439 59.6477 69.3128 59.7401C69.2195 60.016 69.0451 60.2251 68.8183 60.3887C68.6853 60.4842 68.5445 60.5684 68.4081 60.6591C68.2919 60.7364 68.1744 60.7722 68.028 60.7523C67.7728 60.7174 67.5876 60.8512 67.4563 61.071C67.3336 61.2753 67.246 61.4938 67.2136 61.7348C67.2032 61.8142 67.1859 61.8928 67.1769 61.9403C66.9359 62.0008 66.7226 62.0379 66.52 62.1088C66.3369 62.1731 66.1948 62.3083 66.1115 62.4957C65.9927 62.7622 66.0389 63.1841 66.2376 63.5209C66.2704 63.4112 66.2959 63.3244 66.3214 63.2381C66.3447 63.159 66.3494 63.064 66.3952 63.0036C66.5058 62.858 66.6491 62.7475 66.8348 62.7293C67.0119 62.7121 67.1765 62.7518 67.3311 62.8969C67.2641 62.972 67.1998 63.0433 67.1363 63.1137C67.0745 63.1396 67.0171 63.1772 66.9709 63.2307C66.685 63.5615 66.4121 63.9022 66.1482 64.2499C65.8451 64.6485 65.5557 65.057 65.2793 65.4759C65.2582 65.5074 65.2461 65.5424 65.2374 65.5783C65.1057 65.7303 64.974 65.8827 64.8375 66.03C64.8332 66.0343 64.8298 66.0391 64.8259 66.0434C64.7646 66.1138 64.7283 66.204 64.7179 66.2969C64.7106 66.356 64.7175 66.4156 64.7317 66.4726C64.6367 66.654 64.5625 66.8453 64.5098 67.0461C64.4912 67.1217 64.4925 67.196 64.5136 67.2685C64.5162 67.291 64.5236 67.3113 64.5292 67.3324C64.5111 67.3527 64.4938 67.3734 64.4795 67.3972C64.3984 67.5345 64.3927 67.7245 64.4661 67.8593C64.4666 68.3149 64.508 68.7679 64.5935 69.2196C64.736 69.9671 64.9334 70.6974 65.1908 71.4108C65.2724 71.6371 65.2746 71.6362 65.2046 71.8854C65.3359 71.8988 65.4097 71.9688 65.468 72.1005C65.8239 72.9046 66.1888 73.7048 66.6707 74.4398C66.9298 74.8354 67.1959 75.2266 67.4541 75.6226C67.5668 75.795 67.7379 75.928 67.781 76.1486C67.7879 76.1819 67.8251 76.2216 67.8579 76.2354C68.0185 76.3041 68.098 76.4591 68.2047 76.5827C68.9047 77.3945 69.6617 78.1377 70.5557 78.7182C70.9832 78.9963 71.4332 79.223 71.9199 79.3642C72.1954 79.4441 72.4765 79.4985 72.762 79.467C73.1247 79.4264 73.4888 79.3871 73.8455 79.3128C74.3749 79.201 74.8997 79.0649 75.4239 78.9289C76.9881 78.5238 78.4987 77.9564 79.9791 77.3034C82.4087 76.2324 84.7199 74.93 86.9258 73.428C89.0872 71.9567 91.1199 70.3161 92.9704 68.4388C93.8795 67.5168 94.7276 66.5378 95.5041 65.4915C95.9636 64.8722 96.2102 64.1765 96.243 63.3922C96.2849 62.3666 96.0966 61.3755 95.8124 60.4012C95.4885 59.2927 95.0295 58.2446 94.4776 57.2366C93.7827 55.9696 92.9683 54.7976 91.9871 53.7529C91.3493 53.074 90.6483 52.4768 89.8512 52.0078C88.9944 51.5034 88.0961 51.284 87.1184 51.5319C86.5674 51.6714 86.0103 51.788 85.4558 51.9128C85.3793 51.9301 85.2999 51.9335 85.2252 51.943C85.1846 51.8826 85.1552 51.8351 85.1224 51.7914C84.8318 51.4024 84.4729 51.2037 83.991 51.3462C83.9132 51.3691 83.8333 51.3864 83.7569 51.4123C83.449 51.5172 83.1437 51.6304 82.834 51.7301C82.5248 51.8303 82.2109 51.9158 81.9008 52.013C81.7233 52.0683 81.5557 52.0424 81.3847 51.9793C80.8376 51.7776 80.4187 51.4131 80.1285 50.8962C79.9994 50.666 79.8832 50.4229 79.7981 50.1724C79.4557 49.1593 79.194 48.1294 79.2039 47.0424C79.2333 43.8851 81.0781 42.4229 83.0145 40.3638C84.095 39.2138 85.1349 38.0215 86.1217 36.7842C86.8524 35.8678 86.8623 34.6371 87.5533 33.7712C87.5826 33.7345 87.625 33.709 87.6859 33.6572C87.7001 33.8507 87.7057 34.004 87.7247 34.1556C87.7334 34.2242 87.7688 34.2898 87.8651 34.2842C87.8884 34.2618 87.923 34.238 87.9454 34.2052C88.4403 33.4965 89.0332 32.8868 89.6788 32.3293C89.9384 32.1056 90.2212 31.9112 90.4786 31.6858C90.9783 31.2479 91.5401 30.9162 92.1257 30.6247C92.5152 30.4308 92.9078 30.2439 93.3042 30.0655C93.5392 29.9601 93.7775 29.8431 94.0263 29.7965C94.294 29.7459 94.5739 29.7598 94.8511 29.7736C94.985 29.7801 95.1189 29.7865 95.2506 29.7857C95.967 29.7822 96.3233 30.0232 97.0281 30.1743C97.2785 30.2279 97.8374 30.192 98.0999 30.2395C98.1876 30.1121 98.5896 29.5408 98.6518 29.451C98.6389 29.3879 98.6376 29.3586 98.6272 29.334C98.6112 29.2951 98.5927 29.2567 98.5694 29.2225C98.3223 28.8598 97.732 28.8015 97.336 28.6205C96.8994 28.4214 96.4917 28.1744 96.1229 27.8566C96.0149 27.7633 95.8932 27.686 95.7722 27.61C96.1259 27.5271 96.4861 27.4567 96.8523 27.42C97.7795 27.3276 98.7214 27.4468 99.2819 28.2807C99.2927 28.2582 99.2823 28.2396 99.2815 28.2111C99.2897 28.3433 99.462 28.5026 99.582 28.5026C99.6205 28.5026 99.7289 28.3683 99.7569 28.4007C100.058 28.1062 100.092 27.6653 100.112 27.2667C100.146 26.6012 100.155 25.9111 99.9621 25.2664C99.8161 24.7797 99.541 24.3323 99.1338 24.0218C98.7326 23.716 98.3409 23.396 97.881 23.1805C97.6577 23.0756 97.4353 22.9689 97.2125 22.8631C97.0976 22.8083 96.9823 22.7552 96.8683 22.6999C96.6925 22.6152 96.7513 22.5634 96.7379 22.395C96.696 21.8643 96.2179 21.3037 95.7688 21.137C95.6284 21.0847 95.337 20.7224 95.1949 20.6745C94.4491 20.4214 93.2179 20.1537 92.4328 20.1342C92.545 20.0561 92.6621 19.984 92.7631 19.8924C94.6564 18.1745 96.797 16.5486 99.1303 15.3852C100.31 14.797 101.544 14.3194 102.816 13.9718C103.145 13.8819 106.224 12.9306 106.353 13.0394C106.433 13.1059 106.54 13.1465 106.676 13.1447C109.778 13.1072 112.459 11.1984 114.42 8.93421C115.423 7.77512 116.282 6.48692 116.994 5.12961C117.681 3.82283 117.956 2.17793 118.898 1.03094C119 0.906998 119.036 0.749802 118.957 0.591309C118.917 0.511848 118.847 0.444908 118.764 0.403877C118.749 0.197021 118.571 9.91821e-05 118.356 9.91821e-05C118.285 9.91821e-05 118.21 0.0216827 118.136 0.0713425ZM90.8081 19.3263C90.6203 19.0382 90.8064 18.7726 91.0141 18.4906C92.4021 16.6047 94.1282 14.9413 96.344 13.6017C98.3089 12.4145 101.014 11.3293 103.285 10.9285C104.369 10.7372 105.524 10.561 106.604 10.4522C106.831 10.4297 107.059 10.4055 107.284 10.3883C108.082 10.1758 108.858 9.8817 109.603 9.52197C110.702 8.99123 111.73 8.30716 112.68 7.54321C113.574 6.82375 114.429 6.02182 115.164 5.13826C115.286 4.99186 115.404 4.84157 115.514 4.68653C115.525 4.67012 115.571 4.60361 115.572 4.60232C115.579 4.59238 115.585 4.58247 115.591 4.57253C115.601 4.55828 115.61 4.54403 115.62 4.52978C115.662 4.46241 115.703 4.39462 115.743 4.32595C115.752 4.31127 115.759 4.29616 115.767 4.28104C115.903 4.04179 116.021 3.79348 116.136 3.54343C116.152 3.50975 116.169 3.4765 116.184 3.44325C116.26 3.28044 116.338 3.11806 116.418 2.95784C116.432 2.92977 116.446 2.90256 116.46 2.87492C116.471 2.85332 116.482 2.83175 116.494 2.81016C116.539 2.7212 116.584 2.63223 116.631 2.5437C116.645 2.51649 116.659 2.48928 116.673 2.46207C116.703 2.40636 116.735 2.35109 116.765 2.29539C116.79 2.24874 116.816 2.20253 116.842 2.15632C116.885 2.07945 116.927 2.00173 116.971 1.92529C116.974 1.92054 116.977 1.91578 116.979 1.91103C117.026 1.82941 117.075 1.74867 117.124 1.66748C117.129 1.65755 117.135 1.64848 117.141 1.63854C117.152 1.62041 117.162 1.60226 117.173 1.58369C117.202 1.53662 117.229 1.48869 117.258 1.44162C117.261 1.45717 117.263 1.47315 117.266 1.48869C117.262 1.51677 117.258 1.54482 117.254 1.57246C117.253 1.57937 117.252 1.58586 117.251 1.59234C117.248 1.61479 117.244 1.63811 117.241 1.661C117.233 1.71282 117.226 1.76466 117.218 1.81691C117.211 1.86916 117.203 1.92183 117.194 1.97408C117.193 1.98013 117.192 1.98576 117.192 1.99137C117.183 2.04449 117.173 2.09717 117.164 2.15028C117.162 2.16756 117.159 2.18525 117.156 2.20252C117.144 2.27422 117.131 2.34547 117.118 2.41716C117.118 2.41888 117.117 2.41975 117.117 2.42148C117.103 2.49662 117.088 2.57176 117.072 2.64648C117.067 2.67239 117.063 2.69917 117.057 2.72507C117.025 2.87924 116.99 3.03299 116.952 3.18587C116.95 3.19493 116.948 3.20356 116.945 3.2122C116.912 3.34435 116.877 3.47606 116.838 3.60691C116.892 3.55379 116.946 3.50024 117 3.44713C116.945 3.55811 116.889 3.66866 116.83 3.77792C116.795 3.83968 116.76 3.90143 116.724 3.96232C116.723 3.9675 116.721 3.97269 116.72 3.97745C116.621 4.26636 116.509 4.55094 116.377 4.82905C116.121 5.24319 115.824 5.63013 115.494 5.99635C114.982 6.56466 114.43 7.10059 113.853 7.60758C113.49 7.92628 113.118 8.23591 112.736 8.52698C112.732 8.53 112.728 8.53302 112.724 8.53604C112.612 8.62112 112.499 8.70404 112.385 8.78652C111.724 9.26372 111.029 9.69601 110.305 10.0704C110.23 10.1093 110.154 10.146 110.078 10.1836C108.708 10.8629 107.241 11.3344 105.712 11.5102C105.591 11.524 105.496 11.4895 105.427 11.4294C104.704 11.5676 103.98 11.7067 103.255 11.8436C102.015 12.0781 100.869 12.5618 99.7392 13.1197C97.8719 14.043 96.2231 15.2004 94.6149 16.4104C93.4809 17.2637 92.4349 18.1754 91.5099 19.1721C91.3821 19.3098 91.2296 19.4355 91.0793 19.5599C91.0189 19.61 90.9338 19.6411 90.7662 19.7313C90.7904 19.5383 90.8569 19.4018 90.8081 19.3263ZM78.2396 24.3698C79.4889 24.0408 80.7257 23.6417 81.8878 23.0717C82.8215 22.6139 83.6593 21.793 84.6612 21.5011C84.2211 21.0774 82.9731 19.99 82.9338 18.4164C82.9307 18.295 83.0197 18.1797 82.9761 18.0666C82.9541 18.0108 82.9683 17.9361 82.9662 17.8718C83.1678 17.8005 83.3207 17.8891 83.4641 17.9888C84.65 18.8111 86.0008 19.4964 87.4013 19.9356C88.8635 20.3938 90.3202 20.38 91.804 20.6322C91.7884 20.6447 91.7746 20.6564 91.7587 20.6702C91.912 20.7138 92.0514 20.7332 92.1836 20.7367C92.7165 20.8213 93.2489 20.9099 93.7715 21.0459C94.098 21.1305 94.4279 21.2225 94.7306 21.3758C94.9755 21.4997 95.4242 21.7679 95.4302 22.0862C95.435 22.3393 95.1465 22.6407 95.4682 22.8432C95.568 22.9059 95.6811 22.9521 95.7895 22.9991C96.0284 23.1015 96.2659 23.2056 96.5008 23.3174C97.0795 23.5925 97.6396 23.9229 98.1487 24.3128C98.7546 24.7775 99.0737 25.4892 99.3316 26.2484C99.3756 26.3779 99.3856 26.5312 99.3838 26.6729C99.383 26.7489 99.3398 26.8478 99.288 26.8931C99.2176 26.9549 99.1277 26.8979 99.0958 26.8163C98.996 26.5619 98.7961 26.4833 98.6056 26.3671C97.7475 25.8433 96.8493 25.8312 95.9299 26.0312C95.6336 26.0959 95.3374 26.1629 95.0403 26.229C95.0131 26.0657 95.1193 26.0333 95.1914 25.9858C95.6323 25.6943 96.1095 25.5086 96.5932 25.3432C96.7802 25.2797 96.9775 25.2452 97.1676 25.0992C97.1257 24.7192 96.8614 24.4325 96.5306 24.2653C95.8375 23.9147 95.1875 23.6046 94.538 23.1663C94.3152 23.0164 93.8782 23.2081 93.6825 23.2449C93.3124 23.3152 93.0386 23.3153 92.675 23.1792C91.9681 22.9149 91.2378 22.8022 90.4799 22.8014C87.818 22.7992 85.499 23.5925 82.9705 24.5119C81.0855 25.1973 79.1784 25.5669 77.2368 25.8783C76.906 25.931 76.5683 25.9223 76.2336 25.9392C76.0056 25.9504 75.778 25.9517 75.5509 25.9707C75.4995 25.975 75.452 26.035 75.3842 26.0821C75.4844 26.3382 75.5781 26.577 75.6869 26.853C73.8693 27.3889 72.125 27.1501 70.3985 26.3952C70.4317 26.2847 70.4896 26.2937 70.541 26.3024C70.5561 26.3054 70.5712 26.3075 70.5846 26.3071C71.4073 26.2851 72.2295 26.2691 73.0518 26.2436C73.2029 26.2389 73.3579 26.2143 73.5035 26.1689C73.8865 26.0497 74.2657 25.9163 74.6449 25.7816C74.7291 25.7518 74.8059 25.693 74.8962 25.6425C74.6651 25.4326 74.4522 25.2426 74.2445 25.0457C74.2139 25.0168 74.2083 24.952 74.178 24.866C74.2558 24.8418 74.3223 24.8017 74.3866 24.8047C74.5637 24.8129 74.7411 24.8172 74.9186 24.8172C76.0384 24.8172 77.1582 24.6549 78.2396 24.3698ZM53.6017 21.2247C55.3921 20.9794 57.4849 20.8783 59.1332 21.6332C60.6762 22.3397 61.9593 23.4228 63.1533 24.4825C65.4801 26.5481 67.8234 28.3554 70.9841 29.4035C71.7402 29.654 72.5042 30.0089 72.9222 30.6269C73.3238 31.2211 73.3372 31.9855 73.0846 32.6467C72.8549 33.2465 72.4226 33.7993 71.919 34.2411C71.7515 34.3879 68.5847 36.4491 68.6322 36.5532C68.5869 36.4543 69.7909 35.2524 70.0396 34.9925C70.8809 34.1128 71.4898 33.4776 71.6945 32.4152C71.7718 32.0106 71.8206 31.5817 71.65 31.203C71.4341 30.7237 70.9094 30.4166 70.3799 30.2153C69.0174 29.6976 67.4986 29.2117 66.2462 28.4996C66.2449 28.4988 66.2428 28.4975 66.241 28.4966C66.2056 28.4983 66.1698 28.4927 66.1357 28.4772C65.5717 28.2193 65.0384 27.9157 64.5314 27.578L64.5184 27.6281C63.8836 27.3202 62.9944 26.5053 62.1074 25.5781C61.8427 25.3177 61.5857 25.0522 61.3361 24.784C61.1387 24.5728 60.9526 24.3413 60.7695 24.1038C60.5406 23.8404 60.3226 23.5847 60.1204 23.3442C60.3247 23.5869 56.9433 24.7062 56.6877 24.7887C54.6722 25.4382 52.7159 25.8502 50.5766 26.0834C46.5755 26.5191 42.4928 26.4928 38.4757 26.466C37.4647 26.4596 36.4577 26.4531 35.4571 26.4535C33.4274 26.4544 31.3981 26.4414 29.3693 26.4138C29.2125 26.4116 29.0005 26.4129 28.7513 26.4142C28.392 26.4159 27.9545 26.4177 27.4937 26.4095C27.3961 26.4077 27.2972 26.4056 27.1984 26.403C27.0485 26.3991 26.8982 26.3935 26.7484 26.387C26.6737 26.3835 26.5989 26.3801 26.5251 26.3758C26.3001 26.3632 26.0786 26.3464 25.8657 26.3252C25.8596 26.3248 25.8544 26.324 25.8484 26.3235C25.4839 26.2868 25.1462 26.235 24.8633 26.1633C24.7066 26.1236 24.568 26.0782 24.4505 26.0255C24.4427 26.0221 24.4345 26.0186 24.4272 26.0152C24.4172 26.0104 24.4064 26.0061 24.3974 26.0009C24.406 26.007 24.4151 26.0121 24.425 26.0182C24.4328 26.0229 24.441 26.0281 24.4492 26.0333C24.5498 26.0946 24.6785 26.1737 24.8253 26.2635C24.8353 26.2691 24.8448 26.2756 24.8551 26.2816C24.9178 26.3196 24.983 26.3598 25.0508 26.4013C25.0724 26.4146 25.094 26.4276 25.1168 26.4418C25.2429 26.5191 25.3755 26.5999 25.5098 26.6824C25.8143 26.8685 26.1261 27.0598 26.3899 27.2213C26.4051 27.2308 26.4197 27.2395 26.4344 27.2485C26.7993 27.4727 27.0606 27.6333 27.0571 27.6333C21.8508 27.4744 15.5263 25.8269 10.5618 24.5344C9.06757 24.1453 7.58675 23.7182 6.12192 23.2531C5.82869 23.1602 2.99748 22.3769 4.16952 21.8124C4.34658 21.7274 4.6696 22.0128 4.8635 22.0586C8.96306 23.0276 13.1092 23.6227 17.309 24.1496C17.4822 24.1712 17.6549 24.1932 17.8281 24.2157C19.8781 24.4756 21.9186 24.7442 23.991 24.8695C25.0724 24.9351 26.1563 24.9718 27.2411 24.9697C27.3616 24.9692 27.4648 24.9697 27.5572 24.9714C27.7559 24.9744 27.9023 24.9818 28.037 24.9969C28.2339 25.0176 28.2944 24.7715 28.1048 24.7209C27.1163 24.4536 26.329 24.3863 25.9309 23.3947C25.8385 23.3615 25.7879 23.307 25.7797 23.2315C25.8475 23.8555 32.5231 23.735 33.2382 23.7195C35.6639 23.6668 38.0905 23.6011 40.5162 23.5497C41.4883 23.5286 42.2466 23.564 44.8692 23.4042C44.3199 23.209 42.3507 21.9437 42.3744 21.8383C42.5584 21.6626 45.3641 21.5719 45.6293 21.581C46.4554 21.6107 47.2116 21.6272 47.9345 21.6272C49.82 21.6272 51.4843 21.5144 53.6017 21.2247ZM4.24251 23.2272C4.16737 23.1542 4.09092 23.0812 4.01665 23.0069C4.10518 23.0829 4.195 23.1563 4.28655 23.2285C4.27187 23.228 4.25719 23.2276 4.24251 23.2272ZM91.0932 26.4626C90.9843 26.4284 90.8643 26.3784 90.6557 26.2708C90.5434 26.213 90.2709 25.7625 90.28 25.6325C90.3037 25.2776 90.5266 25.0258 90.7516 24.7943C91.0431 24.4942 91.3799 24.8142 91.5492 24.9062C91.4758 24.9874 91.3648 25.0496 91.2555 25.1148C91.0819 25.2184 90.9157 25.332 90.8997 25.5371C90.8988 25.5514 90.8941 25.5635 90.8945 25.5781C90.8993 25.7712 90.996 26.0433 91.151 26.1516C91.3419 26.2868 91.5902 26.3175 91.8135 26.3373C91.9206 26.3088 92.0333 26.2743 92.1486 26.2341C92.2198 26.2091 92.2916 26.1823 92.3637 26.1534L92.2864 26.1015C92.2194 26.0558 92.1685 25.9962 92.1335 25.9219C92.1218 25.8852 92.1097 25.848 92.0981 25.8113C92.089 25.7612 92.0916 25.712 92.0985 25.6624C92.1028 25.6343 92.1067 25.6058 92.1158 25.5773C92.1348 25.5406 92.1529 25.5034 92.1715 25.4667C92.2048 25.4123 92.2488 25.37 92.3028 25.3402C92.3503 25.303 92.4034 25.2789 92.4634 25.2689C92.5226 25.2538 92.5805 25.2547 92.637 25.2702C92.6979 25.2763 92.7528 25.2974 92.8028 25.3341L93.0326 25.4888C93.0969 25.5324 93.1462 25.5889 93.1807 25.6585C93.1794 25.6641 93.1768 25.6684 93.1755 25.6736C93.394 25.4775 93.5452 25.2426 93.5646 24.9662C93.5789 24.7637 93.6035 24.7814 93.8052 24.7943C94.0461 24.8099 93.7624 24.8021 94.0038 24.8151C94.1364 24.822 94.2737 24.8375 94.3994 24.8807C94.5678 24.9386 94.1166 25.3415 94.0518 25.5099C93.296 27.4778 91.135 27.7072 89.3226 27.3466C89.1218 27.3064 88.9153 27.2982 88.7145 27.2572C87.53 27.0123 86.3696 26.3995 85.1578 26.2462C85.0961 26.2384 86.5216 26.0441 86.3925 26.0113C86.725 25.877 86.994 25.7915 87.2795 25.7746C87.7964 25.7448 88.3043 25.7725 88.7854 26.0126C89.3852 26.3119 90.0697 26.4764 90.7533 26.4764C90.8669 26.4764 90.9805 26.4721 91.0932 26.4626ZM95.4307 27.6942C95.4471 27.6899 95.4639 27.686 95.4803 27.6821C95.4341 27.7538 95.4108 27.8315 95.4082 27.8315C95.4065 27.8315 95.4143 27.7948 95.4307 27.6942ZM97.6378 29.6997C97.5411 29.6924 97.4444 29.663 97.3515 29.6315C96.9663 29.5011 96.5828 29.3646 96.1976 29.2338C96.0698 29.1906 95.9394 29.1517 95.8077 29.1206C95.4851 29.0433 95.1616 28.9665 94.836 28.9008C94.681 28.8693 94.5212 28.8559 94.3627 28.8485C94.0807 28.8356 93.7978 28.8403 93.5158 28.8235C93.4083 28.817 93.2956 28.7881 93.1976 28.7427C92.9803 28.6421 92.8443 28.4767 92.8534 28.218C92.8573 28.1148 92.8495 28.0112 92.8607 27.9123C92.8305 28.1723 94.1926 28.3692 94.3782 28.4024C95.0532 28.5234 95.8055 28.6465 96.5064 28.8628C96.9063 28.9859 97.2889 29.1396 97.6309 29.34C97.7527 29.4121 97.7493 29.4177 97.8425 29.6501C97.7769 29.6673 97.7126 29.7001 97.6508 29.7001C97.6465 29.7001 97.6422 29.6997 97.6378 29.6997ZM78.5142 36.4133C78.4214 36.4103 78.3251 36.3027 78.3316 36.2047C78.3367 36.12 78.3475 36.0328 78.3734 35.9534C78.69 34.9877 79.1162 34.0821 79.7187 33.2724C79.7273 33.2612 79.7476 33.2595 79.7631 33.2521C79.8547 33.2681 79.8504 33.3376 79.8314 33.4033C79.7411 33.7146 79.6345 34.0217 79.5589 34.3374C79.4954 34.6034 79.4716 34.878 79.6215 35.157C79.7156 35.1497 79.818 35.1622 79.9061 35.1311C80.3124 34.9886 80.7197 34.8461 81.117 34.6794C81.4841 34.5252 81.8395 34.3464 82.2307 34.2544C82.3676 34.2221 82.4916 34.1184 82.6147 34.0368C82.8504 33.88 83.0798 33.712 83.3164 33.5566C83.3643 33.5255 83.433 33.5289 83.5323 33.5082C83.4797 33.6593 83.4589 33.7812 83.3998 33.8783C83.1998 34.207 83.1653 34.5883 83.0707 34.9497C83.0219 35.135 83.0214 35.3237 83.1506 35.5129C83.4455 35.5707 83.7176 35.4394 83.9892 35.3319C84.4362 35.1553 84.8771 34.9605 85.3219 34.777C85.3936 34.7476 85.4752 34.7062 85.5435 34.7925C85.4575 34.9989 85.321 35.2015 85.131 35.3254C84.7821 35.5534 84.4232 35.7651 84.0657 35.9793C84.01 36.0125 83.9435 36.0345 83.8791 36.0462C83.3743 36.1373 82.8694 36.2263 82.3633 36.3105C82.3214 36.3174 82.273 36.2846 82.207 36.2639C82.1901 35.813 82.3387 35.3859 82.3633 34.9221C82.1107 34.885 81.9159 35.0123 81.7246 35.1294C81.1692 35.4701 80.6014 35.7879 79.9937 36.0138C79.5757 36.1688 79.1396 36.2725 78.7099 36.3956C78.6606 36.4098 78.6071 36.4141 78.554 36.4141C78.5406 36.4141 78.5272 36.4137 78.5142 36.4133ZM80.1462 39.878C79.9726 40.0067 79.8361 40.8035 79.7783 41.0077C79.6435 41.4845 79.5157 41.9185 79.257 42.3542C79.222 42.4134 79.1853 42.4721 79.1482 42.53C78.6092 43.363 77.8582 44.0445 77.1047 44.6784C75.6981 45.8639 74.5127 47.0018 73.6866 48.6692C73.4866 49.0734 73.2949 49.4824 73.098 49.8883C72.271 52.7592 71.6957 55.476 71.3818 58.4583C71.3814 58.4618 71.3671 58.5132 71.3654 58.5201C71.3593 58.524 71.3524 58.5287 71.365 58.5218C71.5917 58.3983 71.8646 58.1923 72.0965 58.0801C72.1665 58.0455 72.3349 57.9349 72.4843 57.8395C72.4912 57.808 72.5029 57.776 72.5227 57.7441C72.6238 57.5813 72.7123 57.409 72.8738 57.3006C72.9455 57.2526 73.0254 57.2556 73.0997 57.3057C73.1731 57.355 73.2111 57.4258 73.199 57.5165L72.9904 57.9328C72.984 57.9375 72.9775 57.9419 72.9714 57.9466C72.9283 57.9781 72.8846 58.0092 72.8414 58.0408C72.7983 58.0723 72.7555 58.1029 72.7123 58.1345C72.6631 58.153 72.6117 58.1504 72.5599 58.1431C72.5297 58.2161 72.5055 58.2744 72.5024 58.2873C72.3129 58.4255 72.1237 58.5637 71.9346 58.7015C71.9277 58.7062 71.9229 58.7123 71.916 58.7174C71.7838 58.7934 71.6409 58.8496 71.5114 58.9295C71.3684 59.0176 71.3615 59.1649 71.4846 59.2767C71.5455 59.332 71.6098 59.386 71.6793 59.4296C71.8573 59.5427 71.9756 59.6891 72.0632 59.8981C72.1721 60.1564 72.3634 60.3593 72.6678 60.4055C72.9416 60.447 73.1571 60.6314 73.3852 60.7787C73.4361 60.8119 73.4646 60.8823 73.5298 60.9721C73.415 60.9898 73.3398 60.9976 73.2668 61.0132C73.1291 61.0421 73.0142 61.1116 72.9365 61.236C72.8548 61.3664 72.8622 61.5003 72.9291 61.6363C72.939 61.6566 72.93 61.6877 72.9291 61.7438C72.8656 61.7387 72.8009 61.7456 72.7439 61.7262C72.6545 61.6959 72.5659 61.6566 72.486 61.6061C72.1336 61.3846 72.0067 61.1643 72.0594 60.8331C71.9695 60.7312 71.8719 60.6267 71.754 60.5589C71.7527 60.5606 71.7515 60.5632 71.7502 60.5649C71.6936 60.5511 71.6556 60.539 71.6167 60.533C71.4051 60.5019 71.2535 60.3693 71.0951 60.2302C70.9171 60.0739 70.9836 59.8791 70.9884 59.6947C70.8424 59.6943 70.8161 59.7971 70.7694 59.8778C70.7284 59.9487 70.6956 60.0324 70.6373 60.0821C70.4749 60.2203 70.2996 60.2605 70.1117 60.0644C69.8811 60.4474 69.5857 60.7493 69.2886 61.0512C69.156 61.1855 69.0792 61.3677 68.9267 61.4964C68.6927 61.6933 68.4055 61.7814 68.1611 61.9533C68.0419 62.0367 67.8976 61.9948 67.7836 61.8967C67.6675 61.7978 67.629 61.6657 67.6657 61.518C67.7119 61.3297 67.8195 61.1967 68.0021 61.1289C68.1662 61.0685 68.323 60.9838 68.4884 60.9268C68.8637 60.7977 69.1301 60.5234 69.3828 60.2276C69.4545 60.1438 69.5274 60.0605 69.5918 59.9707C69.7473 59.7556 69.9178 59.5587 70.1528 59.4378C70.186 59.3052 70.2154 59.1851 70.2503 59.0444C70.224 59.034 70.2033 59.0254 70.18 59.0167C70.414 58.1081 70.5652 57.1731 70.5868 56.2343C70.5976 55.7666 70.5755 55.2968 70.5086 54.8334C70.4538 54.4564 70.3099 54.1157 70.4404 53.7348C70.7254 52.9039 71.2225 52.1447 71.5014 51.3017C71.5947 51.021 71.7808 51.0336 71.6301 50.7745C71.5951 50.7144 71.2203 50.6643 71.0475 50.9364C70.709 51.471 70.3134 51.9728 69.8621 52.4168C69.7364 52.5407 69.4778 52.8301 69.4877 52.9091C69.3923 52.8577 69.5771 52.7916 69.4631 52.8391C69.4773 52.7678 69.492 52.697 69.5076 52.6266C69.524 52.5541 69.5434 52.4828 69.5607 52.4107C69.7753 51.5306 70.0936 50.679 70.4965 49.8671C70.5807 49.6974 70.6697 49.5281 70.7949 49.3865C70.9443 49.2172 71.1391 49.0954 71.3149 48.9533C71.9372 48.4502 72.3824 47.6919 72.9408 47.1154C73.6939 46.3368 74.4985 45.6967 75.3984 45.1129C76.488 44.4064 77.6056 43.4775 78.3899 42.4341C78.9413 41.7004 79.1417 40.5513 79.8452 39.9415C79.8646 39.9242 79.9018 39.9246 79.9458 39.9251C79.9506 39.9251 79.9557 39.9251 79.9613 39.9251C80.0192 39.9251 80.0875 39.9212 80.1462 39.878ZM57.9292 47.5027C58.723 47.1538 59.4558 46.7051 60.1533 46.1882C61.3465 45.3037 62.5008 44.3761 63.4543 43.2019C63.5813 43.046 64.6674 42.7874 65.9077 42.5067C65.8144 42.5771 65.7522 42.6436 65.7332 42.7049C65.5963 43.1449 65.3601 43.5306 65.0949 43.8873C64.6169 44.5294 64.0757 45.1181 63.4038 45.5456C62.5401 46.0953 61.6311 46.5402 60.5264 46.6136C60.7419 46.8239 60.9518 46.893 61.1707 46.9038C61.5892 46.9241 62.0076 46.921 62.4261 46.9275C62.5159 46.9288 62.6057 46.9292 62.7025 46.9301C62.6887 47.0005 62.6925 47.0528 62.6735 47.0648C62.0094 47.4863 61.3767 47.9704 60.6184 48.2054C59.9995 48.3971 59.3841 48.6316 58.7493 48.7327C58.1149 48.8333 57.4542 48.854 56.8142 48.794C56.2744 48.743 55.732 48.6195 55.1965 48.493C55.1533 48.483 55.1209 48.4252 55.0885 48.3945C55.1231 48.2451 55.2345 48.2524 55.3191 48.2516C55.7406 48.2498 56.1237 48.0162 56.5482 48.04C56.9727 47.7644 57.4749 47.7027 57.9292 47.5027ZM76.5023 48.9589C76.4673 48.949 77.0684 47.5049 77.1289 47.3775C77.3733 46.8645 77.6799 46.386 77.917 45.8712C78.0189 45.6501 78.2305 45.5987 78.3506 45.3945C78.4084 45.2956 78.427 45.1444 78.5574 45.109C78.8321 45.0347 78.7854 45.9485 78.7677 46.091C78.7392 46.3203 78.6464 46.5332 78.6654 46.7686C78.7332 47.6012 78.877 48.4109 79.0743 49.2219C79.1797 49.6585 79.3296 50.083 79.5166 50.4907C79.7092 50.91 79.9411 51.3125 80.2041 51.6921C80.3198 51.8593 80.4321 52.0087 80.6251 52.0816C80.7879 52.1434 80.9386 52.2414 81.0937 52.3248C81.2141 52.39 81.2643 52.4837 81.2496 52.634C81.2133 53.0062 81.3627 53.2874 81.6801 53.4683C81.7747 53.5223 81.8749 53.5655 81.9708 53.6173C82.042 53.6553 82.1284 53.6838 82.1767 53.7434C82.4523 54.0854 82.834 54.1856 83.2257 54.2228C83.5509 54.2534 83.8247 54.3799 84.0877 54.5609C84.2807 54.6935 84.3999 54.8744 84.4202 55.1137C84.4358 55.2929 84.4327 55.4738 84.4392 55.6841C84.3451 55.6578 84.2643 55.6552 84.1926 55.6686C84.1874 55.682 84.1831 55.6958 84.1767 55.7092C84.0998 55.8625 83.9568 55.9376 83.7988 55.9515C83.7802 55.9743 83.7616 55.9977 83.7431 56.021C83.6662 56.0124 83.6122 55.9787 83.5652 55.9346C83.3229 55.8996 83.0841 55.8405 82.8526 55.7589C82.8142 55.7485 82.7831 55.7373 82.7593 55.723C82.5827 55.6556 82.4099 55.5796 82.2454 55.4876C82.1068 55.4099 82.0329 55.2929 82.0101 55.1672C82.0075 55.1577 82.0053 55.1487 82.0027 55.1392C81.9293 55.08 81.8589 55.0169 81.795 54.9474C81.7458 54.8934 81.6961 54.823 81.6473 54.7514C81.6413 54.7423 81.6352 54.7336 81.6292 54.725C81.5519 54.6114 81.4759 54.4996 81.4029 54.449C81.2461 54.3411 81.0729 54.2469 80.9036 54.1519C80.7724 54.1826 80.6541 54.12 80.5396 54.0574C80.4472 54.0068 80.3824 53.9326 80.3574 53.8363C80.331 53.8211 80.3055 53.806 80.2796 53.7918C80.1928 53.7948 80.1052 53.778 80.0162 53.73C80.0028 53.7227 79.992 53.7145 79.9804 53.7067C79.9773 53.7231 79.9747 53.7413 79.9722 53.7581C79.7787 53.7948 79.5882 53.8026 79.4211 53.8721C79.2937 53.9252 79.1836 54.0211 79.0748 54.1062C78.9742 54.2392 78.848 54.3502 78.7038 54.4331C78.7086 54.4396 78.7129 54.446 78.7172 54.4529C78.4136 54.6533 77.9014 54.8662 77.6233 54.9232C77.5486 54.9383 77.4795 54.9828 77.407 55.0126C77.2809 55.064 77.1457 54.9707 77.1613 54.8321C77.198 54.5112 77.3128 54.2271 77.6099 54.0802C77.8647 53.9541 78.1312 53.8514 78.3972 53.7503C78.4831 53.7175 78.5829 53.7097 78.6757 53.7145C78.8584 53.7231 78.985 53.6458 79.0778 53.4873C79.2246 53.2369 79.3749 52.9881 79.5282 52.7424C79.5839 52.6538 79.6504 52.5735 79.7109 52.4928C79.6871 52.4794 79.6642 52.4651 79.6418 52.4487C79.6236 52.4362 79.6077 52.4215 79.59 52.4086C79.5481 52.3844 79.5066 52.3576 79.4747 52.3373C79.4742 52.3308 79.4768 52.3269 79.4768 52.3205C79.4781 52.2786 79.2074 52.0855 79.1668 52.0462C78.6891 51.5811 78.3113 50.9562 77.8436 50.4622C77.3439 49.9341 77.5702 49.1632 76.6953 48.9533C76.6927 48.9529 76.6974 48.9468 76.7022 48.9412C76.6789 48.9684 76.6556 48.9956 76.6327 49.0229C76.5929 48.9939 76.5489 48.9728 76.5023 48.9589ZM73.1161 56.2874C73.1226 56.2663 73.1291 56.2451 73.133 56.2214C73.3113 55.0476 73.4391 53.8509 73.7177 52.6957C73.9526 51.7228 74.3663 50.733 75.1588 50.0826C75.1942 50.0537 75.2205 50.0213 75.2434 49.9876C75.344 49.9958 75.4407 50.0338 75.5146 50.1159C75.9037 50.5512 76.4996 50.7857 76.8339 51.2693C76.8473 51.2883 76.8559 51.3091 76.8676 51.3289C76.8883 51.5604 76.909 51.7919 76.9293 52.0238C76.9419 52.1684 77.0269 52.2781 77.1375 52.3403C77.1617 52.5727 77.1824 52.805 77.2373 53.0235C77.2951 53.2537 77.239 53.4851 77.0446 53.6264C76.3748 54.1139 76.5951 55.1836 75.9836 55.7804C75.7517 56.0072 75.4934 56.1492 75.1765 56.1989C75.0426 56.2201 74.8811 56.2002 74.7144 56.1808C74.4091 56.1449 74.0882 56.1091 73.8995 56.3233C73.8002 56.436 73.668 56.4857 73.5363 56.4857C73.3756 56.4857 73.2159 56.4118 73.1161 56.2874ZM82.9416 52.4591C82.9459 52.4137 82.939 52.374 82.9519 52.3645C83.2404 52.1633 83.5328 51.9672 83.8208 51.7655C83.9953 51.6438 84.1736 51.6532 84.3585 51.7314C84.4975 51.7901 84.5722 51.8985 84.5519 52.0134C84.5342 52.1149 84.4526 52.1965 84.3192 52.2069C84.1205 52.2224 83.9206 52.2194 83.6653 52.2259C83.4904 52.304 83.29 52.4656 83.0327 52.4656C83.0029 52.4656 82.9726 52.4634 82.9416 52.4591ZM81.7086 52.8227C81.6875 52.7869 81.7022 52.7195 81.7181 52.672C81.7298 52.6357 81.7626 52.5986 81.7963 52.5809C82.0476 52.4466 82.3184 52.3705 82.5987 52.3464C82.6613 52.3412 82.73 52.4107 82.8846 52.4932C82.4678 52.6465 82.156 52.764 81.8412 52.8719C81.8352 52.8737 81.8278 52.8749 81.8196 52.8749C81.7803 52.8749 81.7255 52.8508 81.7086 52.8227ZM83.8985 52.6292C83.8847 52.6331 83.8713 52.6383 83.8575 52.6418C83.8243 52.65 83.7906 52.6577 83.7573 52.6651C83.7556 52.6655 83.7552 52.6655 83.7543 52.6655C83.75 52.6664 83.7483 52.6664 83.7426 52.6677C83.6692 52.6793 83.5954 52.6918 83.5211 52.7018C83.4814 52.7074 83.4412 52.7117 83.4015 52.7165C83.5651 52.6797 83.731 52.65 83.8985 52.6292ZM86.665 53.0287C86.8032 52.9544 86.9625 52.9449 87.1245 52.9535C87.454 52.9704 87.7688 53.0512 88.0568 53.2196C88.686 53.5875 89.2569 54.0388 89.7752 54.5622C89.8028 54.5903 89.8201 54.6308 89.833 54.6507C89.8084 54.8032 89.7855 54.9556 89.7626 55.1076C89.6348 54.9794 89.5022 54.8554 89.3658 54.7367C89.3632 54.7345 89.3606 54.7324 89.3584 54.7298C89.1516 54.5501 88.9352 54.3843 88.7093 54.2366C88.6765 54.2154 88.6441 54.1938 88.6113 54.1735C88.4947 54.101 88.3755 54.034 88.2533 53.9727C88.2019 53.9472 88.1497 53.9239 88.0974 53.9006C87.9264 53.8237 87.7502 53.7611 87.5688 53.7114C87.5127 53.6963 87.4566 53.6804 87.3991 53.6683C87.2065 53.6264 87.0087 53.6009 86.8053 53.5953C86.7086 53.5931 86.6261 53.6061 86.5527 53.629C86.5747 53.3997 86.611 53.1924 86.665 53.0287ZM89.529 61.8855C89.1788 61.4454 88.8553 60.9838 88.5612 60.5044C87.9717 59.5453 87.4984 58.5153 87.1564 57.4431C87.1465 57.4111 87.1361 57.3787 87.1262 57.3463C86.8679 56.515 86.6503 55.6306 86.6114 54.7561L87.0575 54.7362C87.0471 54.7367 87.1426 55.4436 87.1482 55.4807C87.2536 56.1207 87.4125 56.7512 87.6129 57.3679C88.3103 59.5142 89.6296 61.3651 91.1178 63.0347C91.2763 63.2121 91.4348 63.3896 91.5911 63.5688C91.7012 63.695 91.8446 63.7995 91.9253 63.9485C92.0143 64.1126 92.0609 64.2322 92.238 64.3337C91.1303 63.6949 90.3197 62.8805 89.529 61.8855ZM90.7913 56.2844C90.5473 55.9761 90.2834 55.6574 89.9984 55.3516C90.0165 55.2156 90.0351 55.0726 90.058 54.9042C90.1569 54.9858 90.2256 55.0264 90.2739 55.0852C90.6008 55.4799 90.9204 55.8819 91.249 56.2753C91.4032 56.4593 91.4348 56.6493 91.4015 56.8929C91.3924 56.9568 91.3847 57.0211 91.376 57.0851C91.1895 56.8126 90.9964 56.544 90.7913 56.2844ZM84.8866 57.1326C84.925 56.7918 84.9 56.4515 84.783 56.1367C84.7035 55.9225 84.7052 55.7325 84.7618 55.5278C84.773 55.4881 84.7851 55.4488 84.8067 55.3767C85.2161 55.2177 85.6432 55.064 86.0975 54.9435C86.1243 55.0161 86.1524 55.064 86.1606 55.1163C86.2387 55.6029 86.3329 56.0858 86.4559 56.5608C86.3588 56.5224 86.2504 56.5163 86.1489 56.5586C85.73 56.7335 85.3228 56.9395 84.9341 57.174C84.9155 57.1857 84.8974 57.2017 84.8797 57.2176C84.8823 57.1896 84.8836 57.1606 84.8866 57.1326ZM77.0347 56.7271C77.0308 56.7249 77.0269 56.7219 77.0231 56.7197C77.6549 56.3349 78.2871 55.9113 78.9638 55.6232C79.0713 55.577 79.1801 55.5352 79.2898 55.4972C79.3006 55.4937 79.3106 55.4898 79.3209 55.4863C79.4228 55.4518 79.5256 55.4198 79.6297 55.3931C79.9009 55.3235 80.1803 55.2817 80.4714 55.2786C80.569 55.2778 80.6471 55.2506 80.7098 55.2082C80.8596 55.3149 81.009 55.4216 81.1636 55.5317C81.1718 55.571 81.1956 55.6379 81.1973 55.7053C81.2288 56.9698 81.5026 58.1876 81.9094 59.3726C82.7511 61.8233 84.0044 64.034 85.6048 66.0334C86.4326 67.0668 87.3551 67.9975 88.4351 68.7463C88.7059 68.9337 88.9948 69.0909 89.2746 69.2628C89.3848 69.331 89.5204 69.3729 89.548 69.5301C89.2414 69.5452 88.9698 69.4338 88.7258 69.2542C87.812 68.5805 86.9314 67.9059 86.1191 67.1062C85.3098 66.3094 84.5671 65.4448 83.9011 64.5241C83.7176 64.2706 83.5397 64.0119 83.3341 63.7766C83.2533 63.8314 83.2845 63.9562 83.3263 64.0443C83.7975 65.0441 84.5247 65.8123 85.1958 66.6674C85.6544 67.2517 86.1839 67.7751 86.7436 68.2622C87.4039 68.8366 88.0525 69.3669 88.8544 69.7262C89.339 69.9434 89.9354 70.1131 90.3733 70.418C90.3025 70.5195 90.2303 70.5467 89.6197 71.0066C89.4707 71.0809 88.6869 70.7168 88.5573 70.6641C88.1415 70.4949 87.7217 70.3325 87.3184 70.1347C86.5894 69.7776 85.9438 69.2835 85.3435 68.7308C83.5448 67.0742 82.1375 65.1101 81.0868 62.8671C80.5573 61.7365 80.1246 60.5701 79.8379 59.3484C79.6193 58.4169 79.5014 57.4746 79.5567 56.5163C79.6897 56.3647 79.7066 56.1156 79.5926 55.9489C79.571 55.9169 79.5459 55.8875 79.5144 55.8629C79.1663 55.5891 78.7535 55.6867 78.5229 56.0491C78.5147 56.062 78.5103 56.0758 78.5039 56.0897C78.0647 56.3496 77.6216 56.604 77.1764 56.8545C77.1371 56.8018 77.0891 56.7586 77.0347 56.7271ZM81.8369 57.4776C81.7954 57.2854 81.7579 57.092 81.7298 56.8976C81.7039 56.7167 81.6922 56.534 81.6741 56.3527C81.6551 56.1609 81.6063 55.9687 81.6745 55.7234C81.7492 55.8431 81.7924 55.9268 81.8485 56.0007C81.9738 56.1661 82.0947 56.3367 82.2359 56.4857C82.3914 56.6493 82.587 56.7439 82.8137 56.7642C83.002 56.781 83.189 56.8121 83.3773 56.8333C83.5971 56.8583 83.7509 56.9745 83.8662 57.2211C83.5449 57.4232 83.2106 57.4923 82.9083 57.6387C82.6172 57.7803 82.3137 57.8935 81.9915 58.0295C81.8861 57.8589 81.877 57.6624 81.8369 57.4776ZM84.1002 56.6001C84.089 56.5647 84.1058 56.518 84.1157 56.4788C84.1399 56.3777 84.2639 56.3362 84.3386 56.4019C84.3593 56.42 84.3848 56.4351 84.3978 56.458C84.5105 56.6549 84.5519 56.8739 84.5532 57.0976C84.5536 57.1939 84.5036 57.282 84.3831 57.3191C84.2319 57.1062 84.1788 56.8471 84.1002 56.6001ZM91.5216 57.2984C91.5285 57.2254 91.5354 57.1524 91.5423 57.0799C91.5488 57.0108 91.5643 56.9434 91.5833 56.829C91.6524 56.8972 91.7034 56.9326 91.7345 56.9814C91.9145 57.2626 92.0842 57.5515 92.2691 57.8292C92.3757 57.9907 92.4012 58.1504 92.3809 58.3452C92.3676 58.4722 92.3576 58.5995 92.346 58.7265C92.0981 58.2355 91.8239 57.7575 91.5216 57.2984ZM74.8193 60.7981C75.8596 60.149 75.9896 59.997 76.7238 59.4408C77.1038 59.1523 77.5223 58.9351 77.9351 58.698C78.3674 58.4501 78.7755 58.1651 79.1607 57.8503C79.1775 58.0299 79.1961 58.2092 79.2212 58.3871C79.2907 58.8855 79.4021 59.3778 79.4988 59.8934C79.406 59.9534 79.3201 60.0178 79.2268 60.0683C78.1497 60.6526 77.1241 61.325 76.1157 62.0259C76.0458 62.0751 75.9676 62.1191 75.9296 62.1999C75.8881 62.228 75.8463 62.256 75.8052 62.2845C75.7025 62.3264 75.6148 62.3903 75.5358 62.4681C75.2849 62.6399 75.0331 62.8118 74.7818 62.9833C74.6721 63.058 74.5619 63.1327 74.4514 63.2065C74.4 63.15 74.4427 63.1042 74.4531 63.0597C74.5036 62.8347 74.4829 62.6179 74.4086 62.3986C74.346 62.2142 74.3071 62.0211 74.2592 61.8315C74.2044 61.6143 74.1504 61.3954 74.0886 61.1483C74.0994 61.1527 74.1119 61.1548 74.1266 61.1548C74.2955 61.1548 74.6932 60.8767 74.8193 60.7981ZM93.4757 64.1972C93.7309 63.8111 93.743 63.3504 93.689 62.9068C93.6687 62.7393 93.6484 62.5713 93.6277 62.4037C93.6026 62.196 93.5772 61.9883 93.5318 61.7845C93.3314 60.8862 92.9255 59.9417 92.5351 59.1083C92.5416 59.0288 92.5472 58.9494 92.5537 58.8695C92.561 58.7727 92.5779 58.6764 92.5969 58.5339C92.6638 58.6103 92.7143 58.6497 92.7415 58.7019C93.4057 59.9875 93.9218 61.3288 94.1632 62.7717C94.2539 63.3153 94.2888 63.8612 94.2292 64.4097C94.2007 64.674 94.1589 64.937 94.0379 65.171C93.5715 65.187 92.9536 64.9508 92.4487 64.5625C92.4466 64.5224 92.4453 64.4801 92.4431 64.4386C92.5057 64.4658 92.5701 64.4887 92.6366 64.506C92.7057 64.5241 92.7752 64.5327 92.8439 64.5327C93.0948 64.5327 93.3323 64.4157 93.4757 64.1972ZM84.1162 63.1327C84.1283 63.121 84.1412 63.1076 84.1538 63.0942C84.2315 63.0882 84.3952 62.9621 84.4694 62.9237C85.1379 62.5804 85.5422 62.1887 86.2107 61.8454C86.3432 61.7767 86.272 61.8259 86.5881 61.6294C86.633 61.5983 86.6775 61.5677 86.722 61.5361C87.0031 61.3897 87.2873 61.2485 87.5671 61.1C87.7813 60.986 87.9899 60.862 88.2019 60.7415C88.3889 60.9112 88.7746 61.4856 88.9102 61.8052C88.9598 61.8885 89.0362 61.8911 88.9637 61.9507C88.7128 62.158 88.6057 62.2077 87.9786 62.6443C87.894 62.7034 87.8046 62.7721 87.7144 62.8321C87.6323 62.887 87.5494 62.9405 87.4665 62.9945C86.8045 63.4043 86.6222 63.6371 85.9783 64.0763C85.8937 64.1341 85.784 64.2132 85.3366 64.4896C85.274 64.5353 85.2109 64.5811 85.1483 64.626C84.9091 64.4408 84.4712 63.8038 84.1162 63.1327ZM76.4116 77.9257C75.721 77.5262 74.2912 76.685 73.6974 76.1452C73.592 76.0489 73.4923 75.9491 73.3895 75.8507C73.3791 75.8265 73.367 75.8023 73.3523 75.7798C73.2966 75.6982 73.2219 75.6425 73.1386 75.6114C71.7364 74.2187 70.5915 72.6152 69.6777 70.8239C69.194 69.876 68.7829 68.8966 68.4595 67.8792C68.0794 66.6829 67.8203 65.4634 67.848 64.1963C67.8566 63.8038 67.8877 63.4121 67.9132 63.0204C67.9175 62.9526 67.9257 62.8697 67.9646 62.8218C68.111 62.6412 68.2478 62.4404 68.4297 62.3061C68.7289 62.0841 68.998 61.8346 69.2454 61.5564C69.4562 61.3202 69.6579 61.0749 69.8664 60.8357C69.8984 60.7998 69.9437 60.7761 69.986 60.7441C70.0193 60.7891 70.0223 60.8245 70.0141 60.8547C69.9765 60.8948 69.9472 60.9424 69.9286 60.9963C69.6345 61.4455 69.5361 61.9576 69.5076 62.4897C69.4743 63.1232 69.5197 63.7541 69.6211 64.3803C69.8915 66.0468 70.4568 67.6097 71.1922 69.1108C71.8206 70.3938 72.5525 71.6121 73.399 72.7521C74.2467 73.8948 75.1963 74.9373 76.3114 75.8049C77.0101 76.3482 77.7538 76.8068 78.6041 77.0516C78.6516 77.0659 78.6943 77.0974 78.7479 77.1251C78.6442 77.2304 78.5393 77.2347 78.4313 77.2101C78.2987 77.1803 78.1631 77.1575 78.0375 77.1087C77.4402 76.8763 76.8495 76.631 76.3369 76.2216C75.9819 75.9383 75.6243 75.6594 75.2628 75.386C74.688 74.9507 74.2126 74.4118 73.7544 73.8529C73.4555 73.4885 73.1476 73.1326 72.8544 72.763C72.6225 72.4697 72.4074 72.1614 72.1833 71.8621C72.0857 71.7313 71.9937 71.5939 71.8227 71.4713C71.8672 71.7693 71.9462 72.0064 72.0814 72.2154C72.5953 73.0091 73.1027 73.808 73.7229 74.5219C74.3529 75.2478 75.0707 75.8658 75.826 76.444C76.4211 76.9005 77.0766 77.2291 77.7572 77.5129C77.8414 77.5483 77.9252 77.5841 78.0051 77.6182C77.9908 77.7184 77.933 77.7141 77.882 77.705C77.8276 77.6955 77.6972 77.7517 77.5698 77.8083C77.451 77.8605 77.3348 77.9128 77.2843 77.9119C77.2208 77.911 77.1271 77.9305 77.0209 77.9503C76.9173 77.9693 76.8015 77.9888 76.6905 77.9888C76.5895 77.9888 76.4919 77.9728 76.4116 77.9257ZM73.5164 61.8199C73.4089 61.6679 73.2608 61.5474 73.1062 61.3889C73.1796 61.3384 73.2314 61.2736 73.2802 61.2757C73.3679 61.2809 73.4896 61.2978 73.5341 61.3595C73.6779 61.5577 73.7997 61.7741 73.9176 61.9909C73.988 62.1213 73.9664 62.2517 73.8369 62.4184C73.7121 62.1805 73.6335 61.9857 73.5164 61.8199ZM70.2849 65.4681C70.192 65.0877 70.1096 64.7042 70.0487 64.3047C70.674 63.9139 70.715 63.8573 70.8217 63.7792C71.5265 63.2648 71.0989 63.628 71.8037 63.1133C71.9199 63.0286 72.7059 62.4741 72.7158 62.3329C72.9334 62.3368 73.1481 62.3403 73.3856 62.3446C73.7 62.6067 73.9008 63.0083 74.0679 63.4657C72.8682 64.2719 71.6582 65.0803 70.6006 66.0123C70.5492 66.0572 70.5112 66.1038 70.4836 66.1505C70.4503 66.0865 70.2996 65.5277 70.2849 65.4681ZM72.5076 70.6724C72.5292 70.662 72.5508 70.6525 72.5724 70.6378C75.4995 68.6923 78.5078 66.8699 81.5881 65.1771C81.6693 65.1326 81.7255 65.0587 81.757 64.9741C82.0515 65.4098 82.4479 65.9747 82.7515 66.4234C82.4799 66.5469 75.0715 70.928 73.4318 71.8699C73.408 71.8833 73.3877 71.9006 73.3687 71.9183C73.0962 71.5205 72.7508 71.0317 72.5076 70.6724ZM64.9481 68.5779C65.6749 67.5626 66.5779 66.7041 67.426 65.7713C67.4269 65.7704 67.4282 65.7696 67.4295 65.7683C67.474 65.8158 67.5155 65.8391 67.5211 65.8689C67.6562 66.5719 67.8195 67.2672 68.0267 67.9513C68.0298 67.9616 68.0298 67.9733 68.0311 67.9841C67.8799 67.8817 67.6826 67.8701 67.5163 67.9763C66.6448 68.5351 65.8692 69.2516 65.2426 70.0755C65.2374 70.082 65.234 70.0898 65.2292 70.0967C65.0949 69.6424 64.9818 69.0495 64.9481 68.5779ZM67.2775 74.6307C67.1186 74.3884 66.9644 74.1431 66.8003 73.8866C66.9329 73.767 69.5585 72.0681 69.7693 72.0176C69.7995 72.0271 69.8366 72.0262 69.8483 72.0439C70.097 72.4244 70.3428 72.807 70.6092 73.2198C70.519 73.2851 70.4788 73.3239 70.4313 73.3477C69.4402 73.8417 68.4482 74.334 67.4433 74.8332C67.379 74.7551 67.3215 74.6976 67.2775 74.6307Z" fill="url(#paint0_linear_119_838)"/>
<path d="M118.136 0.0713425C117.939 0.202194 117.739 0.326584 117.54 0.453117C117.036 0.767502 116.523 1.06679 116.003 1.35353C113.737 2.60417 111.318 3.55812 109.037 4.80185C108.905 4.8744 108.771 4.94736 108.656 5.04539C108.587 5.10456 108.524 5.17281 108.452 5.22938C108.374 5.28983 108.286 5.33562 108.198 5.38096C107.608 5.68671 107.119 6.04298 106.585 6.43813C106.523 6.48218 106.462 6.52795 106.401 6.5733C105.804 7.00903 105.222 7.46808 104.591 7.91202C104.751 7.61275 104.937 7.33118 105.14 7.06258C105.16 7.03667 105.181 7.01162 105.2 6.98614C105.238 6.93777 105.275 6.88898 105.314 6.84191C105.416 6.71667 105.524 6.59488 105.633 6.47569C105.728 6.37247 105.824 6.271 105.924 6.17168C106.004 6.09135 106.086 6.01188 106.168 5.93372C106.238 5.8698 106.312 5.80978 106.384 5.7476C106.857 5.33734 107.364 4.97156 107.893 4.64594C102.212 5.58263 89.2958 8.10031 80.692 15.3545C80.692 15.3545 81.06 14.3086 83.0711 12.6239C82.7516 12.7224 82.4229 12.8092 82.0805 12.8822C76.6771 14.027 67.0771 19.3344 64.7637 22.6131C64.6829 22.5405 64.6039 22.4662 64.5296 22.3868C64.2166 22.0512 63.8603 21.7714 63.5256 21.4639C63.2518 21.213 62.9823 20.9535 62.7357 20.674C62.3034 20.1835 61.8448 19.7296 61.3167 19.3504C60.9371 19.0779 60.5752 18.7804 60.2055 18.4941C59.8566 18.225 59.5072 17.9595 59.1013 17.7854C58.8007 17.6563 58.5092 17.5051 58.2112 17.37C58.0877 17.3138 57.9612 17.2517 57.8308 17.2288C56.9576 17.078 56.0796 17.0448 55.2038 17.1674C55.0082 17.1946 54.8139 17.2283 54.6208 17.2663C52.9655 17.3359 51.3103 17.4054 49.6554 17.4749C48.7796 17.5116 47.9038 17.5522 47.0272 17.5876C46.1786 17.585 45.33 17.5725 44.4814 17.5466C43.4657 17.5159 42.4504 17.468 41.436 17.4037C41.3458 17.398 41.2633 17.4352 41.1942 17.4922C41.0284 17.4836 40.8621 17.5622 40.7731 17.6986C40.7122 17.7539 40.6643 17.8265 40.6362 17.9055C40.6211 17.937 40.6086 17.9694 40.6017 18.0018C40.571 18.1499 40.6129 18.2751 40.695 18.3714C40.8846 18.8637 41.0815 19.353 41.2853 19.8393C36.6935 20.1329 32.0856 20.161 27.4911 19.9131C26.1459 19.8406 24.802 19.7438 23.4603 19.6238C23.2543 19.6057 23.0556 19.6709 22.9572 19.8669C22.8686 20.0436 22.9071 20.2897 23.0638 20.4167C23.0746 20.4257 23.0854 20.434 23.0962 20.443C23.1036 20.4983 23.1169 20.5544 23.1433 20.6115C23.4361 21.2376 23.8735 21.7904 24.4026 22.2192C23.4831 22.176 22.7019 22.1247 21.6953 22.0936C21.0328 22.0728 20.344 21.9873 19.6816 21.9752C16.3382 21.9148 12.9892 21.7031 9.68424 21.1374C8.03458 20.8554 6.3983 20.4858 4.78879 20.0107C3.22334 19.5487 1.88762 18.6435 0.334258 18.1797C-0.558376 17.9141 0.603732 21.6578 0.743651 22.027C1.44109 23.8654 2.73017 25.4559 4.18075 26.7096C7.1264 29.2553 10.814 30.7232 14.4946 31.6422C15.471 31.8857 16.4509 32.0999 17.4217 32.2986C17.5655 32.328 17.7098 32.3556 17.8536 32.3837C18.041 32.4355 18.2275 32.4882 18.4154 32.5383C16.5977 33.0202 14.4791 32.6579 12.664 32.3189C12.2447 32.2407 11.8867 32.7542 12.233 33.1014C15.2352 36.1092 19.4967 37.2934 23.4693 38.0802C28.6766 39.1115 33.9266 39.3952 39.212 39.3244C39.5557 39.32 39.9418 39.3278 40.3508 39.3356C41.8834 39.3654 43.7395 39.3952 44.9128 38.7677C42.7216 39.9393 40.1746 40.4303 37.7752 40.8851C37.6491 40.9088 37.5636 40.9758 37.5127 41.063C37.1417 41.1753 37.0972 41.8956 37.5455 41.9669C45.9342 43.303 54.2378 42.0865 62.5012 40.6389C61.8772 41.5924 57.4892 43.3889 56.8379 44.3239C54.9702 47.004 51.4735 47.0143 48.638 47.2246C48.7438 47.2169 49.7798 48.7089 49.9974 48.8812C50.1058 48.9667 50.2224 49.0488 50.3438 49.1261C48.0939 49.9289 45.6828 50.2769 43.2969 50.1038C43.049 50.0856 42.8063 50.1944 42.751 50.4618C42.7311 50.5555 42.7519 50.6643 42.7976 50.7611C43.0188 51.2288 43.5223 51.4693 43.93 51.7435C45.0523 52.4975 46.1829 53.3224 47.4923 53.7201C48.9308 54.1576 50.3114 53.8181 51.6627 53.2498C51.9149 53.144 52.1632 53.0287 52.4076 52.9052C52.5108 52.8529 52.6145 52.8003 52.7155 52.7428C52.8049 52.6919 52.9366 52.5623 53.0334 52.5416C53.0459 52.5329 53.0653 52.5338 53.0856 52.5351C53.0942 52.5355 53.1042 52.5364 53.1128 52.5355C53.2407 52.58 53.2657 52.6858 53.245 52.805C53.2126 52.9903 53.1059 53.1362 52.9958 53.28C52.7596 53.5871 52.5626 53.9235 52.294 54.2025C52.0258 54.481 51.721 54.7177 51.4239 54.9617C50.9821 55.324 50.5545 55.7062 50.0942 56.0434C49.55 56.442 48.9649 56.7746 48.3836 57.111C48.0964 57.2772 47.8093 57.4448 47.5277 57.6214C47.3118 57.6603 47.0958 57.7039 46.8808 57.7518C46.686 57.7955 46.5591 58.0325 46.5712 58.2178C46.5837 58.4221 46.7391 58.5957 46.9374 58.6402C48.8457 59.0703 50.7541 59.6865 52.7306 59.6701C53.9489 59.6602 55.1546 59.3406 56.2144 58.7382C57.2072 58.1733 58.0964 57.4426 58.9165 56.6519C59.7003 55.8966 60.5048 55.096 60.9872 54.107C61.0416 53.996 61.0779 53.8708 61.2178 53.8367C61.2709 53.876 61.3918 53.8708 61.5019 53.8652C61.625 53.8587 61.7356 53.8527 61.7252 53.9092C61.3374 55.9778 60.1066 57.618 58.8789 59.2607C58.8327 59.322 58.7916 59.4093 58.8897 59.4948C59.1147 59.6922 60.2647 59.3575 60.5355 59.2901C61.083 59.1536 61.5585 58.9113 62.0668 58.6669C62.1886 58.6086 62.3104 58.5503 62.4365 58.5007C62.9819 58.286 63.5485 58.1811 64.0848 57.9336C64.6203 57.6875 65.1377 57.4154 65.6291 57.0885C66.6077 56.436 67.4718 55.6107 68.1559 54.6525C68.2384 54.5371 68.266 54.4167 68.2548 54.3065C68.3157 54.3229 68.3778 54.3281 68.4374 54.3212C68.4582 54.3186 68.4793 54.3169 68.4992 54.3113C68.5756 54.2905 68.6508 54.2655 68.7251 54.2387C68.7263 54.2422 68.7289 54.2452 68.7311 54.2487C68.7181 54.3065 68.7946 54.2992 68.7842 54.3584C68.9008 54.3838 68.9233 54.535 68.9367 54.6663C68.9613 54.7038 68.9807 54.7479 68.9876 54.8032C69.0006 54.9094 69.0131 55.0161 69.0261 55.1223C69.1003 55.4246 69.2666 55.7105 69.3949 56.0072C69.483 56.211 69.5404 56.4205 69.5568 56.6303C69.5849 56.6252 69.6056 56.7016 69.625 56.778C69.6466 56.8622 69.6674 56.9464 69.6972 56.9218C69.6717 57.5376 69.6276 57.776 69.4985 58.3785C69.4488 58.6095 69.3927 58.8397 69.3292 59.0681C69.283 59.2344 69.3391 59.3622 69.4385 59.4421C69.4337 59.4516 69.4311 59.4611 69.4255 59.4702C69.3784 59.554 69.3439 59.6477 69.3128 59.7401C69.2195 60.016 69.0451 60.2251 68.8183 60.3887C68.6853 60.4842 68.5445 60.5684 68.4081 60.6591C68.2919 60.7364 68.1744 60.7722 68.028 60.7523C67.7728 60.7174 67.5876 60.8512 67.4563 61.071C67.3336 61.2753 67.246 61.4938 67.2136 61.7348C67.2032 61.8142 67.1859 61.8928 67.1769 61.9403C66.9359 62.0008 66.7226 62.0379 66.52 62.1088C66.3369 62.1731 66.1948 62.3083 66.1115 62.4957C65.9927 62.7622 66.0389 63.1841 66.2376 63.5209C66.2704 63.4112 66.2959 63.3244 66.3214 63.2381C66.3447 63.159 66.3494 63.064 66.3952 63.0036C66.5058 62.858 66.6491 62.7475 66.8348 62.7293C67.0119 62.7121 67.1765 62.7518 67.3311 62.8969C67.2641 62.972 67.1998 63.0433 67.1363 63.1137C67.0745 63.1396 67.0171 63.1772 66.9709 63.2307C66.685 63.5615 66.4121 63.9022 66.1482 64.2499C65.8451 64.6485 65.5557 65.057 65.2793 65.4759C65.2582 65.5074 65.2461 65.5424 65.2374 65.5783C65.1057 65.7303 64.974 65.8827 64.8375 66.03C64.8332 66.0343 64.8298 66.0391 64.8259 66.0434C64.7646 66.1138 64.7283 66.204 64.7179 66.2969C64.7106 66.356 64.7175 66.4156 64.7317 66.4726C64.6367 66.654 64.5625 66.8453 64.5098 67.0461C64.4912 67.1217 64.4925 67.196 64.5136 67.2685C64.5162 67.291 64.5236 67.3113 64.5292 67.3324C64.5111 67.3527 64.4938 67.3734 64.4795 67.3972C64.3984 67.5345 64.3927 67.7245 64.4661 67.8593C64.4666 68.3149 64.508 68.7679 64.5935 69.2196C64.736 69.9671 64.9334 70.6974 65.1908 71.4108C65.2724 71.6371 65.2746 71.6362 65.2046 71.8854C65.3359 71.8988 65.4097 71.9688 65.468 72.1005C65.8239 72.9046 66.1888 73.7048 66.6707 74.4398C66.9298 74.8354 67.1959 75.2266 67.4541 75.6226C67.5668 75.795 67.7379 75.928 67.781 76.1486C67.7879 76.1819 67.8251 76.2216 67.8579 76.2354C68.0185 76.3041 68.098 76.4591 68.2047 76.5827C68.9047 77.3945 69.6617 78.1377 70.5557 78.7182C70.9832 78.9963 71.4332 79.223 71.9199 79.3642C72.1954 79.4441 72.4765 79.4985 72.762 79.467C73.1247 79.4264 73.4888 79.3871 73.8455 79.3128C74.3749 79.201 74.8997 79.0649 75.4239 78.9289C76.9881 78.5238 78.4987 77.9564 79.9791 77.3034C82.4087 76.2324 84.7199 74.93 86.9258 73.428C89.0872 71.9567 91.1199 70.3161 92.9704 68.4388C93.8795 67.5168 94.7276 66.5378 95.5041 65.4915C95.9636 64.8722 96.2102 64.1765 96.243 63.3922C96.2849 62.3666 96.0966 61.3755 95.8124 60.4012C95.4885 59.2927 95.0295 58.2446 94.4776 57.2366C93.7827 55.9696 92.9683 54.7976 91.9871 53.7529C91.3493 53.074 90.6483 52.4768 89.8512 52.0078C88.9944 51.5034 88.0961 51.284 87.1184 51.5319C86.5674 51.6714 86.0103 51.788 85.4558 51.9128C85.3793 51.9301 85.2999 51.9335 85.2252 51.943C85.1846 51.8826 85.1552 51.8351 85.1224 51.7914C84.8318 51.4024 84.4729 51.2037 83.991 51.3462C83.9132 51.3691 83.8333 51.3864 83.7569 51.4123C83.449 51.5172 83.1437 51.6304 82.834 51.7301C82.5248 51.8303 82.2109 51.9158 81.9008 52.013C81.7233 52.0683 81.5557 52.0424 81.3847 51.9793C80.8376 51.7776 80.4187 51.4131 80.1285 50.8962C79.9994 50.666 79.8832 50.4229 79.7981 50.1724C79.4557 49.1593 79.194 48.1294 79.2039 47.0424C79.2333 43.8851 81.0781 42.4229 83.0145 40.3638C84.095 39.2138 85.1349 38.0215 86.1217 36.7842C86.8524 35.8678 86.8623 34.6371 87.5533 33.7712C87.5826 33.7345 87.625 33.709 87.6859 33.6572C87.7001 33.8507 87.7057 34.004 87.7247 34.1556C87.7334 34.2242 87.7688 34.2898 87.8651 34.2842C87.8884 34.2618 87.923 34.238 87.9454 34.2052C88.4403 33.4965 89.0332 32.8868 89.6788 32.3293C89.9384 32.1056 90.2212 31.9112 90.4786 31.6858C90.9783 31.2479 91.5401 30.9162 92.1257 30.6247C92.5152 30.4308 92.9078 30.2439 93.3042 30.0655C93.5392 29.9601 93.7775 29.8431 94.0263 29.7965C94.294 29.7459 94.5739 29.7598 94.8511 29.7736C94.985 29.7801 95.1189 29.7865 95.2506 29.7857C95.967 29.7822 96.3233 30.0232 97.0281 30.1743C97.2785 30.2279 97.8374 30.192 98.0999 30.2395C98.1876 30.1121 98.5896 29.5408 98.6518 29.451C98.6389 29.3879 98.6376 29.3586 98.6272 29.334C98.6112 29.2951 98.5927 29.2567 98.5694 29.2225C98.3223 28.8598 97.732 28.8015 97.336 28.6205C96.8994 28.4214 96.4917 28.1744 96.1229 27.8566C96.0149 27.7633 95.8932 27.686 95.7722 27.61C96.1259 27.5271 96.4861 27.4567 96.8523 27.42C97.7795 27.3276 98.7214 27.4468 99.2819 28.2807C99.2927 28.2582 99.2823 28.2396 99.2815 28.2111C99.2897 28.3433 99.462 28.5026 99.582 28.5026C99.6205 28.5026 99.7289 28.3683 99.7569 28.4007C100.058 28.1062 100.092 27.6653 100.112 27.2667C100.146 26.6012 100.155 25.9111 99.9621 25.2664C99.8161 24.7797 99.541 24.3323 99.1338 24.0218C98.7326 23.716 98.3409 23.396 97.881 23.1805C97.6577 23.0756 97.4353 22.9689 97.2125 22.8631C97.0976 22.8083 96.9823 22.7552 96.8683 22.6999C96.6925 22.6152 96.7513 22.5634 96.7379 22.395C96.696 21.8643 96.2179 21.3037 95.7688 21.137C95.6284 21.0847 95.337 20.7224 95.1949 20.6745C94.4491 20.4214 93.2179 20.1537 92.4328 20.1342C92.545 20.0561 92.6621 19.984 92.7631 19.8924C94.6564 18.1745 96.797 16.5486 99.1303 15.3852C100.31 14.797 101.544 14.3194 102.816 13.9718C103.145 13.8819 106.224 12.9306 106.353 13.0394C106.433 13.1059 106.54 13.1465 106.676 13.1447C109.778 13.1072 112.459 11.1984 114.42 8.93421C115.423 7.77512 116.282 6.48692 116.994 5.12961C117.681 3.82283 117.956 2.17793 118.898 1.03094C119 0.906998 119.036 0.749802 118.957 0.591309C118.917 0.511848 118.847 0.444908 118.764 0.403877C118.749 0.197021 118.571 9.91821e-05 118.356 9.91821e-05C118.285 9.91821e-05 118.21 0.0216827 118.136 0.0713425ZM90.8081 19.3263C90.6203 19.0382 90.8064 18.7726 91.0141 18.4906C92.4021 16.6047 94.1282 14.9413 96.344 13.6017C98.3089 12.4145 101.014 11.3293 103.285 10.9285C104.369 10.7372 105.524 10.561 106.604 10.4522C106.831 10.4297 107.059 10.4055 107.284 10.3883C108.082 10.1758 108.858 9.8817 109.603 9.52197C110.702 8.99123 111.73 8.30716 112.68 7.54321C113.574 6.82375 114.429 6.02182 115.164 5.13826C115.286 4.99186 115.404 4.84157 115.514 4.68653C115.525 4.67012 115.571 4.60361 115.572 4.60232C115.579 4.59238 115.585 4.58247 115.591 4.57253C115.601 4.55828 115.61 4.54403 115.62 4.52978C115.662 4.46241 115.703 4.39462 115.743 4.32595C115.752 4.31127 115.759 4.29616 115.767 4.28104C115.903 4.04179 116.021 3.79348 116.136 3.54343C116.152 3.50975 116.169 3.4765 116.184 3.44325C116.26 3.28044 116.338 3.11806 116.418 2.95784C116.432 2.92977 116.446 2.90256 116.46 2.87492C116.471 2.85332 116.482 2.83175 116.494 2.81016C116.539 2.7212 116.584 2.63223 116.631 2.5437C116.645 2.51649 116.659 2.48928 116.673 2.46207C116.703 2.40636 116.735 2.35109 116.765 2.29539C116.79 2.24874 116.816 2.20253 116.842 2.15632C116.885 2.07945 116.927 2.00173 116.971 1.92529C116.974 1.92054 116.977 1.91578 116.979 1.91103C117.026 1.82941 117.075 1.74867 117.124 1.66748C117.129 1.65755 117.135 1.64848 117.141 1.63854C117.152 1.62041 117.162 1.60226 117.173 1.58369C117.202 1.53662 117.229 1.48869 117.258 1.44162C117.261 1.45717 117.263 1.47315 117.266 1.48869C117.262 1.51677 117.258 1.54482 117.254 1.57246C117.253 1.57937 117.252 1.58586 117.251 1.59234C117.248 1.61479 117.244 1.63811 117.241 1.661C117.233 1.71282 117.226 1.76466 117.218 1.81691C117.211 1.86916 117.203 1.92183 117.194 1.97408C117.193 1.98013 117.192 1.98576 117.192 1.99137C117.183 2.04449 117.173 2.09717 117.164 2.15028C117.162 2.16756 117.159 2.18525 117.156 2.20252C117.144 2.27422 117.131 2.34547 117.118 2.41716C117.118 2.41888 117.117 2.41975 117.117 2.42148C117.103 2.49662 117.088 2.57176 117.072 2.64648C117.067 2.67239 117.063 2.69917 117.057 2.72507C117.025 2.87924 116.99 3.03299 116.952 3.18587C116.95 3.19493 116.948 3.20356 116.945 3.2122C116.912 3.34435 116.877 3.47606 116.838 3.60691C116.892 3.55379 116.946 3.50024 117 3.44713C116.945 3.55811 116.889 3.66866 116.83 3.77792C116.795 3.83968 116.76 3.90143 116.724 3.96232C116.723 3.9675 116.721 3.97269 116.72 3.97745C116.621 4.26636 116.509 4.55094 116.377 4.82905C116.121 5.24319 115.824 5.63013 115.494 5.99635C114.982 6.56466 114.43 7.10059 113.853 7.60758C113.49 7.92628 113.118 8.23591 112.736 8.52698C112.732 8.53 112.728 8.53302 112.724 8.53604C112.612 8.62112 112.499 8.70404 112.385 8.78652C111.724 9.26372 111.029 9.69601 110.305 10.0704C110.23 10.1093 110.154 10.146 110.078 10.1836C108.708 10.8629 107.241 11.3344 105.712 11.5102C105.591 11.524 105.496 11.4895 105.427 11.4294C104.704 11.5676 103.98 11.7067 103.255 11.8436C102.015 12.0781 100.869 12.5618 99.7392 13.1197C97.8719 14.043 96.2231 15.2004 94.6149 16.4104C93.4809 17.2637 92.4349 18.1754 91.5099 19.1721C91.3821 19.3098 91.2296 19.4355 91.0793 19.5599C91.0189 19.61 90.9338 19.6411 90.7662 19.7313C90.7904 19.5383 90.8569 19.4018 90.8081 19.3263ZM78.2396 24.3698C79.4889 24.0408 80.7257 23.6417 81.8878 23.0717C82.8215 22.6139 83.6593 21.793 84.6612 21.5011C84.2211 21.0774 82.9731 19.99 82.9338 18.4164C82.9307 18.295 83.0197 18.1797 82.9761 18.0666C82.9541 18.0108 82.9683 17.9361 82.9662 17.8718C83.1678 17.8005 83.3207 17.8891 83.4641 17.9888C84.65 18.8111 86.0008 19.4964 87.4013 19.9356C88.8635 20.3938 90.3202 20.38 91.804 20.6322C91.7884 20.6447 91.7746 20.6564 91.7587 20.6702C91.912 20.7138 92.0514 20.7332 92.1836 20.7367C92.7165 20.8213 93.2489 20.9099 93.7715 21.0459C94.098 21.1305 94.4279 21.2225 94.7306 21.3758C94.9755 21.4997 95.4242 21.7679 95.4302 22.0862C95.435 22.3393 95.1465 22.6407 95.4682 22.8432C95.568 22.9059 95.6811 22.9521 95.7895 22.9991C96.0284 23.1015 96.2659 23.2056 96.5008 23.3174C97.0795 23.5925 97.6396 23.9229 98.1487 24.3128C98.7546 24.7775 99.0737 25.4892 99.3316 26.2484C99.3756 26.3779 99.3856 26.5312 99.3838 26.6729C99.383 26.7489 99.3398 26.8478 99.288 26.8931C99.2176 26.9549 99.1277 26.8979 99.0958 26.8163C98.996 26.5619 98.7961 26.4833 98.6056 26.3671C97.7475 25.8433 96.8493 25.8312 95.9299 26.0312C95.6336 26.0959 95.3374 26.1629 95.0403 26.229C95.0131 26.0657 95.1193 26.0333 95.1914 25.9858C95.6323 25.6943 96.1095 25.5086 96.5932 25.3432C96.7802 25.2797 96.9775 25.2452 97.1676 25.0992C97.1257 24.7192 96.8614 24.4325 96.5306 24.2653C95.8375 23.9147 95.1875 23.6046 94.538 23.1663C94.3152 23.0164 93.8782 23.2081 93.6825 23.2449C93.3124 23.3152 93.0386 23.3153 92.675 23.1792C91.9681 22.9149 91.2378 22.8022 90.4799 22.8014C87.818 22.7992 85.499 23.5925 82.9705 24.5119C81.0855 25.1973 79.1784 25.5669 77.2368 25.8783C76.906 25.931 76.5683 25.9223 76.2336 25.9392C76.0056 25.9504 75.778 25.9517 75.5509 25.9707C75.4995 25.975 75.452 26.035 75.3842 26.0821C75.4844 26.3382 75.5781 26.577 75.6869 26.853C73.8693 27.3889 72.125 27.1501 70.3985 26.3952C70.4317 26.2847 70.4896 26.2937 70.541 26.3024C70.5561 26.3054 70.5712 26.3075 70.5846 26.3071C71.4073 26.2851 72.2295 26.2691 73.0518 26.2436C73.2029 26.2389 73.3579 26.2143 73.5035 26.1689C73.8865 26.0497 74.2657 25.9163 74.6449 25.7816C74.7291 25.7518 74.8059 25.693 74.8962 25.6425C74.6651 25.4326 74.4522 25.2426 74.2445 25.0457C74.2139 25.0168 74.2083 24.952 74.178 24.866C74.2558 24.8418 74.3223 24.8017 74.3866 24.8047C74.5637 24.8129 74.7411 24.8172 74.9186 24.8172C76.0384 24.8172 77.1582 24.6549 78.2396 24.3698ZM53.6017 21.2247C55.3921 20.9794 57.4849 20.8783 59.1332 21.6332C60.6762 22.3397 61.9593 23.4228 63.1533 24.4825C65.4801 26.5481 67.8234 28.3554 70.9841 29.4035C71.7402 29.654 72.5042 30.0089 72.9222 30.6269C73.3238 31.2211 73.3372 31.9855 73.0846 32.6467C72.8549 33.2465 72.4226 33.7993 71.919 34.2411C71.7515 34.3879 68.5847 36.4491 68.6322 36.5532C68.5869 36.4543 69.7909 35.2524 70.0396 34.9925C70.8809 34.1128 71.4898 33.4776 71.6945 32.4152C71.7718 32.0106 71.8206 31.5817 71.65 31.203C71.4341 30.7237 70.9094 30.4166 70.3799 30.2153C69.0174 29.6976 67.4986 29.2117 66.2462 28.4996C66.2449 28.4988 66.2428 28.4975 66.241 28.4966C66.2056 28.4983 66.1698 28.4927 66.1357 28.4772C65.5717 28.2193 65.0384 27.9157 64.5314 27.578L64.5184 27.6281C63.8836 27.3202 62.9944 26.5053 62.1074 25.5781C61.8427 25.3177 61.5857 25.0522 61.3361 24.784C61.1387 24.5728 60.9526 24.3413 60.7695 24.1038C60.5406 23.8404 60.3226 23.5847 60.1204 23.3442C60.3247 23.5869 56.9433 24.7062 56.6877 24.7887C54.6722 25.4382 52.7159 25.8502 50.5766 26.0834C46.5755 26.5191 42.4928 26.4928 38.4757 26.466C37.4647 26.4596 36.4577 26.4531 35.4571 26.4535C33.4274 26.4544 31.3981 26.4414 29.3693 26.4138C29.2125 26.4116 29.0005 26.4129 28.7513 26.4142C28.392 26.4159 27.9545 26.4177 27.4937 26.4095C27.3961 26.4077 27.2972 26.4056 27.1984 26.403C27.0485 26.3991 26.8982 26.3935 26.7484 26.387C26.6737 26.3835 26.5989 26.3801 26.5251 26.3758C26.3001 26.3632 26.0786 26.3464 25.8657 26.3252C25.8596 26.3248 25.8544 26.324 25.8484 26.3235C25.4839 26.2868 25.1462 26.235 24.8633 26.1633C24.7066 26.1236 24.568 26.0782 24.4505 26.0255C24.4427 26.0221 24.4345 26.0186 24.4272 26.0152C24.4172 26.0104 24.4064 26.0061 24.3974 26.0009C24.406 26.007 24.4151 26.0121 24.425 26.0182C24.4328 26.0229 24.441 26.0281 24.4492 26.0333C24.5498 26.0946 24.6785 26.1737 24.8253 26.2635C24.8353 26.2691 24.8448 26.2756 24.8551 26.2816C24.9178 26.3196 24.983 26.3598 25.0508 26.4013C25.0724 26.4146 25.094 26.4276 25.1168 26.4418C25.2429 26.5191 25.3755 26.5999 25.5098 26.6824C25.8143 26.8685 26.1261 27.0598 26.3899 27.2213C26.4051 27.2308 26.4197 27.2395 26.4344 27.2485C26.7993 27.4727 27.0606 27.6333 27.0571 27.6333C21.8508 27.4744 15.5263 25.8269 10.5618 24.5344C9.06757 24.1453 7.58675 23.7182 6.12192 23.2531C5.82869 23.1602 2.99748 22.3769 4.16952 21.8124C4.34658 21.7274 4.6696 22.0128 4.8635 22.0586C8.96306 23.0276 13.1092 23.6227 17.309 24.1496C17.4822 24.1712 17.6549 24.1932 17.8281 24.2157C19.8781 24.4756 21.9186 24.7442 23.991 24.8695C25.0724 24.9351 26.1563 24.9718 27.2411 24.9697C27.3616 24.9692 27.4648 24.9697 27.5572 24.9714C27.7559 24.9744 27.9023 24.9818 28.037 24.9969C28.2339 25.0176 28.2944 24.7715 28.1048 24.7209C27.1163 24.4536 26.329 24.3863 25.9309 23.3947C25.8385 23.3615 25.7879 23.307 25.7797 23.2315C25.8475 23.8555 32.5231 23.735 33.2382 23.7195C35.6639 23.6668 38.0905 23.6011 40.5162 23.5497C41.4883 23.5286 42.2466 23.564 44.8692 23.4042C44.3199 23.209 42.3507 21.9437 42.3744 21.8383C42.5584 21.6626 45.3641 21.5719 45.6293 21.581C46.4554 21.6107 47.2116 21.6272 47.9345 21.6272C49.82 21.6272 51.4843 21.5144 53.6017 21.2247ZM4.24251 23.2272C4.16737 23.1542 4.09092 23.0812 4.01665 23.0069C4.10518 23.0829 4.195 23.1563 4.28655 23.2285C4.27187 23.228 4.25719 23.2276 4.24251 23.2272ZM91.0932 26.4626C90.9843 26.4284 90.8643 26.3784 90.6557 26.2708C90.5434 26.213 90.2709 25.7625 90.28 25.6325C90.3037 25.2776 90.5266 25.0258 90.7516 24.7943C91.0431 24.4942 91.3799 24.8142 91.5492 24.9062C91.4758 24.9874 91.3648 25.0496 91.2555 25.1148C91.0819 25.2184 90.9157 25.332 90.8997 25.5371C90.8988 25.5514 90.8941 25.5635 90.8945 25.5781C90.8993 25.7712 90.996 26.0433 91.151 26.1516C91.3419 26.2868 91.5902 26.3175 91.8135 26.3373C91.9206 26.3088 92.0333 26.2743 92.1486 26.2341C92.2198 26.2091 92.2916 26.1823 92.3637 26.1534L92.2864 26.1015C92.2194 26.0558 92.1685 25.9962 92.1335 25.9219C92.1218 25.8852 92.1097 25.848 92.0981 25.8113C92.089 25.7612 92.0916 25.712 92.0985 25.6624C92.1028 25.6343 92.1067 25.6058 92.1158 25.5773C92.1348 25.5406 92.1529 25.5034 92.1715 25.4667C92.2048 25.4123 92.2488 25.37 92.3028 25.3402C92.3503 25.303 92.4034 25.2789 92.4634 25.2689C92.5226 25.2538 92.5805 25.2547 92.637 25.2702C92.6979 25.2763 92.7528 25.2974 92.8028 25.3341L93.0326 25.4888C93.0969 25.5324 93.1462 25.5889 93.1807 25.6585C93.1794 25.6641 93.1768 25.6684 93.1755 25.6736C93.394 25.4775 93.5452 25.2426 93.5646 24.9662C93.5789 24.7637 93.6035 24.7814 93.8052 24.7943C94.0461 24.8099 93.7624 24.8021 94.0038 24.8151C94.1364 24.822 94.2737 24.8375 94.3994 24.8807C94.5678 24.9386 94.1166 25.3415 94.0518 25.5099C93.296 27.4778 91.135 27.7072 89.3226 27.3466C89.1218 27.3064 88.9153 27.2982 88.7145 27.2572C87.53 27.0123 86.3696 26.3995 85.1578 26.2462C85.0961 26.2384 86.5216 26.0441 86.3925 26.0113C86.725 25.877 86.994 25.7915 87.2795 25.7746C87.7964 25.7448 88.3043 25.7725 88.7854 26.0126C89.3852 26.3119 90.0697 26.4764 90.7533 26.4764C90.8669 26.4764 90.9805 26.4721 91.0932 26.4626ZM95.4307 27.6942C95.4471 27.6899 95.4639 27.686 95.4803 27.6821C95.4341 27.7538 95.4108 27.8315 95.4082 27.8315C95.4065 27.8315 95.4143 27.7948 95.4307 27.6942ZM97.6378 29.6997C97.5411 29.6924 97.4444 29.663 97.3515 29.6315C96.9663 29.5011 96.5828 29.3646 96.1976 29.2338C96.0698 29.1906 95.9394 29.1517 95.8077 29.1206C95.4851 29.0433 95.1616 28.9665 94.836 28.9008C94.681 28.8693 94.5212 28.8559 94.3627 28.8485C94.0807 28.8356 93.7978 28.8403 93.5158 28.8235C93.4083 28.817 93.2956 28.7881 93.1976 28.7427C92.9803 28.6421 92.8443 28.4767 92.8534 28.218C92.8573 28.1148 92.8495 28.0112 92.8607 27.9123C92.8305 28.1723 94.1926 28.3692 94.3782 28.4024C95.0532 28.5234 95.8055 28.6465 96.5064 28.8628C96.9063 28.9859 97.2889 29.1396 97.6309 29.34C97.7527 29.4121 97.7493 29.4177 97.8425 29.6501C97.7769 29.6673 97.7126 29.7001 97.6508 29.7001C97.6465 29.7001 97.6422 29.6997 97.6378 29.6997ZM78.5142 36.4133C78.4214 36.4103 78.3251 36.3027 78.3316 36.2047C78.3367 36.12 78.3475 36.0328 78.3734 35.9534C78.69 34.9877 79.1162 34.0821 79.7187 33.2724C79.7273 33.2612 79.7476 33.2595 79.7631 33.2521C79.8547 33.2681 79.8504 33.3376 79.8314 33.4033C79.7411 33.7146 79.6345 34.0217 79.5589 34.3374C79.4954 34.6034 79.4716 34.878 79.6215 35.157C79.7156 35.1497 79.818 35.1622 79.9061 35.1311C80.3124 34.9886 80.7197 34.8461 81.117 34.6794C81.4841 34.5252 81.8395 34.3464 82.2307 34.2544C82.3676 34.2221 82.4916 34.1184 82.6147 34.0368C82.8504 33.88 83.0798 33.712 83.3164 33.5566C83.3643 33.5255 83.433 33.5289 83.5323 33.5082C83.4797 33.6593 83.4589 33.7812 83.3998 33.8783C83.1998 34.207 83.1653 34.5883 83.0707 34.9497C83.0219 35.135 83.0214 35.3237 83.1506 35.5129C83.4455 35.5707 83.7176 35.4394 83.9892 35.3319C84.4362 35.1553 84.8771 34.9605 85.3219 34.777C85.3936 34.7476 85.4752 34.7062 85.5435 34.7925C85.4575 34.9989 85.321 35.2015 85.131 35.3254C84.7821 35.5534 84.4232 35.7651 84.0657 35.9793C84.01 36.0125 83.9435 36.0345 83.8791 36.0462C83.3743 36.1373 82.8694 36.2263 82.3633 36.3105C82.3214 36.3174 82.273 36.2846 82.207 36.2639C82.1901 35.813 82.3387 35.3859 82.3633 34.9221C82.1107 34.885 81.9159 35.0123 81.7246 35.1294C81.1692 35.4701 80.6014 35.7879 79.9937 36.0138C79.5757 36.1688 79.1396 36.2725 78.7099 36.3956C78.6606 36.4098 78.6071 36.4141 78.554 36.4141C78.5406 36.4141 78.5272 36.4137 78.5142 36.4133ZM80.1462 39.878C79.9726 40.0067 79.8361 40.8035 79.7783 41.0077C79.6435 41.4845 79.5157 41.9185 79.257 42.3542C79.222 42.4134 79.1853 42.4721 79.1482 42.53C78.6092 43.363 77.8582 44.0445 77.1047 44.6784C75.6981 45.8639 74.5127 47.0018 73.6866 48.6692C73.4866 49.0734 73.2949 49.4824 73.098 49.8883C72.271 52.7592 71.6957 55.476 71.3818 58.4583C71.3814 58.4618 71.3671 58.5132 71.3654 58.5201C71.3593 58.524 71.3524 58.5287 71.365 58.5218C71.5917 58.3983 71.8646 58.1923 72.0965 58.0801C72.1665 58.0455 72.3349 57.9349 72.4843 57.8395C72.4912 57.808 72.5029 57.776 72.5227 57.7441C72.6238 57.5813 72.7123 57.409 72.8738 57.3006C72.9455 57.2526 73.0254 57.2556 73.0997 57.3057C73.1731 57.355 73.2111 57.4258 73.199 57.5165L72.9904 57.9328C72.984 57.9375 72.9775 57.9419 72.9714 57.9466C72.9283 57.9781 72.8846 58.0092 72.8414 58.0408C72.7983 58.0723 72.7555 58.1029 72.7123 58.1345C72.6631 58.153 72.6117 58.1504 72.5599 58.1431C72.5297 58.2161 72.5055 58.2744 72.5024 58.2873C72.3129 58.4255 72.1237 58.5637 71.9346 58.7015C71.9277 58.7062 71.9229 58.7123 71.916 58.7174C71.7838 58.7934 71.6409 58.8496 71.5114 58.9295C71.3684 59.0176 71.3615 59.1649 71.4846 59.2767C71.5455 59.332 71.6098 59.386 71.6793 59.4296C71.8573 59.5427 71.9756 59.6891 72.0632 59.8981C72.1721 60.1564 72.3634 60.3593 72.6678 60.4055C72.9416 60.447 73.1571 60.6314 73.3852 60.7787C73.4361 60.8119 73.4646 60.8823 73.5298 60.9721C73.415 60.9898 73.3398 60.9976 73.2668 61.0132C73.1291 61.0421 73.0142 61.1116 72.9365 61.236C72.8548 61.3664 72.8622 61.5003 72.9291 61.6363C72.939 61.6566 72.93 61.6877 72.9291 61.7438C72.8656 61.7387 72.8009 61.7456 72.7439 61.7262C72.6545 61.6959 72.5659 61.6566 72.486 61.6061C72.1336 61.3846 72.0067 61.1643 72.0594 60.8331C71.9695 60.7312 71.8719 60.6267 71.754 60.5589C71.7527 60.5606 71.7515 60.5632 71.7502 60.5649C71.6936 60.5511 71.6556 60.539 71.6167 60.533C71.4051 60.5019 71.2535 60.3693 71.0951 60.2302C70.9171 60.0739 70.9836 59.8791 70.9884 59.6947C70.8424 59.6943 70.8161 59.7971 70.7694 59.8778C70.7284 59.9487 70.6956 60.0324 70.6373 60.0821C70.4749 60.2203 70.2996 60.2605 70.1117 60.0644C69.8811 60.4474 69.5857 60.7493 69.2886 61.0512C69.156 61.1855 69.0792 61.3677 68.9267 61.4964C68.6927 61.6933 68.4055 61.7814 68.1611 61.9533C68.0419 62.0367 67.8976 61.9948 67.7836 61.8967C67.6675 61.7978 67.629 61.6657 67.6657 61.518C67.7119 61.3297 67.8195 61.1967 68.0021 61.1289C68.1662 61.0685 68.323 60.9838 68.4884 60.9268C68.8637 60.7977 69.1301 60.5234 69.3828 60.2276C69.4545 60.1438 69.5274 60.0605 69.5918 59.9707C69.7473 59.7556 69.9178 59.5587 70.1528 59.4378C70.186 59.3052 70.2154 59.1851 70.2503 59.0444C70.224 59.034 70.2033 59.0254 70.18 59.0167C70.414 58.1081 70.5652 57.1731 70.5868 56.2343C70.5976 55.7666 70.5755 55.2968 70.5086 54.8334C70.4538 54.4564 70.3099 54.1157 70.4404 53.7348C70.7254 52.9039 71.2225 52.1447 71.5014 51.3017C71.5947 51.021 71.7808 51.0336 71.6301 50.7745C71.5951 50.7144 71.2203 50.6643 71.0475 50.9364C70.709 51.471 70.3134 51.9728 69.8621 52.4168C69.7364 52.5407 69.4778 52.8301 69.4877 52.9091C69.3923 52.8577 69.5771 52.7916 69.4631 52.8391C69.4773 52.7678 69.492 52.697 69.5076 52.6266C69.524 52.5541 69.5434 52.4828 69.5607 52.4107C69.7753 51.5306 70.0936 50.679 70.4965 49.8671C70.5807 49.6974 70.6697 49.5281 70.7949 49.3865C70.9443 49.2172 71.1391 49.0954 71.3149 48.9533C71.9372 48.4502 72.3824 47.6919 72.9408 47.1154C73.6939 46.3368 74.4985 45.6967 75.3984 45.1129C76.488 44.4064 77.6056 43.4775 78.3899 42.4341C78.9413 41.7004 79.1417 40.5513 79.8452 39.9415C79.8646 39.9242 79.9018 39.9246 79.9458 39.9251C79.9506 39.9251 79.9557 39.9251 79.9613 39.9251C80.0192 39.9251 80.0875 39.9212 80.1462 39.878ZM57.9292 47.5027C58.723 47.1538 59.4558 46.7051 60.1533 46.1882C61.3465 45.3037 62.5008 44.3761 63.4543 43.2019C63.5813 43.046 64.6674 42.7874 65.9077 42.5067C65.8144 42.5771 65.7522 42.6436 65.7332 42.7049C65.5963 43.1449 65.3601 43.5306 65.0949 43.8873C64.6169 44.5294 64.0757 45.1181 63.4038 45.5456C62.5401 46.0953 61.6311 46.5402 60.5264 46.6136C60.7419 46.8239 60.9518 46.893 61.1707 46.9038C61.5892 46.9241 62.0076 46.921 62.4261 46.9275C62.5159 46.9288 62.6057 46.9292 62.7025 46.9301C62.6887 47.0005 62.6925 47.0528 62.6735 47.0648C62.0094 47.4863 61.3767 47.9704 60.6184 48.2054C59.9995 48.3971 59.3841 48.6316 58.7493 48.7327C58.1149 48.8333 57.4542 48.854 56.8142 48.794C56.2744 48.743 55.732 48.6195 55.1965 48.493C55.1533 48.483 55.1209 48.4252 55.0885 48.3945C55.1231 48.2451 55.2345 48.2524 55.3191 48.2516C55.7406 48.2498 56.1237 48.0162 56.5482 48.04C56.9727 47.7644 57.4749 47.7027 57.9292 47.5027ZM76.5023 48.9589C76.4673 48.949 77.0684 47.5049 77.1289 47.3775C77.3733 46.8645 77.6799 46.386 77.917 45.8712C78.0189 45.6501 78.2305 45.5987 78.3506 45.3945C78.4084 45.2956 78.427 45.1444 78.5574 45.109C78.8321 45.0347 78.7854 45.9485 78.7677 46.091C78.7392 46.3203 78.6464 46.5332 78.6654 46.7686C78.7332 47.6012 78.877 48.4109 79.0743 49.2219C79.1797 49.6585 79.3296 50.083 79.5166 50.4907C79.7092 50.91 79.9411 51.3125 80.2041 51.6921C80.3198 51.8593 80.4321 52.0087 80.6251 52.0816C80.7879 52.1434 80.9386 52.2414 81.0937 52.3248C81.2141 52.39 81.2643 52.4837 81.2496 52.634C81.2133 53.0062 81.3627 53.2874 81.6801 53.4683C81.7747 53.5223 81.8749 53.5655 81.9708 53.6173C82.042 53.6553 82.1284 53.6838 82.1767 53.7434C82.4523 54.0854 82.834 54.1856 83.2257 54.2228C83.5509 54.2534 83.8247 54.3799 84.0877 54.5609C84.2807 54.6935 84.3999 54.8744 84.4202 55.1137C84.4358 55.2929 84.4327 55.4738 84.4392 55.6841C84.3451 55.6578 84.2643 55.6552 84.1926 55.6686C84.1874 55.682 84.1831 55.6958 84.1767 55.7092C84.0998 55.8625 83.9568 55.9376 83.7988 55.9515C83.7802 55.9743 83.7616 55.9977 83.7431 56.021C83.6662 56.0124 83.6122 55.9787 83.5652 55.9346C83.3229 55.8996 83.0841 55.8405 82.8526 55.7589C82.8142 55.7485 82.7831 55.7373 82.7593 55.723C82.5827 55.6556 82.4099 55.5796 82.2454 55.4876C82.1068 55.4099 82.0329 55.2929 82.0101 55.1672C82.0075 55.1577 82.0053 55.1487 82.0027 55.1392C81.9293 55.08 81.8589 55.0169 81.795 54.9474C81.7458 54.8934 81.6961 54.823 81.6473 54.7514C81.6413 54.7423 81.6352 54.7336 81.6292 54.725C81.5519 54.6114 81.4759 54.4996 81.4029 54.449C81.2461 54.3411 81.0729 54.2469 80.9036 54.1519C80.7724 54.1826 80.6541 54.12 80.5396 54.0574C80.4472 54.0068 80.3824 53.9326 80.3574 53.8363C80.331 53.8211 80.3055 53.806 80.2796 53.7918C80.1928 53.7948 80.1052 53.778 80.0162 53.73C80.0028 53.7227 79.992 53.7145 79.9804 53.7067C79.9773 53.7231 79.9747 53.7413 79.9722 53.7581C79.7787 53.7948 79.5882 53.8026 79.4211 53.8721C79.2937 53.9252 79.1836 54.0211 79.0748 54.1062C78.9742 54.2392 78.848 54.3502 78.7038 54.4331C78.7086 54.4396 78.7129 54.446 78.7172 54.4529C78.4136 54.6533 77.9014 54.8662 77.6233 54.9232C77.5486 54.9383 77.4795 54.9828 77.407 55.0126C77.2809 55.064 77.1457 54.9707 77.1613 54.8321C77.198 54.5112 77.3128 54.2271 77.6099 54.0802C77.8647 53.9541 78.1312 53.8514 78.3972 53.7503C78.4831 53.7175 78.5829 53.7097 78.6757 53.7145C78.8584 53.7231 78.985 53.6458 79.0778 53.4873C79.2246 53.2369 79.3749 52.9881 79.5282 52.7424C79.5839 52.6538 79.6504 52.5735 79.7109 52.4928C79.6871 52.4794 79.6642 52.4651 79.6418 52.4487C79.6236 52.4362 79.6077 52.4215 79.59 52.4086C79.5481 52.3844 79.5066 52.3576 79.4747 52.3373C79.4742 52.3308 79.4768 52.3269 79.4768 52.3205C79.4781 52.2786 79.2074 52.0855 79.1668 52.0462C78.6891 51.5811 78.3113 50.9562 77.8436 50.4622C77.3439 49.9341 77.5702 49.1632 76.6953 48.9533C76.6927 48.9529 76.6974 48.9468 76.7022 48.9412C76.6789 48.9684 76.6556 48.9956 76.6327 49.0229C76.5929 48.9939 76.5489 48.9728 76.5023 48.9589ZM73.1161 56.2874C73.1226 56.2663 73.1291 56.2451 73.133 56.2214C73.3113 55.0476 73.4391 53.8509 73.7177 52.6957C73.9526 51.7228 74.3663 50.733 75.1588 50.0826C75.1942 50.0537 75.2205 50.0213 75.2434 49.9876C75.344 49.9958 75.4407 50.0338 75.5146 50.1159C75.9037 50.5512 76.4996 50.7857 76.8339 51.2693C76.8473 51.2883 76.8559 51.3091 76.8676 51.3289C76.8883 51.5604 76.909 51.7919 76.9293 52.0238C76.9419 52.1684 77.0269 52.2781 77.1375 52.3403C77.1617 52.5727 77.1824 52.805 77.2373 53.0235C77.2951 53.2537 77.239 53.4851 77.0446 53.6264C76.3748 54.1139 76.5951 55.1836 75.9836 55.7804C75.7517 56.0072 75.4934 56.1492 75.1765 56.1989C75.0426 56.2201 74.8811 56.2002 74.7144 56.1808C74.4091 56.1449 74.0882 56.1091 73.8995 56.3233C73.8002 56.436 73.668 56.4857 73.5363 56.4857C73.3756 56.4857 73.2159 56.4118 73.1161 56.2874ZM82.9416 52.4591C82.9459 52.4137 82.939 52.374 82.9519 52.3645C83.2404 52.1633 83.5328 51.9672 83.8208 51.7655C83.9953 51.6438 84.1736 51.6532 84.3585 51.7314C84.4975 51.7901 84.5722 51.8985 84.5519 52.0134C84.5342 52.1149 84.4526 52.1965 84.3192 52.2069C84.1205 52.2224 83.9206 52.2194 83.6653 52.2259C83.4904 52.304 83.29 52.4656 83.0327 52.4656C83.0029 52.4656 82.9726 52.4634 82.9416 52.4591ZM81.7086 52.8227C81.6875 52.7869 81.7022 52.7195 81.7181 52.672C81.7298 52.6357 81.7626 52.5986 81.7963 52.5809C82.0476 52.4466 82.3184 52.3705 82.5987 52.3464C82.6613 52.3412 82.73 52.4107 82.8846 52.4932C82.4678 52.6465 82.156 52.764 81.8412 52.8719C81.8352 52.8737 81.8278 52.8749 81.8196 52.8749C81.7803 52.8749 81.7255 52.8508 81.7086 52.8227ZM83.8985 52.6292C83.8847 52.6331 83.8713 52.6383 83.8575 52.6418C83.8243 52.65 83.7906 52.6577 83.7573 52.6651C83.7556 52.6655 83.7552 52.6655 83.7543 52.6655C83.75 52.6664 83.7483 52.6664 83.7426 52.6677C83.6692 52.6793 83.5954 52.6918 83.5211 52.7018C83.4814 52.7074 83.4412 52.7117 83.4015 52.7165C83.5651 52.6797 83.731 52.65 83.8985 52.6292ZM86.665 53.0287C86.8032 52.9544 86.9625 52.9449 87.1245 52.9535C87.454 52.9704 87.7688 53.0512 88.0568 53.2196C88.686 53.5875 89.2569 54.0388 89.7752 54.5622C89.8028 54.5903 89.8201 54.6308 89.833 54.6507C89.8084 54.8032 89.7855 54.9556 89.7626 55.1076C89.6348 54.9794 89.5022 54.8554 89.3658 54.7367C89.3632 54.7345 89.3606 54.7324 89.3584 54.7298C89.1516 54.5501 88.9352 54.3843 88.7093 54.2366C88.6765 54.2154 88.6441 54.1938 88.6113 54.1735C88.4947 54.101 88.3755 54.034 88.2533 53.9727C88.2019 53.9472 88.1497 53.9239 88.0974 53.9006C87.9264 53.8237 87.7502 53.7611 87.5688 53.7114C87.5127 53.6963 87.4566 53.6804 87.3991 53.6683C87.2065 53.6264 87.0087 53.6009 86.8053 53.5953C86.7086 53.5931 86.6261 53.6061 86.5527 53.629C86.5747 53.3997 86.611 53.1924 86.665 53.0287ZM89.529 61.8855C89.1788 61.4454 88.8553 60.9838 88.5612 60.5044C87.9717 59.5453 87.4984 58.5153 87.1564 57.4431C87.1465 57.4111 87.1361 57.3787 87.1262 57.3463C86.8679 56.515 86.6503 55.6306 86.6114 54.7561L87.0575 54.7362C87.0471 54.7367 87.1426 55.4436 87.1482 55.4807C87.2536 56.1207 87.4125 56.7512 87.6129 57.3679C88.3103 59.5142 89.6296 61.3651 91.1178 63.0347C91.2763 63.2121 91.4348 63.3896 91.5911 63.5688C91.7012 63.695 91.8446 63.7995 91.9253 63.9485C92.0143 64.1126 92.0609 64.2322 92.238 64.3337C91.1303 63.6949 90.3197 62.8805 89.529 61.8855ZM90.7913 56.2844C90.5473 55.9761 90.2834 55.6574 89.9984 55.3516C90.0165 55.2156 90.0351 55.0726 90.058 54.9042C90.1569 54.9858 90.2256 55.0264 90.2739 55.0852C90.6008 55.4799 90.9204 55.8819 91.249 56.2753C91.4032 56.4593 91.4348 56.6493 91.4015 56.8929C91.3924 56.9568 91.3847 57.0211 91.376 57.0851C91.1895 56.8126 90.9964 56.544 90.7913 56.2844ZM84.8866 57.1326C84.925 56.7918 84.9 56.4515 84.783 56.1367C84.7035 55.9225 84.7052 55.7325 84.7618 55.5278C84.773 55.4881 84.7851 55.4488 84.8067 55.3767C85.2161 55.2177 85.6432 55.064 86.0975 54.9435C86.1243 55.0161 86.1524 55.064 86.1606 55.1163C86.2387 55.6029 86.3329 56.0858 86.4559 56.5608C86.3588 56.5224 86.2504 56.5163 86.1489 56.5586C85.73 56.7335 85.3228 56.9395 84.9341 57.174C84.9155 57.1857 84.8974 57.2017 84.8797 57.2176C84.8823 57.1896 84.8836 57.1606 84.8866 57.1326ZM77.0347 56.7271C77.0308 56.7249 77.0269 56.7219 77.0231 56.7197C77.6549 56.3349 78.2871 55.9113 78.9638 55.6232C79.0713 55.577 79.1801 55.5352 79.2898 55.4972C79.3006 55.4937 79.3106 55.4898 79.3209 55.4863C79.4228 55.4518 79.5256 55.4198 79.6297 55.3931C79.9009 55.3235 80.1803 55.2817 80.4714 55.2786C80.569 55.2778 80.6471 55.2506 80.7098 55.2082C80.8596 55.3149 81.009 55.4216 81.1636 55.5317C81.1718 55.571 81.1956 55.6379 81.1973 55.7053C81.2288 56.9698 81.5026 58.1876 81.9094 59.3726C82.7511 61.8233 84.0044 64.034 85.6048 66.0334C86.4326 67.0668 87.3551 67.9975 88.4351 68.7463C88.7059 68.9337 88.9948 69.0909 89.2746 69.2628C89.3848 69.331 89.5204 69.3729 89.548 69.5301C89.2414 69.5452 88.9698 69.4338 88.7258 69.2542C87.812 68.5805 86.9314 67.9059 86.1191 67.1062C85.3098 66.3094 84.5671 65.4448 83.9011 64.5241C83.7176 64.2706 83.5397 64.0119 83.3341 63.7766C83.2533 63.8314 83.2845 63.9562 83.3263 64.0443C83.7975 65.0441 84.5247 65.8123 85.1958 66.6674C85.6544 67.2517 86.1839 67.7751 86.7436 68.2622C87.4039 68.8366 88.0525 69.3669 88.8544 69.7262C89.339 69.9434 89.9354 70.1131 90.3733 70.418C90.3025 70.5195 90.2303 70.5467 89.6197 71.0066C89.4707 71.0809 88.6869 70.7168 88.5573 70.6641C88.1415 70.4949 87.7217 70.3325 87.3184 70.1347C86.5894 69.7776 85.9438 69.2835 85.3435 68.7308C83.5448 67.0742 82.1375 65.1101 81.0868 62.8671C80.5573 61.7365 80.1246 60.5701 79.8379 59.3484C79.6193 58.4169 79.5014 57.4746 79.5567 56.5163C79.6897 56.3647 79.7066 56.1156 79.5926 55.9489C79.571 55.9169 79.5459 55.8875 79.5144 55.8629C79.1663 55.5891 78.7535 55.6867 78.5229 56.0491C78.5147 56.062 78.5103 56.0758 78.5039 56.0897C78.0647 56.3496 77.6216 56.604 77.1764 56.8545C77.1371 56.8018 77.0891 56.7586 77.0347 56.7271ZM81.8369 57.4776C81.7954 57.2854 81.7579 57.092 81.7298 56.8976C81.7039 56.7167 81.6922 56.534 81.6741 56.3527C81.6551 56.1609 81.6063 55.9687 81.6745 55.7234C81.7492 55.8431 81.7924 55.9268 81.8485 56.0007C81.9738 56.1661 82.0947 56.3367 82.2359 56.4857C82.3914 56.6493 82.587 56.7439 82.8137 56.7642C83.002 56.781 83.189 56.8121 83.3773 56.8333C83.5971 56.8583 83.7509 56.9745 83.8662 57.2211C83.5449 57.4232 83.2106 57.4923 82.9083 57.6387C82.6172 57.7803 82.3137 57.8935 81.9915 58.0295C81.8861 57.8589 81.877 57.6624 81.8369 57.4776ZM84.1002 56.6001C84.089 56.5647 84.1058 56.518 84.1157 56.4788C84.1399 56.3777 84.2639 56.3362 84.3386 56.4019C84.3593 56.42 84.3848 56.4351 84.3978 56.458C84.5105 56.6549 84.5519 56.8739 84.5532 57.0976C84.5536 57.1939 84.5036 57.282 84.3831 57.3191C84.2319 57.1062 84.1788 56.8471 84.1002 56.6001ZM91.5216 57.2984C91.5285 57.2254 91.5354 57.1524 91.5423 57.0799C91.5488 57.0108 91.5643 56.9434 91.5833 56.829C91.6524 56.8972 91.7034 56.9326 91.7345 56.9814C91.9145 57.2626 92.0842 57.5515 92.2691 57.8292C92.3757 57.9907 92.4012 58.1504 92.3809 58.3452C92.3676 58.4722 92.3576 58.5995 92.346 58.7265C92.0981 58.2355 91.8239 57.7575 91.5216 57.2984ZM74.8193 60.7981C75.8596 60.149 75.9896 59.997 76.7238 59.4408C77.1038 59.1523 77.5223 58.9351 77.9351 58.698C78.3674 58.4501 78.7755 58.1651 79.1607 57.8503C79.1775 58.0299 79.1961 58.2092 79.2212 58.3871C79.2907 58.8855 79.4021 59.3778 79.4988 59.8934C79.406 59.9534 79.3201 60.0178 79.2268 60.0683C78.1497 60.6526 77.1241 61.325 76.1157 62.0259C76.0458 62.0751 75.9676 62.1191 75.9296 62.1999C75.8881 62.228 75.8463 62.256 75.8052 62.2845C75.7025 62.3264 75.6148 62.3903 75.5358 62.4681C75.2849 62.6399 75.0331 62.8118 74.7818 62.9833C74.6721 63.058 74.5619 63.1327 74.4514 63.2065C74.4 63.15 74.4427 63.1042 74.4531 63.0597C74.5036 62.8347 74.4829 62.6179 74.4086 62.3986C74.346 62.2142 74.3071 62.0211 74.2592 61.8315C74.2044 61.6143 74.1504 61.3954 74.0886 61.1483C74.0994 61.1527 74.1119 61.1548 74.1266 61.1548C74.2955 61.1548 74.6932 60.8767 74.8193 60.7981ZM93.4757 64.1972C93.7309 63.8111 93.743 63.3504 93.689 62.9068C93.6687 62.7393 93.6484 62.5713 93.6277 62.4037C93.6026 62.196 93.5772 61.9883 93.5318 61.7845C93.3314 60.8862 92.9255 59.9417 92.5351 59.1083C92.5416 59.0288 92.5472 58.9494 92.5537 58.8695C92.561 58.7727 92.5779 58.6764 92.5969 58.5339C92.6638 58.6103 92.7143 58.6497 92.7415 58.7019C93.4057 59.9875 93.9218 61.3288 94.1632 62.7717C94.2539 63.3153 94.2888 63.8612 94.2292 64.4097C94.2007 64.674 94.1589 64.937 94.0379 65.171C93.5715 65.187 92.9536 64.9508 92.4487 64.5625C92.4466 64.5224 92.4453 64.4801 92.4431 64.4386C92.5057 64.4658 92.5701 64.4887 92.6366 64.506C92.7057 64.5241 92.7752 64.5327 92.8439 64.5327C93.0948 64.5327 93.3323 64.4157 93.4757 64.1972ZM84.1162 63.1327C84.1283 63.121 84.1412 63.1076 84.1538 63.0942C84.2315 63.0882 84.3952 62.9621 84.4694 62.9237C85.1379 62.5804 85.5422 62.1887 86.2107 61.8454C86.3432 61.7767 86.272 61.8259 86.5881 61.6294C86.633 61.5983 86.6775 61.5677 86.722 61.5361C87.0031 61.3897 87.2873 61.2485 87.5671 61.1C87.7813 60.986 87.9899 60.862 88.2019 60.7415C88.3889 60.9112 88.7746 61.4856 88.9102 61.8052C88.9598 61.8885 89.0362 61.8911 88.9637 61.9507C88.7128 62.158 88.6057 62.2077 87.9786 62.6443C87.894 62.7034 87.8046 62.7721 87.7144 62.8321C87.6323 62.887 87.5494 62.9405 87.4665 62.9945C86.8045 63.4043 86.6222 63.6371 85.9783 64.0763C85.8937 64.1341 85.784 64.2132 85.3366 64.4896C85.274 64.5353 85.2109 64.5811 85.1483 64.626C84.9091 64.4408 84.4712 63.8038 84.1162 63.1327ZM76.4116 77.9257C75.721 77.5262 74.2912 76.685 73.6974 76.1452C73.592 76.0489 73.4923 75.9491 73.3895 75.8507C73.3791 75.8265 73.367 75.8023 73.3523 75.7798C73.2966 75.6982 73.2219 75.6425 73.1386 75.6114C71.7364 74.2187 70.5915 72.6152 69.6777 70.8239C69.194 69.876 68.7829 68.8966 68.4595 67.8792C68.0794 66.6829 67.8203 65.4634 67.848 64.1963C67.8566 63.8038 67.8877 63.4121 67.9132 63.0204C67.9175 62.9526 67.9257 62.8697 67.9646 62.8218C68.111 62.6412 68.2478 62.4404 68.4297 62.3061C68.7289 62.0841 68.998 61.8346 69.2454 61.5564C69.4562 61.3202 69.6579 61.0749 69.8664 60.8357C69.8984 60.7998 69.9437 60.7761 69.986 60.7441C70.0193 60.7891 70.0223 60.8245 70.0141 60.8547C69.9765 60.8948 69.9472 60.9424 69.9286 60.9963C69.6345 61.4455 69.5361 61.9576 69.5076 62.4897C69.4743 63.1232 69.5197 63.7541 69.6211 64.3803C69.8915 66.0468 70.4568 67.6097 71.1922 69.1108C71.8206 70.3938 72.5525 71.6121 73.399 72.7521C74.2467 73.8948 75.1963 74.9373 76.3114 75.8049C77.0101 76.3482 77.7538 76.8068 78.6041 77.0516C78.6516 77.0659 78.6943 77.0974 78.7479 77.1251C78.6442 77.2304 78.5393 77.2347 78.4313 77.2101C78.2987 77.1803 78.1631 77.1575 78.0375 77.1087C77.4402 76.8763 76.8495 76.631 76.3369 76.2216C75.9819 75.9383 75.6243 75.6594 75.2628 75.386C74.688 74.9507 74.2126 74.4118 73.7544 73.8529C73.4555 73.4885 73.1476 73.1326 72.8544 72.763C72.6225 72.4697 72.4074 72.1614 72.1833 71.8621C72.0857 71.7313 71.9937 71.5939 71.8227 71.4713C71.8672 71.7693 71.9462 72.0064 72.0814 72.2154C72.5953 73.0091 73.1027 73.808 73.7229 74.5219C74.3529 75.2478 75.0707 75.8658 75.826 76.444C76.4211 76.9005 77.0766 77.2291 77.7572 77.5129C77.8414 77.5483 77.9252 77.5841 78.0051 77.6182C77.9908 77.7184 77.933 77.7141 77.882 77.705C77.8276 77.6955 77.6972 77.7517 77.5698 77.8083C77.451 77.8605 77.3348 77.9128 77.2843 77.9119C77.2208 77.911 77.1271 77.9305 77.0209 77.9503C76.9173 77.9693 76.8015 77.9888 76.6905 77.9888C76.5895 77.9888 76.4919 77.9728 76.4116 77.9257ZM73.5164 61.8199C73.4089 61.6679 73.2608 61.5474 73.1062 61.3889C73.1796 61.3384 73.2314 61.2736 73.2802 61.2757C73.3679 61.2809 73.4896 61.2978 73.5341 61.3595C73.6779 61.5577 73.7997 61.7741 73.9176 61.9909C73.988 62.1213 73.9664 62.2517 73.8369 62.4184C73.7121 62.1805 73.6335 61.9857 73.5164 61.8199ZM70.2849 65.4681C70.192 65.0877 70.1096 64.7042 70.0487 64.3047C70.674 63.9139 70.715 63.8573 70.8217 63.7792C71.5265 63.2648 71.0989 63.628 71.8037 63.1133C71.9199 63.0286 72.7059 62.4741 72.7158 62.3329C72.9334 62.3368 73.1481 62.3403 73.3856 62.3446C73.7 62.6067 73.9008 63.0083 74.0679 63.4657C72.8682 64.2719 71.6582 65.0803 70.6006 66.0123C70.5492 66.0572 70.5112 66.1038 70.4836 66.1505C70.4503 66.0865 70.2996 65.5277 70.2849 65.4681ZM72.5076 70.6724C72.5292 70.662 72.5508 70.6525 72.5724 70.6378C75.4995 68.6923 78.5078 66.8699 81.5881 65.1771C81.6693 65.1326 81.7255 65.0587 81.757 64.9741C82.0515 65.4098 82.4479 65.9747 82.7515 66.4234C82.4799 66.5469 75.0715 70.928 73.4318 71.8699C73.408 71.8833 73.3877 71.9006 73.3687 71.9183C73.0962 71.5205 72.7508 71.0317 72.5076 70.6724ZM64.9481 68.5779C65.6749 67.5626 66.5779 66.7041 67.426 65.7713C67.4269 65.7704 67.4282 65.7696 67.4295 65.7683C67.474 65.8158 67.5155 65.8391 67.5211 65.8689C67.6562 66.5719 67.8195 67.2672 68.0267 67.9513C68.0298 67.9616 68.0298 67.9733 68.0311 67.9841C67.8799 67.8817 67.6826 67.8701 67.5163 67.9763C66.6448 68.5351 65.8692 69.2516 65.2426 70.0755C65.2374 70.082 65.234 70.0898 65.2292 70.0967C65.0949 69.6424 64.9818 69.0495 64.9481 68.5779ZM67.2775 74.6307C67.1186 74.3884 66.9644 74.1431 66.8003 73.8866C66.9329 73.767 69.5585 72.0681 69.7693 72.0176C69.7995 72.0271 69.8366 72.0262 69.8483 72.0439C70.097 72.4244 70.3428 72.807 70.6092 73.2198C70.519 73.2851 70.4788 73.3239 70.4313 73.3477C69.4402 73.8417 68.4482 74.334 67.4433 74.8332C67.379 74.7551 67.3215 74.6976 67.2775 74.6307Z" fill="#757678"/>
<defs>
<linearGradient id="paint0_linear_119_838" x1="-20.6832" y1="68.2867" x2="384.838" y2="-68.3097" gradientUnits="userSpaceOnUse">
<stop stop-color="#F99042"/>
<stop offset="0.0443919" stop-color="#E69456"/>
<stop offset="0.264045" stop-color="#E47B00"/>
<stop offset="0.522472" stop-color="#FFB55F"/>
<stop offset="0.581976" stop-color="#FFBA68"/>
<stop offset="0.876404" stop-color="#D07D00"/>
<stop offset="1" stop-color="#CA6D00"/>
</linearGradient>
</defs>
</svg>
