<svg width="83" height="84" viewBox="0 0 83 84" fill="none" xmlns="http://www.w3.org/2000/svg">
<path d="M54.25 74.0545L35.3182 49.9484V23.3666H21.5379V49.9484L2.60609 74.0545C0.030337 77.4423 2.34852 82.3938 6.59852 82.3938H50.2576C54.5076 82.3938 56.8258 77.4423 54.25 74.0545Z" fill="white"/>
<path d="M50.2576 83.6969H6.5985C4.15153 83.6969 1.96214 82.2636 0.931835 80.0485C-0.0984685 77.8333 0.0303193 75.2272 1.57577 73.2727L20.25 49.5575V23.3666C20.25 22.5848 20.7652 22.0636 21.5379 22.0636H35.3182C36.0909 22.0636 36.6061 22.5848 36.6061 23.3666V49.5575L55.2803 73.2727C56.8258 75.2272 57.0834 77.8333 56.053 80.0485C54.894 82.2636 52.7046 83.6969 50.2576 83.6969ZM22.8258 24.6697V49.9484C22.8258 50.2091 22.697 50.4697 22.5682 50.7303L3.63638 74.9666C2.73486 76.1394 2.60608 77.703 3.25002 79.006C3.89396 80.3091 5.18183 81.2212 6.5985 81.2212H50.2576C51.6743 81.2212 52.9621 80.4394 53.6061 79.006C54.25 77.703 54.1212 76.1394 53.2197 74.9666L34.2879 50.7303C34.1591 50.4697 34.0303 50.2091 34.0303 49.9484V24.6697H22.8258Z" fill="#193651"/>
<path d="M22.1818 57.506L6.72729 77.1817H50.1288L34.6743 57.506H22.1818Z" fill="#2EA2DB"/>
<path d="M19.9924 17.6333H36.8636V23.3666H19.9924V17.6333Z" fill="white"/>
<path d="M36.8637 24.6696H19.9925C19.2197 24.6696 18.7046 24.1484 18.7046 23.3666V17.6332C18.7046 16.8514 19.2197 16.3302 19.9925 16.3302H36.8637C37.6364 16.3302 38.1516 16.8514 38.1516 17.6332V23.3666C38.1516 24.0181 37.6364 24.6696 36.8637 24.6696ZM21.2803 22.0635H35.5758V18.9363H21.2803V22.0635Z" fill="#193651"/>
<path d="M29.5228 41.9999C30.5185 41.9999 31.3258 41.1832 31.3258 40.1757C31.3258 39.1682 30.5185 38.3514 29.5228 38.3514C28.527 38.3514 27.7197 39.1682 27.7197 40.1757C27.7197 41.1832 28.527 41.9999 29.5228 41.9999Z" fill="#2EA2DB"/>
<path d="M27.2046 33.3999C28.2004 33.3999 29.0076 32.5832 29.0076 31.5757C29.0076 30.5682 28.2004 29.7515 27.2046 29.7515C26.2088 29.7515 25.4016 30.5682 25.4016 31.5757C25.4016 32.5832 26.2088 33.3999 27.2046 33.3999Z" fill="#2EA2DB"/>
<path d="M27.9773 53.4667C29.1865 53.4667 30.1667 52.4749 30.1667 51.2515C30.1667 50.0281 29.1865 49.0364 27.9773 49.0364C26.7681 49.0364 25.7879 50.0281 25.7879 51.2515C25.7879 52.4749 26.7681 53.4667 27.9773 53.4667Z" fill="#2EA2DB"/>
<path d="M73.5682 33.1393C75.2041 33.1393 76.5303 31.7975 76.5303 30.1424C76.5303 28.4872 75.2041 27.1454 73.5682 27.1454C71.9323 27.1454 70.6061 28.4872 70.6061 30.1424C70.6061 31.7975 71.9323 33.1393 73.5682 33.1393Z" fill="white"/>
<path d="M73.5682 34.4424C71.25 34.4424 69.3182 32.4879 69.3182 30.1424C69.3182 27.797 71.25 25.8424 73.5682 25.8424C75.8864 25.8424 77.8182 27.797 77.8182 30.1424C77.8182 32.4879 75.8864 34.4424 73.5682 34.4424ZM73.5682 28.3182C72.6667 28.3182 71.8939 29.1 71.8939 30.0121C71.8939 30.9242 72.6667 31.706 73.5682 31.706C74.4697 31.706 75.2424 30.9242 75.2424 30.0121C75.2424 29.1 74.4697 28.3182 73.5682 28.3182Z" fill="#193651"/>
<path d="M56.4394 29.3606C58.8577 29.3606 60.8182 27.3771 60.8182 24.9303C60.8182 22.4835 58.8577 20.5 56.4394 20.5C54.0211 20.5 52.0606 22.4835 52.0606 24.9303C52.0606 27.3771 54.0211 29.3606 56.4394 29.3606Z" fill="white"/>
<path d="M56.4394 30.6636C53.3485 30.6636 50.7728 28.0575 50.7728 24.9302C50.7728 21.803 53.3485 19.1969 56.4394 19.1969C59.5303 19.1969 62.1061 21.803 62.1061 24.9302C62.1061 28.0575 59.5303 30.6636 56.4394 30.6636ZM56.4394 21.803C54.7652 21.803 53.3485 23.2363 53.3485 24.9302C53.3485 26.6242 54.7652 28.0575 56.4394 28.0575C58.1137 28.0575 59.5303 26.6242 59.5303 24.9302C59.5303 23.2363 58.1137 21.803 56.4394 21.803Z" fill="#193651"/>
<path d="M63.3939 12.0302C66.2391 12.0302 68.5455 9.69665 68.5455 6.81808C68.5455 3.9395 66.2391 1.60596 63.3939 1.60596C60.5488 1.60596 58.2424 3.9395 58.2424 6.81808C58.2424 9.69665 60.5488 12.0302 63.3939 12.0302Z" fill="white"/>
<path d="M63.394 13.3333C59.7879 13.3333 56.9546 10.4666 56.9546 6.81813C56.9546 3.16965 59.7879 0.302979 63.394 0.302979C67 0.302979 69.8334 3.16965 69.8334 6.81813C69.8334 10.4666 66.8713 13.3333 63.394 13.3333ZM63.394 2.90904C61.2046 2.90904 59.5303 4.73328 59.5303 6.81813C59.5303 8.90298 61.3334 10.7272 63.394 10.7272C65.5834 10.7272 67.2576 8.90298 67.2576 6.81813C67.2576 4.73328 65.4546 2.90904 63.394 2.90904Z" fill="#193651"/>
<path d="M18.7046 7.5999C20.3405 7.5999 21.6667 6.25811 21.6667 4.60293C21.6667 2.94775 20.3405 1.60596 18.7046 1.60596C17.0686 1.60596 15.7424 2.94775 15.7424 4.60293C15.7424 6.25811 17.0686 7.5999 18.7046 7.5999Z" fill="white"/>
<path d="M18.7046 8.90298C16.3864 8.90298 14.4546 6.94843 14.4546 4.60298C14.4546 2.25752 16.3864 0.302979 18.7046 0.302979C21.0228 0.302979 22.9546 2.25752 22.9546 4.60298C22.9546 6.94843 21.0228 8.90298 18.7046 8.90298ZM18.7046 2.90904C17.8031 2.90904 17.0303 3.69086 17.0303 4.60298C17.0303 5.5151 17.8031 6.29692 18.7046 6.29692C19.6061 6.29692 20.3788 5.5151 20.3788 4.60298C20.3788 3.69086 19.6061 2.90904 18.7046 2.90904Z" fill="#193651"/>
<path d="M30.1667 12.0302C31.8026 12.0302 33.1288 10.6884 33.1288 9.03322C33.1288 7.37804 31.8026 6.03625 30.1667 6.03625C28.5308 6.03625 27.2046 7.37804 27.2046 9.03322C27.2046 10.6884 28.5308 12.0302 30.1667 12.0302Z" fill="white"/>
<path d="M30.1667 13.3333C27.8485 13.3333 25.9167 11.3787 25.9167 9.03328C25.9167 6.68782 27.8485 4.73328 30.1667 4.73328C32.4849 4.73328 34.4167 6.68782 34.4167 9.03328C34.4167 11.3787 32.6137 13.3333 30.1667 13.3333ZM30.1667 7.33934C29.2652 7.33934 28.4924 8.12116 28.4924 9.03328C28.4924 9.9454 29.2652 10.7272 30.1667 10.7272C31.0682 10.7272 31.8409 9.9454 31.8409 9.03328C31.8409 8.12116 31.197 7.33934 30.1667 7.33934Z" fill="#193651"/>
<path d="M78.5909 56.7242C77.303 55.6818 75.5 55.6818 74.2121 56.7242C72.0227 58.4181 69.0606 58.4181 66.8712 56.7242C65.5833 55.6818 63.7803 55.6818 62.4924 56.7242C60.303 58.4181 57.3409 58.4181 55.1515 56.7242C53.8636 55.6818 52.0606 55.6818 50.7727 56.7242C50 57.3757 48.9697 57.7666 47.8106 58.0272V76.4C47.8106 79.6575 50.3864 82.3939 53.7348 82.3939H75.6288C78.8485 82.3939 81.553 79.7878 81.553 76.4V58.0272C80.3939 57.8969 79.3636 57.3757 78.5909 56.7242Z" fill="#FDBF5E"/>
<path d="M55.1515 56.7242C57.3409 58.4182 60.303 58.4182 62.4924 56.7242C63.7803 55.6818 65.5833 55.6818 66.8712 56.7242C69.0606 58.4182 72.0227 58.4182 74.2121 56.7242C75.5 55.6818 77.303 55.6818 78.5909 56.7242C79.3637 57.3758 80.394 57.7667 81.553 58.0273V42H43.1743L47.8106 47.2121V58.0273C48.9697 57.897 49.8712 57.5061 50.7727 56.7242C52.0606 55.6818 53.8636 55.6818 55.1515 56.7242Z" fill="white"/>
<path d="M65.8193 57.8747C65.0415 57.2175 63.8748 57.2175 62.9673 57.8747C60.3746 59.9777 56.4856 59.9777 54.0225 57.8747C53.2447 57.2175 52.078 57.2175 51.1705 57.8747C50.1335 58.6633 48.8371 59.189 47.5408 59.4519C46.7629 59.5834 46.1148 58.9262 46.1148 58.1375V47.7539L41.8368 42.8907C41.4479 42.4964 41.4479 41.9706 41.5775 41.4449C41.8368 40.9191 42.2257 40.6562 42.7442 40.6562H81.3755C82.1533 40.6562 82.6719 41.182 82.6719 41.9706V58.1375C82.6719 58.9262 82.0237 59.5834 81.2459 59.4519C79.9495 59.3205 78.6532 58.7947 77.6161 57.8747C76.8383 57.2175 75.6716 57.2175 74.7641 57.8747C72.3011 59.9777 68.5416 59.9777 65.8193 57.8747ZM67.5046 55.7716C69.1898 57.086 71.6529 57.086 73.2085 55.7716C75.0234 54.3258 77.4865 54.3258 79.3014 55.7716C79.5606 56.0345 79.8199 56.166 80.2088 56.2974V43.285H45.8555L48.5778 46.3081C48.8371 46.571 48.9667 46.8338 48.9667 47.2282V56.4288C49.226 56.2974 49.6149 56.0345 49.8742 55.9031C51.6891 54.4573 54.1521 54.4573 55.967 55.9031C57.6523 57.2175 60.1154 57.2175 61.671 55.9031C63.2266 54.3258 65.6897 54.3258 67.5046 55.7716Z" fill="#193651"/>
<path d="M75.3156 83.6563H53.3757C49.3749 83.6563 46.1484 80.4065 46.1484 76.3767V58.0479C46.1484 57.398 46.6647 56.748 47.31 56.748C48.2134 56.618 48.9877 56.358 49.633 55.8381C51.4398 54.4081 53.8919 54.4081 55.6987 55.8381C57.3765 57.138 59.8286 57.138 61.3773 55.8381C63.1841 54.4081 65.6362 54.4081 67.443 55.8381C69.1208 57.138 71.5729 57.138 73.1216 55.8381C74.9284 54.4081 77.3805 54.4081 79.1873 55.8381C79.8326 56.358 80.607 56.748 81.5104 56.748C82.1556 56.878 82.6719 57.398 82.6719 58.0479V76.5067C82.4138 80.4065 79.1873 83.6563 75.3156 83.6563ZM48.7296 59.0878V76.5067C48.7296 79.1065 50.7945 81.1864 53.3757 81.1864H75.3156C77.8967 81.1864 79.9617 79.1065 79.9617 76.5067V59.0878C79.0583 58.8279 78.1548 58.4379 77.5096 57.7879C76.7352 57.138 75.5737 57.138 74.6703 57.7879C72.0891 59.8678 68.2174 59.8678 65.7653 57.7879C64.9909 57.138 63.8294 57.138 62.926 57.7879C60.3448 59.8678 56.4731 59.8678 54.021 57.7879C53.2466 57.138 52.0851 57.138 51.1817 57.7879C50.4074 58.3079 49.633 58.8279 48.7296 59.0878Z" fill="#193651"/>
</svg>
