<svg width="71" height="72" viewBox="0 0 71 72" fill="none" xmlns="http://www.w3.org/2000/svg">
<rect x="4.34473" y="17" width="62" height="49" fill="#F3E8D4"/>
<rect x="23.3447" y="31" width="23" height="34" fill="#CC8662"/>
<rect x="0.344727" y="65" width="70" height="3" fill="#193651"/>
<rect x="5.34473" y="69" width="60" height="3" fill="#193651"/>
<rect x="2.34473" y="17" width="3" height="48" fill="#193651"/>
<rect x="7.34473" y="50" width="3" height="15" fill="#CC8662"/>
<rect x="60.3447" y="50" width="3" height="15" fill="#CC8662"/>
<rect x="65.3447" y="17" width="3" height="49" fill="#193651"/>
<mask id="path-9-inside-1_429_2214" fill="white">
<path fill-rule="evenodd" clip-rule="evenodd" d="M35.1724 0C54.1264 0 69.5787 4.68517 70.3172 10.5517H70.3203H70.3449V12.5862V15.5517V17.5862H70.3448H70.3203H65.3449H65.3448H65.3203L63.3129 17.5862H7.0319L5.02463 17.5862H5H0.0246305H0V15.5517V14.069V12.5862V10.9914V10.5517H0.0246305H0.0276237C0.766109 4.68517 16.2184 0 35.1724 0Z"/>
</mask>
<path fill-rule="evenodd" clip-rule="evenodd" d="M35.1724 0C54.1264 0 69.5787 4.68517 70.3172 10.5517H70.3203H70.3449V12.5862V15.5517V17.5862H70.3448H70.3203H65.3449H65.3448H65.3203L63.3129 17.5862H7.0319L5.02463 17.5862H5H0.0246305H0V15.5517V14.069V12.5862V10.9914V10.5517H0.0246305H0.0276237C0.766109 4.68517 16.2184 0 35.1724 0Z" fill="#CC8662"/>
<path d="M70.3172 10.5517L66.3485 11.0513L66.7892 14.5517H70.3172V10.5517ZM70.3449 10.5517H74.3449V6.55172H70.3449V10.5517ZM70.3449 17.5862V21.5862H74.3449V17.5862H70.3449ZM65.3203 17.5862V21.5862V17.5862ZM63.3129 17.5862L63.3129 13.5862H63.3129V17.5862ZM7.0319 17.5862V13.5862H7.0319L7.0319 17.5862ZM5.02463 17.5862V21.5862H5.02463L5.02463 17.5862ZM0 17.5862H-4V21.5862H0V17.5862ZM0 10.5517V6.55172H-4V10.5517H0ZM0.0276237 10.5517V14.5517H3.55567L3.9963 11.0513L0.0276237 10.5517ZM74.2859 10.0521C73.8893 6.90195 71.652 4.64058 69.4376 3.12629C67.1238 1.54398 64.1048 0.262377 60.729 -0.754195C53.9418 -2.7981 44.9355 -4 35.1724 -4V4C44.3633 4 52.5602 5.14069 58.4222 6.906C61.3711 7.79404 63.5382 8.78371 64.9217 9.72984C66.4047 10.744 66.3758 11.2682 66.3485 11.0513L74.2859 10.0521ZM70.3203 6.55172H70.3172V14.5517H70.3203V6.55172ZM70.3449 6.55172H70.3203V14.5517H70.3449V6.55172ZM74.3449 12.5862V10.5517H66.3449V12.5862H74.3449ZM74.3449 15.5517V12.5862H66.3449V15.5517H74.3449ZM74.3449 17.5862V15.5517H66.3449V17.5862H74.3449ZM70.3448 21.5862H70.3449V13.5862H70.3448V21.5862ZM70.3203 21.5862H70.3448V13.5862H70.3203V21.5862ZM65.3449 21.5862H70.3203V13.5862H65.3449V21.5862ZM65.3448 21.5862H65.3449V13.5862H65.3448V21.5862ZM65.3203 21.5862H65.3448V13.5862H65.3203V21.5862ZM63.3129 21.5862L65.3203 21.5862V13.5862L63.3129 13.5862L63.3129 21.5862ZM7.0319 21.5862H63.3129V13.5862H7.0319V21.5862ZM5.02463 21.5862L7.03191 21.5862L7.0319 13.5862L5.02463 13.5862L5.02463 21.5862ZM5 21.5862H5.02463V13.5862H5V21.5862ZM0.0246305 21.5862H5V13.5862H0.0246305V21.5862ZM0 21.5862H0.0246305V13.5862H0V21.5862ZM-4 15.5517V17.5862H4V15.5517H-4ZM-4 14.069V15.5517H4V14.069H-4ZM-4 12.5862V14.069H4V12.5862H-4ZM-4 10.9914V12.5862H4V10.9914H-4ZM-4 10.5517V10.9914H4V10.5517H-4ZM0.0246305 6.55172H0V14.5517H0.0246305V6.55172ZM0.0276237 6.55172H0.0246305V14.5517H0.0276237V6.55172ZM35.1724 -4C25.4093 -4 16.403 -2.7981 9.6158 -0.754195C6.24007 0.262377 3.221 1.54398 0.907198 3.12629C-1.30713 4.64058 -3.54451 6.90195 -3.94106 10.0521L3.9963 11.0513C3.969 11.2682 3.94009 10.744 5.42308 9.72984C6.8066 8.78371 8.97369 7.79404 11.9226 6.906C17.7847 5.14069 25.9815 4 35.1724 4V-4Z" fill="#193651" mask="url(#path-9-inside-1_429_2214)"/>
<rect x="22.3447" y="32" width="2" height="36" fill="#193651"/>
<rect x="29.3447" y="32" width="2" height="35" fill="#193651"/>
<rect x="45.3447" y="32" width="3" height="35" fill="#193651"/>
<rect x="22.3447" y="30" width="26" height="2" fill="#193651"/>
<rect x="15.3447" y="20" width="40" height="2" fill="#193651"/>
<ellipse cx="35.3447" cy="17.5" rx="13" ry="4.5" fill="#FDBF5E"/>
<ellipse cx="35.3447" cy="17.5" rx="13" ry="4.5" stroke="#193651" stroke-width="4"/>
<rect x="32.3447" y="46" width="3" height="4" fill="#6B4937"/>
</svg>
