<svg width="295" height="60" viewBox="0 0 295 60" fill="none" xmlns="http://www.w3.org/2000/svg">
<path d="M174.156 31.2939C174.136 31.2707 174.113 31.2639 174.093 31.243C173.875 31.0221 173.634 30.9061 173.393 30.915C173.13 30.9255 172.869 31.0663 172.646 31.3246C171.324 32.8594 170.196 34.6631 168.875 36.1979C168.458 36.6816 168.503 37.6961 168.915 38.1701C169.263 38.5714 169.689 38.644 170.067 38.4366C170.193 38.3685 170.314 38.2681 170.425 38.1394C170.756 37.7553 171.074 37.3547 171.386 36.9459C172.323 35.7195 173.205 34.4175 174.197 33.266C174.613 32.7823 174.568 31.7678 174.156 31.2939Z" fill="#262625"/>
<path d="M218.143 29.546C218.449 29.367 218.835 29.1147 219.193 28.9515C218.569 29.6006 217.804 30.112 217.018 30.5448C217.003 30.5537 216.987 30.5635 216.971 30.5717C216.71 30.7147 216.447 30.8495 216.187 30.9768C216.489 30.7132 216.8 30.4639 217.116 30.2295C217.454 29.9877 217.794 29.7504 218.143 29.546ZM230.464 27.3785C230.329 27.1711 230.154 27.0063 229.954 26.9187C229.854 26.8753 229.748 26.8506 229.639 26.8499C229.607 26.8499 229.576 26.8559 229.544 26.8559C229.2 26.8573 228.856 26.8753 228.516 26.9202C228.325 26.9457 228.137 26.9951 227.947 27.0333C227.77 27.0692 227.591 27.0932 227.416 27.1404C227.16 27.2085 226.91 27.3028 226.659 27.3942C226.555 27.4316 226.45 27.4586 226.347 27.4997C226.048 27.621 225.756 27.7655 225.465 27.9175C225.415 27.9437 225.363 27.9632 225.313 27.9901C224.987 28.1676 224.668 28.3667 224.355 28.5809C224.343 28.5884 224.332 28.5944 224.321 28.6018C223.344 29.2742 222.438 30.1202 221.626 31.1018C221.625 31.1025 221.624 31.1033 221.623 31.1048C221.59 31.113 221.557 31.1213 221.524 31.1302C221.034 31.2575 220.546 31.3818 220.065 31.5046C220.064 31.5046 220.064 31.5046 220.063 31.5053C220.21 31.3773 220.35 31.2403 220.49 31.1018C220.561 31.0314 220.632 30.9595 220.702 30.8862C220.813 30.7679 220.921 30.6458 221.026 30.5185C221.13 30.395 221.227 30.2632 221.323 30.1315C221.398 30.0296 221.473 29.9308 221.543 29.8237C221.708 29.5714 221.865 29.3064 222.004 29.0196C222.005 29.0174 222.006 29.0151 222.008 29.0129C222.059 28.9081 222.094 28.7935 222.115 28.6745C222.158 28.4364 222.145 28.1796 222.09 27.9422C222.062 27.8232 222.025 27.7094 221.979 27.6053C221.563 26.6709 220.993 26.2202 220.35 26.0734C220.183 26.036 220.014 26.0113 219.839 26.0128C219.271 26.0173 218.666 26.212 218.071 26.5017C217.923 26.5736 217.775 26.6522 217.628 26.7346C216.893 27.1471 216.192 27.6697 215.615 28.1129C215.475 28.2208 215.35 28.3495 215.215 28.4633C214.938 28.6954 214.658 28.9215 214.399 29.1769C214.027 29.5452 213.677 29.9398 213.344 30.3538C213.333 30.3673 213.321 30.3778 213.311 30.3913C212.627 31.247 212.027 32.1964 211.512 33.2206C211.512 33.2214 211.511 33.2221 211.51 33.2229C211.509 33.2236 211.508 33.2244 211.507 33.2251C210.221 33.8293 208.931 34.4186 207.633 34.9794C207.626 34.9824 207.619 34.9861 207.612 34.9891C207.526 35.0243 207.439 35.058 207.352 35.0932C206.842 35.3013 206.33 35.5087 205.818 35.7109C205.606 35.7947 205.391 35.8733 205.177 35.9557C204.784 36.1077 204.392 36.2619 203.998 36.4064C203.747 36.4978 203.495 36.5794 203.244 36.6677C202.886 36.7935 202.529 36.923 202.17 37.0398C201.557 37.239 200.941 37.4232 200.322 37.5886C199.832 37.7204 199.25 37.8769 198.626 38.0131C197.377 38.2849 195.954 38.4744 194.737 38.2123C194.128 38.0813 193.57 37.8372 193.111 37.4336C192.64 37.0196 192.404 36.6138 192.34 36.2252C192.319 36.0957 192.318 35.9677 192.333 35.8426C192.393 35.341 192.725 34.8768 193.182 34.4702C193.755 33.9634 194.525 33.5471 195.207 33.2678C195.616 33.1001 195.994 32.9811 196.278 32.9204C196.321 32.9114 196.369 32.8987 196.412 32.889C196.619 32.8433 196.83 32.7931 197.052 32.7407C196.336 33.3052 195.444 33.5935 194.638 33.8398C194.137 33.9926 193.912 34.4643 193.896 34.9726C193.875 35.6517 194.227 36.3952 194.796 36.5359C194.938 36.5704 195.094 36.5681 195.261 36.5172C195.833 36.3428 196.395 36.1354 196.927 35.8726C198.524 35.0857 199.851 33.8024 200.361 31.4282C200.45 31.0164 200.368 30.669 200.215 30.3815C200.102 30.1681 199.958 29.9817 199.771 29.8627C199.77 29.8619 199.77 29.8612 199.769 29.8604C199.622 29.7676 199.46 29.7069 199.296 29.6845C198.397 29.5594 196.978 29.7406 195.503 30.2131C195.209 30.3082 194.912 30.4145 194.616 30.532C194.025 30.7679 193.441 31.0494 192.891 31.3766C191.794 32.0317 190.84 32.868 190.269 33.8795C189.841 34.638 189.627 35.4952 189.731 36.4476C189.765 36.765 189.834 37.093 189.943 37.4321C190.337 38.666 191.144 39.4926 192.118 40.0354C192.768 40.397 193.492 40.6321 194.219 40.7774C195.309 40.9953 196.404 41.0117 197.262 40.9503C197.729 40.9166 198.194 40.862 198.659 40.7909C198.826 40.7654 198.992 40.7265 199.159 40.6965C199.457 40.6434 199.754 40.594 200.05 40.5281C200.243 40.4846 200.435 40.43 200.628 40.3821C200.896 40.3147 201.164 40.2525 201.432 40.1769C201.638 40.1185 201.843 40.0504 202.05 39.9875C202.302 39.9104 202.555 39.837 202.807 39.7539C203.017 39.685 203.226 39.6079 203.435 39.5353C203.682 39.4492 203.928 39.3668 204.173 39.2762C204.392 39.1961 204.61 39.1108 204.829 39.0276C205.063 38.9378 205.298 38.8502 205.532 38.7589C205.766 38.6668 205.999 38.5724 206.232 38.4788C206.453 38.3905 206.674 38.3029 206.894 38.2138C207.306 38.0461 207.715 37.8791 208.123 37.7122C208.129 37.7099 208.133 37.7122 208.138 37.7099C208.181 37.6912 208.225 37.6717 208.267 37.653C208.27 37.6523 208.27 37.6508 208.273 37.65C208.894 37.3812 209.513 37.0937 210.134 36.8167C210.134 36.8182 210.133 36.819 210.133 36.8204C209.98 37.3633 209.84 37.9151 209.723 38.4803C209.608 39.0247 209.513 39.5794 209.434 40.1432C209.43 40.1687 209.424 40.1926 209.421 40.2181C209.391 40.4367 209.396 40.6389 209.429 40.8223C209.461 41.0057 209.52 41.1697 209.599 41.3127C209.995 42.0247 210.883 42.1917 211.306 41.464C211.39 41.3187 211.456 41.1375 211.496 40.9174C211.582 40.4435 211.721 40.0152 211.883 39.6094C211.915 39.5285 211.946 39.4462 211.981 39.3683C212.15 38.9902 212.349 38.6391 212.576 38.3171C212.62 38.2557 212.668 38.1996 212.713 38.1404C212.939 37.8432 213.185 37.5662 213.453 37.3131C213.483 37.2854 213.508 37.254 213.538 37.227C213.83 36.962 214.146 36.7246 214.475 36.5037C214.545 36.4558 214.616 36.4079 214.689 36.3622C215.018 36.1533 215.358 35.9594 215.71 35.7865C215.764 35.7595 215.82 35.7356 215.875 35.7094C216.207 35.5506 216.547 35.4046 216.89 35.2714C216.947 35.2489 217.003 35.2249 217.061 35.2032C217.432 35.0632 217.805 34.9359 218.176 34.8176C218.258 34.7914 218.34 34.766 218.422 34.7405C218.786 34.6275 219.148 34.5204 219.5 34.4216C219.503 34.4208 219.506 34.4201 219.509 34.4193C219.011 35.4443 218.607 36.5397 218.305 37.6837C218.271 37.8102 218.241 37.9368 218.21 38.0641C218.105 38.4983 218.016 38.9378 217.943 39.384C217.918 39.5353 217.89 39.6843 217.868 39.837C217.789 40.409 217.727 40.987 217.703 41.5733C217.694 41.7814 217.738 41.9896 217.817 42.179C217.897 42.3684 218.013 42.5391 218.15 42.6731C218.355 42.8738 218.605 42.9921 218.846 42.9659C218.926 42.9576 219.005 42.9329 219.082 42.8903C219.736 42.5234 220.389 42.1535 221.044 41.7904C221.699 41.4265 222.355 41.0694 223.017 40.7265C223.175 40.6449 223.304 40.5311 223.405 40.3963C223.591 40.1507 223.677 39.8318 223.698 39.5083C223.7 39.4776 223.711 39.4484 223.711 39.4177C223.729 38.5298 223.193 37.6358 222.395 38.0483C222.384 38.0543 222.374 38.0603 222.363 38.0656C221.613 38.4549 220.87 38.8629 220.128 39.277C220.126 39.2777 220.124 39.2792 220.122 39.28C220.23 38.7574 220.372 38.2475 220.535 37.7496C220.557 37.6837 220.581 37.6193 220.603 37.5534C220.765 37.0832 220.946 36.6228 221.152 36.1796C221.158 36.1668 221.163 36.1526 221.17 36.1399C221.627 35.1665 222.184 34.2651 222.817 33.4632C223.16 33.3607 223.504 33.2573 223.847 33.1495C223.96 33.1136 224.071 33.0739 224.184 33.038C224.443 32.9541 224.701 32.868 224.958 32.7774C225.098 32.7265 225.238 32.6703 225.378 32.6172C225.606 32.5311 225.832 32.4427 226.057 32.3476C226.204 32.2848 226.349 32.2174 226.494 32.1507C226.71 32.0512 226.923 31.9463 227.135 31.8355C227.278 31.7607 227.42 31.682 227.562 31.6012C227.774 31.4799 227.982 31.3474 228.188 31.2111C228.319 31.1243 228.451 31.0389 228.58 30.9453C228.801 30.7851 229.014 30.6076 229.226 30.4257C229.332 30.3359 229.44 30.2535 229.544 30.1569C229.854 29.8694 230.155 29.5602 230.442 29.215C230.548 29.0878 230.615 28.9425 230.664 28.792C230.819 28.3196 230.72 27.7723 230.464 27.3785Z" fill="#262625"/>
<path d="M262.612 18.3351C262.613 18.3336 262.614 18.3321 262.614 18.3314C262.626 18.3194 262.636 18.3082 262.647 18.2969C262.635 18.3194 262.62 18.3351 262.605 18.3538C262.601 18.3628 262.593 18.3666 262.59 18.3755C262.597 18.3621 262.605 18.3486 262.612 18.3351ZM264.038 17.8492C263.912 17.7661 263.773 17.7055 263.633 17.68C263.621 17.6777 263.61 17.6852 263.598 17.6837C263.469 17.6658 263.337 17.6695 263.212 17.7257C263.127 17.7743 263.043 17.823 262.96 17.8717C262.834 17.9727 262.746 18.121 262.663 18.2752C262.653 18.285 262.642 18.2902 262.632 18.2992C262.639 18.2879 262.645 18.276 262.652 18.2647C262.678 18.2191 262.704 18.1734 262.729 18.1277V18.1285C262.729 18.1277 262.729 18.1277 262.729 18.1277C262.682 18.2116 262.622 18.2797 262.565 18.3523C262.522 18.3898 262.477 18.425 262.431 18.4572C262.389 18.4759 262.346 18.4901 262.302 18.5043C262.283 18.5118 262.263 18.5208 262.242 18.5268C262.208 18.5298 262.173 18.5283 262.138 18.529C262.108 18.529 262.078 18.532 262.049 18.5305C262.045 18.5298 262.042 18.5283 262.039 18.5275C261.98 18.5118 261.922 18.4931 261.865 18.4699C261.795 18.422 261.722 18.3793 261.658 18.3179L261.659 18.3194C261.563 18.2258 261.464 18.1464 261.352 18.0948C261.237 18.0371 261.116 18.0027 260.991 18.0049C260.86 18.0079 260.717 18.0484 260.585 18.1217C260.453 18.1944 260.332 18.2984 260.244 18.4287C260.063 18.6982 259.931 19.0501 259.952 19.4215C259.953 19.4455 259.963 19.4687 259.964 19.4926C259.993 19.8318 260.086 20.1657 260.284 20.4008C260.443 20.588 260.612 20.7467 260.791 20.8777C260.972 21.0095 261.163 21.1151 261.367 21.1952C261.569 21.2753 261.786 21.303 261.995 21.327C262.122 21.3419 262.25 21.3419 262.376 21.3232C262.811 21.2603 263.189 21.1286 263.574 20.8523C263.76 20.719 263.921 20.5543 264.065 20.3679C264.21 20.1807 264.339 19.9718 264.46 19.7494C264.534 19.6124 264.574 19.4207 264.586 19.2238C264.597 19.0277 264.581 18.8278 264.545 18.6728C264.47 18.3508 264.272 18.0042 264.038 17.8492Z" fill="#262625"/>
<path d="M293.939 5.60292C265.316 5.68602 236.693 5.76988 208.07 5.85298C207.818 5.85373 207.632 5.96754 207.475 6.12027C202.611 6.1345 197.747 6.14873 192.883 6.16295C191.507 6.16669 191.563 8.95564 192.94 8.9519C221.563 8.86804 250.186 8.78494 278.809 8.70183C279.061 8.70108 279.248 8.58653 279.405 8.43454C284.268 8.42032 289.132 8.40609 293.996 8.39186C295.372 8.38812 295.315 5.59917 293.939 5.60292Z" fill="#262625"/>
<path d="M26.8904 40.7695C20.9928 45.4092 14.8586 49.5331 8.53052 53.1097C9.2066 52.519 9.88943 51.9425 10.5775 51.3765C10.6524 51.3143 10.728 51.2522 10.8029 51.1908C11.4819 50.6352 12.167 50.0902 12.8573 49.5586C12.906 49.5212 12.9546 49.4837 13.0033 49.447C17.4334 46.0486 22.0829 43.1436 26.8934 40.7672C26.8927 40.768 26.8912 40.7687 26.8904 40.7695ZM109.75 9.85593C109.648 9.82374 109.541 9.80727 109.424 9.82898C109.407 9.83273 109.389 9.83647 109.371 9.84021C107.858 10.127 106.35 10.4474 104.849 10.7941C104.331 10.9139 103.817 11.0524 103.301 11.1789C102.301 11.4237 101.303 11.6693 100.309 11.9396C99.7003 12.1043 99.0961 12.2855 98.4897 12.4599C97.5934 12.7175 96.6973 12.9758 95.8048 13.2521C95.1609 13.452 94.52 13.6631 93.8791 13.872C93.0301 14.149 92.1825 14.4283 91.3372 14.7211C90.6776 14.9502 90.0195 15.186 89.3621 15.4241C88.5393 15.7221 87.718 16.0246 86.8996 16.336C86.2325 16.5898 85.5669 16.8481 84.9028 17.1102C84.0987 17.4284 83.2968 17.7533 82.4957 18.0835C81.8248 18.3605 81.154 18.6376 80.4847 18.9228C79.6955 19.259 78.9086 19.6049 78.1225 19.9523C77.4501 20.2495 76.7763 20.5445 76.1054 20.8493C75.329 21.2027 74.5556 21.5658 73.7814 21.9282C73.1061 22.2449 72.43 22.5571 71.7562 22.8805C71.0052 23.2414 70.2565 23.6135 69.507 23.9826C68.8145 24.324 68.1212 24.6595 67.4309 25.0069C66.7945 25.3273 66.1603 25.6582 65.5247 25.9847C63.8034 26.8667 62.0873 27.7651 60.3758 28.6815C59.9692 28.8994 59.5612 29.1128 59.1554 29.3322C58.1918 29.8525 57.2304 30.3826 56.2698 30.9119C55.8386 31.1493 55.4058 31.3844 54.9753 31.6232C53.9773 32.1765 52.9822 32.7365 51.9872 33.2973C51.6091 33.5107 51.2303 33.7226 50.8522 33.9367C49.78 34.5447 48.7101 35.1564 47.6409 35.7696C47.3774 35.9216 47.1124 36.0728 46.8488 36.2248C45.6194 36.9323 44.3915 37.6421 43.1651 38.3556C43.8367 37.5762 44.5076 36.7961 45.1792 36.0167C45.8103 35.2837 46.4415 34.5507 47.0727 33.8184C47.316 33.5354 47.3916 33.1087 47.3437 32.6946C47.2636 32.0043 46.8383 31.3484 46.2686 31.4533C45.165 31.6562 44.0666 31.8868 42.972 32.1398C42.954 32.1443 42.936 32.1488 42.9181 32.1533C41.8392 32.4041 40.7655 32.6796 39.6964 32.9784C39.6956 32.9784 39.6956 32.9784 39.6956 32.9791C40.35 32.3532 40.9984 31.7161 41.6453 31.0774C42.9772 29.7709 44.3002 28.4487 45.5977 27.0808C45.6 27.0785 45.6022 27.0763 45.6045 27.074C45.7916 26.8771 45.8875 26.6301 45.9129 26.3695C45.9915 25.5886 45.4382 24.6916 44.8011 24.7089C44.0935 24.7276 43.3898 24.7763 42.689 24.8511C42.1229 24.911 41.5614 25.0016 40.9999 25.0967C40.8853 25.1162 40.7685 25.1274 40.6532 25.1484C39.3093 25.3939 37.9848 25.7481 36.6791 26.1943C39.3797 23.3357 41.935 20.2451 44.3219 16.9208C44.5443 16.6116 44.6206 16.1863 44.5795 15.7812C44.5772 15.761 44.5697 15.7416 44.5675 15.7213C44.5398 15.5124 44.4784 15.3155 44.3923 15.1403C44.3204 14.9951 44.2366 14.8618 44.1295 14.7637C43.9633 14.6117 43.7566 14.5286 43.5185 14.5563C39.9367 14.9659 36.4252 15.8778 33.0411 17.2599C31.6874 17.8125 30.3547 18.4407 29.046 19.1415C26.4277 20.543 23.906 22.2366 21.5109 24.2057C18.5161 26.6675 15.7181 29.559 13.1748 32.8481C12.9307 33.1626 12.8453 33.5197 12.8693 33.8589C12.9404 34.8764 13.9961 35.7321 14.7254 34.7895C15.1866 34.1928 15.6582 33.6118 16.1367 33.0428C16.3036 32.8444 16.4758 32.6557 16.6443 32.461C16.958 32.0979 17.2725 31.7355 17.5937 31.3851C17.8093 31.1493 18.0302 30.9224 18.2488 30.6918C18.5288 30.3968 18.8081 30.1026 19.0926 29.8166C19.3412 29.568 19.5927 29.3262 19.845 29.0836C20.1048 28.8335 20.3646 28.5842 20.6282 28.3409C20.9052 28.0856 21.1852 27.8362 21.4667 27.5884C21.7078 27.3765 21.9497 27.1669 22.1937 26.9602C22.5015 26.7004 22.8114 26.4451 23.1236 26.1951C23.3408 26.0206 23.5594 25.8499 23.778 25.6807C24.1209 25.4156 24.4646 25.1544 24.8127 24.9013C24.9962 24.7673 25.1811 24.6385 25.366 24.5075C25.7531 24.2342 26.141 23.9639 26.534 23.7048C26.6583 23.6225 26.7848 23.5446 26.9099 23.4638C31.2 20.7003 35.8121 18.7843 40.5866 17.829C40.5881 17.8282 40.5896 17.8282 40.5911 17.8282C39.7031 18.967 38.7912 20.0714 37.8643 21.1517C37.6996 21.3427 37.5341 21.5321 37.3686 21.7215C36.5525 22.6567 35.7215 23.5686 34.8754 24.4566C34.4427 24.9073 34.0002 25.343 33.5599 25.781C32.9145 26.4287 32.2699 27.0793 31.6073 27.6985C30.4348 28.7886 29.2444 29.8495 28.021 30.8528C27.7312 31.0909 27.5822 31.4151 27.541 31.7535C27.4385 32.6003 28.0052 33.5369 28.7113 33.4344C28.8528 33.4141 28.9995 33.352 29.1478 33.2389C29.6891 32.8279 30.2394 32.4453 30.7934 32.0769C30.9941 31.9444 31.1962 31.8209 31.3984 31.6943C31.748 31.4742 32.0999 31.2608 32.4541 31.0579C32.7131 30.9097 32.9729 30.7652 33.2342 30.6259C33.5187 30.4747 33.8063 30.3332 34.0938 30.1924C34.4052 30.0404 34.7159 29.8847 35.0304 29.7454C35.1405 29.6968 35.2535 29.6564 35.3643 29.6084C36.2605 29.2266 37.168 28.8919 38.0874 28.6141C38.1218 28.6037 38.1563 28.5909 38.1907 28.5812C38.6714 28.4375 39.1558 28.3117 39.6425 28.1971C39.7151 28.1799 39.787 28.1627 39.8596 28.1462C40.3597 28.0331 40.8614 27.9313 41.3667 27.8482C41.3652 27.8497 41.363 27.852 41.3615 27.8542C40.2512 28.9713 39.1311 30.0719 38.002 31.156C36.7135 32.3809 35.4227 33.5998 34.1057 34.7708C34.1027 34.7738 34.0998 34.776 34.0968 34.779C32.657 35.3039 31.2307 35.8819 29.8149 36.4943C29.594 36.5902 29.3746 36.6882 29.1553 36.7856C26.3723 38.0202 23.638 39.4218 20.9606 40.9903C20.718 41.1318 20.477 41.2764 20.2359 41.4209C18.9226 42.2077 17.6184 43.0223 16.3343 43.8886C16.3298 43.8916 16.3261 43.8938 16.3224 43.8961C15.0391 44.7616 13.7752 45.6773 12.5234 46.6207C12.2546 46.8236 11.9866 47.0287 11.7193 47.2353C10.5019 48.1735 9.2957 49.1363 8.11124 50.1471C8.09252 50.1628 8.0738 50.177 8.05583 50.1928C6.86538 51.2103 5.69814 52.2757 4.54288 53.365C4.26211 53.6301 3.98284 53.8974 3.70358 54.1662C2.55805 55.272 1.42375 56.4011 0.314909 57.578C0.108265 57.7967 0.0131767 58.0797 0.00119731 58.3739C-0.016023 58.8142 0.153936 59.2799 0.41898 59.5913C0.594927 59.7987 0.813549 59.9387 1.04565 59.9567C1.1617 59.9664 1.2815 59.9455 1.40129 59.8871C1.40503 59.8856 1.40878 59.8833 1.41327 59.8811C3.20119 59.0171 4.97039 58.0976 6.72987 57.1505C7.27418 56.8578 7.814 56.5538 8.35532 56.2536C9.61989 55.5505 10.8762 54.8265 12.1251 54.0816C12.6844 53.7476 13.2451 53.4189 13.8014 53.0768C15.4628 52.0548 17.1137 51.0066 18.7452 49.9097C19.1435 49.6417 19.5343 49.3549 19.9311 49.0824C21.192 48.2169 22.4461 47.3327 23.6882 46.4222C24.3665 45.9258 25.0388 45.4175 25.7104 44.9083C26.695 44.1626 27.6713 43.4012 28.6424 42.627C29.3162 42.0909 29.9916 41.5601 30.6594 41.0106C32.1179 39.8096 33.5652 38.5832 34.9937 37.3194C34.9952 37.3179 34.9967 37.3164 34.999 37.3149C34.9997 37.3149 34.9997 37.3142 35.0005 37.3142C36.2156 36.8784 37.4398 36.4809 38.6684 36.111C38.8166 36.0661 38.9649 36.0211 39.1131 35.9777C40.353 35.6131 41.5973 35.2762 42.8492 34.9804C40.7371 37.4332 38.6242 39.886 36.5121 42.3395C36.2912 42.5963 36.1999 42.8763 36.1819 43.1511C36.1797 43.1811 36.1662 43.211 36.1662 43.241C36.1692 44.1477 37.0983 44.9443 37.8508 44.5033C39.1828 43.7224 40.5162 42.9415 41.8504 42.1613C42.6096 41.7181 43.3703 41.2771 44.1302 40.8346C44.7037 40.5007 45.2773 40.166 45.8523 39.8328C46.7874 39.2915 47.724 38.7532 48.6614 38.2149C49.0642 37.9828 49.4671 37.7507 49.8706 37.5201C50.8933 36.9353 51.9168 36.3551 52.9418 35.7771C53.2488 35.6034 53.5565 35.4297 53.8635 35.2567C54.9574 34.6428 56.0527 34.0341 57.1488 33.4291C57.3794 33.3018 57.61 33.1753 57.8414 33.0488C59.0049 32.4101 60.1706 31.7775 61.3386 31.1523C61.4816 31.0752 61.6254 30.9988 61.7691 30.9224C63.0202 30.2546 64.2728 29.5942 65.5291 28.9451C65.5509 28.9338 65.5726 28.9226 65.5935 28.9121C77.6148 22.7023 89.8885 17.3887 102.596 14.167C97.2738 17.665 91.9527 21.1622 86.6316 24.6602C83.1471 26.9505 79.6618 29.2408 76.1773 31.5311C75.7116 31.8373 75.5821 32.3502 75.6667 32.8331C75.7229 33.1558 75.8741 33.465 76.0845 33.6919C76.3989 34.0318 76.8467 34.1853 77.3049 33.918C78.7035 33.0989 80.12 32.3375 81.5463 31.609C81.7575 31.5012 81.9671 31.3889 82.1782 31.2833C83.5536 30.5945 84.941 29.9506 86.3388 29.3449C86.5732 29.2438 86.8075 29.1442 87.0419 29.0447C88.4704 28.4412 89.9087 27.8737 91.3582 27.3556C91.4907 27.3084 91.624 27.265 91.7565 27.2185C93.2846 26.681 94.8225 26.1823 96.3708 25.7391C96.3693 25.7413 96.3686 25.7428 96.3671 25.7451C95.6783 26.7618 94.9572 27.7322 94.207 28.6606C94.1876 28.6853 94.1666 28.7077 94.1464 28.7324C93.4037 29.6481 92.634 30.5241 91.8389 31.3574C91.8374 31.3582 91.8359 31.3589 91.8344 31.3597C90.8101 31.895 89.7964 32.4633 88.7968 33.0735C88.7519 33.1004 88.7085 33.1296 88.6643 33.1566C87.721 33.7368 86.7851 34.338 85.8656 34.9842C85.5998 35.1691 85.3415 35.3735 85.078 35.5644C84.366 36.0833 83.6517 36.5977 82.9547 37.1569C81.9626 37.9483 80.9855 38.7772 80.0294 39.6524C79.9111 39.7602 79.8176 39.889 79.7464 40.0297C79.6034 40.312 79.551 40.6452 79.5727 40.9664C79.5952 41.2876 79.6918 41.5975 79.8483 41.8334C80.0047 42.0692 80.2211 42.231 80.4817 42.2557C80.6119 42.2684 80.7534 42.2474 80.9039 42.1838C81.7373 41.8341 82.5541 41.4358 83.3627 41.0143C83.5469 40.9192 83.7311 40.8264 83.9138 40.7275C84.6175 40.3442 85.3101 39.9332 85.9929 39.4967C86.3036 39.299 86.6106 39.0931 86.9168 38.885C87.3339 38.5997 87.7449 38.3025 88.153 37.9985C88.7534 37.5538 89.3419 37.0873 89.9222 36.6014C90.0936 36.4576 90.2636 36.3131 90.4328 36.1656C91.3058 35.4094 92.1541 34.6098 92.9762 33.763C92.9769 33.7623 92.9769 33.7623 92.9776 33.7623C94.6795 32.8848 96.4142 32.1166 98.1737 31.4533C98.9149 31.1762 99.6577 30.9082 100.408 30.6709C100.761 30.5578 101.117 30.4575 101.472 30.3534C102.388 30.0876 103.308 29.8353 104.236 29.6287C104.401 29.592 104.567 29.5628 104.732 29.5283C105.817 29.2992 106.908 29.0986 108.007 28.9526C108.686 28.8627 109.014 28.12 109.001 27.4222C108.991 26.8996 108.79 26.4017 108.402 26.2243C108.272 26.1651 108.122 26.1412 107.95 26.1636C106.827 26.3134 105.71 26.5178 104.599 26.7484C104.249 26.821 103.901 26.9048 103.553 26.985C102.766 27.1669 101.984 27.3698 101.205 27.5922C100.839 27.6962 100.472 27.7966 100.108 27.9096C99.0564 28.2375 98.0112 28.5902 96.9773 28.9907C97.4579 28.3304 97.9311 27.661 98.3841 26.9647C98.9 26.1868 99.4001 25.3902 99.874 24.5606C99.91 24.4977 99.9279 24.4318 99.9556 24.3675C100.054 24.1428 100.119 23.913 100.129 23.6876C100.147 23.3095 100.042 22.9599 99.8605 22.6918C99.8328 22.6514 99.8126 22.6035 99.7812 22.5676C99.6225 22.3841 99.4158 22.2598 99.1747 22.2276C99.0542 22.2112 98.9247 22.2179 98.7877 22.2516C97.6638 22.5264 96.5468 22.8341 95.4342 23.159C95.372 23.177 95.3106 23.1972 95.2485 23.2159C94.1674 23.5341 93.0915 23.8793 92.0208 24.2447C93.6844 23.1516 95.3473 22.0584 97.011 20.9646C101.346 18.1157 105.681 15.2661 110.016 12.4165C110.356 12.1934 110.505 11.7457 110.503 11.2845C110.502 10.9768 110.434 10.6623 110.31 10.404C110.181 10.1322 109.988 9.93155 109.75 9.85593Z" fill="#262625"/>
<path d="M151.959 32.4607C150.815 33.187 149.679 34.0285 148.477 34.5848C148.174 34.7248 147.839 34.8663 147.498 34.9554C147.924 34.614 148.357 34.2906 148.799 33.9881C148.801 33.9866 148.803 33.9858 148.804 33.9843C149.245 33.6826 149.694 33.4003 150.15 33.1383C150.151 33.1383 150.152 33.1375 150.153 33.1368C151.066 32.6127 152.007 32.1717 152.971 31.8183C152.874 31.8805 152.776 31.9418 152.68 32.0032C152.439 32.156 152.199 32.308 151.959 32.4607ZM161.623 36.7261C161.166 36.8796 160.669 37.0645 160.169 37.1589C159.92 37.206 159.669 37.2307 159.422 37.2173C159.175 37.2038 158.932 37.1521 158.696 37.0473C158.19 36.8219 157.774 36.3465 157.713 35.7303C157.692 35.5252 157.711 35.3043 157.779 35.0722C158.029 34.2224 158.434 33.4213 158.889 32.6584C159.206 32.1275 159.542 31.6206 159.904 31.1437C160.022 30.988 160.135 30.8308 160.255 30.6818C160.539 30.3276 160.826 29.9847 161.104 29.6718C161.348 29.3962 161.449 29.084 161.448 28.7793C161.447 28.6273 161.421 28.4768 161.375 28.3346C161.282 28.05 161.106 27.797 160.889 27.621C160.672 27.4451 160.412 27.347 160.152 27.3717C160.022 27.3844 159.891 27.4279 159.765 27.508C159.234 27.8449 158.703 28.1818 158.172 28.5187C157.933 28.67 157.695 28.8212 157.456 28.9725C157.418 28.8504 157.37 28.7381 157.312 28.634C157.308 28.6258 157.303 28.6176 157.299 28.6093C157.245 28.5202 157.185 28.4424 157.117 28.3742C157.102 28.36 157.09 28.3428 157.074 28.3293C157.011 28.2732 156.941 28.2327 156.867 28.1998C156.843 28.1886 156.823 28.1721 156.798 28.1638C156.7 28.1317 156.594 28.1167 156.479 28.1317C155.93 28.2035 155.385 28.2994 154.844 28.4184C151.054 29.251 147.474 31.2328 144.424 34.3048C144.162 34.5683 143.981 34.9502 143.935 35.3492C143.888 35.7483 143.977 36.1646 144.253 36.4993C144.527 36.8309 144.813 37.09 145.108 37.2876C145.256 37.3865 145.405 37.4696 145.557 37.5385C146.011 37.7459 146.482 37.8245 146.96 37.8095C147.437 37.7945 147.922 37.6852 148.405 37.516C148.565 37.4598 148.726 37.397 148.885 37.3281C149.524 37.054 150.153 36.6932 150.748 36.3263C151.046 36.1429 151.335 35.9579 151.613 35.7812C153.159 34.8004 154.705 33.8196 156.251 32.8388C156.143 33.0769 156.044 33.3217 155.955 33.5695C155.934 33.6235 155.916 33.6766 155.897 33.7313C155.809 33.9896 155.73 34.2516 155.673 34.5204C155.671 34.5294 155.671 34.5384 155.669 34.5474C155.617 34.7989 155.587 35.0565 155.571 35.3163C155.567 35.3852 155.564 35.4533 155.562 35.5229C155.557 35.7992 155.566 36.0785 155.612 36.3645C155.861 37.9166 156.842 39.1115 157.957 39.6423C158.307 39.8093 158.663 39.9074 159.024 39.9523C159.203 39.9748 159.384 39.9845 159.564 39.983C160.468 39.9755 161.38 39.694 162.246 39.4043C162.743 39.2373 162.968 38.7566 162.983 38.2445C162.988 38.073 162.97 37.8993 162.931 37.7316C162.775 37.0623 162.288 36.5037 161.623 36.7261Z" fill="#262625"/>
<path d="M182.927 33.2228C182.71 32.9734 182.434 32.8402 182.162 32.8394C181.889 32.8387 181.62 32.9712 181.417 33.2535C180.381 34.688 179.347 36.1225 178.312 37.5571C178.217 37.6896 178.144 37.8476 178.096 38.0175C178.048 38.1882 178.024 38.3709 178.025 38.5528C178.027 38.7348 178.054 38.916 178.108 39.0829C178.161 39.2506 178.243 39.4034 178.352 39.5292C178.461 39.6542 178.584 39.75 178.714 39.8144C178.975 39.9432 179.262 39.9484 179.516 39.8114C179.642 39.7433 179.761 39.64 179.863 39.4985C180.897 38.0639 181.933 36.6294 182.967 35.1949C183.146 34.9478 183.235 34.6101 183.245 34.2702C183.246 34.2463 183.255 34.2238 183.254 34.1991C183.251 33.8352 183.146 33.4743 182.927 33.2228Z" fill="#262625"/>
<path d="M236.614 35.3471C236.61 35.3546 236.599 35.3726 236.587 35.3928V35.3936C236.587 35.3921 236.588 35.3913 236.589 35.3898C236.595 35.3801 236.601 35.3703 236.606 35.3606C236.609 35.3561 236.611 35.3516 236.614 35.3471ZM241.387 30.4715C241.018 30.3847 240.65 30.336 240.283 30.324C239.548 30.3001 238.824 30.4259 238.124 30.7044C237.775 30.8429 237.431 31.0203 237.096 31.236L237.094 31.2382C236.803 31.4261 236.535 31.6537 236.279 31.8978C236.235 31.9405 236.19 31.9817 236.147 32.0251C235.893 32.2827 235.654 32.5612 235.434 32.8659V32.8667H235.433C235.049 32.8412 234.668 32.7918 234.311 32.6907C234.17 32.651 234.027 32.6465 233.89 32.6742C233.617 32.7296 233.367 32.9138 233.199 33.1961C233.115 33.3376 233.052 33.5038 233.017 33.691C232.984 33.8684 232.98 34.0534 233.002 34.2331C233.026 34.4135 233.073 34.5887 233.145 34.7474C233.215 34.9054 233.307 35.0462 233.418 35.1577C233.528 35.2693 233.656 35.3516 233.798 35.3913C233.902 35.4213 234.007 35.431 234.112 35.4557L234.111 35.4579C233.996 35.7784 233.887 36.1033 233.794 36.435C233.793 36.438 233.792 36.441 233.791 36.4448C233.558 37.2736 233.401 38.1383 233.3 39.0166C233.198 39.8941 233.151 40.785 233.134 41.6663C233.13 41.8549 233.163 42.0354 233.221 42.2001C233.398 42.695 233.814 43.0476 234.231 43.0387C234.683 43.0297 235.034 42.6628 235.186 42.1612C235.237 41.9934 235.266 41.8115 235.27 41.6228C235.278 41.2515 235.29 40.8809 235.311 40.511C235.314 40.4601 235.318 40.4099 235.321 40.359C235.325 40.3088 235.328 40.2579 235.331 40.2078C235.332 40.198 235.335 40.1569 235.338 40.1217C235.339 40.1157 235.34 40.1097 235.341 40.1037C235.357 39.9248 235.376 39.7458 235.397 39.5676C235.472 38.9402 235.577 38.3188 235.719 37.7123C235.752 37.5776 235.785 37.4435 235.82 37.3103C235.822 37.3043 235.829 37.2818 235.832 37.2683C235.84 37.2444 235.847 37.2204 235.857 37.1852C235.877 37.1201 235.894 37.0632 235.903 37.0317C235.904 37.0302 235.905 37.0243 235.906 37.0228C235.945 36.9052 235.988 36.7907 236.029 36.6739C236.068 36.5668 236.101 36.4575 236.143 36.3519C236.186 36.2441 236.236 36.1415 236.282 36.036C236.328 35.9304 236.371 35.8226 236.42 35.7192C236.437 35.6871 236.453 35.6556 236.47 35.6234C237.449 35.5328 238.407 35.2528 239.315 34.7804C239.348 34.7639 239.379 34.7422 239.411 34.725C239.79 34.5221 240.158 34.2847 240.516 34.0189C240.607 33.9515 240.698 33.8864 240.787 33.8153C241.174 33.5061 241.551 33.1736 241.906 32.7925C242.36 32.3044 242.26 31.3408 241.868 30.8159C241.737 30.6407 241.574 30.5142 241.387 30.4715Z" fill="#262625"/>
<path d="M258.275 29.5479C256.269 28.2878 253.933 29.2784 252.502 31.3455C252.334 31.5889 252.182 31.8449 252.042 32.1092C251.905 32.3616 251.783 32.6243 251.668 32.8924C251.3 33.0159 250.938 33.1522 250.555 33.248C250.502 33.2615 250.463 33.3102 250.415 33.3364C250.078 33.5191 249.849 33.9645 249.81 34.4437C249.795 34.6264 249.805 34.8098 249.844 34.9783L249.845 34.9805C249.886 35.1557 249.952 35.2995 250.029 35.4275C250.055 35.4687 250.083 35.5024 250.111 35.5391C250.171 35.6154 250.235 35.6821 250.306 35.7367C250.344 35.7667 250.38 35.7959 250.421 35.8191C250.502 35.864 250.585 35.894 250.673 35.9157C250.707 35.9239 250.739 35.9411 250.774 35.9464C250.667 36.5027 250.579 37.065 250.504 37.6302C250.499 37.6662 250.494 37.7021 250.49 37.738C250.418 38.2876 250.353 38.8364 250.295 39.3785C250.276 39.5582 250.278 39.7438 250.299 39.9243C250.322 40.104 250.365 40.2784 250.43 40.4357C250.558 40.7501 250.773 40.9949 251.076 41.0788C251.595 41.2218 252.288 40.8497 252.37 40.0778C252.499 38.8738 252.631 37.6669 252.868 36.4907C252.957 36.0527 253.069 35.6177 253.174 35.2636C253.693 35.0517 254.202 34.8031 254.705 34.5343C254.9 34.4295 255.09 34.3127 255.283 34.1989C255.645 33.9855 256.002 33.7586 256.353 33.5153C256.521 33.3985 256.69 33.284 256.857 33.1597C257.359 32.7853 257.852 32.3908 258.324 31.9557C258.699 31.6106 258.886 30.9585 258.792 30.3962C258.734 30.048 258.57 29.7336 258.275 29.5479Z" fill="#262625"/>
<path d="M274.021 27.6311C273.153 28.5003 272.495 29.5927 272.024 30.849C271.866 30.8782 271.703 30.9172 271.55 30.9389C270.996 31.0175 270.466 31.5551 270.51 32.3554C270.543 32.9559 270.899 33.5684 271.375 33.6829C271.257 34.946 271.334 36.2495 271.661 37.4414C271.855 38.1527 272.423 38.6064 272.994 38.3886C273.526 38.1849 273.901 37.3726 273.705 36.6575C273.626 36.37 273.566 36.0803 273.511 35.7838C273.507 35.7591 273.504 35.7336 273.5 35.7089C273.497 35.6909 273.495 35.676 273.492 35.6565C273.49 35.6393 273.487 35.6228 273.484 35.6063C273.487 35.6221 273.487 35.6228 273.489 35.6363C273.489 35.6303 273.487 35.6236 273.487 35.6191C273.472 35.4386 273.458 35.2597 273.45 35.0793C273.439 34.7768 273.446 34.4773 273.46 34.1763C273.46 34.1711 273.461 34.1561 273.463 34.1411C273.468 34.0954 273.475 34.0296 273.477 34.0093C273.496 33.8499 273.518 33.6919 273.544 33.5347C273.558 33.4531 273.58 33.3744 273.596 33.2928C274.581 33.0106 275.546 32.631 276.476 32.1069C277.209 31.6928 277.861 31.0774 278.283 30.1759C278.74 29.1981 278.689 27.938 278.062 27.0905C276.937 25.5699 275.086 26.5642 274.021 27.6311Z" fill="#262625"/>
<path d="M164.843 14.1159C164.698 14.2192 164.553 14.3195 164.408 14.4198C163.947 14.7373 163.482 15.0398 163.012 15.3243C162.916 15.3819 162.821 15.4448 162.725 15.5017C162.15 15.8394 161.569 16.1524 160.979 16.4391C160.897 16.4795 160.814 16.5155 160.731 16.5544C160.202 16.8052 159.668 17.0358 159.129 17.2455C159.032 17.2829 158.936 17.3218 158.839 17.3578C157.589 17.8242 156.313 18.1814 155.012 18.4209C154.952 18.4322 154.892 18.4419 154.832 18.4524C153.493 18.6882 152.129 18.8058 150.741 18.7938C153.138 17.6123 155.565 16.5394 158.022 15.5878C158.187 15.5234 158.354 15.4635 158.52 15.4014C159.499 15.0293 160.484 14.6819 161.474 14.3517C161.757 14.2574 162.04 14.1615 162.325 14.0702C163.488 13.6981 164.657 13.3477 165.835 13.0385C166.041 12.9838 166.247 12.9374 166.452 12.8857C166.452 12.8857 166.452 12.8865 166.451 12.8865C165.923 13.3222 165.385 13.7265 164.843 14.1159ZM171.665 11.3194C171.886 11.0768 171.987 10.7938 172 10.5116C172.036 9.66402 171.278 8.81348 170.579 9.0104C167.759 9.80403 164.924 10.4427 162.115 11.2678C161.179 11.5433 160.246 11.839 159.316 12.1685C158.274 12.5383 157.24 12.9396 156.209 13.3574C155.929 13.4705 155.652 13.5895 155.374 13.7056C154.574 14.0402 153.778 14.3869 152.986 14.747C152.743 14.8571 152.499 14.9664 152.258 15.0794C150.14 16.0648 148.047 17.1339 145.977 18.2757C145.976 18.2757 145.974 18.2764 145.974 18.2764C145.229 18.1282 144.488 17.9455 143.751 17.7449C143.622 17.7097 143.492 17.6752 143.364 17.6385C142.62 17.4267 141.88 17.1968 141.147 16.937C140.425 16.6809 139.745 16.3403 139.175 15.8476C138.451 15.2225 137.908 14.345 137.724 13.0182C137.685 12.7412 137.66 12.465 137.649 12.1909C137.638 11.9161 137.638 11.6436 137.652 11.3726C137.746 9.47609 138.432 7.67994 139.393 6.15406C140.355 4.62744 141.592 3.3711 142.791 2.55501C143.094 2.34836 143.251 2.04364 143.297 1.7172C143.319 1.55323 143.315 1.38402 143.287 1.21856C143.248 0.992447 143.154 0.784306 143.039 0.594879C142.836 0.259457 142.539 0.0266113 142.195 0.0161285C142.165 0.0153809 142.14 -0.00259018 142.11 0.000404358C141.965 0.0123863 141.815 0.0655403 141.663 0.168865C140.015 1.29193 138.479 2.98552 137.358 5.03324C136.235 7.08022 135.527 9.48208 135.531 12.0217C135.531 12.3946 135.552 12.7472 135.583 13.0871C135.594 13.1964 135.612 13.2983 135.625 13.4046C135.653 13.6269 135.684 13.8471 135.726 14.056C135.749 14.1735 135.778 14.2858 135.805 14.3989C135.85 14.5831 135.898 14.7635 135.953 14.9364C135.988 15.0473 136.025 15.1551 136.064 15.2614C136.125 15.4261 136.191 15.5841 136.261 15.7383C136.305 15.8356 136.348 15.933 136.395 16.0258C136.474 16.1808 136.56 16.3268 136.648 16.4706C136.696 16.5499 136.743 16.633 136.794 16.7094C136.907 16.8779 137.029 17.0366 137.155 17.1908C137.188 17.2312 137.217 17.2762 137.25 17.3151C137.411 17.5023 137.58 17.6775 137.757 17.8437C137.822 17.9066 137.894 17.9627 137.962 18.0219C138.078 18.123 138.194 18.224 138.315 18.3169C138.401 18.3835 138.491 18.4457 138.579 18.5078C138.689 18.5857 138.8 18.6628 138.914 18.7347C139.011 18.7975 139.111 18.8567 139.211 18.9158C139.321 18.9795 139.431 19.0409 139.542 19.1008C139.65 19.1584 139.758 19.2153 139.867 19.2692C139.974 19.3216 140.083 19.3711 140.191 19.4197C140.309 19.4729 140.425 19.5268 140.544 19.577C140.637 19.6151 140.731 19.6511 140.825 19.6878C141.377 19.9041 141.943 20.0898 142.508 20.2523C142.512 20.2538 142.516 20.2553 142.52 20.256C142.518 20.2568 142.517 20.2583 142.515 20.259C141.347 20.9508 140.185 21.6554 139.031 22.3816C137.584 23.2921 136.148 24.2302 134.722 25.1915C132.582 26.6336 130.47 28.1437 128.371 29.6823C126.271 31.2202 124.184 32.7872 122.117 34.3992C121.824 34.6283 121.674 34.9495 121.632 35.2879C121.591 35.6263 121.659 35.982 121.799 36.2807C122.081 36.8774 122.656 37.245 123.245 36.7853C124.125 36.0988 125.008 35.4174 125.895 34.7406C126.153 34.5444 126.413 34.3505 126.672 34.1544C127.307 33.6737 127.942 33.1938 128.581 32.7198C128.887 32.493 129.194 32.2691 129.5 32.0437C130.1 31.6028 130.701 31.1633 131.304 30.7298C131.625 30.4992 131.946 30.2715 132.267 30.0432C132.864 29.6179 133.464 29.1956 134.066 28.7786C134.386 28.5562 134.707 28.3361 135.028 28.116C135.646 27.693 136.267 27.2752 136.889 26.8612C137.191 26.6605 137.493 26.4599 137.796 26.2614C138.454 25.8302 139.114 25.4072 139.777 24.9879C140.049 24.8149 140.322 24.6405 140.596 24.4698C141.328 24.0131 142.065 23.5668 142.803 23.1258C143.007 23.0038 143.21 22.878 143.415 22.7575C144.358 22.2019 145.304 21.6584 146.255 21.132C146.258 21.1305 146.261 21.129 146.263 21.1275C147.17 21.2885 148.081 21.4008 148.991 21.4787C149.191 21.4959 149.391 21.5199 149.59 21.5326C149.913 21.5528 150.236 21.5595 150.56 21.5685C150.834 21.5768 151.107 21.5857 151.381 21.585C151.677 21.5843 151.974 21.5738 152.27 21.5633C152.575 21.5521 152.878 21.5371 153.182 21.5146C153.458 21.4944 153.733 21.4697 154.007 21.4405C154.341 21.4046 154.674 21.3589 155.006 21.3087C155.255 21.2713 155.503 21.2354 155.751 21.1897C156.131 21.1193 156.51 21.0332 156.889 20.9434C157.091 20.8954 157.292 20.8558 157.492 20.8018C158.072 20.6476 158.65 20.4739 159.224 20.2703C161.557 19.4414 163.751 18.2121 165.82 16.6854C166.337 16.3036 166.847 15.903 167.349 15.486C168.353 14.6519 169.326 13.7497 170.27 12.7936C170.743 12.3152 171.207 11.8233 171.665 11.3194Z" fill="#262625"/>
</svg>
