<svg width="23" height="23" viewBox="0 0 23 23" fill="none" xmlns="http://www.w3.org/2000/svg">
<path d="M16.79 3.63999L16.72 7.42997C16.71 7.94997 17.04 8.63999 17.46 8.94999L19.94 10.83C21.53 12.03 21.27 13.5 19.37 14.1L16.14 15.11C15.6 15.28 15.03 15.87 14.89 16.42L14.12 19.36C13.51 21.68 11.99 21.91 10.73 19.87L8.96999 17.02C8.64999 16.5 7.89 16.11 7.29 16.14L3.95003 16.31C1.56003 16.43 0.880024 15.05 2.44002 13.23L4.42 10.93C4.79 10.5 4.96 9.69998 4.79 9.15998L3.78005 5.92997C3.19005 4.02997 4.25004 2.97999 6.14004 3.59999L9.09005 4.56999C9.59005 4.72999 10.34 4.61998 10.76 4.30998L13.84 2.08998C15.5 0.889975 16.83 1.58999 16.79 3.63999Z"  stroke-width="1.5" stroke-linecap="round" stroke-linejoin="round"/>
<path d="M21.41 21.5L18.38 18.47"  stroke-width="1.5" stroke-linecap="round" stroke-linejoin="round"/>
</svg>
