<svg width="88" height="88" viewBox="0 0 88 88" fill="none" xmlns="http://www.w3.org/2000/svg">
<circle cx="44" cy="44" r="42" fill="#1D1D1B" stroke="#C01F33" stroke-width="4"/>
<path d="M34 47.29V37.71C34 36.38 34.77 36.06 35.71 37L38.3 39.59C38.69 39.98 39.33 39.98 39.71 39.59L43.29 36C43.68 35.61 44.32 35.61 44.7 36L48.29 39.59C48.68 39.98 49.32 39.98 49.7 39.59L52.29 37C53.23 36.06 54 36.38 54 37.71V47.3C54 50.3 52 52.3 49 52.3H39C36.24 52.29 34 50.05 34 47.29Z" fill="#FBF7EE" stroke="#FBF7EE" stroke-width="1.5" stroke-linecap="round" stroke-linejoin="round"/>
<g opacity="0.5">
<path d="M76.3351 57.0434L76.4211 57.0889L73.4129 62.682L73.3269 62.6364C73.3024 62.4657 72.7952 62.1182 71.8052 61.5939L68.7358 59.9682C67.7368 59.4391 67.159 59.212 67.0025 59.2868L66.921 59.2437L67.7618 57.6803L67.8433 57.7235C67.8678 57.8942 68.3796 58.2441 69.3785 58.7732L73.367 60.8856L74.8916 58.0509L70.9032 55.9385C69.9042 55.4094 69.3264 55.1823 69.1698 55.2571L69.0883 55.214L69.9292 53.6506L70.0107 53.6938C70.0352 53.8645 70.5469 54.2144 71.5459 54.7435L74.6153 56.3692C75.6052 56.8935 76.1785 57.1182 76.3351 57.0434Z" fill="#FBF7EE"/>
<path d="M65.4652 62.2426L64.0371 63.7198C63.7576 64.0088 63.5548 64.2627 63.4287 64.4814C63.3051 64.7024 63.2627 64.8738 63.3015 64.9954L63.1843 65.1167L62.4051 64.1279L65.9115 60.5011L65.9782 60.5645C65.9551 60.7355 66.3522 61.2099 67.1693 61.9878L69.68 64.378C70.4897 65.1489 70.9801 65.5194 71.1513 65.4894L71.2216 65.5564L67.7863 69.1098L66.762 68.3745L66.8685 68.2643C66.9926 68.2977 67.1634 68.2462 67.3807 68.1097C67.5981 67.9779 67.8466 67.7675 68.126 67.4785L69.4867 66.0711L67.8388 64.5023L66.9649 65.4063C66.406 65.9844 66.1491 66.3703 66.1942 66.5638L66.0983 66.663L65.0837 65.6971L65.1796 65.5979C65.3764 65.6346 65.7542 65.364 66.3132 64.7858L67.1871 63.8819L65.4652 62.2426Z" fill="#FBF7EE"/>
<path d="M61.414 68.52L60.8456 67.6175C60.2509 66.6733 59.8496 66.1996 59.6418 66.1963L59.5929 66.1186L61.1507 65.1524L61.1997 65.2301C61.1351 65.3902 61.4029 65.9468 62.0031 66.8996L63.8471 69.8273C64.4418 70.7716 64.8259 71.25 64.9992 71.2626L65.0509 71.3446L62.6793 72.8156C61.9976 73.2384 61.347 73.4097 60.7276 73.3295C60.1072 73.2539 59.6238 72.9412 59.2774 72.3913C58.9293 71.8386 58.856 71.2675 59.0577 70.6781C59.2564 70.0905 59.6966 69.5852 60.3784 69.1624L61.414 68.52ZM62.2061 72.0642L63.2417 71.4219L61.8873 69.2714L60.8516 69.9137C60.5354 70.1099 60.3432 70.3652 60.275 70.6797C60.2068 70.9942 60.2761 71.3156 60.4828 71.6437C60.6859 71.9662 60.9448 72.1659 61.2596 72.2429C61.5744 72.3199 61.8898 72.2603 62.2061 72.0642Z" fill="#FBF7EE"/>
<path d="M54.2362 68.9096L55.8472 68.4438L55.8632 68.5347C55.721 68.742 55.5878 69.4293 55.4637 70.5967L54.8676 76.3222L53.8564 76.6464L50.1982 72.0871C49.4612 71.1545 48.9814 70.655 48.7588 70.5885L48.7231 70.5033L50.5805 69.9664L50.6162 70.0515C50.5149 70.1798 50.7145 70.5747 51.2152 71.2362L51.5238 71.6137L54.3419 70.799L54.3833 70.3574C54.4551 69.534 54.4147 69.0807 54.262 68.9976L54.2362 68.9096ZM53.99 74.8257L54.2777 71.7458L52.0804 72.381L53.99 74.8257Z" fill="#FBF7EE"/>
<path d="M47.0544 78L45.3023 77.9003L43.3594 72.7402L40.8451 77.6467L39.1135 77.5482L39.119 77.4516C39.2613 77.3611 39.3459 76.7572 39.3728 75.64L39.4439 72.1859C39.4715 71.0551 39.4163 70.4382 39.2784 70.3351L39.2837 70.2436L41.0255 70.3427L41.0202 70.4342C40.8713 70.521 40.783 71.1297 40.7554 72.2605L40.6766 76.0253L43.1406 70.9221L44.0235 70.9417L45.8926 76.3119L46.2274 72.6534C46.3333 71.4727 46.3224 70.8311 46.1947 70.7286L46.1999 70.6371L47.7318 70.7243L47.7265 70.8158C47.5739 70.9057 47.4448 71.5394 47.3391 72.7167L47.0217 76.0752C46.9195 77.1915 46.9322 77.8009 47.06 77.9034L47.0544 78Z" fill="#FBF7EE"/>
<path d="M36.4179 70.2442C36.7135 71.1099 36.6418 72.0643 36.2028 73.1074C35.7638 74.1506 35.1301 74.8721 34.3019 75.272C33.4705 75.6707 32.5876 75.6763 31.6532 75.2891C30.7219 74.9031 30.1085 74.2773 29.8129 73.4117C29.5173 72.546 29.589 71.5916 30.028 70.5485C30.4671 69.5053 31.1007 68.7838 31.9289 68.3838C32.7571 67.9839 33.6369 67.9769 34.5681 68.3629C35.5026 68.7501 36.1191 69.3772 36.4179 70.2442ZM34.8959 72.5658C35.2294 71.7733 35.3345 71.07 35.211 70.4559C35.0844 69.8406 34.7528 69.4217 34.2161 69.1993C33.6795 68.9769 33.1499 69.037 32.6276 69.3797C32.1007 69.7243 31.6698 70.2944 31.335 71.0901C30.9988 71.8889 30.8924 72.5953 31.0158 73.2094C31.1361 73.8221 31.4646 74.2397 32.0013 74.4621C32.5411 74.6858 33.0744 74.6254 33.6013 74.2808C34.1281 73.9363 34.5597 73.3646 34.8959 72.5658Z" fill="#FBF7EE"/>
<path d="M23.8509 65.0949L24.6967 64.2135C25.4777 63.3998 25.8528 62.9081 25.822 62.7384L25.8857 62.672L27.1565 63.8731L27.0928 63.9394C26.9276 63.9098 26.4509 64.3056 25.6629 65.1266L24.8064 66.019L25.3614 66.7404L29.0251 65.7656L29.1594 65.766L30.3746 66.9144L30.3034 66.9737C30.0939 66.9163 29.3361 67.0463 28.03 67.3637L25.5859 68.0496L25.4061 69.5955C25.2151 70.9808 25.1561 71.7783 25.229 71.9878L25.1696 72.0793L23.8392 70.822L23.8987 70.7306C24.0312 70.7057 24.2116 70.023 24.44 68.6824L24.5635 67.3576L24.1057 66.7491L23.2634 67.6268C22.4825 68.4405 22.1109 68.9285 22.1488 69.0909L22.0816 69.1609L20.8107 67.9599L20.8779 67.8898C21.0503 67.912 21.5234 67.52 22.2973 66.7137L23.1396 65.836L22.5011 65.4085L21.1699 65.592C19.8317 65.8837 19.1533 66.0958 19.1348 66.2283L19.0456 66.2917L17.7116 65.031L17.8008 64.9676C17.9129 65.0033 18.1512 64.9987 18.5155 64.9539C18.8798 64.909 19.4413 64.8162 20.2 64.6754L21.7655 64.425L22.3296 61.9765C22.5806 60.6665 22.672 59.9067 22.6039 59.6971L22.6602 59.6237L23.8753 60.7721L23.8822 60.9052L23.0797 64.5841L23.8509 65.0949Z" fill="#FBF7EE"/>
<path d="M14.4791 55.3467L18.8004 53.3369L18.4302 52.553L20.7534 51.4725L21.1955 52.4085C20.2481 53.0104 19.7889 53.3421 19.8179 53.4035L22.2091 58.4663L22.1255 58.5052C21.973 58.4224 21.3841 58.6195 20.3588 59.0963L17.2084 60.5615C16.1923 61.0341 15.6676 61.355 15.6342 61.5242L15.5459 61.5653L14.7881 59.9607L14.8763 59.9196C15.0288 60.0024 15.6131 59.8076 16.6291 59.335L20.732 57.4268L19.3797 54.5634L15.2767 56.4716C14.2607 56.9442 13.736 57.2651 13.7025 57.4343L13.6143 57.4754L12.8564 55.8708L12.9447 55.8297C13.0848 55.9183 13.5962 55.7573 14.4791 55.3467Z" fill="#FBF7EE"/>
<path d="M18.6345 49.3388L18.8391 50.9916L18.7461 50.9926C18.5628 50.82 17.9005 50.5792 16.7593 50.2703L11.1601 48.7671L11 47.7246L16.1223 44.8737C17.1682 44.3015 17.7421 43.9118 17.844 43.7044L17.9344 43.6831L18.1703 45.5886L18.0799 45.6098C17.9685 45.49 17.5437 45.6222 16.8054 46.0063L16.3803 46.248L16.7382 49.139L17.1707 49.2504C17.9782 49.453 18.4356 49.4862 18.5428 49.35L18.6345 49.3388ZM12.7896 48.1478L15.8068 48.9242L15.5278 46.67L12.7896 48.1478Z" fill="#FBF7EE"/>
<path d="M13.9364 30.1747L13.8517 30.1268L17.0198 24.6213L17.1045 24.6693C17.124 24.8407 17.621 25.2024 18.5955 25.7546L21.6168 27.4667C22.6001 28.0239 23.1711 28.2673 23.3298 28.1969L23.41 28.2424L22.5245 29.7813L22.4443 29.7358C22.4247 29.5644 21.9232 29.2001 20.9399 28.6429L17.014 26.4183L15.4083 29.2086L19.3342 31.4332C20.3175 31.9904 20.8886 32.2339 21.0472 32.1635L21.1274 32.209L20.2419 33.7478L20.1617 33.7024C20.1421 33.531 19.6407 33.1667 18.6573 32.6095L15.636 30.8974C14.6616 30.3453 14.095 30.1044 13.9364 30.1747Z" fill="#FBF7EE"/>
<path d="M24.932 25.2823L26.4013 23.8453C26.6888 23.5641 26.8986 23.316 27.0308 23.1009C27.1607 22.8834 27.2079 22.7133 27.1725 22.5906L27.2931 22.4726L28.0441 23.4827L24.4367 27.0107L24.3719 26.9454C24.3998 26.7752 24.0163 26.2899 23.2214 25.4896L20.7792 23.0306C19.9915 22.2376 19.5117 21.8536 19.3397 21.8788L19.2713 21.8099L22.8055 18.3533L23.8087 19.1167L23.6991 19.224C23.576 19.1871 23.4039 19.2338 23.1828 19.3643C22.9617 19.4899 22.7074 19.6933 22.4199 19.9745L21.0201 21.3436L22.6231 22.9575L23.5222 22.0782C24.0972 21.5158 24.3648 21.1372 24.3251 20.9425L24.4238 20.846L25.4108 21.8397L25.3121 21.9362C25.1165 21.894 24.7312 22.1541 24.1561 22.7165L23.257 23.5958L24.932 25.2823Z" fill="#FBF7EE"/>
<path d="M29.1017 19.1297L29.6438 20.048C30.211 21.0088 30.5984 21.4938 30.806 21.503L30.8527 21.582L29.2675 22.5035L29.2208 22.4244C29.29 22.2662 29.0384 21.7023 28.466 20.7327L26.7074 17.7536C26.1403 16.7929 25.7702 16.3037 25.5973 16.2862L25.5481 16.2027L27.9612 14.7999C28.6549 14.3967 29.3102 14.244 29.927 14.3418C30.545 14.435 31.0191 14.7614 31.3494 15.3209C31.6814 15.8833 31.7381 16.4562 31.5195 17.0397C31.3039 17.6214 30.8492 18.1139 30.1555 18.5171L29.1017 19.1297ZM28.4125 15.5645L27.3587 16.177L28.6504 18.3652L29.7042 17.7526C30.026 17.5656 30.2255 17.3158 30.3027 17.0034C30.38 16.691 30.32 16.3678 30.1229 16.0338C29.9292 15.7058 29.6762 15.4988 29.3638 15.4128C29.0514 15.3269 28.7343 15.3774 28.4125 15.5645Z" fill="#FBF7EE"/>
<path d="M36.257 18.9176L34.6325 19.3348L34.6193 19.2436C34.7678 19.0406 34.9218 18.3576 35.0814 17.1945L35.8516 11.4894L36.8722 11.1957L40.3899 15.8627C41.0981 16.8169 41.5625 17.3306 41.783 17.4037L41.8161 17.4899L39.9432 17.9709L39.9101 17.8848C40.0153 17.7596 39.8277 17.3589 39.3475 16.6827L39.0505 16.2961L36.2089 17.0259L36.154 17.466C36.0572 18.2869 36.0838 18.7412 36.2339 18.8289L36.257 18.9176ZM36.6832 13.0116L36.3018 16.0815L38.5175 15.5125L36.6832 13.0116Z" fill="#FBF7EE"/>
<path d="M43.9364 10L45.6845 10.1543L47.463 15.3724L50.1314 10.5467L51.8591 10.6992L51.8504 10.7956C51.7054 10.8816 51.6017 11.4825 51.5395 12.5983L51.3591 16.0486C51.2956 17.1779 51.3312 17.7962 51.4659 17.9035L51.4577 17.9948L49.7198 17.8415L49.728 17.7502C49.8796 17.6681 49.9871 17.0624 50.0505 15.9331L50.2485 12.1725L47.6241 17.1964L46.7423 17.1493L45.0441 11.7235L44.5937 15.3697C44.4505 16.5466 44.441 17.1882 44.5655 17.2946L44.5573 17.3859L43.029 17.251L43.0371 17.1597C43.1925 17.0746 43.3416 16.4453 43.4845 15.2718L43.9081 11.9249C44.0456 10.8123 44.0522 10.2028 43.9278 10.0964L43.9364 10Z" fill="#FBF7EE"/>
<path d="M54.154 18.0095C53.8852 17.1353 53.9864 16.1835 54.4574 15.1542C54.9284 14.1249 55.584 13.4229 56.4242 13.0484C57.2675 12.6752 58.1501 12.6964 59.0722 13.1118C59.9911 13.5259 60.5849 14.1701 60.8536 15.0443C61.1224 15.9185 61.0212 16.8703 60.5502 17.8997C60.0792 18.929 59.4236 19.6309 58.5834 20.0055C57.7432 20.38 56.8637 20.3603 55.9448 19.9462C55.0228 19.5307 54.4258 18.8852 54.154 18.0095ZM55.747 15.7353C55.3891 16.5173 55.2624 17.2171 55.3668 17.8346C55.4744 18.4535 55.7929 18.8823 56.3224 19.1209C56.852 19.3595 57.3831 19.3155 57.9158 18.9888C58.4531 18.6604 58.9014 18.1037 59.2606 17.3186C59.6213 16.5303 59.7494 15.8275 59.645 15.21C59.5437 14.5939 59.2283 14.1665 58.6987 13.9279C58.1661 13.6879 57.6311 13.732 57.0939 14.0604C56.5566 14.3888 56.1077 14.9471 55.747 15.7353Z" fill="#FBF7EE"/>
<path d="M66.6244 23.5288L65.754 24.3863C64.9504 25.1779 64.5616 25.659 64.5876 25.8296L64.5221 25.8941L63.2856 24.6582L63.3512 24.5936C63.5155 24.6278 64.0032 24.2455 64.814 23.4467L65.6953 22.5785L65.161 21.842L61.4712 22.7145L61.3369 22.7104L60.1547 21.5287L60.2275 21.4713C60.4353 21.5345 61.1965 21.4256 62.5111 21.1447L64.9735 20.527L65.1969 18.9867C65.4269 17.6072 65.5084 16.8117 65.4415 16.6003L65.5035 16.5105L66.7978 17.8042L66.7358 17.894C66.6026 17.9151 66.403 18.5926 66.1369 19.9263L65.976 21.2472L66.4164 21.8681L67.2832 21.0142C68.0868 20.2226 68.4719 19.7451 68.4387 19.5817L68.5079 19.5135L69.7443 20.7495L69.6751 20.8176C69.5035 20.7906 69.0195 21.1693 68.2231 21.9538L67.3564 22.8077L67.9825 23.2529L69.3184 23.1064C70.6643 22.852 71.3484 22.6589 71.3707 22.5269L71.4616 22.466L72.7595 23.7634L72.6686 23.8243C72.5575 23.7855 72.3192 23.7834 71.9538 23.8181C71.5884 23.8528 71.0245 23.93 70.262 24.0496L68.6901 24.2564L68.057 26.6883C67.7692 27.9907 67.6564 28.7477 67.7185 28.9591L67.6602 29.0309L66.478 27.8492L66.4748 27.716L67.3809 24.0609L66.6244 23.5288Z" fill="#FBF7EE"/>
<path d="M75.7433 33.566L71.3619 35.4433L71.7078 36.238L69.3522 37.2474L68.9392 36.2983C69.9048 35.7256 70.374 35.4081 70.3469 35.3457L68.1133 30.2126L68.1981 30.1762C68.3479 30.2636 68.9426 30.0846 69.9822 29.6392L73.1764 28.2705C74.2066 27.8291 74.741 27.5243 74.7796 27.3562L74.8691 27.3178L75.577 28.9447L75.4875 28.9831C75.3377 28.8957 74.7477 29.0727 73.7175 29.5141L69.5576 31.2965L70.8208 34.1997L74.9808 32.4173C76.011 31.9759 76.5454 31.6711 76.584 31.5029L76.6735 31.4646L77.3814 33.0915L77.2919 33.1298C77.1546 33.037 76.6384 33.1824 75.7433 33.566Z" fill="#FBF7EE"/>
<path d="M71.4171 39.4622L71.2621 37.8041L71.355 37.8058C71.5331 37.9837 72.1879 38.2439 73.3194 38.5863L78.8712 40.2536L79 41.3004L73.7947 43.9993C72.7322 44.5404 72.1469 44.9131 72.0388 45.1174L71.9478 45.136L71.769 43.2244L71.86 43.2058C71.9678 43.3289 72.3963 43.2093 73.1458 42.847L73.5779 42.618L73.3066 39.7177L72.8776 39.5936C72.0765 39.3673 71.6204 39.3207 71.5091 39.4537L71.4171 39.4622ZM77.2239 40.8247L74.2312 39.9599L74.4427 42.2213L77.2239 40.8247Z" fill="#FBF7EE"/>
</g>
</svg>
