<svg width="128" height="128" viewBox="0 0 128 128" fill="none" xmlns="http://www.w3.org/2000/svg">
<rect x="8" y="99" width="112" height="24" rx="12" fill="#BCC7D9" stroke="#193651" stroke-width="4"/>
<circle cx="31" cy="111" r="6" fill="#78818F" stroke="#193651" stroke-width="2"/>
<circle cx="53" cy="111" r="6" fill="#78818F" stroke="#193651" stroke-width="2"/>
<circle cx="75" cy="111" r="6" fill="#78818F" stroke="#193651" stroke-width="2"/>
<circle cx="97" cy="111" r="6" fill="#78818F" stroke="#193651" stroke-width="2"/>
<path d="M40.5001 64.4966V91.1666C40.5001 92.4043 40.0084 93.5913 39.1332 94.4665C38.2581 95.3416 37.0711 95.8333 35.8334 95.8333H21.8334C20.5957 95.8333 19.4088 95.3416 18.5336 94.4665C17.6584 93.5913 17.1667 92.4043 17.1667 91.1666V64.4966C17.1665 62.9646 17.4683 61.4475 18.0548 60.0322C18.6414 58.6169 19.5012 57.3311 20.5851 56.2483L22.3584 54.475C22.9012 53.9298 23.3012 53.2592 23.523 52.5225C23.7448 51.7859 23.7816 51.0059 23.6301 50.2516C23.2837 48.7452 23.0728 47.2107 23.0001 45.6666C23.2475 42.7385 23.8348 39.849 24.7501 37.0566C27.4449 37.3307 30.1593 37.3542 32.8584 37.1266C33.7737 40.2961 34.3793 43.5469 34.6667 46.8333C34.6238 47.9707 34.4635 49.1005 34.1884 50.205C34.0035 50.9809 34.02 51.7913 34.2364 52.5591C34.4529 53.3269 34.8621 54.0265 35.4251 54.5916L37.0817 56.2483C38.1656 57.3311 39.0254 58.6169 39.612 60.0322C40.1985 61.4475 40.5003 62.9646 40.5001 64.4966Z" fill="#BCD9D0"/>
<path d="M17.1667 66.6667H40.5001V83H17.1667V66.6667ZM34.6667 30.5V31.6667C34.6667 31.9761 34.5438 32.2729 34.325 32.4916C34.1062 32.7104 33.8095 32.8334 33.5001 32.8334H24.1667C23.8573 32.8334 23.5606 32.7104 23.3418 32.4916C23.123 32.2729 23.0001 31.9761 23.0001 31.6667V30.5C23.0019 29.8817 23.2484 29.2893 23.6855 28.8521C24.1227 28.415 24.7151 28.1685 25.3334 28.1667H32.3334C32.9517 28.1685 33.5441 28.415 33.9813 28.8521C34.4185 29.2893 34.6649 29.8817 34.6667 30.5Z" fill="#FDBF5E"/>
<path d="M32.3334 32.8333L33.1372 36.0498C33.1803 36.2218 33.1837 36.4014 33.1469 36.5749C33.1102 36.7484 33.0344 36.9113 32.9253 37.0511C32.8162 37.1909 32.6767 37.304 32.5173 37.3818C32.3579 37.4595 32.1829 37.5 32.0056 37.5H25.6612C25.4839 37.5 25.3089 37.4595 25.1495 37.3818C24.9902 37.304 24.8506 37.1909 24.7415 37.0511C24.6324 36.9113 24.5566 36.7484 24.5199 36.5749C24.4832 36.4014 24.4865 36.2218 24.5296 36.0498L25.3334 32.8333" fill="#BCD9D0"/>
<path d="M37.9101 55.42L36.2534 53.7633C35.8288 53.341 35.52 52.8165 35.3566 52.2404C35.1931 51.6642 35.1806 51.0557 35.3201 50.4733C35.625 49.2827 35.7971 48.0619 35.8334 46.8333C35.5785 43.6149 35.004 40.4297 34.1184 37.325C34.3437 36.8359 34.3971 36.285 34.2701 35.7617L33.8151 33.965C34.3732 33.8922 34.8857 33.6189 35.2571 33.196C35.6285 32.7731 35.8333 32.2295 35.8334 31.6667V30.5C35.8306 29.5726 35.461 28.684 34.8052 28.0282C34.1494 27.3724 33.2608 27.0028 32.3334 27H25.3334C24.406 27.0028 23.5174 27.3724 22.8616 28.0282C22.2058 28.684 21.8362 29.5726 21.8334 30.5V31.6667C21.8335 32.2295 22.0383 32.7731 22.4097 33.196C22.7811 33.6189 23.2936 33.8922 23.8517 33.965L23.3967 35.7733C23.2847 36.2434 23.3214 36.7367 23.5017 37.185C22.609 39.9355 22.0489 42.783 21.8334 45.6667C21.9031 47.2894 22.1218 48.9023 22.4867 50.485C22.6006 51.0518 22.5729 51.638 22.406 52.1915C22.2392 52.7451 21.9383 53.2489 21.5301 53.6583L19.7567 55.42C18.5611 56.6091 17.6134 58.0237 16.9686 59.5818C16.3237 61.1398 15.9945 62.8104 16.0001 64.4967V91.1667C16.0001 92.7138 16.6147 94.1975 17.7086 95.2915C18.8026 96.3854 20.2863 97 21.8334 97H35.8334C37.3805 97 38.8642 96.3854 39.9582 95.2915C41.0522 94.1975 41.6667 92.7138 41.6667 91.1667V64.4967C41.6723 62.8104 41.3431 61.1398 40.6982 59.5818C40.0534 58.0237 39.1057 56.6091 37.9101 55.42ZM24.1667 30.5C24.1667 30.1906 24.2897 29.8938 24.5084 29.675C24.7272 29.4562 25.024 29.3333 25.3334 29.3333H32.3334C32.6428 29.3333 32.9396 29.4562 33.1584 29.675C33.3772 29.8938 33.5001 30.1906 33.5001 30.5V31.6667H24.1667V30.5ZM32.0067 36.3333H25.6601L26.2434 34H31.4234L32.0067 36.3333ZM39.3334 91.1667C39.3306 92.0941 38.961 92.9827 38.3052 93.6385C37.6494 94.2943 36.7608 94.6639 35.8334 94.6667H21.8334C20.906 94.6639 20.0174 94.2943 19.3616 93.6385C18.7058 92.9827 18.3362 92.0941 18.3334 91.1667V84.1667H39.3334V91.1667ZM39.3334 81.8333H18.3334V67.8333H39.3334V81.8333ZM39.3334 65.5H18.3334V64.4967C18.3309 63.1177 18.6018 61.7519 19.1305 60.4783C19.6592 59.2047 20.4351 58.0485 21.4134 57.0767L23.1751 55.3033C23.8572 54.6229 24.3602 53.7841 24.6391 52.8619C24.918 51.9397 24.9642 50.9627 24.7734 50.0183C24.4429 48.5886 24.2399 47.1323 24.1667 45.6667C24.34 43.2814 24.7903 40.9245 25.5084 38.6433C25.5579 38.6568 25.6088 38.6646 25.6601 38.6667H32.0417C32.8043 41.3322 33.2929 44.0686 33.5001 46.8333C33.4649 47.8854 33.3123 48.9302 33.0451 49.9483C32.8139 50.9151 32.8352 51.9251 33.1069 52.8812C33.3787 53.8374 33.8917 54.7076 34.5967 55.4083L36.2534 57.0767C37.2317 58.0485 38.0076 59.2047 38.5363 60.4783C39.065 61.7519 39.3359 63.1177 39.3334 64.4967V65.5Z" fill="#193651"/>
<path d="M110.5 64.4966V91.1666C110.5 92.4043 110.008 93.5913 109.133 94.4665C108.258 95.3416 107.071 95.8333 105.833 95.8333H91.8334C90.5957 95.8333 89.4088 95.3416 88.5336 94.4665C87.6584 93.5913 87.1667 92.4043 87.1667 91.1666V64.4966C87.1665 62.9646 87.4683 61.4475 88.0548 60.0322C88.6414 58.6169 89.5012 57.3311 90.5851 56.2483L92.3584 54.475C92.9012 53.9298 93.3012 53.2592 93.523 52.5225C93.7448 51.7859 93.7816 51.0059 93.6301 50.2516C93.2837 48.7452 93.0728 47.2107 93.0001 45.6666C93.2475 42.7385 93.8348 39.849 94.7501 37.0566C97.4449 37.3307 100.159 37.3542 102.858 37.1266C103.774 40.2961 104.379 43.5469 104.667 46.8333C104.624 47.9707 104.464 49.1005 104.188 50.205C104.003 50.9809 104.02 51.7913 104.236 52.5591C104.453 53.3269 104.862 54.0265 105.425 54.5916L107.082 56.2483C108.166 57.3311 109.025 58.6169 109.612 60.0322C110.199 61.4475 110.5 62.9646 110.5 64.4966Z" fill="#BCD9D0"/>
<path d="M87.1667 66.6667H110.5V83H87.1667V66.6667ZM104.667 30.5V31.6667C104.667 31.9761 104.544 32.2729 104.325 32.4916C104.106 32.7104 103.81 32.8334 103.5 32.8334H94.1667C93.8573 32.8334 93.5606 32.7104 93.3418 32.4916C93.123 32.2729 93.0001 31.9761 93.0001 31.6667V30.5C93.0019 29.8817 93.2484 29.2893 93.6855 28.8521C94.1227 28.415 94.7151 28.1685 95.3334 28.1667H102.333C102.952 28.1685 103.544 28.415 103.981 28.8521C104.418 29.2893 104.665 29.8817 104.667 30.5Z" fill="#FDBF5E"/>
<path d="M102.333 32.8333L103.137 36.0498C103.18 36.2218 103.184 36.4014 103.147 36.5749C103.11 36.7484 103.034 36.9113 102.925 37.0511C102.816 37.1909 102.677 37.304 102.517 37.3818C102.358 37.4595 102.183 37.5 102.006 37.5H95.6612C95.4839 37.5 95.3089 37.4595 95.1495 37.3818C94.9902 37.304 94.8506 37.1909 94.7415 37.0511C94.6324 36.9113 94.5566 36.7484 94.5199 36.5749C94.4832 36.4014 94.4865 36.2218 94.5296 36.0498L95.3334 32.8333" fill="#BCD9D0"/>
<path d="M107.91 55.42L106.253 53.7633C105.829 53.341 105.52 52.8165 105.357 52.2404C105.193 51.6642 105.181 51.0557 105.32 50.4733C105.625 49.2827 105.797 48.0619 105.833 46.8333C105.578 43.6149 105.004 40.4297 104.118 37.325C104.344 36.8359 104.397 36.285 104.27 35.7617L103.815 33.965C104.373 33.8922 104.886 33.6189 105.257 33.196C105.628 32.7731 105.833 32.2295 105.833 31.6667V30.5C105.831 29.5726 105.461 28.684 104.805 28.0282C104.149 27.3724 103.261 27.0028 102.333 27H95.3334C94.406 27.0028 93.5174 27.3724 92.8616 28.0282C92.2058 28.684 91.8362 29.5726 91.8334 30.5V31.6667C91.8335 32.2295 92.0383 32.7731 92.4097 33.196C92.7811 33.6189 93.2936 33.8922 93.8517 33.965L93.3967 35.7733C93.2847 36.2434 93.3214 36.7367 93.5017 37.185C92.609 39.9355 92.0489 42.783 91.8334 45.6667C91.9031 47.2894 92.1218 48.9023 92.4867 50.485C92.6006 51.0518 92.5729 51.638 92.406 52.1915C92.2392 52.7451 91.9383 53.2489 91.5301 53.6583L89.7567 55.42C88.5611 56.6091 87.6134 58.0237 86.9686 59.5818C86.3237 61.1398 85.9945 62.8104 86.0001 64.4967V91.1667C86.0001 92.7138 86.6147 94.1975 87.7086 95.2915C88.8026 96.3854 90.2863 97 91.8334 97H105.833C107.38 97 108.864 96.3854 109.958 95.2915C111.052 94.1975 111.667 92.7138 111.667 91.1667V64.4967C111.672 62.8104 111.343 61.1398 110.698 59.5818C110.053 58.0237 109.106 56.6091 107.91 55.42ZM94.1667 30.5C94.1667 30.1906 94.2897 29.8938 94.5084 29.675C94.7272 29.4562 95.024 29.3333 95.3334 29.3333H102.333C102.643 29.3333 102.94 29.4562 103.158 29.675C103.377 29.8938 103.5 30.1906 103.5 30.5V31.6667H94.1667V30.5ZM102.007 36.3333H95.6601L96.2434 34H101.423L102.007 36.3333ZM109.333 91.1667C109.331 92.0941 108.961 92.9827 108.305 93.6385C107.649 94.2943 106.761 94.6639 105.833 94.6667H91.8334C90.906 94.6639 90.0174 94.2943 89.3616 93.6385C88.7058 92.9827 88.3362 92.0941 88.3334 91.1667V84.1667H109.333V91.1667ZM109.333 81.8333H88.3334V67.8333H109.333V81.8333ZM109.333 65.5H88.3334V64.4967C88.3309 63.1177 88.6018 61.7519 89.1305 60.4783C89.6592 59.2047 90.4351 58.0485 91.4134 57.0767L93.1751 55.3033C93.8572 54.6229 94.3602 53.7841 94.6391 52.8619C94.918 51.9397 94.9642 50.9627 94.7734 50.0183C94.4429 48.5886 94.2399 47.1323 94.1667 45.6667C94.34 43.2814 94.7903 40.9245 95.5084 38.6433C95.5579 38.6568 95.6088 38.6646 95.6601 38.6667H102.042C102.804 41.3322 103.293 44.0686 103.5 46.8333C103.465 47.8854 103.312 48.9302 103.045 49.9483C102.814 50.9151 102.835 51.9251 103.107 52.8812C103.379 53.8374 103.892 54.7076 104.597 55.4083L106.253 57.0767C107.232 58.0485 108.008 59.2047 108.536 60.4783C109.065 61.7519 109.336 63.1177 109.333 64.4967V65.5Z" fill="#193651"/>
<path d="M75.5001 64.4966V91.1666C75.5001 92.4043 75.0084 93.5913 74.1332 94.4665C73.2581 95.3416 72.0711 95.8333 70.8334 95.8333H56.8334C55.5957 95.8333 54.4088 95.3416 53.5336 94.4665C52.6584 93.5913 52.1667 92.4043 52.1667 91.1666V64.4966C52.1665 62.9646 52.4683 61.4475 53.0548 60.0322C53.6414 58.6169 54.5012 57.3311 55.5851 56.2483L57.3584 54.475C57.9012 53.9298 58.3012 53.2592 58.523 52.5225C58.7448 51.7859 58.7816 51.0059 58.6301 50.2516C58.2837 48.7452 58.0728 47.2107 58.0001 45.6666C58.2475 42.7385 58.8348 39.849 59.7501 37.0566C62.4449 37.3307 65.1593 37.3542 67.8584 37.1266C68.7737 40.2961 69.3793 43.5469 69.6667 46.8333C69.6238 47.9707 69.4635 49.1005 69.1884 50.205C69.0035 50.9809 69.02 51.7913 69.2364 52.5591C69.4529 53.3269 69.8621 54.0265 70.4251 54.5916L72.0817 56.2483C73.1656 57.3311 74.0254 58.6169 74.612 60.0322C75.1985 61.4475 75.5003 62.9646 75.5001 64.4966Z" fill="#BCD9D0"/>
<path d="M52.1667 66.6667H75.5001V83H52.1667V66.6667ZM69.6667 30.5V31.6667C69.6667 31.9761 69.5438 32.2729 69.325 32.4916C69.1062 32.7104 68.8095 32.8334 68.5001 32.8334H59.1667C58.8573 32.8334 58.5606 32.7104 58.3418 32.4916C58.123 32.2729 58.0001 31.9761 58.0001 31.6667V30.5C58.0019 29.8817 58.2484 29.2893 58.6855 28.8521C59.1227 28.415 59.7151 28.1685 60.3334 28.1667H67.3334C67.9517 28.1685 68.5441 28.415 68.9813 28.8521C69.4185 29.2893 69.6649 29.8817 69.6667 30.5Z" fill="#FDBF5E"/>
<path d="M67.3334 32.8333L68.1372 36.0498C68.1803 36.2218 68.1837 36.4014 68.1469 36.5749C68.1102 36.7484 68.0344 36.9113 67.9253 37.0511C67.8162 37.1909 67.6767 37.304 67.5173 37.3818C67.3579 37.4595 67.1829 37.5 67.0056 37.5H60.6612C60.4839 37.5 60.3089 37.4595 60.1495 37.3818C59.9902 37.304 59.8506 37.1909 59.7415 37.0511C59.6324 36.9113 59.5566 36.7484 59.5199 36.5749C59.4832 36.4014 59.4865 36.2218 59.5296 36.0498L60.3334 32.8333" fill="#BCD9D0"/>
<path d="M72.9101 55.42L71.2534 53.7633C70.8288 53.341 70.52 52.8165 70.3566 52.2404C70.1931 51.6642 70.1806 51.0557 70.3201 50.4733C70.625 49.2827 70.7971 48.0619 70.8334 46.8333C70.5785 43.6149 70.004 40.4297 69.1184 37.325C69.3437 36.8359 69.3971 36.285 69.2701 35.7617L68.8151 33.965C69.3732 33.8922 69.8857 33.6189 70.2571 33.196C70.6285 32.7731 70.8333 32.2295 70.8334 31.6667V30.5C70.8306 29.5726 70.461 28.684 69.8052 28.0282C69.1494 27.3724 68.2608 27.0028 67.3334 27H60.3334C59.406 27.0028 58.5174 27.3724 57.8616 28.0282C57.2058 28.684 56.8362 29.5726 56.8334 30.5V31.6667C56.8335 32.2295 57.0383 32.7731 57.4097 33.196C57.7811 33.6189 58.2936 33.8922 58.8517 33.965L58.3967 35.7733C58.2847 36.2434 58.3214 36.7367 58.5017 37.185C57.609 39.9355 57.0489 42.783 56.8334 45.6667C56.9031 47.2894 57.1218 48.9023 57.4867 50.485C57.6006 51.0518 57.5729 51.638 57.406 52.1915C57.2392 52.7451 56.9383 53.2489 56.5301 53.6583L54.7567 55.42C53.5611 56.6091 52.6134 58.0237 51.9686 59.5818C51.3237 61.1398 50.9945 62.8104 51.0001 64.4967V91.1667C51.0001 92.7138 51.6147 94.1975 52.7086 95.2915C53.8026 96.3854 55.2863 97 56.8334 97H70.8334C72.3805 97 73.8642 96.3854 74.9582 95.2915C76.0522 94.1975 76.6667 92.7138 76.6667 91.1667V64.4967C76.6723 62.8104 76.3431 61.1398 75.6982 59.5818C75.0534 58.0237 74.1057 56.6091 72.9101 55.42ZM59.1667 30.5C59.1667 30.1906 59.2897 29.8938 59.5084 29.675C59.7272 29.4562 60.024 29.3333 60.3334 29.3333H67.3334C67.6428 29.3333 67.9396 29.4562 68.1584 29.675C68.3772 29.8938 68.5001 30.1906 68.5001 30.5V31.6667H59.1667V30.5ZM67.0067 36.3333H60.6601L61.2434 34H66.4234L67.0067 36.3333ZM74.3334 91.1667C74.3306 92.0941 73.961 92.9827 73.3052 93.6385C72.6494 94.2943 71.7608 94.6639 70.8334 94.6667H56.8334C55.906 94.6639 55.0174 94.2943 54.3616 93.6385C53.7058 92.9827 53.3362 92.0941 53.3334 91.1667V84.1667H74.3334V91.1667ZM74.3334 81.8333H53.3334V67.8333H74.3334V81.8333ZM74.3334 65.5H53.3334V64.4967C53.3309 63.1177 53.6018 61.7519 54.1305 60.4783C54.6592 59.2047 55.4351 58.0485 56.4134 57.0767L58.1751 55.3033C58.8572 54.6229 59.3602 53.7841 59.6391 52.8619C59.918 51.9397 59.9642 50.9627 59.7734 50.0183C59.4429 48.5886 59.2399 47.1323 59.1667 45.6667C59.34 43.2814 59.7903 40.9245 60.5084 38.6433C60.5579 38.6568 60.6088 38.6646 60.6601 38.6667H67.0417C67.8043 41.3322 68.2929 44.0686 68.5001 46.8333C68.4649 47.8854 68.3123 48.9302 68.0451 49.9483C67.8139 50.9151 67.8352 51.9251 68.1069 52.8812C68.3787 53.8374 68.8917 54.7076 69.5967 55.4083L71.2534 57.0767C72.2317 58.0485 73.0076 59.2047 73.5363 60.4783C74.065 61.7519 74.3359 63.1177 74.3334 64.4967V65.5Z" fill="#193651"/>
</svg>
