<svg width="128" height="128" viewBox="0 0 128 128" fill="none" xmlns="http://www.w3.org/2000/svg">
<rect x="15" y="34" width="99" height="79" fill="#F3E8D4"/>
<rect x="45" y="57" width="37" height="55" fill="#CC8662"/>
<rect x="8" y="112" width="112" height="4" fill="#193651"/>
<rect x="16" y="118" width="96" height="4" fill="#193651"/>
<rect x="12" y="36" width="4" height="76" fill="#193651"/>
<rect x="20" y="87" width="4" height="25" fill="#CC8662"/>
<rect x="104" y="87" width="4" height="25" fill="#CC8662"/>
<rect x="112" y="35" width="4" height="78" fill="#193651"/>
<mask id="path-9-inside-1_391_3320" fill="white">
<path fill-rule="evenodd" clip-rule="evenodd" d="M120 25.5V29.8V30.4V31V35.4V36H117H115H112H108.804H19.1959H16H13H11H8V35.4V31V30.4V29.8V25.5V24.8H8.04398C9.21977 15.4595 33.8223 8 64 8C94.1777 8 118.78 15.4595 119.956 24.8H120V25.5Z"/>
</mask>
<path fill-rule="evenodd" clip-rule="evenodd" d="M120 25.5V29.8V30.4V31V35.4V36H117H115H112H108.804H19.1959H16H13H11H8V35.4V31V30.4V29.8V25.5V24.8H8.04398C9.21977 15.4595 33.8223 8 64 8C94.1777 8 118.78 15.4595 119.956 24.8H120V25.5Z" fill="#CC8662"/>
<path d="M120 36V40H124V36H120ZM8 36H4V40H8V36ZM8 24.8V20.8H4V24.8H8ZM8.04398 24.8V28.8H11.572L12.0127 25.2996L8.04398 24.8ZM119.956 24.8L115.987 25.2996L116.428 28.8H119.956V24.8ZM120 24.8H124V20.8H120V24.8ZM124 29.8V25.5H116V29.8H124ZM124 30.4V29.8H116V30.4H124ZM124 31V30.4H116V31H124ZM124 35.4V31H116V35.4H124ZM124 36V35.4H116V36H124ZM117 40H120V32H117V40ZM115 40H117V32H115V40ZM112 40H115V32H112V40ZM108.804 40H112V32H108.804V40ZM19.1959 40H108.804V32H19.1959V40ZM16 40H19.1959V32H16V40ZM13 40H16V32H13V40ZM11 40H13V32H11V40ZM8 40H11V32H8V40ZM4 35.4V36H12V35.4H4ZM4 31V35.4H12V31H4ZM4 30.4V31H12V30.4H4ZM4 29.8V30.4H12V29.8H4ZM4 25.5V29.8H12V25.5H4ZM4 24.8V25.5H12V24.8H4ZM8.04398 20.8H8V28.8H8.04398V20.8ZM64 4C48.625 4 34.5252 5.89548 23.9929 9.06722C18.7445 10.6477 14.19 12.6018 10.7815 14.9327C7.47244 17.1956 4.58118 20.2817 4.0753 24.3004L12.0127 25.2996C12.0947 24.648 12.7197 23.299 15.2973 21.5363C17.7756 19.8415 21.4782 18.1794 26.2997 16.7274C35.9069 13.8343 49.1972 12 64 12V4ZM123.925 24.3004C123.419 20.2817 120.528 17.1956 117.219 14.9327C113.81 12.6018 109.255 10.6477 104.007 9.06722C93.4748 5.89548 79.375 4 64 4V12C78.8028 12 92.0931 13.8343 101.7 16.7274C106.522 18.1794 110.224 19.8415 112.703 21.5363C115.28 23.299 115.905 24.648 115.987 25.2996L123.925 24.3004ZM120 20.8H119.956V28.8H120V20.8ZM124 25.5V24.8H116V25.5H124Z" fill="#193651" mask="url(#path-9-inside-1_391_3320)"/>
<rect x="44" y="59" width="4" height="57" fill="#193651"/>
<rect x="54" y="59" width="4" height="56" fill="#193651"/>
<rect x="80" y="59" width="4" height="56" fill="#193651"/>
<rect x="44" y="56" width="40" height="4" fill="#193651"/>
<rect x="32" y="40" width="64" height="4" fill="#193651"/>
<ellipse cx="64" cy="36" rx="20" ry="7" fill="#FDBF5E"/>
<ellipse cx="64" cy="36" rx="20" ry="7" stroke="#193651" stroke-width="4"/>
<rect x="60" y="81" width="4" height="7" fill="#6B4937"/>
</svg>
