<svg width="128" height="128" viewBox="0 0 128 128" fill="none" xmlns="http://www.w3.org/2000/svg">
<g clip-path="url(#clip0_391_3352)">
<path d="M79.8929 117.107V120.75H47.1071V109.821H79.8929V117.107Z" fill="#DEEBEB"/>
<path d="M83.5357 15.1071H43.4643C43.4643 11.0818 48.8739 7.82141 55.5404 7.82141H71.4597C78.1261 7.82141 83.5357 11.0818 83.5357 15.1071Z" fill="#FFFEF2"/>
<path d="M86.8871 29.6786H40.1129C40.9871 17.5843 43.4643 15.1071 43.4643 15.1071H83.5357C83.5357 15.1071 86.0129 17.5843 86.8871 29.6786Z" fill="#FFE1C7"/>
<path d="M87.1786 38.7857C87.1786 58.8214 79.8929 73.3928 79.8929 86.1428V109.821H47.1072V86.1428C47.1072 73.3928 39.8214 58.8214 39.8214 38.7857C39.8214 35.2703 39.9307 32.2468 40.1129 29.6786H86.8872C87.0693 32.2468 87.1786 35.2703 87.1786 38.7857Z" fill="#FDBF5E"/>
<path d="M47.1071 120.75H79.8929V109.821H47.1071V120.75Z" fill="#F5FFFF"/>
<path d="M83.5357 38.7857V38.7001C83.5271 37.7508 83.1428 36.8436 82.4669 36.177C81.791 35.5103 80.8786 35.1385 79.9293 35.1429H79.8546C79.38 35.1438 78.9102 35.2383 78.4721 35.4209C78.034 35.6036 77.6362 35.8708 77.3015 36.2072C76.9667 36.5437 76.7015 36.9428 76.5211 37.3818C76.3407 37.8208 76.2486 38.2911 76.25 38.7657V38.7857C76.25 53.3572 68.9643 71.5714 68.9643 86.1429V95.25C68.9643 96.2162 69.3481 97.1427 70.0313 97.8259C70.7144 98.5091 71.641 98.8929 72.6072 98.8929C73.5733 98.8929 74.4999 98.5091 75.183 97.8259C75.8662 97.1427 76.25 96.2162 76.25 95.25V86.1429C76.25 71.5714 83.5357 53.3572 83.5357 38.7857Z" fill="#FFFEF2"/>
<path d="M71.4578 6H55.5422C48.0925 6 42.2002 9.65743 41.6993 14.4405C40.5117 16.2164 38 21.9575 38 38.7857C38.2287 48.7282 39.6742 58.6052 42.304 68.1963C43.9739 74.0464 44.9742 80.0671 45.2857 86.1429V120.75C45.2857 121.233 45.4776 121.696 45.8192 122.038C46.1608 122.38 46.6241 122.571 47.1071 122.571H79.8929C80.3759 122.571 80.8392 122.38 81.1808 122.038C81.5224 121.696 81.7143 121.233 81.7143 120.75V100.714H78.0714V108H48.9286V86.1429C48.6164 79.7832 47.5831 73.4795 45.8485 67.353C43.2911 58.0368 41.8788 48.4437 41.6429 38.7857C41.6429 36.0536 41.7139 33.6347 41.825 31.5H50.4085V27.8571H42.1055C42.2611 24.1075 43.0544 20.4117 44.4515 16.9286H82.5339C83.9429 20.4091 84.7438 24.1056 84.9018 27.8571H48.9286V31.5H85.175C85.2934 33.6347 85.3571 36.0536 85.3571 38.7857C85.1212 48.4437 83.7089 58.0368 81.1515 67.353C79.4169 73.4795 78.3836 79.7832 78.0714 86.1429V100.714H81.7143V86.1429C82.0258 80.0671 83.0261 74.0464 84.696 68.1963C87.3258 58.6052 88.7713 48.7282 89 38.7857C89 21.9575 86.4882 16.2164 85.308 14.4405C84.7998 9.65743 78.9075 6 71.4578 6ZM78.0714 118.929H48.9286V111.643H78.0714V118.929ZM55.5422 9.64286H71.4578C76.0861 9.64286 79.6215 11.3331 81.0331 13.2857H45.9669C47.3785 11.3331 50.9139 9.64286 55.5422 9.64286Z" fill="#3D4C67"/>
<path d="M76.25 36.9643H79.8929V40.6071H76.25V36.9643ZM76.25 44.25H79.8929V47.8928H76.25V44.25Z" fill="#3D4C67"/>
<path d="M99.7412 94.8635C99.7317 94.8457 97.6346 98.8333 94.7952 102.644C92.0534 106.504 88.5691 110.187 88.0341 110.684C87.002 111.727 85.8258 113.025 86.6683 114.294C87.5138 115.567 89.0112 114.554 90.1664 113.528C90.7542 113.04 94.752 109.547 98.0577 105.726C101.451 101.977 104.152 97.9007 104.156 97.9182L101.948 96.3909C100.781 95.5835 99.7413 94.8636 99.7412 94.8635Z" fill="#A56F42"/>
<path d="M95.5185 96.9117C93.9581 99.3317 94.0457 100.981 96.8827 103.628C99.6978 106.26 101.414 106.012 103.484 103.303C103.728 102.544 107.065 98.557 110.06 92.1779C113.14 85.8609 115.88 77.1513 116.897 68.3772C118 59.6156 117.382 50.7888 115.724 44.5184C114.153 38.211 111.542 34.4603 110.656 34.9914C109.251 35.5174 109.839 39.8294 109.894 45.9018C110.028 51.9728 109.63 59.8042 108.064 67.343C106.569 74.8985 103.907 82.1619 101.162 87.4838C98.4823 92.8406 95.7202 96.2557 95.5185 96.9117Z" fill="#A56F42"/>
<path d="M107.84 95.1641C110.137 94.4653 114.485 93.7456 114.839 95.2825C115.278 96.9347 110.298 103.371 105.959 104.943C101.613 106.646 97.3219 105.183 97.4533 103.553C97.5459 102.297 99.4099 100.348 101.022 98.9606C102.71 97.5451 105.451 95.9553 107.84 95.1641L107.84 95.1641Z" fill="#D89D56"/>
<path d="M112.297 84.7311C114.322 83.773 118.242 82.5219 118.773 83.8413C119.389 85.2514 115.698 91.6579 111.961 93.6905C108.227 95.8382 104.068 95.2111 103.936 93.7462C103.828 92.6196 105.253 90.6008 106.54 89.122C107.891 87.607 110.199 85.7818 112.297 84.7311Z" fill="#D89D56"/>
<path d="M115.021 74.8505C116.767 73.72 120.222 72.0957 120.864 73.2028C121.587 74.3799 118.984 80.5418 115.838 82.8603C112.701 85.2779 108.81 85.333 108.49 84.0516C108.239 83.0674 109.28 81.0628 110.275 79.5621C111.322 78.0194 113.219 76.0692 115.021 74.8505Z" fill="#D89D56"/>
<path d="M116.358 65.7475C117.83 64.5235 120.813 62.6706 121.512 63.5789C122.284 64.5407 120.573 70.3017 117.985 72.7552C115.411 75.2926 111.878 75.8726 111.434 74.7778C111.088 73.9373 111.804 72.0132 112.544 70.5463C113.325 69.0344 114.843 67.0541 116.358 65.7475Z" fill="#D89D56"/>
<path d="M116.631 57.5723C117.845 56.3234 120.371 54.3704 121.081 55.0994C121.857 55.8685 120.85 61.1208 118.772 63.5815C116.709 66.1136 113.591 67.0633 113.075 66.1489C112.675 65.4474 113.124 63.6522 113.648 62.2631C114.204 60.8293 115.385 58.8963 116.631 57.5723Z" fill="#D89D56"/>
<path d="M116.138 50.4116C117.118 49.1952 119.215 47.2526 119.902 47.8257C120.645 48.4281 120.167 53.1009 118.54 55.4636C116.929 57.8859 114.247 59.0635 113.704 58.3164C113.285 57.7429 113.524 56.1137 113.872 54.8359C114.243 53.5144 115.135 51.6945 116.138 50.4116Z" fill="#D89D56"/>
<path d="M115.145 44.3101C115.918 43.1748 117.625 41.3347 118.261 41.7755C118.943 42.2377 118.837 46.2883 117.598 48.4693C116.372 50.6982 114.127 51.9769 113.593 51.3795C113.182 50.9214 113.265 49.4823 113.477 48.3412C113.703 47.1597 114.355 45.5025 115.145 44.3102L115.145 44.3101Z" fill="#D89D56"/>
<path d="M113.885 39.2802C114.48 38.2645 115.84 36.6028 116.403 36.9342C117.005 37.2805 117.133 40.6899 116.216 42.6224C115.31 44.5929 113.485 45.8614 112.99 45.3957C112.609 45.0388 112.587 43.8065 112.697 42.8201C112.818 41.7981 113.277 40.3428 113.885 39.2802ZM100.163 90.5613C99.5252 88.2671 97.2072 84.8139 95.9329 85.1409C94.6757 85.4802 93.1685 90.7884 93.3178 94.8791C93.5801 98.9906 95.3653 103.381 96.8561 103.009C97.9928 102.723 99.4034 100.28 100.049 98.2253C100.755 96.086 100.875 92.8799 100.163 90.5613Z" fill="#D89D56"/>
<path d="M104.585 81.7347C103.689 79.7692 101.107 76.978 99.9669 77.4658C98.8388 77.9662 98.1176 83.0276 98.8449 86.6651C99.6699 90.311 101.993 93.9173 103.304 93.3564C104.304 92.9273 105.235 90.5445 105.537 88.6146C105.879 86.6025 105.549 83.7163 104.585 81.7347Z" fill="#D89D56"/>
<path d="M107.578 73.2094C106.522 71.5639 103.836 69.373 102.841 69.9729C101.854 70.586 101.764 75.3094 102.895 78.4699C104.11 81.631 106.732 84.4871 107.858 83.7976C108.717 83.27 109.255 81.0178 109.29 79.2511C109.348 77.4066 108.695 74.8657 107.578 73.2094Z" fill="#D89D56"/>
<path d="M109.402 65.1941C108.269 63.8448 105.603 62.1788 104.755 62.8459C103.913 63.5273 104.309 67.852 105.695 70.5407C107.153 73.2266 109.885 75.4019 110.829 74.6374C111.548 74.0525 111.776 71.9792 111.612 70.3965C111.458 68.7432 110.591 66.5494 109.402 65.1941Z" fill="#D89D56"/>
<path d="M110.31 57.8404C109.165 56.7572 106.616 55.5308 105.91 56.2254C105.209 56.9351 105.955 60.8233 107.473 63.0672C109.051 65.3061 111.745 66.8912 112.514 66.0985C113.101 65.4921 113.095 63.6283 112.793 62.2388C112.492 60.7868 111.505 58.9273 110.31 57.8403L110.31 57.8404Z" fill="#D89D56"/>
<path d="M110.541 51.2497C109.437 50.3971 107.078 49.5271 106.504 50.214C105.932 50.9161 106.905 54.3494 108.451 56.1869C110.047 58.019 112.59 59.1129 113.201 58.3329C113.668 57.7357 113.496 56.0978 113.11 54.902C112.718 53.652 111.688 52.1044 110.541 51.2497Z" fill="#D89D56"/>
<path d="M110.316 45.4893C109.295 44.8318 107.179 44.2385 106.723 44.8879C106.268 45.5526 107.353 48.5252 108.844 49.9999C110.375 51.4711 112.683 52.1764 113.156 51.441C113.516 50.8785 113.24 49.4731 112.816 48.4653C112.382 47.4122 111.375 46.1481 110.316 45.4892L110.316 45.4893Z" fill="#D89D56"/>
<path d="M109.838 40.6004C108.93 40.1043 107.096 39.7156 106.742 40.3031C106.389 40.9055 107.487 43.4179 108.854 44.5761C110.252 45.7324 112.268 46.145 112.621 45.4825C112.89 44.9755 112.564 43.8019 112.142 42.9738C111.708 42.1079 110.776 41.0987 109.838 40.6004Z" fill="#D89D56"/>
<path d="M27.8585 95.8635C27.868 95.8457 29.9651 99.8333 32.8045 103.644C35.5463 107.504 39.0306 111.187 39.5656 111.684C40.5977 112.727 41.7739 114.025 40.9314 115.294C40.0859 116.567 38.5885 115.554 37.4333 114.528C36.8455 114.04 32.8477 110.547 29.542 106.726C26.1491 102.977 23.4482 98.9007 23.4439 98.9182L25.6512 97.3909C26.8183 96.5835 27.8584 95.8636 27.8585 95.8635Z" fill="#A56F42"/>
<path d="M32.0812 97.9117C33.6416 100.332 33.554 101.981 30.717 104.628C27.9019 107.26 26.1853 107.012 24.1155 104.303C23.8716 103.544 20.5351 99.557 17.54 93.1779C14.4593 86.8609 11.72 78.1513 10.7027 69.3772C9.59931 60.6156 10.218 51.7888 11.8757 45.5184C13.447 39.211 16.0576 35.4603 16.9435 35.9914C18.3491 36.5174 17.761 40.8294 17.7054 46.9018C17.5715 52.9728 17.9699 60.8042 19.5362 68.343C21.0306 75.8985 23.693 83.1619 26.4376 88.4838C29.1174 93.8406 31.8795 97.2557 32.0812 97.9117Z" fill="#A56F42"/>
<path d="M19.7602 96.1641C17.4625 95.4653 13.1143 94.7456 12.7608 96.2825C12.3218 97.9347 17.3014 104.371 21.6409 105.943C25.9867 107.646 30.2778 106.183 30.1464 104.553C30.0538 103.297 28.1899 101.348 26.5775 99.9606C24.8899 98.5451 22.1491 96.9553 19.76 96.1641L19.7602 96.1641Z" fill="#D89D56"/>
<path d="M15.3028 85.7311C13.2773 84.773 9.35751 83.5219 8.8264 84.8413C8.2112 86.2514 11.9014 92.6579 15.639 94.6905C19.3729 96.8382 23.5321 96.2111 23.6637 94.7462C23.7714 93.6196 22.3472 91.6008 21.0598 90.122C19.709 88.607 17.4011 86.7818 15.3028 85.7311Z" fill="#D89D56"/>
<path d="M12.5786 75.8505C10.833 74.72 7.37751 73.0957 6.73525 74.2028C6.01304 75.3799 8.61528 81.5418 11.7621 83.8603C14.8984 86.2779 18.7898 86.333 19.1096 85.0516C19.3606 84.0674 18.3198 82.0628 17.3245 80.5621C16.2775 79.0194 14.3808 77.0692 12.5786 75.8505Z" fill="#D89D56"/>
<path d="M11.2418 66.7475C9.76997 65.5235 6.78649 63.6706 6.088 64.5789C5.31597 65.5407 7.0266 71.3017 9.61512 73.7552C12.1889 76.2926 15.7212 76.8726 16.1659 75.7778C16.5116 74.9373 15.7959 73.0132 15.0557 71.5463C14.2745 70.0344 12.7566 68.0541 11.2418 66.7475Z" fill="#D89D56"/>
<path d="M10.9684 58.5723C9.75471 57.3234 7.22905 55.3704 6.51836 56.0994C5.74278 56.8685 6.74953 62.1208 8.8279 64.5815C10.8904 67.1136 14.0088 68.0633 14.5252 67.1489C14.9247 66.4474 14.4756 64.6522 13.9514 63.2631C13.3961 61.8293 12.2145 59.8963 10.9684 58.5723Z" fill="#D89D56"/>
<path d="M11.4615 51.4116C10.4821 50.1952 8.38459 48.2526 7.69796 48.8257C6.95477 49.4281 7.43248 54.1009 9.05924 56.4636C10.6709 58.8859 13.3525 60.0635 13.8959 59.3164C14.315 58.7429 14.0758 57.1137 13.7276 55.8359C13.3567 54.5144 12.465 52.6945 11.4615 51.4116Z" fill="#D89D56"/>
<path d="M12.4547 45.3101C11.6819 44.1748 9.97478 42.3347 9.33895 42.7755C8.65637 43.2377 8.7623 47.2883 10.0015 49.4693C11.2278 51.6982 13.4728 52.9769 14.0067 52.3795C14.418 51.9214 14.3342 50.4823 14.1231 49.3412C13.8965 48.1597 13.245 46.5025 12.4546 45.3102L12.4547 45.3101Z" fill="#D89D56"/>
<path d="M13.7146 40.2802C13.1194 39.2645 11.7597 37.6028 11.1963 37.9342C10.5951 38.2805 10.467 41.6899 11.3835 43.6224C12.2901 45.5929 14.1148 46.8614 14.6101 46.3957C14.9911 46.0388 15.0131 44.8065 14.9025 43.8201C14.7819 42.7981 14.3229 41.3428 13.7146 40.2802ZM27.4362 91.5613C28.0745 89.2671 30.3925 85.8139 31.6668 86.1409C32.924 86.4802 34.4312 91.7884 34.2819 95.8791C34.0196 99.9906 32.2344 104.381 30.7436 104.009C29.6069 103.723 28.1963 101.28 27.5506 99.2253C26.8451 97.086 26.7247 93.8799 27.4362 91.5613Z" fill="#D89D56"/>
<path d="M23.0144 82.7347C23.9111 80.7692 26.4924 77.978 27.6328 78.4658C28.7609 78.9662 29.4821 84.0276 28.7548 87.6651C27.9298 91.311 25.607 94.9173 24.2954 94.3564C23.2953 93.9273 22.365 91.5445 22.0624 89.6146C21.7208 87.6025 22.0506 84.7163 23.0144 82.7347Z" fill="#D89D56"/>
<path d="M20.0216 74.2094C21.0778 72.5639 23.7638 70.373 24.759 70.9729C25.7455 71.586 25.8359 76.3094 24.7048 79.4699C23.4899 82.631 20.8674 85.4871 19.7412 84.7976C18.8825 84.27 18.3444 82.0178 18.3094 80.2511C18.2512 78.4066 18.9046 75.8657 20.0216 74.2094Z" fill="#D89D56"/>
<path d="M18.1972 66.1941C19.331 64.8448 21.9969 63.1788 22.8448 63.8459C23.6865 64.5273 23.291 68.852 21.9045 71.5407C20.4466 74.2266 17.7143 76.4019 16.7711 75.6374C16.0519 75.0525 15.824 72.9792 15.9879 71.3965C16.1413 69.7432 17.0088 67.5494 18.1972 66.1941Z" fill="#D89D56"/>
<path d="M17.2893 58.8404C18.4347 57.7572 20.9833 56.5308 21.6893 57.2254C22.3911 57.9351 21.6448 61.8233 20.1268 64.0672C18.5489 66.3061 15.855 67.8912 15.0853 67.0985C14.4986 66.4921 14.5048 64.6283 14.8065 63.2388C15.1073 61.7868 16.095 59.9273 17.2893 58.8403L17.2893 58.8404Z" fill="#D89D56"/>
<path d="M17.0587 52.2497C18.1627 51.3971 20.5216 50.5271 21.0959 51.214C21.6672 51.9161 20.695 55.3494 19.1484 57.1869C17.5526 59.019 15.0097 60.1129 14.3984 59.3329C13.9321 58.7357 14.1041 57.0978 14.4898 55.902C14.8816 54.652 15.9115 53.1044 17.0587 52.2497Z" fill="#D89D56"/>
<path d="M17.2834 46.4893C18.305 45.8318 20.4207 45.2385 20.8769 45.8879C21.3314 46.5526 20.2462 49.5252 18.7555 50.9999C17.2244 52.4711 14.9163 53.1764 14.4442 52.441C14.0841 51.8785 14.36 50.4731 14.7836 49.4653C15.2173 48.4122 16.2244 47.1481 17.2834 46.4892L17.2834 46.4893Z" fill="#D89D56"/>
<path d="M17.762 41.6004C18.6692 41.1043 20.5038 40.7156 20.8572 41.3031C21.2104 41.9055 20.113 44.4179 18.7462 45.5761C17.3478 46.7324 15.3318 47.145 14.9787 46.4825C14.71 45.9755 15.0353 44.8019 15.4576 43.9738C15.892 43.1079 16.8233 42.0987 17.762 41.6004Z" fill="#D89D56"/>
</g>
<defs>
<clipPath id="clip0_391_3352">
<rect width="128" height="128" fill="white"/>
</clipPath>
</defs>
</svg>
