<svg width="128" height="128" viewBox="0 0 128 128" fill="none" xmlns="http://www.w3.org/2000/svg">
<path d="M83.2 111.709L54.6909 75.8304V36.2667H33.9394V75.8304L5.43029 111.709C1.5515 116.752 5.04241 124.121 11.4424 124.121H77.1879C83.5879 124.121 87.0788 116.752 83.2 111.709Z" fill="white"/>
<path d="M77.1879 126.061H11.4424C7.75757 126.061 4.4606 123.927 2.90908 120.63C1.35757 117.333 1.55151 113.455 3.87878 110.546L32 75.2486V36.2668C32 35.1032 32.7758 34.3274 33.9394 34.3274H54.6909C55.8545 34.3274 56.6303 35.1032 56.6303 36.2668V75.2486L84.7515 110.546C87.0788 113.455 87.4667 117.333 85.9151 120.63C84.1697 123.927 80.8727 126.061 77.1879 126.061ZM35.8788 38.2062V75.8304C35.8788 76.2183 35.6848 76.6062 35.4909 76.9941L6.98181 113.067C5.62424 114.812 5.4303 117.14 6.39999 119.079C7.36969 121.018 9.30908 122.376 11.4424 122.376H77.1879C79.3212 122.376 81.2606 121.212 82.2303 119.079C83.2 117.14 83.0061 114.812 81.6485 113.067L53.1394 76.9941C52.9454 76.6062 52.7515 76.2183 52.7515 75.8304V38.2062H35.8788Z" fill="#193651"/>
<path d="M34.9091 87.0789L11.6364 116.364H76.9939L53.7212 87.0789H34.9091Z" fill="#2EA2DB"/>
<path d="M31.6121 27.7334H57.0182V36.2667H31.6121V27.7334Z" fill="white"/>
<path d="M57.0182 38.2061H31.6121C30.4485 38.2061 29.6727 37.4303 29.6727 36.2667V27.7333C29.6727 26.5697 30.4485 25.7939 31.6121 25.7939H57.0182C58.1818 25.7939 58.9576 26.5697 58.9576 27.7333V36.2667C58.9576 37.2364 58.1818 38.2061 57.0182 38.2061ZM33.5515 34.3273H55.0788V29.6727H33.5515V34.3273Z" fill="#193651"/>
<path d="M45.9636 64C47.4632 64 48.6788 62.7844 48.6788 61.2849C48.6788 59.7853 47.4632 58.5697 45.9636 58.5697C44.4641 58.5697 43.2485 59.7853 43.2485 61.2849C43.2485 62.7844 44.4641 64 45.9636 64Z" fill="#2EA2DB"/>
<path d="M42.4727 51.2001C43.9723 51.2001 45.1879 49.9845 45.1879 48.4849C45.1879 46.9854 43.9723 45.7698 42.4727 45.7698C40.9732 45.7698 39.7576 46.9854 39.7576 48.4849C39.7576 49.9845 40.9732 51.2001 42.4727 51.2001Z" fill="#2EA2DB"/>
<path d="M43.6364 81.0667C45.4572 81.0667 46.9333 79.5906 46.9333 77.7697C46.9333 75.9489 45.4572 74.4728 43.6364 74.4728C41.8155 74.4728 40.3394 75.9489 40.3394 77.7697C40.3394 79.5906 41.8155 81.0667 43.6364 81.0667Z" fill="#2EA2DB"/>
<path d="M112.291 50.8122C114.754 50.8122 116.752 48.8151 116.752 46.3516C116.752 43.8881 114.754 41.891 112.291 41.891C109.827 41.891 107.83 43.8881 107.83 46.3516C107.83 48.8151 109.827 50.8122 112.291 50.8122Z" fill="white"/>
<path d="M112.291 52.7515C108.8 52.7515 105.891 49.8424 105.891 46.3515C105.891 42.8606 108.8 39.9515 112.291 39.9515C115.782 39.9515 118.691 42.8606 118.691 46.3515C118.691 49.8424 115.782 52.7515 112.291 52.7515ZM112.291 43.6364C110.933 43.6364 109.77 44.8 109.77 46.1576C109.77 47.5152 110.933 48.6788 112.291 48.6788C113.648 48.6788 114.812 47.5152 114.812 46.1576C114.812 44.8 113.648 43.6364 112.291 43.6364Z" fill="#193651"/>
<path d="M86.497 45.188C90.1387 45.188 93.0909 42.2358 93.0909 38.5941C93.0909 34.9523 90.1387 32.0001 86.497 32.0001C82.8552 32.0001 79.903 34.9523 79.903 38.5941C79.903 42.2358 82.8552 45.188 86.497 45.188Z" fill="white"/>
<path d="M86.497 47.1273C81.8424 47.1273 77.9636 43.2485 77.9636 38.594C77.9636 33.9395 81.8424 30.0607 86.497 30.0607C91.1515 30.0607 95.0303 33.9395 95.0303 38.594C95.0303 43.2485 91.1515 47.1273 86.497 47.1273ZM86.497 33.9395C83.9757 33.9395 81.8424 36.0728 81.8424 38.594C81.8424 41.1152 83.9757 43.2485 86.497 43.2485C89.0182 43.2485 91.1515 41.1152 91.1515 38.594C91.1515 36.0728 89.0182 33.9395 86.497 33.9395Z" fill="#193651"/>
<path d="M96.9697 19.3941C101.254 19.3941 104.727 15.9209 104.727 11.6365C104.727 7.35209 101.254 3.87891 96.9697 3.87891C92.6853 3.87891 89.2121 7.35209 89.2121 11.6365C89.2121 15.9209 92.6853 19.3941 96.9697 19.3941Z" fill="white"/>
<path d="M96.9697 21.3334C91.5394 21.3334 87.2727 17.0667 87.2727 11.6364C87.2727 6.20612 91.5394 1.93945 96.9697 1.93945C102.4 1.93945 106.667 6.20612 106.667 11.6364C106.667 17.0667 102.206 21.3334 96.9697 21.3334ZM96.9697 5.81824C93.6727 5.81824 91.1515 8.53339 91.1515 11.6364C91.1515 14.7395 93.8666 17.4546 96.9697 17.4546C100.267 17.4546 102.788 14.7395 102.788 11.6364C102.788 8.53339 100.073 5.81824 96.9697 5.81824Z" fill="#193651"/>
<path d="M29.6727 12.8001C32.1363 12.8001 34.1333 10.803 34.1333 8.33951C34.1333 5.87599 32.1363 3.87891 29.6727 3.87891C27.2092 3.87891 25.2121 5.87599 25.2121 8.33951C25.2121 10.803 27.2092 12.8001 29.6727 12.8001Z" fill="white"/>
<path d="M29.6727 14.7395C26.1818 14.7395 23.2727 11.8304 23.2727 8.33945C23.2727 4.84854 26.1818 1.93945 29.6727 1.93945C33.1636 1.93945 36.0727 4.84854 36.0727 8.33945C36.0727 11.8304 33.1636 14.7395 29.6727 14.7395ZM29.6727 5.81824C28.3151 5.81824 27.1515 6.98188 27.1515 8.33945C27.1515 9.69703 28.3151 10.8607 29.6727 10.8607C31.0303 10.8607 32.1939 9.69703 32.1939 8.33945C32.1939 6.98188 31.0303 5.81824 29.6727 5.81824Z" fill="#193651"/>
<path d="M46.9333 19.394C49.3969 19.394 51.3939 17.3969 51.3939 14.9334C51.3939 12.4699 49.3969 10.4728 46.9333 10.4728C44.4698 10.4728 42.4727 12.4699 42.4727 14.9334C42.4727 17.3969 44.4698 19.394 46.9333 19.394Z" fill="white"/>
<path d="M46.9333 21.3334C43.4424 21.3334 40.5333 18.4244 40.5333 14.9334C40.5333 11.4425 43.4424 8.53345 46.9333 8.53345C50.4242 8.53345 53.3333 11.4425 53.3333 14.9334C53.3333 18.4244 50.6182 21.3334 46.9333 21.3334ZM46.9333 12.4122C45.5758 12.4122 44.4121 13.5759 44.4121 14.9334C44.4121 16.291 45.5758 17.4547 46.9333 17.4547C48.2909 17.4547 49.4545 16.291 49.4545 14.9334C49.4545 13.5759 48.4848 12.4122 46.9333 12.4122Z" fill="#193651"/>
<path d="M119.855 85.9152C117.915 84.3637 115.2 84.3637 113.261 85.9152C109.964 88.4364 105.503 88.4364 102.206 85.9152C100.267 84.3637 97.5515 84.3637 95.6121 85.9152C92.3151 88.4364 87.8545 88.4364 84.5576 85.9152C82.6182 84.3637 79.903 84.3637 77.9636 85.9152C76.8 86.8849 75.2485 87.4667 73.503 87.8546V115.2C73.503 120.049 77.3818 124.121 82.4242 124.121H115.394C120.242 124.121 124.315 120.243 124.315 115.2V87.8546C122.57 87.6607 121.018 86.8849 119.855 85.9152Z" fill="#FDBF5E"/>
<path d="M84.5576 85.9152C87.8545 88.4364 92.3152 88.4364 95.6121 85.9152C97.5515 84.3636 100.267 84.3636 102.206 85.9152C105.503 88.4364 109.964 88.4364 113.261 85.9152C115.2 84.3636 117.915 84.3636 119.855 85.9152C121.018 86.8848 122.57 87.4667 124.315 87.8545V64H66.5212L73.503 71.7576V87.8545C75.2485 87.6606 76.6061 87.0788 77.9636 85.9152C79.903 84.3636 82.6182 84.3636 84.5576 85.9152Z" fill="white"/>
<path d="M100.622 87.6274C99.4507 86.6493 97.6938 86.6493 96.3273 87.6274C92.423 90.7575 86.5665 90.7575 82.8574 87.6274C81.6861 86.6493 79.9292 86.6493 78.5627 87.6274C77.001 88.8012 75.0488 89.5837 73.0967 89.975C71.9254 90.1706 70.9493 89.1924 70.9493 88.0187V72.564L64.5072 65.3257C63.9215 64.7388 63.9215 63.9563 64.1168 63.1738C64.5072 62.3913 65.0928 62 65.8737 62H124.048C125.219 62 126 62.7825 126 63.9563V88.0187C126 89.1924 125.024 90.1706 123.853 89.975C121.9 89.7793 119.948 88.9968 118.387 87.6274C117.215 86.6493 115.458 86.6493 114.092 87.6274C110.383 90.7575 104.722 90.7575 100.622 87.6274ZM103.16 84.4973C105.698 86.4536 109.407 86.4536 111.749 84.4973C114.482 82.3454 118.191 82.3454 120.924 84.4973C121.315 84.8886 121.705 85.0842 122.291 85.2799V65.9126H70.5589L74.6584 70.412C75.0488 70.8033 75.244 71.1946 75.244 71.7815V85.4755C75.6345 85.2799 76.2201 84.8886 76.6105 84.693C79.3435 82.541 83.0526 82.541 85.7857 84.693C88.3235 86.6493 92.0325 86.6493 94.3751 84.693C96.7177 82.3454 100.427 82.3454 103.16 84.4973Z" fill="#193651"/>
<path d="M114.922 126H81.8834C75.8587 126 71 121.163 71 115.165V87.8853C71 86.9179 71.7774 85.9505 72.7491 85.9505C74.1095 85.757 75.2756 85.3701 76.2473 84.5962C78.9682 82.4679 82.6608 82.4679 85.3816 84.5962C87.9081 86.5309 91.6007 86.5309 93.9329 84.5962C96.6537 82.4679 100.346 82.4679 103.067 84.5962C105.594 86.5309 109.286 86.5309 111.618 84.5962C114.339 82.4679 118.032 82.4679 120.753 84.5962C121.724 85.3701 122.89 85.9505 124.251 85.9505C125.223 86.144 126 86.9179 126 87.8853V115.359C125.611 121.163 120.753 126 114.922 126ZM74.8869 89.4331V115.359C74.8869 119.228 77.9965 122.324 81.8834 122.324H114.922C118.809 122.324 121.919 119.228 121.919 115.359V89.4331C120.558 89.0461 119.198 88.4657 118.226 87.4983C117.06 86.5309 115.311 86.5309 113.951 87.4983C110.064 90.5939 104.233 90.5939 100.541 87.4983C99.3746 86.5309 97.6254 86.5309 96.265 87.4983C92.3781 90.5939 86.5477 90.5939 82.8551 87.4983C81.689 86.5309 79.9399 86.5309 78.5795 87.4983C77.4134 88.2722 76.2474 89.0461 74.8869 89.4331Z" fill="#193651"/>
<path d="M116 94V113" stroke="white" stroke-width="4" stroke-linecap="round"/>
</svg>
