<svg width="128" height="128" viewBox="0 0 128 128" fill="none" xmlns="http://www.w3.org/2000/svg">
<g clip-path="url(#clip0_391_3402)">
<path d="M49.05 113.288C49.05 120.358 43.3184 126.09 36.2474 126.09C29.177 126.09 23.4453 120.358 23.4453 113.287C23.4453 106.216 29.177 100.485 36.2477 100.485C43.3184 100.485 49.05 106.217 49.05 113.288Z" fill="#2C3E50"/>
<path d="M40.515 113.288C40.515 115.644 38.6046 117.555 36.2477 117.555C33.8907 117.555 31.9803 115.645 31.9803 113.287C31.9803 110.93 33.8907 109.02 36.2477 109.02C38.6046 109.02 40.515 110.931 40.515 113.288Z" fill="#D1D4D1"/>
<path d="M113.063 113.288C113.063 120.358 107.331 126.09 100.261 126.09C93.1901 126.09 87.4584 120.358 87.4584 113.287C87.4584 106.216 93.1901 100.485 100.261 100.485C107.331 100.485 113.063 106.217 113.063 113.288H113.063Z" fill="#2C3E50"/>
<path d="M104.528 113.288C104.528 115.644 102.618 117.555 100.261 117.555C97.9038 117.555 95.9934 115.645 95.9934 113.287C95.9934 110.93 97.9038 109.02 100.261 109.02C102.618 109.02 104.528 110.931 104.528 113.288Z" fill="#D1D4D1"/>
<path d="M125.867 102.618H17.0435C12.3298 102.618 8.50847 98.7974 8.50847 94.0834V15.286C8.51195 14.1649 8.29289 13.0542 7.86401 12.0183C7.43513 10.9825 6.80494 10.042 6.00996 9.25151L0.598851 3.84015C0.214304 3.43694 0.00271628 2.89931 0.00930464 2.34216C0.015893 1.78502 0.240135 1.25254 0.634109 0.858538C1.02808 0.464532 1.56054 0.240245 2.11768 0.233611C2.67483 0.226976 3.21248 0.43852 3.61572 0.823033L9.02683 6.23414C10.2194 7.41992 11.1648 8.83054 11.8083 10.3843C12.4519 11.938 12.7807 13.604 12.7758 15.2857V94.0832C12.7758 96.4399 14.6862 98.3505 17.0432 98.3505H125.866C127.044 98.3505 128 99.3057 128 100.485C128 101.663 127.045 102.618 125.866 102.618L125.867 102.618Z" fill="#5E5F62"/>
<path d="M95.2334 28.5171H102.514V34.0274H95.2334V28.5171Z" fill="#AAD4EC"/>
<path d="M120.714 35.519C120.714 34.179 119.627 33.0923 118.287 33.0923H79.4595C78.1194 33.0923 77.0327 34.179 77.0327 35.5191V42.7992C77.0327 44.1393 78.1194 45.2259 79.4595 45.2259V45.9583H118.287V45.2259C119.627 45.2259 120.713 44.1393 120.713 42.7992L120.714 35.519Z" fill="#D9E7EC"/>
<path d="M78.2458 47.6533H119.5V82.8401H78.2458V47.6533Z" fill="#D9E7EC"/>
<path d="M103.727 29.4527V25.4775C103.727 24.9922 103.334 24.5986 102.848 24.5986H94.8987C94.4135 24.5986 94.0197 24.9924 94.0197 25.4775V29.4527H103.727Z" fill="#FDBF00"/>
<path d="M105.274 41.5862H92.472C91.9862 41.5862 91.5931 41.1925 91.5931 40.7073V37.6111C91.5931 37.1259 91.9862 36.7322 92.472 36.7322H105.274C105.76 36.7322 106.153 37.1259 106.153 37.6111V40.7073C106.153 41.1925 105.76 41.5862 105.274 41.5862ZM81.8862 47.6533V42.4651C81.8862 41.9798 82.2794 41.5862 82.7651 41.5862H85.8608C86.3459 41.5862 86.7397 41.9798 86.7397 42.4651V47.6527L81.8862 47.6533ZM111.007 47.6533V42.4651C111.007 41.9798 111.4 41.5862 111.886 41.5862H114.981C115.467 41.5862 115.86 41.9798 115.86 42.4651V47.6527L111.007 47.6533Z" fill="#87C5E8"/>
<path d="M77.0327 94.9744C77.0327 96.3144 78.1194 97.4011 79.4595 97.4011H118.287C119.627 97.4011 120.713 96.3144 120.713 94.9744V87.6942C120.713 86.3541 119.627 85.2675 118.287 85.2675V84.5351H79.4595V85.2675C78.1194 85.2675 77.0327 86.3541 77.0327 87.6942V94.9744Z" fill="#D9E7EC"/>
<path d="M115.861 82.8397V88.0285C115.861 88.5136 115.467 88.9074 114.982 88.9074H111.886C111.4 88.9074 111.007 88.5136 111.007 88.0285V82.8403L115.861 82.8397ZM86.7397 82.8403V88.0285C86.7397 88.5142 86.3465 88.9074 85.8608 88.9074H82.7651C82.2798 88.9074 81.8862 88.5142 81.8862 88.0285V82.8403H86.7397Z" fill="#87C5E8"/>
<path d="M120.707 50.0937C122.055 50.0937 123.148 49.0008 123.148 47.6527C123.148 46.3046 122.055 45.2117 120.707 45.2117H77.0396C75.6915 45.2117 74.5986 46.3044 74.5986 47.6527C74.5986 49.0008 75.6914 50.0937 77.0396 50.0937H120.707Z" fill="#AAD4EC"/>
<path d="M120.707 85.2813C122.055 85.2813 123.148 84.1884 123.148 82.8403C123.148 81.4922 122.055 80.3993 120.707 80.3993H77.0396C75.6915 80.3993 74.5986 81.4921 74.5986 82.8403C74.5986 84.1885 75.6914 85.2813 77.0396 85.2813H120.707ZM120.707 67.6946C122.055 67.6946 123.148 66.6018 123.148 65.2536C123.148 63.9059 122.055 62.8132 120.707 62.8132H77.0396C75.6915 62.8132 74.5986 63.9059 74.5986 65.2536C74.5986 66.6017 75.6914 67.6946 77.0396 67.6946H120.707Z" fill="#AAD4EC"/>
<path d="M91.5931 42.6849H106.153C106.445 42.6849 106.724 42.5691 106.93 42.3631C107.136 42.157 107.252 41.8776 107.252 41.5862V36.7328C107.252 36.1256 106.761 35.6341 106.153 35.6341H91.5931C91.4488 35.6341 91.3059 35.6624 91.1726 35.7176C91.0393 35.7728 90.9182 35.8537 90.8161 35.9558C90.7141 36.0578 90.6332 36.1789 90.578 36.3123C90.5228 36.4456 90.4944 36.5885 90.4945 36.7328V41.5862C90.4945 41.8776 90.6102 42.157 90.8163 42.3631C91.0223 42.5691 91.3017 42.6849 91.5931 42.6849ZM92.6917 37.8314H105.055V40.4876H92.6917V37.8314Z" fill="#193651"/>
<path d="M120.707 68.7932C122.658 68.7932 124.246 67.2053 124.246 65.2536C124.246 63.3024 122.658 61.7146 120.707 61.7146H120.599V51.1923H120.707C122.658 51.1923 124.246 49.6044 124.246 47.6533C124.246 45.9801 123.08 44.5759 121.517 44.208C121.712 43.7639 121.813 43.2842 121.812 42.7992V35.519C121.812 33.5753 120.231 31.9937 118.287 31.9937H103.612V30.5507H104.94C105.232 30.5507 105.511 30.435 105.717 30.2289C105.923 30.0229 106.039 29.7435 106.039 29.4521C106.039 29.1607 105.923 28.8813 105.717 28.6752C105.511 28.4692 105.232 28.3534 104.94 28.3534H104.826V24.5986C104.826 23.9922 104.334 23.5 103.727 23.5H94.0197C93.4133 23.5 92.9211 23.9922 92.9211 24.5986V28.354H92.8067C92.6624 28.354 92.5195 28.3824 92.3862 28.4375C92.2529 28.4927 92.1318 28.5737 92.0297 28.6757C91.9277 28.7777 91.8468 28.8988 91.7916 29.0322C91.7364 29.1655 91.708 29.3084 91.7081 29.4527C91.7081 29.744 91.8238 30.0235 92.0299 30.2295C92.2359 30.4355 92.5153 30.5513 92.8067 30.5513H94.1347V31.9937H79.4595C77.5157 31.9937 75.9341 33.5753 75.9341 35.5191V42.7992C75.9341 43.3005 76.04 43.7766 76.2288 44.208C74.6667 44.5761 73.5 45.9809 73.5 47.6533C73.5 49.605 75.0879 51.1929 77.0396 51.1929H77.1472V58.7111C77.1472 59.0025 77.419 58.294 77.625 58.5C77.831 58.706 78.3336 57.875 78.625 57.875C79.2322 57.875 79.3444 59.2507 79.3444 58.6435V51.1929H118.402V61.7146H79.3444V58.6435C79.3444 58.3521 79.2287 58.0727 79.0226 57.8667C78.8166 57.6606 78.5372 57.5449 78.2458 57.5449C77.9544 57.5449 77.675 57.6606 77.4689 57.8667C77.2629 58.0727 77.1472 58.3521 77.1472 58.6435V61.7146H77.0396C75.0879 61.7146 73.5 63.3024 73.5 65.2542C73.5 67.2059 75.0879 68.7938 77.0396 68.7938H77.1472V79.3007H77.0396C75.0879 79.3007 73.5 80.8885 73.5 82.8403C73.5 84.5128 74.6667 85.9175 76.2294 86.2849C76.0344 86.7293 75.9338 87.2094 75.9341 87.6948V94.975C75.9341 96.9187 77.5157 98.5003 79.4595 98.5003H118.287C120.231 98.5003 121.812 96.9187 121.812 94.975V87.6948C121.812 87.1935 121.707 86.717 121.518 86.2849C123.08 85.9175 124.246 84.5128 124.246 82.8403C124.246 80.8884 122.658 79.3007 120.707 79.3007H120.599V68.7938H120.707V68.7932ZM95.1184 25.6973H102.629V28.354H95.1184V25.6973ZM96.332 30.5513H101.415V31.9937H96.332V30.5513ZM78.1314 35.519C78.1314 34.7866 78.7271 34.1908 79.4595 34.1908H118.287C119.019 34.1908 119.615 34.7866 119.615 35.519V42.7991C119.615 43.4697 119.115 44.0241 118.468 44.1135H116.959V41.5861C116.959 40.9796 116.467 40.4874 115.86 40.4874H111.007C110.715 40.4874 110.436 40.6032 110.23 40.8092C110.024 41.0152 109.908 41.2947 109.908 41.5861V44.1135H87.8383V41.5861C87.8383 40.9796 87.3461 40.4874 86.7396 40.4874H81.8862C81.5948 40.4874 81.3154 40.6032 81.1093 40.8092C80.9033 41.0152 80.7876 41.2947 80.7876 41.5861V44.1135H79.2781C78.6315 44.0241 78.1314 43.4697 78.1314 42.7991V35.519ZM85.641 44.1135H82.9848V42.6847H85.641V44.1135ZM114.762 44.1135H112.105V42.6847H114.762V44.1135ZM75.6973 47.6533C75.6973 46.9128 76.2997 46.3109 77.0396 46.3109H79.1568C79.257 46.3188 79.3576 46.3245 79.4595 46.3245H118.287C118.389 46.3245 118.49 46.3194 118.589 46.3109H120.706C121.446 46.3109 122.049 46.9128 122.049 47.6533C122.049 48.393 121.446 48.9951 120.706 48.9951H119.669C119.613 48.9859 119.557 48.9811 119.5 48.9807C119.443 48.9807 119.387 48.9866 119.331 48.9951H78.4153C78.3592 48.9859 78.3026 48.9811 78.2458 48.9807C78.1887 48.9807 78.1325 48.9866 78.077 48.9951H77.0396C76.2999 48.9951 75.6973 48.393 75.6973 47.6533ZM75.6973 65.2536C75.6973 64.5139 76.2997 63.9118 77.0396 63.9118H120.707C121.446 63.9118 122.049 64.5139 122.049 65.2536C122.049 65.9941 121.446 66.596 120.707 66.596H77.0396C76.2999 66.596 75.6973 65.9939 75.6973 65.2536ZM119.615 94.9744C119.615 95.7068 119.019 96.3025 118.287 96.3025H79.4595C78.7271 96.3025 78.1314 95.7068 78.1314 94.9744V87.6942C78.1314 87.0224 78.6332 86.4668 79.2816 86.3799H80.7876V88.9074C80.7876 89.1987 80.9033 89.4782 81.1093 89.6842C81.3154 89.8902 81.5948 90.006 81.8862 90.006H86.7396C87.3461 90.006 87.8383 89.5138 87.8383 88.9074V86.3799H109.908V88.9074C109.908 89.5138 110.4 90.006 111.007 90.006H115.86C116.152 90.006 116.431 89.8902 116.637 89.6842C116.843 89.4782 116.959 89.1987 116.959 88.9074V86.3799H118.465C119.113 86.4668 119.615 87.0224 119.615 87.6942V94.9744ZM112.105 86.3799H114.762V87.8087H112.105V86.3799ZM82.9848 86.3799H85.641V87.8087H82.9848V86.3799ZM122.049 82.8403C122.049 83.58 121.446 84.1827 120.707 84.1827H118.583C118.484 84.1739 118.386 84.1695 118.287 84.1695H115.868C115.865 84.1695 115.863 84.1689 115.861 84.1689C115.858 84.1689 115.856 84.1695 115.854 84.1695H86.7471C86.7442 84.1695 86.7418 84.1689 86.7396 84.1689C86.7373 84.1689 86.7351 84.1695 86.7328 84.1695H79.4595C79.3599 84.1695 79.2621 84.174 79.1642 84.1827H77.0396C76.2999 84.1827 75.6973 83.58 75.6973 82.8403C75.6973 82.0998 76.2997 81.4979 77.0396 81.4979H78.0719C78.129 81.507 78.1869 81.5127 78.2458 81.5127C78.3054 81.5127 78.3631 81.507 78.4204 81.4979H119.327C119.383 81.507 119.441 81.5127 119.5 81.5127C119.56 81.5127 119.618 81.507 119.674 81.4979H120.707C121.446 81.4979 122.049 82.0998 122.049 82.8403ZM118.402 79.3007H79.3444V68.7934H118.402V79.3007Z" fill="#193651"/>
<path d="M40.9834 28.5171H48.2636V34.0274H40.9834V28.5171Z" fill="#AAD4EC"/>
<path d="M66.4636 35.519C66.4636 34.179 65.3775 33.0923 64.0368 33.0923H25.2095C23.8694 33.0923 22.7827 34.179 22.7827 35.5191V42.7992C22.7827 44.1393 23.8694 45.2259 25.2095 45.2259V45.9583H64.0368V45.2259C65.3775 45.2259 66.4635 44.1393 66.4635 42.7992L66.4636 35.519Z" fill="#D9E7EC"/>
<path d="M23.9958 47.6533H65.2505V82.8401H23.9958V47.6533Z" fill="#D9E7EC"/>
<path d="M49.4773 29.4527V25.4775C49.4773 24.9922 49.0835 24.5986 48.5984 24.5986H40.6487C40.1635 24.5986 39.7697 24.9924 39.7697 25.4775V29.4527H49.4773Z" fill="#FDBF00"/>
<path d="M51.0245 41.5862H38.222C37.7362 41.5862 37.3431 41.1925 37.3431 40.7073V37.6111C37.3431 37.1259 37.7362 36.7322 38.222 36.7322H51.0245C51.5102 36.7322 51.9034 37.1259 51.9034 37.6111V40.7073C51.9034 41.1925 51.5098 41.5862 51.0245 41.5862ZM27.6362 47.6533V42.4651C27.6362 41.9798 28.0294 41.5862 28.5151 41.5862H31.6108C32.0959 41.5862 32.4897 41.9798 32.4897 42.4651V47.6527L27.6362 47.6533ZM56.7569 47.6533V42.4651C56.7569 41.9798 57.1505 41.5862 57.6358 41.5862H60.7314C61.2172 41.5862 61.6103 41.9798 61.6103 42.4651V47.6527L56.7569 47.6533Z" fill="#87C5E8"/>
<path d="M22.7827 94.9744C22.7827 96.3144 23.8694 97.4011 25.2095 97.4011H64.0368C65.3775 97.4011 66.4635 96.3144 66.4635 94.9744V87.6942C66.4635 86.3541 65.3775 85.2675 64.0368 85.2675V84.5351H25.2095V85.2675C23.8694 85.2675 22.7827 86.3541 22.7827 87.6942V94.9744Z" fill="#D9E7EC"/>
<path d="M61.6109 82.8397V88.0285C61.6109 88.5136 61.2172 88.9074 60.732 88.9074H57.6358C57.1505 88.9074 56.7569 88.5136 56.7569 88.0285V82.8403L61.6109 82.8397ZM32.4897 82.8403V88.0285C32.4897 88.5142 32.0965 88.9074 31.6108 88.9074H28.5151C28.0298 88.9074 27.6362 88.5142 27.6362 88.0285V82.8403H32.4897Z" fill="#87C5E8"/>
<path d="M66.4567 50.0937C67.8048 50.0937 68.8978 49.0008 68.8978 47.6527C68.8978 46.3046 67.8048 45.2117 66.4567 45.2117H22.7896C21.4415 45.2117 20.3486 46.3044 20.3486 47.6527C20.3486 49.0008 21.4414 50.0937 22.7896 50.0937H66.4567Z" fill="#AAD4EC"/>
<path d="M66.4567 85.2813C67.8048 85.2813 68.8978 84.1884 68.8978 82.8403C68.8978 81.4922 67.8048 80.3993 66.4567 80.3993H22.7896C21.4415 80.3993 20.3486 81.4921 20.3486 82.8403C20.3486 84.1885 21.4414 85.2813 22.7896 85.2813H66.4567ZM66.4567 67.6946C67.8048 67.6946 68.8978 66.6018 68.8978 65.2536C68.8978 63.9059 67.8048 62.8132 66.4567 62.8132H22.7896C21.4415 62.8132 20.3486 63.9059 20.3486 65.2536C20.3486 66.6017 21.4414 67.6946 22.7896 67.6946H66.4567Z" fill="#AAD4EC"/>
<path d="M37.3431 42.6849H51.9034C52.1947 42.6849 52.4742 42.5691 52.6802 42.3631C52.8862 42.157 53.002 41.8776 53.002 41.5862V36.7328C53.002 36.1256 52.5105 35.6341 51.9034 35.6341H37.3431C37.1988 35.6341 37.0559 35.6624 36.9226 35.7176C36.7893 35.7728 36.6682 35.8537 36.5661 35.9558C36.4641 36.0578 36.3832 36.1789 36.328 36.3123C36.2728 36.4456 36.2444 36.5885 36.2445 36.7328V41.5862C36.2445 41.8776 36.3602 42.157 36.5663 42.3631C36.7723 42.5691 37.0517 42.6849 37.3431 42.6849ZM38.4417 37.8314H50.8047V40.4876H38.4417V37.8314Z" fill="#193651"/>
<path d="M66.4567 68.7932C68.4085 68.7932 69.9964 67.2053 69.9964 65.2536C69.9964 63.3024 68.4085 61.7146 66.4567 61.7146H66.3491V51.1923H66.4567C68.4085 51.1923 69.9964 49.6044 69.9964 47.6533C69.9964 45.9801 68.8296 44.5759 67.2674 44.208C67.4623 43.7639 67.5626 43.2842 67.5621 42.7992V35.519C67.5621 33.5753 65.9813 31.9937 64.0368 31.9937H49.3621V30.5507H50.6903C50.9816 30.5507 51.2611 30.435 51.4671 30.2289C51.6731 30.0229 51.7889 29.7435 51.7889 29.4521C51.7889 29.1607 51.6731 28.8813 51.4671 28.6752C51.2611 28.4692 50.9816 28.3534 50.6903 28.3534H50.5759V24.5986C50.5759 23.9922 50.0837 23.5 49.4772 23.5H39.7697C39.1633 23.5 38.6711 23.9922 38.6711 24.5986V28.354H38.5567C38.4124 28.354 38.2695 28.3824 38.1362 28.4375C38.0029 28.4927 37.8818 28.5737 37.7797 28.6757C37.6777 28.7777 37.5968 28.8988 37.5416 29.0322C37.4864 29.1655 37.458 29.3084 37.4581 29.4527C37.4581 29.744 37.5738 30.0235 37.7799 30.2295C37.9859 30.4355 38.2653 30.5513 38.5567 30.5513H39.8847V31.9937H25.2095C23.2657 31.9937 21.6841 33.5753 21.6841 35.5191V42.7992C21.6841 43.3005 21.79 43.7766 21.9788 44.208C20.4167 44.5761 19.25 45.9809 19.25 47.6533C19.25 49.605 20.8379 51.1929 22.7896 51.1929H22.8972V58.7111C22.8972 59.0025 23.169 58.294 23.375 58.5C23.581 58.706 24.0836 57.875 24.375 57.875C24.9822 57.875 25.0944 59.2507 25.0944 58.6435V51.1929H64.1518V61.7146H25.0944V58.6435C25.0944 58.3521 24.9787 58.0727 24.7726 57.8667C24.5666 57.6606 24.2872 57.5449 23.9958 57.5449C23.7044 57.5449 23.425 57.6606 23.2189 57.8667C23.0129 58.0727 22.8972 58.3521 22.8972 58.6435V61.7146H22.7896C20.8379 61.7146 19.25 63.3024 19.25 65.2542C19.25 67.2059 20.8379 68.7938 22.7896 68.7938H22.8972V79.3007H22.7896C20.8379 79.3007 19.25 80.8885 19.25 82.8403C19.25 84.5128 20.4167 85.9175 21.9794 86.2849C21.7844 86.7293 21.6838 87.2094 21.6841 87.6948V94.975C21.6841 96.9187 23.2657 98.5003 25.2095 98.5003H64.0368C65.9813 98.5003 67.5621 96.9187 67.5621 94.975V87.6948C67.5621 87.1935 67.4569 86.717 67.2675 86.2849C68.8296 85.9175 69.9964 84.5128 69.9964 82.8403C69.9964 80.8884 68.4085 79.3007 66.4567 79.3007H66.3491V68.7938H66.4567V68.7932ZM40.8684 25.6973H48.3786V28.354H40.8684V25.6973ZM42.082 30.5513H47.165V31.9937H42.082V30.5513ZM23.8814 35.519C23.8814 34.7866 24.4771 34.1908 25.2095 34.1908H64.0368C64.7693 34.1908 65.3649 34.7866 65.3649 35.519V42.7991C65.3649 43.4697 64.8648 44.0241 64.2182 44.1135H62.7088V41.5861C62.7088 40.9796 62.2166 40.4874 61.6102 40.4874H56.7567C56.4654 40.4874 56.1859 40.6032 55.9799 40.8092C55.7739 41.0152 55.6581 41.2947 55.6581 41.5861V44.1135H33.5883V41.5861C33.5883 40.9796 33.0961 40.4874 32.4896 40.4874H27.6362C27.3448 40.4874 27.0654 40.6032 26.8593 40.8092C26.6533 41.0152 26.5376 41.2947 26.5376 41.5861V44.1135H25.0281C24.3815 44.0241 23.8814 43.4697 23.8814 42.7991V35.519ZM31.391 44.1135H28.7348V42.6847H31.391V44.1135ZM60.5116 44.1135H57.8554V42.6847H60.5116V44.1135ZM21.4473 47.6533C21.4473 46.9128 22.0497 46.3109 22.7896 46.3109H24.9068C25.007 46.3188 25.1076 46.3245 25.2095 46.3245H64.0368C64.1386 46.3245 64.24 46.3194 64.3395 46.3109H66.4562C67.1965 46.3109 67.7985 46.9128 67.7985 47.6533C67.7985 48.393 67.1965 48.9951 66.4562 48.9951H65.4193C65.3633 48.9859 65.3066 48.9811 65.2499 48.9807C65.1927 48.9807 65.1366 48.9866 65.0811 48.9951H24.1653C24.1092 48.9859 24.0526 48.9811 23.9958 48.9807C23.9387 48.9807 23.8825 48.9866 23.827 48.9951H22.7896C22.0499 48.9951 21.4473 48.393 21.4473 47.6533ZM21.4473 65.2536C21.4473 64.5139 22.0497 63.9118 22.7896 63.9118H66.4567C67.1965 63.9118 67.7991 64.5139 67.7991 65.2536C67.7991 65.9941 67.1965 66.596 66.4567 66.596H22.7896C22.0499 66.596 21.4473 65.9939 21.4473 65.2536ZM65.365 94.9744C65.365 95.7068 64.7693 96.3025 64.0368 96.3025H25.2095C24.4771 96.3025 23.8814 95.7068 23.8814 94.9744V87.6942C23.8814 87.0224 24.3832 86.4668 25.0316 86.3799H26.5376V88.9074C26.5376 89.1987 26.6533 89.4782 26.8593 89.6842C27.0654 89.8902 27.3448 90.006 27.6362 90.006H32.4896C33.0961 90.006 33.5883 89.5138 33.5883 88.9074V86.3799H55.6581V88.9074C55.6581 89.5138 56.1503 90.006 56.7567 90.006H61.6102C61.9016 90.006 62.181 89.8902 62.387 89.6842C62.5931 89.4782 62.7088 89.1987 62.7088 88.9074V86.3799H64.2147C64.8631 86.4668 65.365 87.0224 65.365 87.6942V94.9744ZM57.8554 86.3799H60.5121V87.8087H57.8554V86.3799ZM28.7348 86.3799H31.391V87.8087H28.7348V86.3799ZM67.7991 82.8403C67.7991 83.58 67.1965 84.1827 66.4567 84.1827H64.3327C64.2343 84.1739 64.1356 84.1695 64.0368 84.1695H61.6175C61.6153 84.1695 61.6131 84.1689 61.6108 84.1689C61.6084 84.1689 61.6061 84.1695 61.6039 84.1695H32.4971C32.4942 84.1695 32.4918 84.1689 32.4896 84.1689C32.4873 84.1689 32.4851 84.1695 32.4828 84.1695H25.2095C25.1099 84.1695 25.0121 84.174 24.9142 84.1827H22.7896C22.0499 84.1827 21.4473 83.58 21.4473 82.8403C21.4473 82.0998 22.0497 81.4979 22.7896 81.4979H23.8219C23.879 81.507 23.9369 81.5127 23.9958 81.5127C24.0554 81.5127 24.1131 81.507 24.1704 81.4979H65.0766C65.1331 81.507 65.191 81.5127 65.2505 81.5127C65.3099 81.5127 65.3678 81.507 65.4245 81.4979H66.4567C67.1965 81.4979 67.7991 82.0998 67.7991 82.8403ZM64.1518 79.3007H25.0944V68.7934H64.1518V79.3007Z" fill="#193651"/>
</g>
<defs>
<clipPath id="clip0_391_3402">
<rect width="128" height="128" fill="white"/>
</clipPath>
</defs>
</svg>
