<svg width="113" height="109" viewBox="0 0 113 109" fill="none" xmlns="http://www.w3.org/2000/svg">
<path d="M106.792 56.2249H5.54179C5.27211 56.2268 5.00599 56.2866 4.76137 56.4001C4.51676 56.5137 4.29933 56.6784 4.12377 56.8831C3.9482 57.0878 3.81857 57.3278 3.74362 57.5868C3.66867 57.8459 3.65014 58.118 3.68929 58.3849L10.698 103.955C10.8964 105.286 11.5679 106.501 12.5893 107.377C13.6107 108.253 14.9136 108.731 16.2593 108.725H96.0743C97.4196 108.731 98.7221 108.252 99.7431 107.376C100.764 106.5 101.435 105.285 101.634 103.955L108.646 58.3849C108.685 58.1179 108.667 57.8456 108.592 57.5864C108.517 57.3272 108.387 57.0871 108.211 56.8824C108.035 56.6776 107.818 56.513 107.573 56.3996C107.328 56.2861 107.062 56.2266 106.792 56.2249Z" fill="#F3E8D4"/>
<path d="M56.1668 67.4749C55.0422 67.6298 54.0221 68.2162 53.3222 69.1099C52.6223 70.0037 52.2976 71.1347 52.4168 72.2636V94.6136C52.5481 100.932 59.7874 100.927 59.9168 94.6136V72.2636C60.036 71.1347 59.7113 70.0037 59.0114 69.1099C58.3115 68.2162 57.2914 67.6298 56.1668 67.4749ZM72.3612 66.9086C71.1254 66.8542 69.9176 67.2876 68.9983 68.1153C68.0791 68.943 67.5218 70.0989 67.4468 71.3336L66.3031 93.1155C66.2646 94.338 66.7067 95.5269 67.5345 96.4273C68.3623 97.3278 69.5099 97.868 70.7313 97.9323C71.9527 97.9965 73.1507 97.5797 74.0684 96.7711C74.9861 95.9625 75.5505 94.8265 75.6406 93.6067L76.7843 71.8211C76.8471 70.5836 76.4169 69.3717 75.5878 68.4509C74.7587 67.5301 73.5984 66.9755 72.3612 66.9086ZM40.0306 65.6055C37.9549 65.7517 36.3556 68.1424 36.4624 70.9305L37.3849 94.5442C37.7843 101.215 45.0462 100.681 44.9149 94.0117L43.9924 70.3999C43.8818 67.6099 42.0893 65.4705 40.0306 65.6055ZM89.3993 66.9499C88.1662 66.8482 86.9428 67.2373 85.9949 68.0325C85.047 68.8277 84.4512 69.9648 84.3368 71.1967L82.4356 92.928C82.3544 94.1482 82.7546 95.3517 83.5505 96.2802C84.3463 97.2088 85.4744 97.7885 86.6926 97.895C87.9109 98.0014 89.1225 97.6262 90.0673 96.8498C91.0122 96.0734 91.6151 94.9576 91.7468 93.7417L93.6481 72.0105C93.7536 70.7764 93.3657 69.5508 92.5694 68.6023C91.773 67.6537 90.633 67.0595 89.3993 66.9499ZM22.9924 65.6186C21.714 65.81 20.5599 66.4904 19.7735 67.5164C18.9871 68.5424 18.63 69.8337 18.7774 71.118L20.6637 94.7111C21.3668 101.38 30.2937 100.486 29.9037 93.8261L28.0193 70.233C27.9943 69.5995 27.8442 68.9772 27.5777 68.402C27.3112 67.8268 26.9335 67.3099 26.4665 66.8812C25.9995 66.4525 25.4522 66.1204 24.8563 65.904C24.2604 65.6877 23.6276 65.5913 22.9943 65.6205L22.9924 65.6186Z" fill="#EEEEEE"/>
<path d="M103.042 41.2249H9.2918C-3.10195 41.6205 -3.09258 59.583 9.2918 59.9749H103.042C115.436 59.5792 115.426 41.6167 103.042 41.2249Z" fill="#CC8662"/>
<path d="M33.1756 3.88046L11.5906 44.4761C7.24055 53.1423 19.7881 59.8905 24.6124 51.4005L46.1974 10.8048C50.8231 2.40859 37.5237 -4.61891 33.1756 3.88046ZM100.743 44.4761L79.1581 3.88046C74.8099 -4.61891 61.5087 2.40859 66.1362 10.8048L87.7231 51.4005C92.5474 59.8905 105.095 53.1442 100.745 44.4761H100.743Z" fill="#FF6061"/>
<path d="M103.042 41.1986H99.0106L79.1543 3.8486C74.8043 -4.64516 61.5106 2.3861 66.1418 10.7861L82.3043 41.1986H30.0293L46.1918 10.7861C50.823 2.3861 37.5293 -4.64516 33.1793 3.8486L13.323 41.1986H9.2918C-0.810705 41.5192 -2.65946 53.5099 3.70242 58.1467C3.58804 58.278 10.7205 103.76 10.6999 103.93C10.8987 105.261 11.57 106.475 12.591 107.351C13.612 108.226 14.9143 108.705 16.2593 108.699H96.0743C97.4196 108.705 98.7221 108.226 99.7431 107.35C100.764 106.474 101.435 105.259 101.634 103.929C101.634 103.644 108.727 58.3905 108.631 58.1486C115.001 53.5155 113.131 41.5211 103.042 41.1986ZM69.4418 9.0236C67.173 4.8986 73.6981 1.42985 75.8543 5.6111L97.4356 46.2048C97.8881 47.0552 97.9843 48.0505 97.703 48.9718C97.4217 49.893 96.7859 50.6648 95.9355 51.1174C95.0852 51.5699 94.0899 51.6661 93.1686 51.3848C92.2474 51.1035 91.4756 50.4677 91.023 49.6174L69.4418 9.0236ZM36.4793 5.6111C38.6355 1.42985 45.1605 4.8986 42.8918 9.0236L21.3105 49.6174C21.0865 50.0384 20.7817 50.4112 20.4135 50.7145C20.0454 51.0177 19.6211 51.2455 19.165 51.3848C18.7088 51.524 18.2297 51.5721 17.7549 51.5262C17.2802 51.4804 16.8191 51.3414 16.398 51.1174C15.977 50.8933 15.6042 50.5885 15.3009 50.2203C14.9977 49.8522 14.7699 49.4279 14.6306 48.9718C14.3493 48.0505 14.4455 47.0552 14.898 46.2048L36.4793 5.6111ZM9.2918 44.9486H11.3918C7.73555 53.3861 19.8855 59.7049 24.6105 51.3799L28.023 44.9486H84.3105L87.7231 51.3799C92.4481 59.7049 104.598 53.3861 100.942 44.9486H103.042C104.534 44.9486 105.964 45.5412 107.019 46.5961C108.074 47.651 108.667 49.0818 108.667 50.5736C108.667 52.0654 108.074 53.4962 107.019 54.5511C105.964 55.606 104.534 56.1986 103.042 56.1986H9.2918C7.79995 56.1986 6.36921 55.606 5.31432 54.5511C4.25943 53.4962 3.66679 52.0654 3.66679 50.5736C3.66679 49.0818 4.25943 47.651 5.31432 46.5961C6.36921 45.5412 7.79995 44.9486 9.2918 44.9486ZM104.606 59.9486L97.9268 103.359C97.8606 103.802 97.6369 104.207 97.2967 104.499C96.9565 104.791 96.5226 104.95 96.0743 104.949H16.2593C15.8113 104.95 15.3776 104.791 15.0374 104.499C14.6973 104.208 14.4734 103.804 14.4068 103.36L7.72805 59.9486H104.606ZM61.7918 95.5736V69.3236C61.8931 62.0261 50.4387 62.0299 50.5418 69.3236V95.5736C50.5418 97.0654 51.1344 98.4962 52.1893 99.5511C53.2442 100.606 54.675 101.199 56.1668 101.199C57.6586 101.199 59.0894 100.606 60.1443 99.5511C61.1992 98.4962 61.7918 97.0654 61.7918 95.5736ZM54.2918 69.3236C54.2918 68.8263 54.4893 68.3494 54.841 67.9978C55.1926 67.6461 55.6695 67.4486 56.1668 67.4486C56.6641 67.4486 57.141 67.6461 57.4926 67.9978C57.8443 68.3494 58.0418 68.8263 58.0418 69.3236V95.5736C58.0418 96.0709 57.8443 96.5478 57.4926 96.8994C57.141 97.2511 56.6641 97.4486 56.1668 97.4486C55.6695 97.4486 55.1926 97.2511 54.841 96.8994C54.4893 96.5478 54.2918 96.0709 54.2918 95.5736V69.3236ZM76.4731 95.8511L77.8493 69.6386C78.3255 62.3599 66.9406 61.7617 66.6124 69.048L65.2381 95.2605C65.1597 96.7503 65.6765 98.2103 66.6746 99.3192C67.6727 100.428 69.0704 101.095 70.5602 101.173C72.0501 101.252 73.51 100.735 74.6189 99.7368C75.7278 98.7387 76.3947 97.341 76.4731 95.8511ZM70.3605 69.2449C70.4032 68.7611 70.6319 68.3128 70.9985 67.9943C71.3651 67.6758 71.8409 67.5119 72.3259 67.5372C72.8108 67.5625 73.267 67.7749 73.5985 68.1298C73.93 68.4847 74.1109 68.9543 74.1031 69.4398L72.7268 95.6524C72.6842 96.1363 72.4554 96.5849 72.0886 96.9035C71.7218 97.2221 71.2457 97.3859 70.7605 97.3604C70.2753 97.3349 69.819 97.122 69.4877 96.7667C69.1563 96.4113 68.9759 95.9413 68.9843 95.4555L70.3605 69.2449ZM46.998 95.2605L45.6199 69.0442C45.3124 61.758 33.903 62.358 34.383 69.6367L35.7593 95.8511C35.8376 97.3412 36.5047 98.7392 37.6137 99.7374C38.7228 100.736 40.1829 101.253 41.673 101.174C43.1632 101.096 44.5611 100.429 45.5594 99.3198C46.5577 98.2108 47.0745 96.7506 46.9962 95.2605H46.998ZM41.8737 69.243L43.2499 95.4555C43.2693 95.9479 43.094 96.4282 42.762 96.7924C42.4299 97.1566 41.9679 97.3754 41.4757 97.4015C40.9836 97.4276 40.501 97.2589 40.1323 96.932C39.7636 96.605 39.5384 96.146 39.5055 95.6542L38.1293 69.4417C38.1099 68.9493 38.2852 68.469 38.6173 68.1048C38.9493 67.7407 39.4113 67.5218 39.9035 67.4957C40.3956 67.4696 40.8782 67.6383 41.2469 67.9653C41.6156 68.2923 41.8408 68.7513 41.8737 69.243ZM92.5005 96.0161L94.788 69.8617C95.5324 62.5886 84.1043 61.6248 83.5831 68.883L81.2955 95.0355C81.196 96.5048 81.6767 97.9546 82.6343 99.0734C83.5919 100.192 84.9502 100.891 86.4173 101.019C87.8844 101.148 89.3433 100.696 90.4807 99.7601C91.6182 98.8246 92.3434 97.4804 92.5005 96.0161ZM87.318 69.2092C87.3616 68.7137 87.6001 68.2557 87.9813 67.9361C88.3625 67.6165 88.855 67.4613 89.3506 67.5049C89.8461 67.5484 90.3041 67.7869 90.6237 68.1681C90.9433 68.5493 91.0984 69.0418 91.0549 69.5373L88.7656 95.6898C88.7137 96.1785 88.4721 96.6273 88.0927 96.9396C87.7133 97.2519 87.2264 97.4028 86.7369 97.3598C86.2474 97.3168 85.7943 97.0833 85.4752 96.7096C85.1561 96.336 84.9964 95.852 85.0306 95.3617L87.318 69.2092ZM31.0887 95.0355L28.8012 68.883C28.2312 61.5817 16.8518 62.6336 17.5962 69.8636L19.8837 96.0161C20.0409 97.4804 20.7661 98.8246 21.9035 99.7601C23.0409 100.696 24.4998 101.148 25.9669 101.019C27.434 100.891 28.7923 100.192 29.7499 99.0734C30.7076 97.9546 31.1882 96.5048 31.0887 95.0355ZM25.0662 69.2092L27.3537 95.3617C27.3864 95.8513 27.2259 96.3342 26.9067 96.7068C26.5874 97.0794 26.1348 97.312 25.646 97.3547C25.1572 97.3974 24.6711 97.2468 24.2921 96.9352C23.9131 96.6236 23.6713 96.1758 23.6187 95.688L21.3312 69.5373C21.297 69.0471 21.4567 68.5631 21.7758 68.1894C22.095 67.8158 22.548 67.5823 23.0376 67.5393C23.5271 67.4963 24.0139 67.6472 24.3933 67.9595C24.7727 68.2718 25.0143 68.7206 25.0662 69.2092Z" fill="#193651"/>
</svg>
